<svg xmlns="http://www.w3.org/2000/svg" xmlns:xlink="http://www.w3.org/1999/xlink" contentStyleType="text/css" data-diagram-type="CLASS" height="1268px" preserveAspectRatio="none" style="width:1421px;height:1268px;background:#FFFFFF;" version="1.1" viewBox="0 0 1421 1268" width="1421px" zoomAndPan="magnify"><title>Application Error Re-export Pattern
Preventing Transitive Domain Access</title><defs/><g><g class="title" data-source-line="3"><text fill="#000000" font-family="Verdana" font-size="22" font-weight="bold" lengthAdjust="spacing" textLength="439.5703" x="486.5948" y="37.1182">Application Error Re-export Pattern</text><text fill="#000000" font-family="Verdana" font-size="22" font-weight="bold" lengthAdjust="spacing" textLength="458.9385" x="476.9108" y="63.8555">Preventing Transitive Domain Access</text></g><!--cluster Domain--><g class="cluster" data-entity="Domain" data-source-line="5" data-uid="ent0002" id="cluster_Domain"><path d="M570.26,85.4746 L679.842,85.4746 A3.75,3.75 0 0 1 682.342,87.9746 L689.342,108.4893 L857.26,108.4893 A2.5,2.5 0 0 1 859.76,110.9893 L859.76,281.0546 A2.5,2.5 0 0 1 857.26,283.5546 L570.26,283.5546 A2.5,2.5 0 0 1 567.76,281.0546 L567.76,87.9746 A2.5,2.5 0 0 1 570.26,85.4746" fill="#FFF9E6" style="stroke:#000000;stroke-width:1;"/><line style="stroke:#000000;stroke-width:1;" x1="567.76" x2="689.342" y1="108.4893" y2="108.4893"/><text fill="#000000" font-family="Verdana" font-size="14" font-weight="bold" lengthAdjust="spacing" textLength="108.582" x="571.76" y="101.5498">Domain Layer</text></g><!--cluster Application--><g class="cluster" data-entity="Application" data-source-line="17" data-uid="ent0004" id="cluster_Application"><path d="M378.26,432.3046 L516.0403,432.3046 A3.75,3.75 0 0 1 518.5403,434.8046 L525.5403,455.3193 L667.26,455.3193 A2.5,2.5 0 0 1 669.76,457.8193 L669.76,966.4646 A2.5,2.5 0 0 1 667.26,968.9646 L378.26,968.9646 A2.5,2.5 0 0 1 375.76,966.4646 L375.76,434.8046 A2.5,2.5 0 0 1 378.26,432.3046" fill="#E8F5E9" style="stroke:#000000;stroke-width:1;"/><line style="stroke:#000000;stroke-width:1;" x1="375.76" x2="525.5403" y1="455.3193" y2="455.3193"/><text fill="#000000" font-family="Verdana" font-size="14" font-weight="bold" lengthAdjust="spacing" textLength="136.7803" x="379.76" y="448.3798">Application Layer</text></g><!--cluster Presentation--><g class="cluster" data-entity="Presentation" data-source-line="37" data-uid="ent0007" id="cluster_Presentation"><path d="M121.26,110.9946 L271.2561,110.9946 A3.75,3.75 0 0 1 273.7561,113.4946 L280.7561,134.0093 L388.26,134.0093 A2.5,2.5 0 0 1 390.76,136.5093 L390.76,255.5346 A2.5,2.5 0 0 1 388.26,258.0346 L121.26,258.0346 A2.5,2.5 0 0 1 118.76,255.5346 L118.76,113.4946 A2.5,2.5 0 0 1 121.26,110.9946" fill="#FFE4E1" style="stroke:#000000;stroke-width:1;"/><line style="stroke:#000000;stroke-width:1;" x1="118.76" x2="280.7561" y1="134.0093" y2="134.0093"/><text fill="#000000" font-family="Verdana" font-size="14" font-weight="bold" lengthAdjust="spacing" textLength="148.9961" x="122.76" y="127.0698">Presentation Layer</text></g><!--cluster Infrastructure--><g class="cluster" data-entity="Infrastructure" data-source-line="46" data-uid="ent0009" id="cluster_Infrastructure"><path d="M696.26,440.8146 L857.9866,440.8146 A3.75,3.75 0 0 1 860.4866,443.3146 L867.4866,463.8293 L1021.26,463.8293 A2.5,2.5 0 0 1 1023.76,466.3293 L1023.76,619.3846 A2.5,2.5 0 0 1 1021.26,621.8846 L696.26,621.8846 A2.5,2.5 0 0 1 693.76,619.3846 L693.76,443.3146 A2.5,2.5 0 0 1 696.26,440.8146" fill="#E6F3FF" style="stroke:#000000;stroke-width:1;"/><line style="stroke:#000000;stroke-width:1;" x1="693.76" x2="867.4866" y1="463.8293" y2="463.8293"/><text fill="#000000" font-family="Verdana" font-size="14" font-weight="bold" lengthAdjust="spacing" textLength="160.7266" x="697.76" y="456.8898">Infrastructure Layer</text></g><!--class DomainError--><g class="entity" data-entity="DomainError" data-source-line="6" data-uid="ent0003" id="entity_DomainError"><rect fill="#FFFFFF" height="146.0879" rx="2.5" ry="2.5" style="stroke:#000000;stroke-width:1;" width="260.667" x="583.42" y="121.4746"/><ellipse cx="662.815" cy="135.4746" fill="#FFFFFF" rx="9" ry="9" style="stroke:#000000;stroke-width:1;"/><path d="M665.2882,141.6177 Q664.7071,141.9165 664.0679,142.0659 Q663.4288,142.2153 662.7232,142.2153 Q660.2164,142.2153 658.8966,140.5635 Q657.5767,138.9116 657.5767,135.7905 Q657.5767,132.6611 658.8966,131.0093 Q660.2164,129.3574 662.7232,129.3574 Q663.4288,129.3574 664.0763,129.5068 Q664.7237,129.6563 665.2882,129.9551 L665.2882,132.6777 Q664.6573,132.0967 664.0638,131.8269 Q663.4703,131.5571 662.8394,131.5571 Q661.4947,131.5571 660.8099,132.6238 Q660.1251,133.6904 660.1251,135.7905 Q660.1251,137.8823 660.8099,138.949 Q661.4947,140.0156 662.8394,140.0156 Q663.4703,140.0156 664.0638,139.7458 Q664.6573,139.4761 665.2882,138.895 Z " fill="#000000"/><text fill="#000000" font-family="Verdana" font-size="14" lengthAdjust="spacing" textLength="94.377" x="680.315" y="141.0425">Domain.Error</text><line style="stroke:#000000;stroke-width:1;" x1="584.42" x2="843.087" y1="149.4746" y2="149.4746"/><ellipse cx="594.42" cy="163.4819" fill="none" rx="3" ry="3" style="stroke:#000000;stroke-width:1;"/><text fill="#000000" font-family="Verdana" font-size="14" lengthAdjust="spacing" textLength="139.1523" x="601.42" y="167.5498">Error_Type : record</text><ellipse cx="594.42" cy="180.4966" fill="none" rx="3" ry="3" style="stroke:#000000;stroke-width:1;"/><text fill="#000000" font-family="Verdana" font-size="14" lengthAdjust="spacing" textLength="180.6123" x="601.42" y="184.5645">Error_Kind : enumeration</text><ellipse cx="594.42" cy="197.5112" fill="none" rx="3" ry="3" style="stroke:#000000;stroke-width:1;"/><text fill="#000000" font-family="Verdana" font-size="14" lengthAdjust="spacing" textLength="190.1279" x="601.42" y="201.5791">Validation_Error : constant</text><ellipse cx="594.42" cy="214.5259" fill="none" rx="3" ry="3" style="stroke:#000000;stroke-width:1;"/><text fill="#000000" font-family="Verdana" font-size="14" lengthAdjust="spacing" textLength="218.3057" x="601.42" y="218.5938">Infrastructure_Error : constant</text><ellipse cx="594.42" cy="231.5405" fill="none" rx="3" ry="3" style="stroke:#000000;stroke-width:1;"/><text fill="#000000" font-family="Verdana" font-size="14" lengthAdjust="spacing" textLength="236.667" x="601.42" y="235.6084">Generic_Result : generic package</text><line style="stroke:#000000;stroke-width:1;" x1="584.42" x2="843.087" y1="242.5479" y2="242.5479"/><text fill="#000000" font-family="Verdana" font-size="14" lengthAdjust="spacing" textLength="184.9258" x="589.42" y="260.623">Canonical error definitions</text></g><!--class AppError--><g class="entity" data-entity="AppError" data-source-line="18" data-uid="ent0005" id="entity_AppError"><rect fill="#FFFFFF" height="146.0879" rx="2.5" ry="2.5" style="stroke:#000000;stroke-width:1;" width="262.6123" x="391.45" y="468.3046"/><ellipse cx="460.2649" cy="482.3046" fill="#FFFFFF" rx="9" ry="9" style="stroke:#000000;stroke-width:1;"/><path d="M462.7381,488.4477 Q462.157,488.7465 461.5179,488.8959 Q460.8787,489.0453 460.1731,489.0453 Q457.6663,489.0453 456.3465,487.3935 Q455.0267,485.7416 455.0267,482.6205 Q455.0267,479.4911 456.3465,477.8393 Q457.6663,476.1874 460.1731,476.1874 Q460.8787,476.1874 461.5262,476.3368 Q462.1736,476.4863 462.7381,476.7851 L462.7381,479.5077 Q462.1072,478.9267 461.5137,478.6569 Q460.9202,478.3871 460.2894,478.3871 Q458.9446,478.3871 458.2598,479.4538 Q457.575,480.5204 457.575,482.6205 Q457.575,484.7123 458.2598,485.779 Q458.9446,486.8456 460.2894,486.8456 Q460.9202,486.8456 461.5137,486.5758 Q462.1072,486.3061 462.7381,485.725 Z " fill="#000000"/><text fill="#000000" font-family="Verdana" font-size="14" lengthAdjust="spacing" textLength="117.4824" x="477.7649" y="487.8725">Application.Error</text><line style="stroke:#000000;stroke-width:1;" x1="392.45" x2="653.0623" y1="496.3046" y2="496.3046"/><ellipse cx="402.45" cy="510.3119" fill="none" rx="3" ry="3" style="stroke:#000000;stroke-width:1;"/><text fill="#000000" font-family="Verdana" font-size="14" lengthAdjust="spacing" textLength="150.0898" x="409.45" y="514.3798">Error_Type : subtype</text><ellipse cx="402.45" cy="527.3266" fill="none" rx="3" ry="3" style="stroke:#000000;stroke-width:1;"/><text fill="#000000" font-family="Verdana" font-size="14" lengthAdjust="spacing" textLength="147.2393" x="409.45" y="531.3945">Error_Kind : subtype</text><ellipse cx="402.45" cy="544.3412" fill="none" rx="3" ry="3" style="stroke:#000000;stroke-width:1;"/><text fill="#000000" font-family="Verdana" font-size="14" lengthAdjust="spacing" textLength="190.7158" x="409.45" y="548.4091">Validation_Error : renames</text><ellipse cx="402.45" cy="561.3559" fill="none" rx="3" ry="3" style="stroke:#000000;stroke-width:1;"/><text fill="#000000" font-family="Verdana" font-size="14" lengthAdjust="spacing" textLength="218.8936" x="409.45" y="565.4238">Infrastructure_Error : renames</text><line style="stroke:#000000;stroke-width:1;" x1="392.45" x2="653.0623" y1="572.3632" y2="572.3632"/><text fill="#000000" font-family="Verdana" font-size="14" font-weight="bold" lengthAdjust="spacing" textLength="196.7246" x="397.45" y="590.4384">Re-exports Domain.Error</text><text fill="#000000" font-family="Verdana" font-size="14" lengthAdjust="spacing" textLength="250.6123" x="397.45" y="607.453">Zero overhead (subtypes/renames)</text></g><!--class Writer--><g class="entity" data-entity="Writer" data-source-line="28" data-uid="ent0006" id="entity_Writer"><rect fill="#FFFFFF" height="112.0586" rx="2.5" ry="2.5" style="stroke:#000000;stroke-width:1;" width="247.1113" x="399.2" y="840.9046"/><ellipse cx="432.2101" cy="854.9046" fill="#FFFFFF" rx="9" ry="9" style="stroke:#000000;stroke-width:1;"/><path d="M434.6832,861.0477 Q434.1021,861.3465 433.463,861.4959 Q432.8238,861.6453 432.1183,861.6453 Q429.6114,861.6453 428.2916,859.9935 Q426.9718,858.3416 426.9718,855.2205 Q426.9718,852.0911 428.2916,850.4393 Q429.6114,848.7874 432.1183,848.7874 Q432.8238,848.7874 433.4713,848.9368 Q434.1188,849.0863 434.6832,849.3851 L434.6832,852.1077 Q434.0523,851.5267 433.4588,851.2569 Q432.8653,850.9871 432.2345,850.9871 Q430.8897,850.9871 430.2049,852.0538 Q429.5201,853.1204 429.5201,855.2205 Q429.5201,857.3123 430.2049,858.379 Q430.8897,859.4456 432.2345,859.4456 Q432.8653,859.4456 433.4588,859.1758 Q434.0523,858.9061 434.6832,858.325 Z " fill="#000000"/><text fill="#000000" font-family="Verdana" font-size="14" lengthAdjust="spacing" textLength="174.6445" x="448.6567" y="860.4725">Application.Console_Port</text><line style="stroke:#000000;stroke-width:1;" x1="400.2" x2="645.3113" y1="868.9046" y2="868.9046"/><ellipse cx="410.2" cy="882.9119" fill="none" rx="3" ry="3" style="stroke:#000000;stroke-width:1;"/><text fill="#000000" font-family="Verdana" font-size="14" lengthAdjust="spacing" textLength="223.1113" x="417.2" y="886.9798">Console_Port : generic package</text><ellipse cx="410.2" cy="899.9266" fill="#FFFFFF" rx="3" ry="3" style="stroke:#000000;stroke-width:1;"/><text fill="#000000" font-family="Verdana" font-size="14" lengthAdjust="spacing" textLength="170.2148" x="417.2" y="903.9945">Write(Message) : Result</text><line style="stroke:#000000;stroke-width:1;" x1="400.2" x2="645.3113" y1="910.9339" y2="910.9339"/><text fill="#000000" font-family="Verdana" font-size="14" font-weight="bold" lengthAdjust="spacing" textLength="215.9199" x="405.2" y="929.0091">Static dispatch via generics</text><text fill="#000000" font-family="Verdana" font-size="14" lengthAdjust="spacing" textLength="162.1895" x="405.2" y="946.0238">Returns Domain.Result</text></g><!--class GreetCmd--><g class="entity" data-entity="GreetCmd" data-source-line="38" data-uid="ent0008" id="entity_GreetCmd"><rect fill="#FFFFFF" height="95.0439" rx="2.5" ry="2.5" style="stroke:#000000;stroke-width:1;" width="240.4063" x="134.55" y="146.9946"/><ellipse cx="147.55" cy="160.9946" fill="#FFFFFF" rx="9" ry="9" style="stroke:#000000;stroke-width:1;"/><path d="M150.0231,167.1377 Q149.4421,167.4365 148.8029,167.5859 Q148.1638,167.7353 147.4582,167.7353 Q144.9514,167.7353 143.6315,166.0835 Q142.3117,164.4316 142.3117,161.3105 Q142.3117,158.1811 143.6315,156.5293 Q144.9514,154.8774 147.4582,154.8774 Q148.1638,154.8774 148.8112,155.0268 Q149.4587,155.1762 150.0231,155.4751 L150.0231,158.1977 Q149.3923,157.6167 148.7988,157.3469 Q148.2053,157.0771 147.5744,157.0771 Q146.2297,157.0771 145.5449,158.1438 Q144.8601,159.2104 144.8601,161.3105 Q144.8601,163.4023 145.5449,164.469 Q146.2297,165.5356 147.5744,165.5356 Q148.2053,165.5356 148.7988,165.2658 Q149.3923,164.9961 150.0231,164.415 Z " fill="#000000"/><text fill="#000000" font-family="Verdana" font-size="14" lengthAdjust="spacing" textLength="212.4063" x="159.55" y="166.5625">Presentation.Greet_Command</text><line style="stroke:#000000;stroke-width:1;" x1="135.55" x2="373.9563" y1="174.9946" y2="174.9946"/><ellipse cx="145.55" cy="189.0019" fill="#FFFFFF" rx="3" ry="3" style="stroke:#000000;stroke-width:1;"/><text fill="#000000" font-family="Verdana" font-size="14" lengthAdjust="spacing" textLength="108.0146" x="152.55" y="193.0698">Run() : Integer</text><line style="stroke:#000000;stroke-width:1;" x1="135.55" x2="373.9563" y1="200.0093" y2="200.0093"/><text fill="#000000" font-family="Verdana" font-size="14" lengthAdjust="spacing" textLength="33.1748" x="140.55" y="218.0845">Uses</text><text fill="#000000" font-family="Verdana" font-size="14" font-weight="bold" lengthAdjust="spacing" textLength="133.4648" x="178.6467" y="218.0845">Application.Error</text><text fill="#000000" font-family="Verdana" font-size="14" lengthAdjust="spacing" textLength="129.418" x="140.55" y="235.0991">NOT Domain.Error</text></g><!--class ConsoleWriter--><g class="entity" data-entity="ConsoleWriter" data-source-line="47" data-uid="ent0010" id="entity_ConsoleWriter"><rect fill="#FFFFFF" height="129.0732" rx="2.5" ry="2.5" style="stroke:#000000;stroke-width:1;" width="298.6211" x="709.45" y="476.8146"/><ellipse cx="722.45" cy="490.8146" fill="#FFFFFF" rx="9" ry="9" style="stroke:#000000;stroke-width:1;"/><path d="M724.9231,496.9577 Q724.3421,497.2565 723.7029,497.4059 Q723.0638,497.5553 722.3582,497.5553 Q719.8514,497.5553 718.5315,495.9035 Q717.2117,494.2516 717.2117,491.1305 Q717.2117,488.0011 718.5315,486.3493 Q719.8514,484.6974 722.3582,484.6974 Q723.0638,484.6974 723.7112,484.8468 Q724.3587,484.9963 724.9231,485.2951 L724.9231,488.0177 Q724.2923,487.4367 723.6988,487.1669 Q723.1053,486.8971 722.4744,486.8971 Q721.1297,486.8971 720.4449,487.9638 Q719.7601,489.0304 719.7601,491.1305 Q719.7601,493.2223 720.4449,494.289 Q721.1297,495.3556 722.4744,495.3556 Q723.1053,495.3556 723.6988,495.0858 Q724.2923,494.8161 724.9231,494.235 Z " fill="#000000"/><text fill="#000000" font-family="Verdana" font-size="14" lengthAdjust="spacing" textLength="270.6211" x="734.45" y="496.3825">Infrastructure.Adapter.Console_Writer</text><line style="stroke:#000000;stroke-width:1;" x1="710.45" x2="1007.0711" y1="504.8146" y2="504.8146"/><ellipse cx="720.45" cy="518.8219" fill="none" rx="3" ry="3" style="stroke:#000000;stroke-width:1;"/><text fill="#000000" font-family="Verdana" font-size="14" lengthAdjust="spacing" textLength="181.877" x="727.45" y="522.8898">Console_Writer : package</text><ellipse cx="720.45" cy="535.8366" fill="#FFFFFF" rx="3" ry="3" style="stroke:#000000;stroke-width:1;"/><text fill="#000000" font-family="Verdana" font-size="14" lengthAdjust="spacing" textLength="170.2148" x="727.45" y="539.9045">Write(Message) : Result</text><line style="stroke:#000000;stroke-width:1;" x1="710.45" x2="1007.0711" y1="546.8439" y2="546.8439"/><text fill="#000000" font-family="Verdana" font-size="14" lengthAdjust="spacing" textLength="84.041" x="715.45" y="564.9191">Implements</text><text fill="#000000" font-family="Verdana" font-size="14" font-weight="bold" lengthAdjust="spacing" textLength="104.877" x="804.4129" y="564.9191">Console_Port</text><text fill="#000000" font-family="Verdana" font-size="14" lengthAdjust="spacing" textLength="33.1748" x="715.45" y="581.9338">Uses</text><text fill="#000000" font-family="Verdana" font-size="14" font-weight="bold" lengthAdjust="spacing" textLength="105.2666" x="753.5467" y="581.9338">Domain.Error</text><text fill="#000000" font-family="Verdana" font-size="14" lengthAdjust="spacing" textLength="51.8164" x="863.7352" y="581.9338">directly</text><text fill="#000000" font-family="Verdana" font-size="14" lengthAdjust="spacing" textLength="192.7461" x="715.45" y="598.9484">(allowed for Infrastructure)</text></g><g class="entity" data-entity="GMN16" data-source-line="67" data-uid="ent0017" id="entity_GMN16"><path d="M1042.76,362.5546 L1042.76,720.1396 L1414.76,720.1396 L1414.76,372.5546 L1404.76,362.5546 L1042.76,362.5546" fill="#FFFFFF" style="stroke:#000000;stroke-width:1;"/><path d="M1404.76,362.5546 L1404.76,372.5546 L1414.76,372.5546 L1404.76,362.5546" fill="#FFFFFF" style="stroke:#000000;stroke-width:1;"/><text fill="#000000" font-family="Verdana" font-size="13" font-weight="bold" lengthAdjust="spacing" textLength="131.625" x="1048.76" y="380.6244">Re-export Pattern</text><text fill="#000000" font-family="Verdana" font-size="13" lengthAdjust="spacing" textLength="351" x="1048.76" y="396.4238">&#9552;&#9552;&#9552;&#9552;&#9552;&#9552;&#9552;&#9552;&#9552;&#9552;&#9552;&#9552;&#9552;&#9552;&#9552;&#9552;&#9552;&#9552;&#9552;&#9552;&#9552;&#9552;&#9552;&#9552;&#9552;&#9552;&#9552;</text><text fill="#000000" font-family="Verdana" font-size="13" lengthAdjust="spacing" textLength="4.5703" x="1048.76" y="412.2231">&#160;</text><text fill="#000000" font-family="Verdana" font-size="13" lengthAdjust="spacing" textLength="48.5088" x="1048.76" y="428.0224">```ada</text><text fill="#000000" font-family="Verdana" font-size="13" lengthAdjust="spacing" textLength="125.6646" x="1048.76" y="443.8217">with Domain.Error;</text><text fill="#000000" font-family="Verdana" font-size="13" lengthAdjust="spacing" textLength="4.5703" x="1048.76" y="459.621">&#160;</text><text fill="#000000" font-family="Verdana" font-size="13" lengthAdjust="spacing" textLength="182.5967" x="1048.76" y="475.4203">package Application.Error is</text><text fill="#000000" font-family="Verdana" font-size="13" lengthAdjust="spacing" textLength="4.5703" x="1048.76" y="491.2196">&#160;</text><text fill="#000000" font-family="Verdana" font-size="13" lengthAdjust="spacing" textLength="251.2656" x="1062.4709" y="507.019">-- Subtype re-exports - zero overhead</text><text fill="#000000" font-family="Verdana" font-size="13" lengthAdjust="spacing" textLength="143.8062" x="1062.4709" y="522.8183">subtype Error_Type is</text><text fill="#000000" font-family="Verdana" font-size="13" lengthAdjust="spacing" textLength="170.8345" x="1071.6116" y="538.6176">Domain.Error.Error_Type;</text><text fill="#000000" font-family="Verdana" font-size="13" lengthAdjust="spacing" textLength="141.1592" x="1062.4709" y="554.4169">subtype Error_Kind is</text><text fill="#000000" font-family="Verdana" font-size="13" lengthAdjust="spacing" textLength="168.1875" x="1071.6116" y="570.2162">Domain.Error.Error_Kind;</text><text fill="#000000" font-family="Verdana" font-size="13" lengthAdjust="spacing" textLength="4.5703" x="1048.76" y="586.0155">&#160;</text><text fill="#000000" font-family="Verdana" font-size="13" lengthAdjust="spacing" textLength="147.2593" x="1062.4709" y="601.8149">-- Constant re-exports</text><text fill="#000000" font-family="Verdana" font-size="13" lengthAdjust="spacing" textLength="251.0371" x="1062.4709" y="617.6142">Validation_Error : constant Error_Kind</text><text fill="#000000" font-family="Verdana" font-size="13" lengthAdjust="spacing" textLength="224.9419" x="1071.6116" y="633.4135">:= Domain.Error.Validation_Error;</text><text fill="#000000" font-family="Verdana" font-size="13" lengthAdjust="spacing" textLength="277.2021" x="1062.4709" y="649.2128">Infrastructure_Error : constant Error_Kind</text><text fill="#000000" font-family="Verdana" font-size="13" lengthAdjust="spacing" textLength="251.1069" x="1071.6116" y="665.0121">:= Domain.Error.Infrastructure_Error;</text><text fill="#000000" font-family="Verdana" font-size="13" lengthAdjust="spacing" textLength="4.5703" x="1048.76" y="680.8114">&#160;</text><text fill="#000000" font-family="Verdana" font-size="13" lengthAdjust="spacing" textLength="143.6348" x="1048.76" y="696.6108">end Application.Error;</text><text fill="#000000" font-family="Verdana" font-size="13" lengthAdjust="spacing" textLength="24.7939" x="1048.76" y="712.4101">```</text></g><g class="entity" data-entity="GMN19" data-source-line="92" data-uid="ent0020" id="entity_GMN19"><path d="M11,425.7546 L11,656.945 A0,0 0 0 0 11,656.945 L356.5112,656.945 A0,0 0 0 0 356.5112,656.945 L356.5112,435.7546 L346.5112,425.7546 L211.38,425.7546 L245.11,242.3746 L203.38,425.7546 L11,425.7546 A0,0 0 0 0 11,425.7546" fill="#FFFFFF" style="stroke:#000000;stroke-width:1;"/><path d="M346.5112,425.7546 L346.5112,435.7546 L356.5112,435.7546 L346.5112,425.7546" fill="#FFFFFF" style="stroke:#000000;stroke-width:1;"/><text fill="#000000" font-family="Verdana" font-size="13" font-weight="bold" lengthAdjust="spacing" textLength="142.5049" x="17" y="443.8244">Presentation Usage</text><text fill="#000000" font-family="Verdana" font-size="13" lengthAdjust="spacing" textLength="299" x="17" y="459.6238">&#9552;&#9552;&#9552;&#9552;&#9552;&#9552;&#9552;&#9552;&#9552;&#9552;&#9552;&#9552;&#9552;&#9552;&#9552;&#9552;&#9552;&#9552;&#9552;&#9552;&#9552;&#9552;&#9552;</text><text fill="#000000" font-family="Verdana" font-size="13" lengthAdjust="spacing" textLength="4.5703" x="17" y="475.4231">&#160;</text><text fill="#000000" font-family="Verdana" font-size="13" lengthAdjust="spacing" textLength="48.5088" x="17" y="491.2224">```ada</text><text fill="#000000" font-family="Verdana" font-size="13" lengthAdjust="spacing" textLength="147.1196" x="17" y="507.0217">with Application.Error;</text><text fill="#000000" font-family="Verdana" font-size="13" lengthAdjust="spacing" textLength="202.0532" x="17" y="522.821">-- NOT: with Domain.Error; &#10060;</text><text fill="#000000" font-family="Verdana" font-size="13" lengthAdjust="spacing" textLength="4.5703" x="17" y="538.6203">&#160;</text><text fill="#000000" font-family="Verdana" font-size="13" lengthAdjust="spacing" textLength="101.5244" x="17" y="554.4196">case Err.Kind is</text><text fill="#000000" font-family="Verdana" font-size="13" lengthAdjust="spacing" textLength="284.6353" x="30.7109" y="570.219">when Application.Error.Validation_Error =&gt;</text><text fill="#000000" font-family="Verdana" font-size="13" lengthAdjust="spacing" textLength="172.688" x="44.4219" y="586.0183">Put_Line ("Invalid input");</text><text fill="#000000" font-family="Verdana" font-size="13" lengthAdjust="spacing" textLength="310.8003" x="30.7109" y="601.8176">when Application.Error.Infrastructure_Error =&gt;</text><text fill="#000000" font-family="Verdana" font-size="13" lengthAdjust="spacing" textLength="176.1538" x="44.4219" y="617.6169">Put_Line ("System error");</text><text fill="#000000" font-family="Verdana" font-size="13" lengthAdjust="spacing" textLength="63.6416" x="17" y="633.4162">end case;</text><text fill="#000000" font-family="Verdana" font-size="13" lengthAdjust="spacing" textLength="24.7939" x="17" y="649.2155">```</text></g><g class="entity" data-entity="GMN22" data-source-line="109" data-uid="ent0023" id="entity_GMN22"><path d="M692.26,797.1446 L692.26,996.7364 A0,0 0 0 0 692.26,996.7364 L1025.26,996.7364 A0,0 0 0 0 1025.26,996.7364 L1025.26,807.1446 L1015.26,797.1446 L862.76,797.1446 L858.76,606.3846 L854.76,797.1446 L692.26,797.1446 A0,0 0 0 0 692.26,797.1446" fill="#FFFFFF" style="stroke:#000000;stroke-width:1;"/><path d="M1015.26,797.1446 L1015.26,807.1446 L1025.26,807.1446 L1015.26,797.1446" fill="#FFFFFF" style="stroke:#000000;stroke-width:1;"/><text fill="#000000" font-family="Verdana" font-size="13" font-weight="bold" lengthAdjust="spacing" textLength="153.3975" x="698.26" y="815.2144">Infrastructure Usage</text><text fill="#000000" font-family="Verdana" font-size="13" lengthAdjust="spacing" textLength="312" x="698.26" y="831.0138">&#9552;&#9552;&#9552;&#9552;&#9552;&#9552;&#9552;&#9552;&#9552;&#9552;&#9552;&#9552;&#9552;&#9552;&#9552;&#9552;&#9552;&#9552;&#9552;&#9552;&#9552;&#9552;&#9552;&#9552;</text><text fill="#000000" font-family="Verdana" font-size="13" lengthAdjust="spacing" textLength="4.5703" x="698.26" y="846.8131">&#160;</text><text fill="#000000" font-family="Verdana" font-size="13" lengthAdjust="spacing" textLength="48.5088" x="698.26" y="862.6124">```ada</text><text fill="#000000" font-family="Verdana" font-size="13" lengthAdjust="spacing" textLength="223.1465" x="698.26" y="878.4117">with Domain.Error;  -- &#9989; Allowed</text><text fill="#000000" font-family="Verdana" font-size="13" lengthAdjust="spacing" textLength="4.5703" x="698.26" y="894.211">&#160;</text><text fill="#000000" font-family="Verdana" font-size="13" lengthAdjust="spacing" textLength="186.5576" x="698.26" y="910.0103">-- Infrastructure CAN access</text><text fill="#000000" font-family="Verdana" font-size="13" lengthAdjust="spacing" textLength="156.6982" x="698.26" y="925.8096">-- Domain.Error directly</text><text fill="#000000" font-family="Verdana" font-size="13" lengthAdjust="spacing" textLength="119.9771" x="698.26" y="941.609">return Result.Err (</text><text fill="#000000" font-family="Verdana" font-size="13" lengthAdjust="spacing" textLength="270.937" x="707.4006" y="957.4083">Domain.Error.New_Infrastructure_Error (</text><text fill="#000000" font-family="Verdana" font-size="13" lengthAdjust="spacing" textLength="91.1777" x="716.5413" y="973.2076">"I/O failed"));</text><text fill="#000000" font-family="Verdana" font-size="13" lengthAdjust="spacing" textLength="24.7939" x="698.26" y="989.0069">```</text></g><!--reverse link DomainError to AppError--><g class="link" data-entity-1="DomainError" data-entity-2="AppError" data-source-line="58" data-uid="lnk11" id="link_DomainError_AppError"><path codeLine="58" d="M637.9871,272.5355 C629.6371,282.7255 625.51,288.7746 618.76,299.5546 C585.72,352.2846 560.37,418.2846 544.04,467.8446" fill="none" id="DomainError-backto-AppError" style="stroke:#000000;stroke-width:1;stroke-dasharray:7,7;"/><polygon fill="#000000" points="641.79,267.8946,632.9917,272.3207,638.6209,271.762,639.1796,277.3912,641.79,267.8946" style="stroke:#000000;stroke-width:1;"/><text fill="#000000" font-family="Verdana" font-size="13" lengthAdjust="spacing" textLength="68.0659" x="652.0918" y="313.6244">re-exports</text><text fill="#000000" font-family="Verdana" font-size="13" lengthAdjust="spacing" textLength="132.7295" x="619.76" y="329.4238">(subtypes/renames)</text></g><!--reverse link AppError to Writer--><g class="link" data-entity-1="AppError" data-entity-2="Writer" data-source-line="59" data-uid="lnk12" id="link_AppError_Writer"><path codeLine="59" d="M522.76,620.7546 C522.76,687.6346 522.76,779.5546 522.76,840.4346" fill="none" id="AppError-backto-Writer" style="stroke:#000000;stroke-width:1;stroke-dasharray:7,7;"/><polygon fill="#000000" points="522.76,614.7546,518.76,623.7546,522.76,619.7546,526.76,623.7546,522.76,614.7546" style="stroke:#000000;stroke-width:1;"/><text fill="#000000" font-family="Verdana" font-size="13" lengthAdjust="spacing" textLength="29.5166" x="523.76" y="764.2144">uses</text></g><!--reverse link AppError to GreetCmd--><g class="link" data-entity-1="AppError" data-entity-2="GreetCmd" data-source-line="60" data-uid="lnk13" id="link_AppError_GreetCmd"><path codeLine="60" d="M462.8783,463.307 C410.0883,395.377 336.33,300.4746 291.18,242.3746" fill="none" id="AppError-backto-GreetCmd" style="stroke:#000000;stroke-width:1;stroke-dasharray:7,7;"/><polygon fill="#000000" points="466.56,468.0446,464.1958,458.4837,463.4919,464.0966,457.879,463.3927,466.56,468.0446" style="stroke:#000000;stroke-width:1;"/><text fill="#000000" font-family="Verdana" font-size="13" lengthAdjust="spacing" textLength="51.0869" x="357.87" y="321.6244">uses &#9989;</text></g><!--reverse link DomainError to ConsoleWriter--><g class="link" data-entity-1="DomainError" data-entity-2="ConsoleWriter" data-source-line="61" data-uid="lnk14" id="link_DomainError_ConsoleWriter"><path codeLine="61" d="M746.4755,273.3356 C772.4255,335.0556 807.07,417.4346 831.94,476.5646" fill="none" id="DomainError-backto-ConsoleWriter" style="stroke:#000000;stroke-width:1;stroke-dasharray:7,7;"/><polygon fill="#000000" points="744.15,267.8046,743.9509,277.6515,746.0879,272.4138,751.3256,274.5508,744.15,267.8046" style="stroke:#000000;stroke-width:1;"/><text fill="#000000" font-family="Verdana" font-size="13" lengthAdjust="spacing" textLength="51.0869" x="770" y="321.6244">uses &#9989;</text></g><!--link GreetCmd to DomainError--><g class="link" data-entity-1="GreetCmd" data-entity-2="DomainError" data-source-line="64" data-uid="lnk15" id="link_GreetCmd_DomainError"><path codeLine="64" d="M375.35,194.5146 C439.23,194.5146 511.77,194.5146 577.09,194.5146" fill="none" id="GreetCmd-to-DomainError" style="stroke:#FF0000;stroke-width:1;stroke-dasharray:7,7;"/><polygon fill="#FF0000" points="583.09,194.5146,574.09,190.5146,578.09,194.5146,574.09,198.5146,583.09,194.5146" style="stroke:#FF0000;stroke-width:1;"/><text fill="#000000" font-family="Verdana" font-size="13" lengthAdjust="spacing" textLength="100.6748" x="428.8792" y="172.5844">&#10060; FORBIDDEN</text><text fill="#000000" font-family="Verdana" font-size="13" lengthAdjust="spacing" textLength="172.0532" x="393.19" y="188.3837">Must use Application.Error</text></g><!--link AppError to GMN16--><g class="link" data-entity-1="AppError" data-entity-2="GMN16" data-source-line="67" data-uid="lnk18" id="link_AppError_GMN16"><path d="M564.16,467.8946 C596.88,417.9246 647.6,355.8446 711.26,327.0546 C770.99,300.0446 945.46,302.5446 1006.26,327.0546 C1028.27,335.9346 1049.31,348.1446 1069.08,362.2646" fill="none" id="AppError-GMN16" style="stroke:#000000;stroke-width:1;stroke-dasharray:7,7;"/></g><g class="legend" data-source-line="123"><rect fill="none" height="248.2051" rx="7.5" ry="7.5" style="stroke:#000000;stroke-width:1;" width="444" x="958.76" y="1007.7364"/><text fill="#000000" font-family="Verdana" font-size="14" font-weight="bold" lengthAdjust="spacing" textLength="127.9961" x="963.76" y="1026.8116">Pattern Benefits</text><text fill="#000000" font-family="Verdana" font-size="14" lengthAdjust="spacing" textLength="434" x="963.76" y="1043.8263">&#9552;&#9552;&#9552;&#9552;&#9552;&#9552;&#9552;&#9552;&#9552;&#9552;&#9552;&#9552;&#9552;&#9552;&#9552;&#9552;&#9552;&#9552;&#9552;&#9552;&#9552;&#9552;&#9552;&#9552;&#9552;&#9552;&#9552;&#9552;&#9552;&#9552;&#9552;</text><text fill="#000000" font-family="Verdana" font-size="14" lengthAdjust="spacing" textLength="274.5342" x="963.76" y="1060.8409">&#9989; Zero overhead (subtypes/renames)</text><text fill="#000000" font-family="Verdana" font-size="14" lengthAdjust="spacing" textLength="258.3809" x="963.76" y="1077.8555">&#9989; Compile-time enforcement (GPR)</text><text fill="#000000" font-family="Verdana" font-size="14" lengthAdjust="spacing" textLength="243.0752" x="963.76" y="1094.8702">&#9989; Clear boundary between layers</text><text fill="#000000" font-family="Verdana" font-size="14" lengthAdjust="spacing" textLength="247.915" x="963.76" y="1111.8848">&#9989; Single source of truth (Domain)</text><text fill="#000000" font-family="Verdana" font-size="14" lengthAdjust="spacing" textLength="284.9385" x="963.76" y="1128.8995">&#9989; Presentation decoupled from Domain</text><text fill="#000000" font-family="Verdana" font-size="14" lengthAdjust="spacing" textLength="4.9219" x="963.76" y="1145.9141">&#160;</text><text fill="#000000" font-family="Verdana" font-size="14" font-weight="bold" lengthAdjust="spacing" textLength="136.999" x="963.76" y="1162.9288">Why This Matters</text><text fill="#000000" font-family="Verdana" font-size="14" lengthAdjust="spacing" textLength="434" x="963.76" y="1179.9434">&#9552;&#9552;&#9552;&#9552;&#9552;&#9552;&#9552;&#9552;&#9552;&#9552;&#9552;&#9552;&#9552;&#9552;&#9552;&#9552;&#9552;&#9552;&#9552;&#9552;&#9552;&#9552;&#9552;&#9552;&#9552;&#9552;&#9552;&#9552;&#9552;&#9552;&#9552;</text><text fill="#000000" font-family="Verdana" font-size="14" lengthAdjust="spacing" textLength="243.4893" x="963.76" y="1196.9581">&#8226; Domain is shareable across apps</text><text fill="#000000" font-family="Verdana" font-size="14" lengthAdjust="spacing" textLength="300.248" x="963.76" y="1213.9727">&#8226; Application/Presentation are app-specific</text><text fill="#000000" font-family="Verdana" font-size="14" lengthAdjust="spacing" textLength="256.0879" x="963.76" y="1230.9874">&#8226; Multiple UIs can use same Domain</text><text fill="#000000" font-family="Verdana" font-size="14" lengthAdjust="spacing" textLength="185.3838" x="963.76" y="1248.002">&#8226; Forces use case thinking</text></g><!--SRC=[lLVDRkCs4BxhAQR9eNOMTb2qNNIJxW9PnmwCRdxW95sW2E0mqZWYLgO4adBg5WlqqbiFlVJMNlfeUP8EIKaX8oNP0cc31PBbZ8RyVZWZVQPJN28K6UCYYZJN6S9UKMGyPfhd0iPIvX9cEC0VYrngE65QenGNuaJY2eNcuXhE91EAQxv2sC-NL0ZsuXYLYgA2nH_ODS96jVwEhL5k05DrukPaCdarVWa_Hm1nnfIgKuTsOo_L7SJa0RnmnvgVhGk47P0Ovp898jznaL04HRb4QP5KuUzPnXExC7SLTo3EXT9Cw2fZAXQIAItBM9SI7yewG86In_CPgZBJ5Bzs2r11jcc3WVqrOY8NH6W6Q8ibkE22cpCeYd-CFdf4-TpViUMlRew_cNmzVkLJveKztcZr4T9KUQNfhoxMmb07On85Mw9wd30_gI9YQwinKYshE-_Mbet_W3A7V8KoHPP0hpg7sgvAzIrRtR17H6QUuVo4QblqxoKdepRO_VW3Qhrmp_GEoRgqrgSqfsu8uLJJZZ4aN1LCnociEAlBgGh738a9qK1igeHIqmrIT8FkQnqiq_qOVpN-mXVRZmyF9AAUZ_Bbaed4FcvNHikaGJuhHSzWcGgDroXzCESA5I5gsQU2SNHy5gZKGX0gxs6u5zWSlvnyEPduACACuLx22fAhaT6fPsjLIm_eMItl_7ibfyiYezOdjA70jqU5lY8dj2d9Jjr6PskRqcDPbjzW0WjoV8YeNvFrEMsTMMvLoWiL-Ttis-7mxfQQ6rDVZWlHOVucqppMu2xfc66eSO0BmksVlxPs3Kdr4kcyarnUyIH14JMLXf9Vfthu9kZ5cnBD7hT__GQJuzdRwVx- -EX279PActBGSbKKYLmZs5AGBnhaKT0OwWbZLRZzu_Vd_MUwn-Nb9KiO_N73THeOVDU4QtUtpWzSHLPsSX2SEdaypM00F_dzowLMClgzbxkUI3_-tiExZDskHsrlVlHHax5xTy9HDR2y8xhO8oFGswlUQETrkDVzfwl3FZ4rFw5mLmKB1mbuIunT9sHaWiPMbRckSgtpfN5NxLthhg2ddfkUy7psQbkgyx2a2FNJdGxJcHjafnfJLknX8FLDYg9TiIK3l7vJ4midfPw_umAXHsrsPHA1YwBK6_tTHsjsQjXTztIjD2xT-umhQuGm29uK9cWzLfrxq-APzNdwrbjngFd1dcldaPFhth56UqV0t7kj3Vib_B4WxV2l1eu9GozgtTWZl9btqjshsDwORX_3Wl4Caur-lqrgHhES_cERgREuQvlmbbv55boh_wP_1go29UqJNjfC6hsZ58Hce3bzRg2WYHdRwGkzWvDPavGXa-ILKYHChk4AzGsILJFpOg6gd5FwvA2F59MNLC4OYXWaHNkEtxfISECJ-a0eQThJe9PaGfSPMThUfsiuIxc2GylV_qJRBt_N7q2qiqgPH7P5c5WiStevOaMXgYplacu7aEWHapTG1SPymUCg_v0ynmafd4yLNKTX9x4Y7MhGBcrYs5SsQBkEJhduGBmQWpbdHVy0]--></g></svg>