<svg xmlns="http://www.w3.org/2000/svg" xmlns:xlink="http://www.w3.org/1999/xlink" contentStyleType="text/css" data-diagram-type="CLASS" height="1226px" preserveAspectRatio="none" style="width:1863px;height:1226px;background:#FFFFFF;" version="1.1" viewBox="0 0 1863 1226" width="1863px" zoomAndPan="magnify"><title>Static vs Dynamic Dispatch
Dependency Injection in Ada with Generics</title><defs/><g><g class="title" data-source-line="4"><text fill="#000000" font-family="Verdana" font-size="22" font-weight="bold" lengthAdjust="spacing" textLength="334.9844" x="759.7833" y="37.1182">Static vs Dynamic Dispatch</text><text fill="#000000" font-family="Verdana" font-size="22" font-weight="bold" lengthAdjust="spacing" textLength="533.7793" x="660.3859" y="63.8555">Dependency Injection in Ada with Generics</text></g><!--cluster DynamicPkg--><g class="cluster" data-entity="DynamicPkg" data-source-line="6" data-uid="ent0002" id="cluster_DynamicPkg"><path d="M13.5,92.2746 L213.4941,92.2746 A3.75,3.75 0 0 1 215.9941,94.7746 L222.9941,132.3039 L544.5,132.3039 A2.5,2.5 0 0 1 547,134.8039 L547,527.5846 A2.5,2.5 0 0 1 544.5,530.0846 L13.5,530.0846 A2.5,2.5 0 0 1 11,527.5846 L11,94.7746 A2.5,2.5 0 0 1 13.5,92.2746" fill="#FFE4E1" style="stroke:#000000;stroke-width:1;"/><line style="stroke:#000000;stroke-width:1;" x1="11" x2="222.9941" y1="132.3039" y2="132.3039"/><text fill="#000000" font-family="Verdana" font-size="14" font-weight="bold" lengthAdjust="spacing" textLength="141.1211" x="43.9365" y="108.3498">Dynamic Dispatch</text><text fill="#000000" font-family="Verdana" font-size="14" font-weight="bold" lengthAdjust="spacing" textLength="198.9941" x="15" y="125.3645">(Runtime Polymorphism)</text></g><!--cluster StaticPkg--><g class="cluster" data-entity="StaticPkg" data-source-line="24" data-uid="ent0009" id="cluster_StaticPkg"><path d="M899.5,85.4746 L1141.6924,85.4746 A3.75,3.75 0 0 1 1144.1924,87.9746 L1151.1924,125.5039 L1416.5,125.5039 A2.5,2.5 0 0 1 1419,128.0039 L1419,559.9146 A2.5,2.5 0 0 1 1416.5,562.4146 L899.5,562.4146 A2.5,2.5 0 0 1 897,559.9146 L897,87.9746 A2.5,2.5 0 0 1 899.5,85.4746" fill="#E8F5E9" style="stroke:#000000;stroke-width:1;"/><line style="stroke:#000000;stroke-width:1;" x1="897" x2="1151.1924" y1="125.5039" y2="125.5039"/><text fill="#000000" font-family="Verdana" font-size="14" font-weight="bold" lengthAdjust="spacing" textLength="118.3027" x="962.4448" y="101.5498">Static Dispatch</text><text fill="#000000" font-family="Verdana" font-size="14" font-weight="bold" lengthAdjust="spacing" textLength="241.1924" x="901" y="118.5645">(Compile-Time Polymorphism)</text></g><!--class Writer_Interface'Class--><g class="entity" data-entity="Writer_Interface.Class" data-source-line="7" data-uid="ent0003" id="entity_Writer_Interface.Class"><rect fill="#FFFFFF" height="74.6133" rx="2.5" ry="2.5" style="stroke:#000000;stroke-width:1;" width="194.2148" x="309.89" y="154.9846"/><ellipse cx="327.3377" cy="175.7839" fill="#FFFFFF" rx="9" ry="9" style="stroke:#000000;stroke-width:1;"/><path d="M323.7654,172.0491 L323.7654,169.8909 L331.1448,169.8909 L331.1448,172.0491 L328.6795,172.0491 L328.6795,180.1257 L331.1448,180.1257 L331.1448,182.2839 L323.7654,182.2839 L323.7654,180.1257 L326.2308,180.1257 L326.2308,172.0491 Z " fill="#000000"/><text fill="#000000" font-family="Verdana" font-size="12" font-style="italic" lengthAdjust="spacing" textLength="87.6094" x="374.6869" y="172.0491">&#171;tagged type&#187;</text><text fill="#000000" font-family="Verdana" font-size="14" font-style="italic" lengthAdjust="spacing" textLength="156.3311" x="340.3261" y="188.6438">Writer_Interface'Class</text><line style="stroke:#000000;stroke-width:1;" x1="310.89" x2="503.1048" y1="196.5832" y2="196.5832"/><line style="stroke:#000000;stroke-width:1;" x1="310.89" x2="503.1048" y1="204.5832" y2="204.5832"/><ellipse cx="320.89" cy="218.5906" fill="#FFFFFF" rx="3" ry="3" style="stroke:#000000;stroke-width:1;"/><text fill="#000000" font-family="Verdana" font-size="14" lengthAdjust="spacing" textLength="170.2148" x="327.89" y="222.6584">Write(Message) : Result</text></g><!--class Console_Writer--><g class="entity" data-entity="Console_Writer" data-source-line="11" data-uid="ent0004" id="entity_Console_Writer"><rect fill="#FFFFFF" height="61.0146" rx="2.5" ry="2.5" style="stroke:#000000;stroke-width:1;" width="194.2148" x="309.89" y="445.0746"/><ellipse cx="349.4999" cy="459.0746" fill="#FFFFFF" rx="9" ry="9" style="stroke:#000000;stroke-width:1;"/><path d="M351.973,465.2177 Q351.392,465.5165 350.7528,465.6659 Q350.1136,465.8153 349.4081,465.8153 Q346.9012,465.8153 345.5814,464.1635 Q344.2616,462.5116 344.2616,459.3905 Q344.2616,456.2611 345.5814,454.6093 Q346.9012,452.9574 349.4081,452.9574 Q350.1136,452.9574 350.7611,453.1068 Q351.4086,453.2563 351.973,453.5551 L351.973,456.2777 Q351.3421,455.6967 350.7486,455.4269 Q350.1551,455.1571 349.5243,455.1571 Q348.1796,455.1571 347.4947,456.2238 Q346.8099,457.2904 346.8099,459.3905 Q346.8099,461.4823 347.4947,462.549 Q348.1796,463.6156 349.5243,463.6156 Q350.1551,463.6156 350.7486,463.3458 Q351.3421,463.0761 351.973,462.495 Z " fill="#000000"/><text fill="#000000" font-family="Verdana" font-size="14" lengthAdjust="spacing" textLength="107.4951" x="366.9999" y="464.6425">Console_Writer</text><line style="stroke:#000000;stroke-width:1;" x1="310.89" x2="503.1048" y1="473.0746" y2="473.0746"/><line style="stroke:#000000;stroke-width:1;" x1="310.89" x2="503.1048" y1="481.0746" y2="481.0746"/><ellipse cx="320.89" cy="495.0819" fill="#FFFFFF" rx="3" ry="3" style="stroke:#000000;stroke-width:1;"/><text fill="#000000" font-family="Verdana" font-size="14" lengthAdjust="spacing" textLength="170.2148" x="327.89" y="499.1498">Write(Message) : Result</text></g><!--class Greet_Use_Case--><g class="entity" data-entity="Greet_Use_Case" data-source-line="15" data-uid="ent0005" id="entity_Greet_Use_Case"><rect fill="#FFFFFF" height="78.0293" rx="2.5" ry="2.5" style="stroke:#000000;stroke-width:1;" width="240.002" x="35" y="153.2746"/><ellipse cx="92.9883" cy="167.2746" fill="#FFFFFF" rx="9" ry="9" style="stroke:#000000;stroke-width:1;"/><path d="M95.4614,173.4177 Q94.8804,173.7165 94.2412,173.8659 Q93.6021,174.0153 92.8965,174.0153 Q90.3896,174.0153 89.0698,172.3635 Q87.75,170.7116 87.75,167.5905 Q87.75,164.4611 89.0698,162.8093 Q90.3896,161.1574 92.8965,161.1574 Q93.6021,161.1574 94.2495,161.3068 Q94.897,161.4563 95.4614,161.7551 L95.4614,164.4777 Q94.8306,163.8967 94.2371,163.6269 Q93.6436,163.3571 93.0127,163.3571 Q91.668,163.3571 90.9832,164.4238 Q90.2983,165.4904 90.2983,167.5905 Q90.2983,169.6823 90.9832,170.749 Q91.668,171.8156 93.0127,171.8156 Q93.6436,171.8156 94.2371,171.5458 Q94.8306,171.2761 95.4614,170.695 Z " fill="#000000"/><text fill="#000000" font-family="Verdana" font-size="14" lengthAdjust="spacing" textLength="116.5254" x="110.4883" y="172.8425">Greet_Use_Case</text><line style="stroke:#000000;stroke-width:1;" x1="36" x2="274.002" y1="181.2746" y2="181.2746"/><rect fill="none" height="6" style="stroke:#000000;stroke-width:1;" width="6" x="43" y="192.2819"/><text fill="#000000" font-family="Verdana" font-size="14" lengthAdjust="spacing" textLength="216.002" x="53" y="199.3498">Writer : Writer_Interface'Class</text><line style="stroke:#000000;stroke-width:1;" x1="36" x2="274.002" y1="206.2893" y2="206.2893"/><ellipse cx="46" cy="220.2966" fill="#FFFFFF" rx="3" ry="3" style="stroke:#000000;stroke-width:1;"/><text fill="#000000" font-family="Verdana" font-size="14" lengthAdjust="spacing" textLength="160.1045" x="53" y="224.3645">Execute(Cmd) : Result</text></g><!--class StaticCW--><g class="entity" data-entity="StaticCW" data-source-line="25" data-uid="ent0010" id="entity_StaticCW"><rect fill="#FFFFFF" height="74.6133" rx="2.5" ry="2.5" style="stroke:#000000;stroke-width:1;" width="194.2148" x="1181.89" y="154.9846"/><ellipse cx="1217.0332" cy="175.7839" fill="#FFFFFF" rx="9" ry="9" style="stroke:#000000;stroke-width:1;"/><path d="M1219.5063,181.927 Q1218.9253,182.2258 1218.2861,182.3752 Q1217.6469,182.5246 1216.9414,182.5246 Q1214.4345,182.5246 1213.1147,180.8728 Q1211.7949,179.2209 1211.7949,176.0998 Q1211.7949,172.9704 1213.1147,171.3186 Q1214.4345,169.6667 1216.9414,169.6667 Q1217.6469,169.6667 1218.2944,169.8162 Q1218.9419,169.9656 1219.5063,170.2644 L1219.5063,172.9871 Q1218.8754,172.406 1218.2819,172.1362 Q1217.6884,171.8664 1217.0576,171.8664 Q1215.7129,171.8664 1215.028,172.9331 Q1214.3432,173.9997 1214.3432,176.0998 Q1214.3432,178.1916 1215.028,179.2583 Q1215.7129,180.3249 1217.0576,180.3249 Q1217.6884,180.3249 1218.2819,180.0552 Q1218.8754,179.7854 1219.5063,179.2043 Z " fill="#000000"/><text fill="#000000" font-family="Verdana" font-size="12" font-style="italic" lengthAdjust="spacing" textLength="121.0078" x="1231.9539" y="172.0491">&#171;concrete package&#187;</text><text fill="#000000" font-family="Verdana" font-size="14" lengthAdjust="spacing" textLength="107.4951" x="1238.7102" y="188.6438">Console_Writer</text><line style="stroke:#000000;stroke-width:1;" x1="1182.89" x2="1375.1048" y1="196.5832" y2="196.5832"/><line style="stroke:#000000;stroke-width:1;" x1="1182.89" x2="1375.1048" y1="204.5832" y2="204.5832"/><ellipse cx="1192.89" cy="218.5906" fill="#FFFFFF" rx="3" ry="3" style="stroke:#000000;stroke-width:1;"/><text fill="#000000" font-family="Verdana" font-size="14" lengthAdjust="spacing" textLength="170.2148" x="1199.89" y="222.6584">Write(Message) : Result</text></g><!--class StaticGUC--><g class="entity" data-entity="StaticGUC" data-source-line="29" data-uid="ent0011" id="entity_StaticGUC"><rect fill="#FFFFFF" height="91.6279" rx="2.5" ry="2.5" style="stroke:#000000;stroke-width:1;" width="225.6885" x="921.16" y="146.4746"/><ellipse cx="934.16" cy="175.7813" fill="#FFFFFF" rx="9" ry="9" style="stroke:#000000;stroke-width:1;"/><path d="M936.6331,181.9243 Q936.0521,182.2231 935.4129,182.3726 Q934.7738,182.522 934.0682,182.522 Q931.5614,182.522 930.2415,180.8701 Q928.9217,179.2183 928.9217,176.0972 Q928.9217,172.9678 930.2415,171.3159 Q931.5614,169.6641 934.0682,169.6641 Q934.7738,169.6641 935.4212,169.8135 Q936.0687,169.9629 936.6331,170.2617 L936.6331,172.9844 Q936.0023,172.4033 935.4088,172.1335 Q934.8153,171.8638 934.1844,171.8638 Q932.8397,171.8638 932.1549,172.9304 Q931.4701,173.9971 931.4701,176.0972 Q931.4701,178.189 932.1549,179.2556 Q932.8397,180.3223 934.1844,180.3223 Q934.8153,180.3223 935.4088,180.0525 Q936.0023,179.7827 936.6331,179.2017 Z " fill="#000000"/><text fill="#000000" font-family="Verdana" font-size="12" font-style="italic" lengthAdjust="spacing" textLength="113.4961" x="988.2562" y="163.5391">&#171;generic package&#187;</text><text fill="#000000" font-family="Verdana" font-size="14" lengthAdjust="spacing" textLength="68.5986" x="1010.7049" y="180.1338">Use_Case</text><text fill="#000000" font-family="Verdana" font-size="14" lengthAdjust="spacing" textLength="197.6885" x="946.16" y="197.1484">with function Console_Write</text><line style="stroke:#000000;stroke-width:1;" x1="922.16" x2="1145.8485" y1="205.0879" y2="205.0879"/><line style="stroke:#000000;stroke-width:1;" x1="922.16" x2="1145.8485" y1="213.0879" y2="213.0879"/><ellipse cx="932.16" cy="227.0952" fill="#FFFFFF" rx="3" ry="3" style="stroke:#000000;stroke-width:1;"/><text fill="#000000" font-family="Verdana" font-size="14" lengthAdjust="spacing" textLength="160.1045" x="939.16" y="231.1631">Execute(Cmd) : Result</text></g><!--class StaticInst--><g class="entity" data-entity="StaticInst" data-source-line="33" data-uid="ent0012" id="entity_StaticInst"><rect fill="#FFFFFF" height="125.6572" rx="2.5" ry="2.5" style="stroke:#000000;stroke-width:1;" width="221.2344" x="1038.38" y="412.7546"/><ellipse cx="1074.3493" cy="442.0613" fill="#FFFFFF" rx="9" ry="9" style="stroke:#000000;stroke-width:1;"/><path d="M1076.8225,448.2043 Q1076.2414,448.5031 1075.6023,448.6526 Q1074.9631,448.802 1074.2575,448.802 Q1071.7507,448.802 1070.4309,447.1501 Q1069.1111,445.4983 1069.1111,442.3772 Q1069.1111,439.2478 1070.4309,437.5959 Q1071.7507,435.9441 1074.2575,435.9441 Q1074.9631,435.9441 1075.6106,436.0935 Q1076.258,436.2429 1076.8225,436.5417 L1076.8225,439.2644 Q1076.1916,438.6833 1075.5981,438.4135 Q1075.0046,438.1438 1074.3738,438.1438 Q1073.029,438.1438 1072.3442,439.2104 Q1071.6594,440.2771 1071.6594,442.3772 Q1071.6594,444.469 1072.3442,445.5356 Q1073.029,446.6023 1074.3738,446.6023 Q1075.0046,446.6023 1075.5981,446.3325 Q1076.1916,446.0627 1076.8225,445.4817 Z " fill="#000000"/><text fill="#000000" font-family="Verdana" font-size="12" font-style="italic" lengthAdjust="spacing" textLength="146.1914" x="1089.4536" y="429.8191">&#171;wired at compile time&#187;</text><text fill="#000000" font-family="Verdana" font-size="14" lengthAdjust="spacing" textLength="68.0244" x="1128.5371" y="446.4138">Bootstrap</text><text fill="#000000" font-family="Verdana" font-size="14" lengthAdjust="spacing" textLength="89.3115" x="1117.8936" y="463.4284">Instantiation</text><line style="stroke:#000000;stroke-width:1;" x1="1039.38" x2="1258.6144" y1="471.3679" y2="471.3679"/><text fill="#000000" font-family="Verdana" font-size="14" lengthAdjust="spacing" textLength="180.6875" x="1044.38" y="489.4431">package Greet_UC is new</text><line style="stroke:#000000;stroke-width:1;" x1="1039.38" x2="1258.6144" y1="496.3825" y2="496.3825"/><text fill="#000000" font-family="Verdana" font-size="14" lengthAdjust="spacing" textLength="209.2344" x="1044.38" y="514.4577">Use_Case (Console_Write =&gt;</text><text fill="#000000" font-family="Verdana" font-size="14" lengthAdjust="spacing" textLength="162.8184" x="1044.38" y="531.4724">Console_Writer.Write);</text></g><g class="entity" data-entity="GMN15" data-source-line="44" data-uid="ent0016" id="entity_GMN15"><path d="M574,124.0946 L574,260.4891 L777.9966,260.4891 L777.9966,134.0946 L767.9966,124.0946 L574,124.0946" fill="#FFFFFF" style="stroke:#000000;stroke-width:1;"/><path d="M767.9966,124.0946 L767.9966,134.0946 L777.9966,134.0946 L767.9966,124.0946" fill="#FFFFFF" style="stroke:#000000;stroke-width:1;"/><text fill="#000000" font-family="Verdana" font-size="13" font-weight="bold" lengthAdjust="spacing" textLength="103.0859" x="580" y="142.1644">Runtime Cost:</text><text fill="#000000" font-family="Verdana" font-size="13" lengthAdjust="spacing" textLength="182.9966" x="580" y="157.9638">&#8226; Dispatching call each time</text><text fill="#000000" font-family="Verdana" font-size="13" lengthAdjust="spacing" textLength="137.979" x="580" y="173.7631">&#8226; No inlining possible</text><text fill="#000000" font-family="Verdana" font-size="13" lengthAdjust="spacing" textLength="158.0757" x="580" y="189.5624">&#8226; Tagged type overhead</text><text fill="#000000" font-family="Verdana" font-size="13" lengthAdjust="spacing" textLength="4.5703" x="580" y="205.3617">&#160;</text><text fill="#000000" font-family="Verdana" font-size="13" font-weight="bold" lengthAdjust="spacing" textLength="65.2285" x="580" y="221.161">Benefits:</text><text fill="#000000" font-family="Verdana" font-size="13" lengthAdjust="spacing" textLength="129.562" x="580" y="236.9603">&#8226; Runtime flexibility</text><text fill="#000000" font-family="Verdana" font-size="13" lengthAdjust="spacing" textLength="147.8115" x="580" y="252.7596">&#8226; Can swap at runtime</text></g><g class="entity" data-entity="GMN18" data-source-line="55" data-uid="ent0019" id="entity_GMN18"><path d="M1446.22,124.0946 L1446.22,229.6746 L1147.05,233.6746 L1446.22,237.6746 L1446.22,260.4891 A0,0 0 0 0 1446.22,260.4891 L1663.7815,260.4891 A0,0 0 0 0 1663.7815,260.4891 L1663.7815,134.0946 L1653.7815,124.0946 L1446.22,124.0946 A0,0 0 0 0 1446.22,124.0946" fill="#FFFFFF" style="stroke:#000000;stroke-width:1;"/><path d="M1653.7815,124.0946 L1653.7815,134.0946 L1663.7815,134.0946 L1653.7815,124.0946" fill="#FFFFFF" style="stroke:#000000;stroke-width:1;"/><text fill="#000000" font-family="Verdana" font-size="13" font-weight="bold" lengthAdjust="spacing" textLength="142.27" x="1452.22" y="142.1644">Compile-Time Cost:</text><text fill="#000000" font-family="Verdana" font-size="13" lengthAdjust="spacing" textLength="107.0723" x="1452.22" y="157.9638">&#8226; Zero overhead</text><text fill="#000000" font-family="Verdana" font-size="13" lengthAdjust="spacing" textLength="147.4688" x="1452.22" y="173.7631">&#8226; Direct call (inlinable)</text><text fill="#000000" font-family="Verdana" font-size="13" lengthAdjust="spacing" textLength="108.2085" x="1452.22" y="189.5624">&#8226; No dispatching</text><text fill="#000000" font-family="Verdana" font-size="13" lengthAdjust="spacing" textLength="4.5703" x="1452.22" y="205.3617">&#160;</text><text fill="#000000" font-family="Verdana" font-size="13" font-weight="bold" lengthAdjust="spacing" textLength="73.106" x="1452.22" y="221.161">Trade-off:</text><text fill="#000000" font-family="Verdana" font-size="13" lengthAdjust="spacing" textLength="152.2422" x="1452.22" y="236.9603">&#8226; Fixed at compile time</text><text fill="#000000" font-family="Verdana" font-size="13" lengthAdjust="spacing" textLength="196.5615" x="1452.22" y="252.7596">&#8226; Larger binary (instantiation)</text></g><g class="entity" data-entity="GMN21" data-source-line="66" data-uid="ent0022" id="entity_GMN21"><path d="M1443.45,320.4846 L1443.45,630.6716 L1856.5511,630.6716 L1856.5511,330.4846 L1846.5511,320.4846 L1443.45,320.4846" fill="#CCFFCC" style="stroke:#000000;stroke-width:1;"/><path d="M1846.5511,320.4846 L1846.5511,330.4846 L1856.5511,330.4846 L1846.5511,320.4846" fill="#CCFFCC" style="stroke:#000000;stroke-width:1;"/><text fill="#000000" font-family="Verdana" font-size="13" font-weight="bold" lengthAdjust="spacing" textLength="240.4302" x="1449.45" y="338.5544">This Project Uses Static Dispatch</text><text fill="#000000" font-family="Verdana" font-size="13" lengthAdjust="spacing" textLength="4.5703" x="1449.45" y="354.3538">&#160;</text><text fill="#000000" font-family="Verdana" font-size="13" lengthAdjust="spacing" textLength="48.5088" x="1449.45" y="370.1531">```ada</text><text fill="#000000" font-family="Verdana" font-size="13" lengthAdjust="spacing" textLength="316.437" x="1449.45" y="385.9524">-- Bootstrap instantiates with concrete functions</text><text fill="#000000" font-family="Verdana" font-size="13" lengthAdjust="spacing" textLength="224.377" x="1449.45" y="401.7517">package Console_Port_Inst is new</text><text fill="#000000" font-family="Verdana" font-size="13" lengthAdjust="spacing" textLength="193.2988" x="1458.5906" y="417.551">Application.Console_Port.Port</text><text fill="#000000" font-family="Verdana" font-size="13" lengthAdjust="spacing" textLength="373.8198" x="1467.7313" y="433.3503">(Write =&gt; Infrastructure.Adapter.Console_Writer.Write);</text><text fill="#000000" font-family="Verdana" font-size="13" lengthAdjust="spacing" textLength="4.5703" x="1449.45" y="449.1496">&#160;</text><text fill="#000000" font-family="Verdana" font-size="13" lengthAdjust="spacing" textLength="167.7813" x="1449.45" y="464.949">package Greet_UC is new</text><text fill="#000000" font-family="Verdana" font-size="13" lengthAdjust="spacing" textLength="238.8623" x="1458.5906" y="480.7483">Application.Usecase.Greet.Use_Case</text><text fill="#000000" font-family="Verdana" font-size="13" lengthAdjust="spacing" textLength="365.8154" x="1467.7313" y="496.5476">(Console_Write =&gt; Console_Port_Inst.Write_Message);</text><text fill="#000000" font-family="Verdana" font-size="13" lengthAdjust="spacing" textLength="4.5703" x="1449.45" y="512.3469">&#160;</text><text fill="#000000" font-family="Verdana" font-size="13" lengthAdjust="spacing" textLength="179.0103" x="1449.45" y="528.1462">package Greet_Cmd is new</text><text fill="#000000" font-family="Verdana" font-size="13" lengthAdjust="spacing" textLength="268.3535" x="1458.5906" y="543.9455">Presentation.Greet_Command.Command</text><text fill="#000000" font-family="Verdana" font-size="13" lengthAdjust="spacing" textLength="335.4673" x="1467.7313" y="559.7449">(Execute_Greet_Use_Case =&gt; Greet_UC.Execute);</text><text fill="#000000" font-family="Verdana" font-size="13" lengthAdjust="spacing" textLength="4.5703" x="1449.45" y="575.5442">&#160;</text><text fill="#000000" font-family="Verdana" font-size="13" lengthAdjust="spacing" textLength="223.9644" x="1449.45" y="591.3435">-- Compiler knows exact functions</text><text fill="#000000" font-family="Verdana" font-size="13" lengthAdjust="spacing" textLength="228.3823" x="1449.45" y="607.1428">-- All calls are statically dispatched</text><text fill="#000000" font-family="Verdana" font-size="13" lengthAdjust="spacing" textLength="24.7939" x="1449.45" y="622.9421">```</text></g><g class="entity" data-entity="GMN24" data-source-line="88" data-uid="ent0025" id="entity_GMN24"><path d="M570.89,359.9846 L570.89,591.175 L873.1166,591.175 L873.1166,369.9846 L863.1166,359.9846 L570.89,359.9846" fill="#FFCCCC" style="stroke:#000000;stroke-width:1;"/><path d="M863.1166,359.9846 L863.1166,369.9846 L873.1166,369.9846 L863.1166,359.9846" fill="#FFCCCC" style="stroke:#000000;stroke-width:1;"/><text fill="#000000" font-family="Verdana" font-size="13" font-weight="bold" lengthAdjust="spacing" textLength="259.0161" x="576.89" y="378.0544">Traditional Ada Pattern (NOT used)</text><text fill="#000000" font-family="Verdana" font-size="13" lengthAdjust="spacing" textLength="4.5703" x="576.89" y="393.8538">&#160;</text><text fill="#000000" font-family="Verdana" font-size="13" lengthAdjust="spacing" textLength="48.5088" x="576.89" y="409.6531">```ada</text><text fill="#000000" font-family="Verdana" font-size="13" lengthAdjust="spacing" textLength="202.0586" x="576.89" y="425.4524">-- Tagged type-based injection</text><text fill="#000000" font-family="Verdana" font-size="13" lengthAdjust="spacing" textLength="207.5557" x="576.89" y="441.2517">type Use_Case is tagged record</text><text fill="#000000" font-family="Verdana" font-size="13" lengthAdjust="spacing" textLength="206.4766" x="590.6009" y="457.051">Writer : Writer_Interface'Class;</text><text fill="#000000" font-family="Verdana" font-size="13" lengthAdjust="spacing" textLength="76.1465" x="576.89" y="472.8503">end record;</text><text fill="#000000" font-family="Verdana" font-size="13" lengthAdjust="spacing" textLength="4.5703" x="576.89" y="488.6496">&#160;</text><text fill="#000000" font-family="Verdana" font-size="13" lengthAdjust="spacing" textLength="258.8447" x="576.89" y="504.449">-- Runtime dispatch via dispatching call</text><text fill="#000000" font-family="Verdana" font-size="13" lengthAdjust="spacing" textLength="281.2266" x="576.89" y="520.2483">procedure Execute (Self : Use_Case; ...) is</text><text fill="#000000" font-family="Verdana" font-size="13" lengthAdjust="spacing" textLength="35.7373" x="576.89" y="536.0476">begin</text><text fill="#000000" font-family="Verdana" font-size="13" lengthAdjust="spacing" textLength="245.7939" x="590.6009" y="551.8469">Self.Writer.Write (...);  -- dispatching</text><text fill="#000000" font-family="Verdana" font-size="13" lengthAdjust="spacing" textLength="86.0679" x="576.89" y="567.6462">end Execute;</text><text fill="#000000" font-family="Verdana" font-size="13" lengthAdjust="spacing" textLength="24.7939" x="576.89" y="583.4455">```</text></g><!--reverse link Writer_Interface'Class to Console_Writer--><g class="link" data-entity-1="Writer_Interface.Class" data-entity-2="Console_Writer" data-source-line="20" data-uid="lnk7" id="link_Writer_Interface.Class_Console_Writer"><path codeLine="20" d="M407,247.9046 C407,304.5046 407,392.4646 407,444.7646" fill="none" id="Writer_Interface'Class-backto-Console_Writer" style="stroke:#000000;stroke-width:1;stroke-dasharray:7,7;"/><polygon fill="none" points="407,229.9046,401,247.9046,413,247.9046,407,229.9046" style="stroke:#000000;stroke-width:1;"/></g><!--link Greet_Use_Case to Writer_Interface'Class--><g class="link" data-entity-1="Greet_Use_Case" data-entity-2="Writer_Interface.Class" data-source-line="21" data-uid="lnk8" id="link_Greet_Use_Case_Writer_Interface.Class"><path codeLine="21" d="M287.46,192.6746 C298.85,192.6746 292.3,192.6746 303.44,192.6746" fill="none" id="Greet_Use_Case-Writer_Interface'Class" style="stroke:#000000;stroke-width:1;"/><polygon fill="none" points="275.46,192.6746,281.46,196.6746,287.46,192.6746,281.46,188.6746,275.46,192.6746" style="stroke:#000000;stroke-width:1;"/><polygon fill="#000000" points="309.44,192.6746,300.44,188.6746,304.44,192.6746,300.44,196.6746,309.44,192.6746" style="stroke:#000000;stroke-width:1;"/><text fill="#000000" font-family="Verdana" font-size="13" lengthAdjust="spacing" textLength="75.4736" x="254.8147" y="206.7444">depends on</text><text fill="#000000" font-family="Verdana" font-size="13" lengthAdjust="spacing" textLength="78.2031" x="253.45" y="222.5438">tagged type</text></g><!--link StaticCW to StaticInst--><g class="link" data-entity-1="StaticCW" data-entity-2="StaticInst" data-source-line="39" data-uid="lnk13" id="link_StaticCW_StaticInst"><path codeLine="39" d="M1220.75,229.9046 C1220.75,276.4146 1220.75,350.2646 1220.75,406.2746" fill="none" id="StaticCW-to-StaticInst" style="stroke:#000000;stroke-width:1;stroke-dasharray:7,7;"/><polygon fill="#000000" points="1220.75,412.2746,1224.75,403.2746,1220.75,407.2746,1216.75,403.2746,1220.75,412.2746" style="stroke:#000000;stroke-width:1;"/><text fill="#000000" font-family="Verdana" font-size="13" lengthAdjust="spacing" textLength="112.9946" x="1107.75" y="318.1644">concrete function</text></g><!--link StaticGUC to StaticInst--><g class="link" data-entity-1="StaticGUC" data-entity-2="StaticInst" data-source-line="40" data-uid="lnk14" id="link_StaticGUC_StaticInst"><path codeLine="40" d="M1092.61,238.4346 C1092.61,285.7046 1092.61,353.5346 1092.61,406.2546" fill="none" id="StaticGUC-to-StaticInst" style="stroke:#000000;stroke-width:1;stroke-dasharray:7,7;"/><polygon fill="#000000" points="1092.61,412.2546,1096.61,403.2546,1092.61,407.2546,1088.61,403.2546,1092.61,412.2546" style="stroke:#000000;stroke-width:1;"/><text fill="#000000" font-family="Verdana" font-size="13" lengthAdjust="spacing" textLength="109.313" x="981.4508" y="306.4144">instantiated with</text><text fill="#000000" font-family="Verdana" font-size="13" lengthAdjust="spacing" textLength="112.9946" x="979.61" y="322.2138">concrete function</text></g><!--link Greet_Use_Case to GMN15--><g class="link" data-entity-1="Greet_Use_Case" data-entity-2="GMN15" data-source-line="44" data-uid="lnk17" id="link_Greet_Use_Case_GMN15"><path d="M155,231.6446 C155,239.6546 155,245.6746 155,245.6746 C155,245.6746 421.96,245.6746 573.69,245.6746" fill="none" id="Greet_Use_Case-GMN15" style="stroke:#000000;stroke-width:1;stroke-dasharray:7,7;"/></g><!--link StaticPkg to GMN21--><g class="link" data-entity-1="StaticPkg" data-entity-2="GMN21" data-source-line="66" data-uid="lnk23" id="link_StaticPkg_GMN21"><path d="M1419.0141,340.6746 C1419.0982,340.6746 1419.1829,340.6746 1419.2683,340.6746 C1419.4389,340.6746 1419.612,340.6746 1419.7875,340.6746 C1425.4025,340.6746 1433.46,340.6746 1443.23,340.6746" fill="none" id="StaticPkg-GMN21" style="stroke:#000000;stroke-width:1;stroke-dasharray:7,7;"/></g><!--link DynamicPkg to GMN24--><g class="link" data-entity-1="DynamicPkg" data-entity-2="GMN24" data-source-line="88" data-uid="lnk26" id="link_DynamicPkg_GMN24"><path d="M547.0661,402.6746 C547.1078,402.6746 547.1497,402.6746 547.1917,402.6746 C547.3596,402.6746 547.5299,402.6746 547.7025,402.6746 C553.225,402.6746 561.09,402.6746 570.46,402.6746" fill="none" id="DynamicPkg-GMN24" style="stroke:#000000;stroke-width:1;stroke-dasharray:7,7;"/></g><g class="legend" data-source-line="104"><rect fill="none" height="571.4834" rx="7.5" ry="7.5" style="stroke:#000000;stroke-width:1;" width="556" x="1288.5511" y="641.6716"/><text fill="#000000" font-family="Verdana" font-size="14" font-weight="bold" lengthAdjust="spacing" textLength="166.6055" x="1293.5511" y="660.7468">Why Static Dispatch?</text><text fill="#000000" font-family="Verdana" font-size="14" lengthAdjust="spacing" textLength="546" x="1293.5511" y="677.7615">&#9552;&#9552;&#9552;&#9552;&#9552;&#9552;&#9552;&#9552;&#9552;&#9552;&#9552;&#9552;&#9552;&#9552;&#9552;&#9552;&#9552;&#9552;&#9552;&#9552;&#9552;&#9552;&#9552;&#9552;&#9552;&#9552;&#9552;&#9552;&#9552;&#9552;&#9552;&#9552;&#9552;&#9552;&#9552;&#9552;&#9552;&#9552;&#9552;</text><text fill="#000000" font-family="Verdana" font-size="14" lengthAdjust="spacing" textLength="4.9219" x="1293.5511" y="694.7761">&#160;</text><text fill="#000000" font-family="Verdana" font-size="14" font-weight="bold" lengthAdjust="spacing" textLength="106.3057" x="1293.5511" y="711.7908">Performance:</text><text fill="#000000" font-family="Verdana" font-size="14" lengthAdjust="spacing" textLength="175.2393" x="1293.5511" y="728.8054">&#8226; Zero runtime overhead</text><text fill="#000000" font-family="Verdana" font-size="14" lengthAdjust="spacing" textLength="237.9248" x="1293.5511" y="745.8201">&#8226; Subprogram calls can be inlined</text><text fill="#000000" font-family="Verdana" font-size="14" lengthAdjust="spacing" textLength="192.5957" x="1293.5511" y="762.8347">&#8226; No tagged type allocation</text><text fill="#000000" font-family="Verdana" font-size="14" lengthAdjust="spacing" textLength="4.9219" x="1293.5511" y="779.8494">&#160;</text><text fill="#000000" font-family="Verdana" font-size="14" font-weight="bold" lengthAdjust="spacing" textLength="98.1572" x="1293.5511" y="796.864">Type Safety:</text><text fill="#000000" font-family="Verdana" font-size="14" lengthAdjust="spacing" textLength="253.5107" x="1293.5511" y="813.8787">&#8226; Full type checking at compile time</text><text fill="#000000" font-family="Verdana" font-size="14" lengthAdjust="spacing" textLength="217.3555" x="1293.5511" y="830.8933">&#8226; Errors caught before runtime</text><text fill="#000000" font-family="Verdana" font-size="14" lengthAdjust="spacing" textLength="4.9219" x="1293.5511" y="847.9079">&#160;</text><text fill="#000000" font-family="Verdana" font-size="14" font-weight="bold" lengthAdjust="spacing" textLength="166.5234" x="1293.5511" y="864.9226">Matching Go Pattern:</text><text fill="#000000" font-family="Verdana" font-size="14" lengthAdjust="spacing" textLength="262.8965" x="1293.5511" y="881.9372">&#8226; Go uses generics for static dispatch</text><text fill="#000000" font-family="Verdana" font-size="14" lengthAdjust="spacing" textLength="294.3486" x="1293.5511" y="898.9519">&#8226; Ada generics provide equivalent pattern</text><text fill="#000000" font-family="Verdana" font-size="14" lengthAdjust="spacing" textLength="283.1787" x="1293.5511" y="915.9665">&#8226; Same architecture, same performance</text><text fill="#000000" font-family="Verdana" font-size="14" lengthAdjust="spacing" textLength="4.9219" x="1293.5511" y="932.9812">&#160;</text><text fill="#000000" font-family="Verdana" font-size="14" font-weight="bold" lengthAdjust="spacing" textLength="223.0908" x="1293.5511" y="949.9958">Ada Generics (since Ada 83)</text><text fill="#000000" font-family="Verdana" font-size="14" lengthAdjust="spacing" textLength="546" x="1293.5511" y="967.0105">&#9552;&#9552;&#9552;&#9552;&#9552;&#9552;&#9552;&#9552;&#9552;&#9552;&#9552;&#9552;&#9552;&#9552;&#9552;&#9552;&#9552;&#9552;&#9552;&#9552;&#9552;&#9552;&#9552;&#9552;&#9552;&#9552;&#9552;&#9552;&#9552;&#9552;&#9552;&#9552;&#9552;&#9552;&#9552;&#9552;&#9552;&#9552;&#9552;</text><text fill="#000000" font-family="Verdana" font-size="14" lengthAdjust="spacing" textLength="52.2402" x="1293.5511" y="984.0251">```ada</text><text fill="#000000" font-family="Verdana" font-size="14" lengthAdjust="spacing" textLength="51.3721" x="1293.5511" y="1001.0398">generic</text><text fill="#000000" font-family="Verdana" font-size="14" lengthAdjust="spacing" textLength="334.209" x="1308.3167" y="1018.0544">with function Console_Write (Message : String)</text><text fill="#000000" font-family="Verdana" font-size="14" lengthAdjust="spacing" textLength="184.4336" x="1318.1604" y="1035.0691">return Unit_Result.Result;</text><text fill="#000000" font-family="Verdana" font-size="14" lengthAdjust="spacing" textLength="147.7588" x="1293.5511" y="1052.0837">package Use_Case is</text><text fill="#000000" font-family="Verdana" font-size="14" lengthAdjust="spacing" textLength="254.5088" x="1308.3167" y="1069.0984">function Execute (Cmd : Command)</text><text fill="#000000" font-family="Verdana" font-size="14" lengthAdjust="spacing" textLength="184.4336" x="1318.1604" y="1086.113">return Unit_Result.Result;</text><text fill="#000000" font-family="Verdana" font-size="14" lengthAdjust="spacing" textLength="105.7998" x="1293.5511" y="1103.1277">end Use_Case;</text><text fill="#000000" font-family="Verdana" font-size="14" lengthAdjust="spacing" textLength="4.9219" x="1293.5511" y="1120.1423">&#160;</text><text fill="#000000" font-family="Verdana" font-size="14" lengthAdjust="spacing" textLength="282.2764" x="1293.5511" y="1137.157">-- Instantiation binds concrete function:</text><text fill="#000000" font-family="Verdana" font-size="14" lengthAdjust="spacing" textLength="233.7617" x="1293.5511" y="1154.1716">--   package UC is new Use_Case</text><text fill="#000000" font-family="Verdana" font-size="14" lengthAdjust="spacing" textLength="276.7734" x="1293.5511" y="1171.1863">--     (Console_Write =&gt; Writer.Write);</text><text fill="#000000" font-family="Verdana" font-size="14" lengthAdjust="spacing" textLength="308.0752" x="1293.5511" y="1188.2009">-- Compiler generates code for Writer.Write</text><text fill="#000000" font-family="Verdana" font-size="14" lengthAdjust="spacing" textLength="26.7012" x="1293.5511" y="1205.2156">```</text></g><!--SRC=[nLRRRYD547ttLnJX0JlWaH0WBSuIb9sreqZiOcqIHKAHdFPCsMuoxfxjxebZmKfy0Y_y09_6br1z6xSl2UmBI97jp5JNgSkfK_s9MU0IeQuO5nrzpqND55j2nGMQTOqWbLd8JiTmKo5S6cPu0GyQNgy5MzBFrrpNp1IBM_4QQnGbYc8D5-9dB0oN0hY0ivB1Yfi5dAD0nGlTwTIik6TpXADzBzrtZJ2S0XhBQhsKgbvmlUmT0MiXn_Tp-7Gq6duz_19-wG1165GpLf2x6yNfz-GYFlaihvZMH_3ofM7pEPPWCpezTSS0FdVctJUeDGNJWm6yGzrKXbv-wD17OGz3BeMM5KwyxuywUguGpUHQuoHd6iFHVd0qWCFHUl_3HomQGiYNvRxtdP2ofiv-FNqoUpgm4uZiApvVcFxJPmYoTEtK8CMjIAhN-P2qBz0XwLukbpMli7zrk8N-WElWyCNec-6thYY-MaVRQINs-Grri92YK6Y8gHxz8zju5BE_5OwCiqPuXcwX9g3drpcXpZrdzq6VRL20V2MbqKQn-bPS26qO4PjPp0J5FYUO5LTKNsQWyFK3Em8jMAntQ6CEN8F0bNi7qBQrkvKAV7SQ37O9axcltacCjYroLigLo4xJq0RGrZrMh3rXAtJm26-JfQHijM_5lXU25f8UE2g2dEsGb52EZwCMv5ARmV4nFVlhjpzRkd4nXu9L5I0h5gvYmU2jf118mAn1BRNcqog-kjem6UG3gWMoikEmNb6dPzpe3Kv4drNuoAUyucOTtkHCW5wnsdPCUQiE3GlOX7RJQclbKBRcOpkjdr39JKmnLKL2whFikfmOvTBRv5bkQk7Jk5AinBwSpJQEH_nndrpXtGzCpKb2fkHOhIr4GjFURavJQOnSRf9oSvpder7kaxkYGOUnabRyBIqZoTkEKKXaU7Ttnqf6F_fzQ4Sa9Ots-sAFCrORuon4IezfFqqSxvAXEAlhYXSkYImrpEn7c8fkd1BQLZF5A8YcC8t2ZFPLRQVaYQ7fF3-FAJILe20gPyukIvZjy7UdTJybZpc9odO0czGd1Hyhr2YCHmyMShbaeip2TmGFyZNPsGmKHKmg2oOUbbeLgAlWNiYL1dnarEMqDMHpHZorPDN0589stQT_rorFiVG4U9fQsri-poEtYDVS8h7AtIZ6p51N17JV_dW5ZSQojq-kPDZxKqgFQXKl9cJWDA3DdAeOjXnDd5IXKF-mgws4saJyaLYeg1inPtZWB1rKLo7RIYKBB8bo44eDtKkiPeGMepg1BCjw51jPJt7EXO_AMcKfBQ5hxKuSUge8FhhW_MIlyXNENVHMgboHRnRhtP7ztil87x__ztzUqCPKSAc8kmNkQ6LGtbtDl6ocLDcvlSHwAXQarbFqAm7BZNOcjneWG-cdDiYeVNZ9PdG7JeIq8NexSo9oSMzRULXLXqf9PO4RkmIcI0bWkoYS_pUH2-SoKdc3GyyQgvxXyg61peTXQjiRJEqej6QKzWCl4V1zmnzOHKf0Sk5ynz8mAXTJX6pGYTqNeEsZUbDZ7vvr6w_hqDMSNZYe5r_r_aS-9DCTSlRpyCo53kAzaARgqYYgU2_UYcYrD2GWruARYR- -PVxh997PH1_ykHQcdLchmGC8-lhllDkfQsSygCRM3T4kPBfxxst0WRTDuelB1vBruYmERPYz-rygwwwaRliMaaXaEPVQRzJ3oqRdRm00]--></g></svg>