<svg xmlns="http://www.w3.org/2000/svg" xmlns:xlink="http://www.w3.org/1999/xlink" contentStyleType="text/css" data-diagram-type="CLASS" height="2336px" preserveAspectRatio="none" style="width:1155px;height:2336px;background:#FFFFFF;" version="1.1" viewBox="0 0 1155 2336" width="1155px" zoomAndPan="magnify"><title>Static Dispatch via Generics
Dependency Injection in Ada</title><defs/><g><g class="title" data-source-line="4"><text fill="#000000" font-family="Verdana" font-size="22" font-weight="bold" lengthAdjust="spacing" textLength="344.6416" x="400.6792" y="37.1182">Static Dispatch via Generics</text><text fill="#000000" font-family="Verdana" font-size="22" font-weight="bold" lengthAdjust="spacing" textLength="356.791" x="394.6045" y="63.8555">Dependency Injection in Ada</text></g><!--cluster Infrastructure Layer--><g class="cluster" data-entity="Infrastructure Layer" data-source-line="6" data-uid="ent0002" id="cluster_Infrastructure Layer"><path d="M193.5,514.4646 L355.2266,514.4646 A3.75,3.75 0 0 1 357.7266,516.9646 L364.7266,537.4793 L472.5,537.4793 A2.5,2.5 0 0 1 475,539.9793 L475,672.6046 A2.5,2.5 0 0 1 472.5,675.1046 L193.5,675.1046 A2.5,2.5 0 0 1 191,672.6046 L191,516.9646 A2.5,2.5 0 0 1 193.5,514.4646" fill="#E6F3FF" style="stroke:#000000;stroke-width:1;"/><line style="stroke:#000000;stroke-width:1;" x1="191" x2="364.7266" y1="537.4793" y2="537.4793"/><text fill="#000000" font-family="Verdana" font-size="14" font-weight="bold" lengthAdjust="spacing" textLength="160.7266" x="195" y="530.5398">Infrastructure Layer</text></g><!--cluster Application Layer--><g class="cluster" data-entity="Application Layer" data-source-line="15" data-uid="ent0004" id="cluster_Application Layer"><path d="M261.5,699.1046 L399.2803,699.1046 A3.75,3.75 0 0 1 401.7803,701.6046 L408.7803,722.1193 L598.5,722.1193 A2.5,2.5 0 0 1 601,724.6193 L601,1093.9446 A2.5,2.5 0 0 1 598.5,1096.4446 L261.5,1096.4446 A2.5,2.5 0 0 1 259,1093.9446 L259,701.6046 A2.5,2.5 0 0 1 261.5,699.1046" fill="#E8F5E9" style="stroke:#000000;stroke-width:1;"/><line style="stroke:#000000;stroke-width:1;" x1="259" x2="408.7803" y1="722.1193" y2="722.1193"/><text fill="#000000" font-family="Verdana" font-size="14" font-weight="bold" lengthAdjust="spacing" textLength="136.7803" x="263" y="715.1798">Application Layer</text></g><!--cluster Presentation Layer--><g class="cluster" data-entity="Presentation Layer" data-source-line="35" data-uid="ent0007" id="cluster_Presentation Layer"><path d="M508.5,1172.4046 L658.4961,1172.4046 A3.75,3.75 0 0 1 660.9961,1174.9046 L667.9961,1195.4193 L799.5,1195.4193 A2.5,2.5 0 0 1 802,1197.9193 L802,1364.5746 A2.5,2.5 0 0 1 799.5,1367.0746 L508.5,1367.0746 A2.5,2.5 0 0 1 506,1364.5746 L506,1174.9046 A2.5,2.5 0 0 1 508.5,1172.4046" fill="#FFE4E1" style="stroke:#000000;stroke-width:1;"/><line style="stroke:#000000;stroke-width:1;" x1="506" x2="667.9961" y1="1195.4193" y2="1195.4193"/><text fill="#000000" font-family="Verdana" font-size="14" font-weight="bold" lengthAdjust="spacing" textLength="148.9961" x="510" y="1188.4798">Presentation Layer</text></g><!--cluster Bootstrap Layer--><g class="cluster" data-entity="Bootstrap Layer" data-source-line="46" data-uid="ent0009" id="cluster_Bootstrap Layer"><path d="M443.5,172.1246 L569.9736,172.1246 A3.75,3.75 0 0 1 572.4736,174.6246 L579.4736,195.1393 L650.5,195.1393 A2.5,2.5 0 0 1 653,197.6393 L653,381.3146 A2.5,2.5 0 0 1 650.5,383.8146 L443.5,383.8146 A2.5,2.5 0 0 1 441,381.3146 L441,174.6246 A2.5,2.5 0 0 1 443.5,172.1246" fill="#FFEBCD" style="stroke:#000000;stroke-width:1;"/><line style="stroke:#000000;stroke-width:1;" x1="441" x2="579.4736" y1="195.1393" y2="195.1393"/><text fill="#000000" font-family="Verdana" font-size="14" font-weight="bold" lengthAdjust="spacing" textLength="125.4736" x="445" y="188.1998">Bootstrap Layer</text></g><!--class CW--><g class="entity" data-entity="CW" data-source-line="7" data-uid="ent0003" id="entity_CW"><rect fill="#FFFFFF" height="108.6426" rx="2.5" ry="2.5" style="stroke:#000000;stroke-width:1;" width="252.9014" x="206.55" y="550.4646"/><ellipse cx="275.5031" cy="571.2639" fill="#FFFFFF" rx="9" ry="9" style="stroke:#000000;stroke-width:1;"/><path d="M277.9763,577.407 Q277.3952,577.7058 276.7561,577.8552 Q276.1169,578.0046 275.4113,578.0046 Q272.9045,578.0046 271.5847,576.3528 Q270.2648,574.7009 270.2648,571.5798 Q270.2648,568.4504 271.5847,566.7986 Q272.9045,565.1467 275.4113,565.1467 Q276.1169,565.1467 276.7644,565.2962 Q277.4118,565.4456 277.9763,565.7444 L277.9763,568.4671 Q277.3454,567.886 276.7519,567.6162 Q276.1584,567.3464 275.5275,567.3464 Q274.1828,567.3464 273.498,568.4131 Q272.8132,569.4797 272.8132,571.5798 Q272.8132,573.6716 273.498,574.7383 Q274.1828,575.8049 275.5275,575.8049 Q276.1584,575.8049 276.7519,575.5352 Q277.3454,575.2654 277.9763,574.6843 Z " fill="#000000"/><text fill="#000000" font-family="Verdana" font-size="12" font-style="italic" lengthAdjust="spacing" textLength="65.2617" x="314.1198" y="567.5291">&#171;package&#187;</text><text fill="#000000" font-family="Verdana" font-size="14" lengthAdjust="spacing" textLength="107.4951" x="293.0031" y="584.1238">Console_Writer</text><line style="stroke:#000000;stroke-width:1;" x1="207.55" x2="458.4514" y1="592.0632" y2="592.0632"/><ellipse cx="217.55" cy="606.0706" fill="#FFFFFF" rx="3" ry="3" style="stroke:#000000;stroke-width:1;"/><text fill="#000000" font-family="Verdana" font-size="14" lengthAdjust="spacing" textLength="228.9014" x="224.55" y="610.1384">Write(Message : String) : Result</text><line style="stroke:#000000;stroke-width:1;" x1="207.55" x2="458.4514" y1="617.0779" y2="617.0779"/><text fill="#000000" font-family="Verdana" font-size="14" lengthAdjust="spacing" textLength="177.3379" x="212.55" y="635.1531">Concrete implementation</text><text fill="#000000" font-family="Verdana" font-size="14" lengthAdjust="spacing" textLength="97.9453" x="212.55" y="652.1677">of output port</text></g><!--class Port--><g class="entity" data-entity="Port" data-source-line="16" data-uid="ent0005" id="entity_Port"><rect fill="#FFFFFF" height="142.6719" rx="2.5" ry="2.5" style="stroke:#000000;stroke-width:1;" width="233.4639" x="296.27" y="735.1046"/><ellipse cx="354.5039" cy="755.9039" fill="#FFFFFF" rx="9" ry="9" style="stroke:#000000;stroke-width:1;"/><path d="M356.977,762.047 Q356.396,762.3458 355.7568,762.4952 Q355.1177,762.6446 354.4121,762.6446 Q351.9053,762.6446 350.5854,760.9928 Q349.2656,759.3409 349.2656,756.2198 Q349.2656,753.0904 350.5854,751.4386 Q351.9053,749.7867 354.4121,749.7867 Q355.1177,749.7867 355.7651,749.9362 Q356.4126,750.0856 356.977,750.3844 L356.977,753.1071 Q356.3462,752.526 355.7527,752.2562 Q355.1592,751.9864 354.5283,751.9864 Q353.1836,751.9864 352.4988,753.0531 Q351.8139,754.1197 351.8139,756.2198 Q351.8139,758.3116 352.4988,759.3783 Q353.1836,760.4449 354.5283,760.4449 Q355.1592,760.4449 355.7527,760.1752 Q356.3462,759.9054 356.977,759.3243 Z " fill="#000000"/><text fill="#000000" font-family="Verdana" font-size="12" font-style="italic" lengthAdjust="spacing" textLength="113.4961" x="370.0039" y="752.1691">&#171;generic package&#187;</text><text fill="#000000" font-family="Verdana" font-size="14" lengthAdjust="spacing" textLength="92.4355" x="380.5342" y="768.7638">Console_Port</text><line style="stroke:#000000;stroke-width:1;" x1="297.27" x2="528.7339" y1="776.7032" y2="776.7032"/><text fill="#000000" font-family="Verdana" font-size="14" lengthAdjust="spacing" textLength="51.3721" x="302.27" y="794.7784">generic</text><text fill="#000000" font-family="Verdana" font-size="14" lengthAdjust="spacing" textLength="221.4639" x="302.27" y="811.7931">with function Write(...) : Result</text><line style="stroke:#000000;stroke-width:1;" x1="297.27" x2="528.7339" y1="818.7325" y2="818.7325"/><text fill="#000000" font-family="Verdana" font-size="14" font-weight="bold" lengthAdjust="spacing" textLength="164.1924" x="302.27" y="836.8077">Output Port Contract</text><text fill="#000000" font-family="Verdana" font-size="14" lengthAdjust="spacing" textLength="192.1035" x="302.27" y="853.8224">Defines what infrastructure</text><text fill="#000000" font-family="Verdana" font-size="14" lengthAdjust="spacing" textLength="92.5928" x="302.27" y="870.837">must provide</text></g><!--class UC--><g class="entity" data-entity="UC" data-source-line="25" data-uid="ent0006" id="entity_UC"><rect fill="#FFFFFF" height="142.6719" rx="2.5" ry="2.5" style="stroke:#000000;stroke-width:1;" width="309.4688" x="275.27" y="937.7746"/><ellipse cx="371.5063" cy="958.5739" fill="#FFFFFF" rx="9" ry="9" style="stroke:#000000;stroke-width:1;"/><path d="M373.9795,964.717 Q373.3984,965.0158 372.7593,965.1652 Q372.1201,965.3146 371.4145,965.3146 Q368.9077,965.3146 367.5879,963.6628 Q366.268,962.0109 366.268,958.8898 Q366.268,955.7604 367.5879,954.1086 Q368.9077,952.4567 371.4145,952.4567 Q372.1201,952.4567 372.7676,952.6062 Q373.415,952.7556 373.9795,953.0544 L373.9795,955.7771 Q373.3486,955.196 372.7551,954.9262 Q372.1616,954.6564 371.5307,954.6564 Q370.186,954.6564 369.5012,955.7231 Q368.8164,956.7897 368.8164,958.8898 Q368.8164,960.9816 369.5012,962.0483 Q370.186,963.1149 371.5307,963.1149 Q372.1616,963.1149 372.7551,962.8452 Q373.3486,962.5754 373.9795,961.9943 Z " fill="#000000"/><text fill="#000000" font-family="Verdana" font-size="12" font-style="italic" lengthAdjust="spacing" textLength="113.4961" x="387.0063" y="954.8391">&#171;generic package&#187;</text><text fill="#000000" font-family="Verdana" font-size="14" lengthAdjust="spacing" textLength="68.5986" x="409.4551" y="971.4338">Use_Case</text><line style="stroke:#000000;stroke-width:1;" x1="276.27" x2="583.7388" y1="979.3732" y2="979.3732"/><text fill="#000000" font-family="Verdana" font-size="14" lengthAdjust="spacing" textLength="51.3721" x="293.27" y="997.4484">generic</text><text fill="#000000" font-family="Verdana" font-size="14" lengthAdjust="spacing" textLength="285.4688" x="293.27" y="1014.4631">with function Console_Write(...) : Result</text><ellipse cx="286.27" cy="1027.4099" fill="#FFFFFF" rx="3" ry="3" style="stroke:#000000;stroke-width:1;"/><text fill="#000000" font-family="Verdana" font-size="14" lengthAdjust="spacing" textLength="160.1045" x="293.27" y="1031.4777">Execute(Cmd) : Result</text><line style="stroke:#000000;stroke-width:1;" x1="276.27" x2="583.7388" y1="1038.4172" y2="1038.4172"/><text fill="#000000" font-family="Verdana" font-size="14" font-weight="bold" lengthAdjust="spacing" textLength="116.9697" x="281.27" y="1056.4924">Use Case Logic</text><text fill="#000000" font-family="Verdana" font-size="14" lengthAdjust="spacing" textLength="197.1211" x="281.27" y="1073.507">Generic over writer function</text></g><!--class Cmd--><g class="entity" data-entity="Cmd" data-source-line="36" data-uid="ent0008" id="entity_Cmd"><rect fill="#FFFFFF" height="142.6719" rx="2.5" ry="2.5" style="stroke:#000000;stroke-width:1;" width="263.4355" x="522.28" y="1208.4046"/><ellipse cx="590.5359" cy="1229.2039" fill="#FFFFFF" rx="9" ry="9" style="stroke:#000000;stroke-width:1;"/><path d="M593.009,1235.347 Q592.4279,1235.6458 591.7888,1235.7952 Q591.1496,1235.9446 590.4441,1235.9446 Q587.9372,1235.9446 586.6174,1234.2928 Q585.2976,1232.6409 585.2976,1229.5198 Q585.2976,1226.3904 586.6174,1224.7386 Q587.9372,1223.0867 590.4441,1223.0867 Q591.1496,1223.0867 591.7971,1223.2362 Q592.4446,1223.3856 593.009,1223.6844 L593.009,1226.4071 Q592.3781,1225.826 591.7846,1225.5562 Q591.1911,1225.2864 590.5603,1225.2864 Q589.2155,1225.2864 588.5307,1226.3531 Q587.8459,1227.4197 587.8459,1229.5198 Q587.8459,1231.6116 588.5307,1232.6783 Q589.2155,1233.7449 590.5603,1233.7449 Q591.1911,1233.7449 591.7846,1233.4752 Q592.3781,1233.2054 593.009,1232.6243 Z " fill="#000000"/><text fill="#000000" font-family="Verdana" font-size="12" font-style="italic" lengthAdjust="spacing" textLength="113.4961" x="610.9997" y="1225.4691">&#171;generic package&#187;</text><text fill="#000000" font-family="Verdana" font-size="14" lengthAdjust="spacing" textLength="119.4238" x="608.0359" y="1242.0638">Greet_Command</text><line style="stroke:#000000;stroke-width:1;" x1="523.28" x2="784.7155" y1="1250.0032" y2="1250.0032"/><text fill="#000000" font-family="Verdana" font-size="14" lengthAdjust="spacing" textLength="51.3721" x="540.28" y="1268.0784">generic</text><text fill="#000000" font-family="Verdana" font-size="14" lengthAdjust="spacing" textLength="239.4355" x="540.28" y="1285.0931">with function Execute(...) : Result</text><ellipse cx="533.28" cy="1298.0399" fill="#FFFFFF" rx="3" ry="3" style="stroke:#000000;stroke-width:1;"/><text fill="#000000" font-family="Verdana" font-size="14" lengthAdjust="spacing" textLength="108.0146" x="540.28" y="1302.1077">Run() : Integer</text><line style="stroke:#000000;stroke-width:1;" x1="523.28" x2="784.7155" y1="1309.0472" y2="1309.0472"/><text fill="#000000" font-family="Verdana" font-size="14" font-weight="bold" lengthAdjust="spacing" textLength="93.3584" x="528.28" y="1327.1224">CLI Handler</text><text fill="#000000" font-family="Verdana" font-size="14" lengthAdjust="spacing" textLength="155.1963" x="528.28" y="1344.137">Generic over use case</text></g><!--class Boot--><g class="entity" data-entity="Boot" data-source-line="47" data-uid="ent0010" id="entity_Boot"><rect fill="#FFFFFF" height="159.6865" rx="2.5" ry="2.5" style="stroke:#000000;stroke-width:1;" width="180.8887" x="456.56" y="208.1246"/><ellipse cx="482.5028" cy="228.9239" fill="#FFFFFF" rx="9" ry="9" style="stroke:#000000;stroke-width:1;"/><path d="M484.9759,235.067 Q484.3949,235.3658 483.7557,235.5152 Q483.1165,235.6646 482.411,235.6646 Q479.9041,235.6646 478.5843,234.0128 Q477.2645,232.3609 477.2645,229.2398 Q477.2645,226.1104 478.5843,224.4586 Q479.9041,222.8067 482.411,222.8067 Q483.1165,222.8067 483.764,222.9562 Q484.4115,223.1056 484.9759,223.4044 L484.9759,226.1271 Q484.3451,225.546 483.7516,225.2762 Q483.158,225.0064 482.5272,225.0064 Q481.1825,225.0064 480.4976,226.0731 Q479.8128,227.1397 479.8128,229.2398 Q479.8128,231.3316 480.4976,232.3983 Q481.1825,233.4649 482.5272,233.4649 Q483.158,233.4649 483.7516,233.1952 Q484.3451,232.9254 484.9759,232.3443 Z " fill="#000000"/><text fill="#000000" font-family="Verdana" font-size="12" font-style="italic" lengthAdjust="spacing" textLength="110.0801" x="504.4024" y="225.1891">&#171;main procedure&#187;</text><text fill="#000000" font-family="Verdana" font-size="14" lengthAdjust="spacing" textLength="124.127" x="497.3789" y="241.7838">Composition Root</text><line style="stroke:#000000;stroke-width:1;" x1="457.56" x2="636.4487" y1="249.7232" y2="249.7232"/><text fill="#000000" font-family="Verdana" font-size="14" lengthAdjust="spacing" textLength="128.8984" x="462.56" y="267.7984">Console_Port_Inst</text><text fill="#000000" font-family="Verdana" font-size="14" lengthAdjust="spacing" textLength="67.9492" x="462.56" y="284.8131">Greet_UC</text><text fill="#000000" font-family="Verdana" font-size="14" lengthAdjust="spacing" textLength="80.042" x="462.56" y="301.8277">Greet_Cmd</text><line style="stroke:#000000;stroke-width:1;" x1="457.56" x2="636.4487" y1="308.7672" y2="308.7672"/><text fill="#000000" font-family="Verdana" font-size="14" font-weight="bold" lengthAdjust="spacing" textLength="134.8594" x="462.56" y="326.8424">Wires Everything</text><text fill="#000000" font-family="Verdana" font-size="14" lengthAdjust="spacing" textLength="168.8887" x="462.56" y="343.857">All generics instantiated</text><text fill="#000000" font-family="Verdana" font-size="14" lengthAdjust="spacing" textLength="163.5771" x="462.56" y="360.8717">with concrete functions</text></g><g class="entity" data-entity="GMN18" data-source-line="68" data-uid="ent0019" id="entity_GMN18"><path d="M672,85.4746 L672,283.6246 L637.66,287.6246 L672,291.6246 L672,490.4575 A0,0 0 0 0 672,490.4575 L1148,490.4575 A0,0 0 0 0 1148,490.4575 L1148,95.4746 L1138,85.4746 L672,85.4746 A0,0 0 0 0 672,85.4746" fill="#CCFFCC" style="stroke:#000000;stroke-width:1;"/><path d="M1138,85.4746 L1138,95.4746 L1148,95.4746 L1138,85.4746" fill="#CCFFCC" style="stroke:#000000;stroke-width:1;"/><text fill="#000000" font-family="Verdana" font-size="13" font-weight="bold" lengthAdjust="spacing" textLength="171.5264" x="678" y="103.5444">Bootstrap Instantiation</text><text fill="#000000" font-family="Verdana" font-size="13" lengthAdjust="spacing" textLength="455" x="678" y="119.3438">&#9552;&#9552;&#9552;&#9552;&#9552;&#9552;&#9552;&#9552;&#9552;&#9552;&#9552;&#9552;&#9552;&#9552;&#9552;&#9552;&#9552;&#9552;&#9552;&#9552;&#9552;&#9552;&#9552;&#9552;&#9552;&#9552;&#9552;&#9552;&#9552;&#9552;&#9552;&#9552;&#9552;&#9552;&#9552;</text><text fill="#000000" font-family="Verdana" font-size="13" lengthAdjust="spacing" textLength="4.5703" x="678" y="135.1431">&#160;</text><text fill="#000000" font-family="Verdana" font-size="13" lengthAdjust="spacing" textLength="48.5088" x="678" y="150.9424">```ada</text><text fill="#000000" font-family="Verdana" font-size="13" lengthAdjust="spacing" textLength="284.4321" x="678" y="166.7417">-- 1. Infrastructure provides concrete Write</text><text fill="#000000" font-family="Verdana" font-size="13" lengthAdjust="spacing" textLength="276.3579" x="678" y="182.541">--    (Console_Writer.Write already exists)</text><text fill="#000000" font-family="Verdana" font-size="13" lengthAdjust="spacing" textLength="4.5703" x="678" y="198.3403">&#160;</text><text fill="#000000" font-family="Verdana" font-size="13" lengthAdjust="spacing" textLength="323.5654" x="678" y="214.1396">-- 2. Instantiate Console Port with concrete Write</text><text fill="#000000" font-family="Verdana" font-size="13" lengthAdjust="spacing" textLength="224.377" x="678" y="229.939">package Console_Port_Inst is new</text><text fill="#000000" font-family="Verdana" font-size="13" lengthAdjust="spacing" textLength="193.2988" x="687.1406" y="245.7383">Application.Console_Port.Port</text><text fill="#000000" font-family="Verdana" font-size="13" lengthAdjust="spacing" textLength="222.3457" x="696.2813" y="261.5376">(Write =&gt; Console_Writer.Write);</text><text fill="#000000" font-family="Verdana" font-size="13" lengthAdjust="spacing" textLength="4.5703" x="678" y="277.3369">&#160;</text><text fill="#000000" font-family="Verdana" font-size="13" lengthAdjust="spacing" textLength="282.2739" x="678" y="293.1362">-- 3. Instantiate Use Case with Port's Write</text><text fill="#000000" font-family="Verdana" font-size="13" lengthAdjust="spacing" textLength="167.7813" x="678" y="308.9355">package Greet_UC is new</text><text fill="#000000" font-family="Verdana" font-size="13" lengthAdjust="spacing" textLength="238.8623" x="687.1406" y="324.7349">Application.Usecase.Greet.Use_Case</text><text fill="#000000" font-family="Verdana" font-size="13" lengthAdjust="spacing" textLength="365.8154" x="696.2813" y="340.5342">(Console_Write =&gt; Console_Port_Inst.Write_Message);</text><text fill="#000000" font-family="Verdana" font-size="13" lengthAdjust="spacing" textLength="4.5703" x="678" y="356.3335">&#160;</text><text fill="#000000" font-family="Verdana" font-size="13" lengthAdjust="spacing" textLength="338.9521" x="678" y="372.1328">-- 4. Instantiate Command with Use Case's Execute</text><text fill="#000000" font-family="Verdana" font-size="13" lengthAdjust="spacing" textLength="179.0103" x="678" y="387.9321">package Greet_Cmd is new</text><text fill="#000000" font-family="Verdana" font-size="13" lengthAdjust="spacing" textLength="268.3535" x="687.1406" y="403.7314">Presentation.Greet_Command.Command</text><text fill="#000000" font-family="Verdana" font-size="13" lengthAdjust="spacing" textLength="335.4673" x="696.2813" y="419.5308">(Execute_Greet_Use_Case =&gt; Greet_UC.Execute);</text><text fill="#000000" font-family="Verdana" font-size="13" lengthAdjust="spacing" textLength="4.5703" x="678" y="435.3301">&#160;</text><text fill="#000000" font-family="Verdana" font-size="13" lengthAdjust="spacing" textLength="160.1958" x="678" y="451.1294">-- 5. Run the application</text><text fill="#000000" font-family="Verdana" font-size="13" lengthAdjust="spacing" textLength="201.811" x="678" y="466.9287">Exit_Code := Greet_Cmd.Run;</text><text fill="#000000" font-family="Verdana" font-size="13" lengthAdjust="spacing" textLength="24.7939" x="678" y="482.728">```</text></g><g class="entity" data-entity="GMN21" data-source-line="96" data-uid="ent0022" id="entity_GMN21"><path d="M11,1140.4446 L11,1419.033 A0,0 0 0 0 11,1419.033 L487,1419.033 A0,0 0 0 0 487,1419.033 L487,1150.4446 L477,1140.4446 L385.13,1140.4446 L381.13,1080.9246 L377.13,1140.4446 L11,1140.4446 A0,0 0 0 0 11,1140.4446" fill="#FFFFFF" style="stroke:#000000;stroke-width:1;"/><path d="M477,1140.4446 L477,1150.4446 L487,1150.4446 L477,1140.4446" fill="#FFFFFF" style="stroke:#000000;stroke-width:1;"/><text fill="#000000" font-family="Verdana" font-size="13" font-weight="bold" lengthAdjust="spacing" textLength="125.8486" x="17" y="1158.5144">Generic Use Case</text><text fill="#000000" font-family="Verdana" font-size="13" lengthAdjust="spacing" textLength="455" x="17" y="1174.3138">&#9552;&#9552;&#9552;&#9552;&#9552;&#9552;&#9552;&#9552;&#9552;&#9552;&#9552;&#9552;&#9552;&#9552;&#9552;&#9552;&#9552;&#9552;&#9552;&#9552;&#9552;&#9552;&#9552;&#9552;&#9552;&#9552;&#9552;&#9552;&#9552;&#9552;&#9552;&#9552;&#9552;&#9552;&#9552;</text><text fill="#000000" font-family="Verdana" font-size="13" lengthAdjust="spacing" textLength="4.5703" x="17" y="1190.1131">&#160;</text><text fill="#000000" font-family="Verdana" font-size="13" lengthAdjust="spacing" textLength="48.5088" x="17" y="1205.9124">```ada</text><text fill="#000000" font-family="Verdana" font-size="13" lengthAdjust="spacing" textLength="47.7026" x="17" y="1221.7117">generic</text><text fill="#000000" font-family="Verdana" font-size="13" lengthAdjust="spacing" textLength="310.3369" x="30.7109" y="1237.511">with function Console_Write (Message : String)</text><text fill="#000000" font-family="Verdana" font-size="13" lengthAdjust="spacing" textLength="261.8218" x="39.8516" y="1253.3103">return Console_Port.Unit_Result.Result;</text><text fill="#000000" font-family="Verdana" font-size="13" lengthAdjust="spacing" textLength="312.3682" x="17" y="1269.1096">package Application.Usecase.Greet.Use_Case is</text><text fill="#000000" font-family="Verdana" font-size="13" lengthAdjust="spacing" textLength="4.5703" x="17" y="1284.909">&#160;</text><text fill="#000000" font-family="Verdana" font-size="13" lengthAdjust="spacing" textLength="351.9521" x="30.7109" y="1300.7083">function Execute (Cmd : Greet_Command.Command)</text><text fill="#000000" font-family="Verdana" font-size="13" lengthAdjust="spacing" textLength="261.8218" x="39.8516" y="1316.5076">return Console_Port.Unit_Result.Result;</text><text fill="#000000" font-family="Verdana" font-size="13" lengthAdjust="spacing" textLength="4.5703" x="17" y="1332.3069">&#160;</text><text fill="#000000" font-family="Verdana" font-size="13" lengthAdjust="spacing" textLength="273.4063" x="17" y="1348.1062">end Application.Usecase.Greet.Use_Case;</text><text fill="#000000" font-family="Verdana" font-size="13" lengthAdjust="spacing" textLength="24.7939" x="17" y="1363.9055">```</text><text fill="#000000" font-family="Verdana" font-size="13" lengthAdjust="spacing" textLength="4.5703" x="17" y="1379.7049">&#160;</text><text fill="#000000" font-family="Verdana" font-size="13" font-weight="bold" lengthAdjust="spacing" textLength="32.3477" x="17" y="1395.5042">Key:</text><text fill="#000000" font-family="Verdana" font-size="13" lengthAdjust="spacing" textLength="173.894" x="53.918" y="1395.5042">`with function` parameter</text><text fill="#000000" font-family="Verdana" font-size="13" lengthAdjust="spacing" textLength="255.4297" x="17" y="1411.3035">binds concrete function at instantiation</text></g><g class="entity" data-entity="GMN24" data-source-line="116" data-uid="ent0025" id="entity_GMN24"><path d="M416,1479.0346 L416,1757.623 A0,0 0 0 0 416,1757.623 L892,1757.623 A0,0 0 0 0 892,1757.623 L892,1489.0346 L882,1479.0346 L658,1479.0346 L654,1351.5446 L650,1479.0346 L416,1479.0346 A0,0 0 0 0 416,1479.0346" fill="#FFFFFF" style="stroke:#000000;stroke-width:1;"/><path d="M882,1479.0346 L882,1489.0346 L892,1489.0346 L882,1479.0346" fill="#FFFFFF" style="stroke:#000000;stroke-width:1;"/><text fill="#000000" font-family="Verdana" font-size="13" font-weight="bold" lengthAdjust="spacing" textLength="132.9453" x="422" y="1497.1044">Generic Command</text><text fill="#000000" font-family="Verdana" font-size="13" lengthAdjust="spacing" textLength="455" x="422" y="1512.9038">&#9552;&#9552;&#9552;&#9552;&#9552;&#9552;&#9552;&#9552;&#9552;&#9552;&#9552;&#9552;&#9552;&#9552;&#9552;&#9552;&#9552;&#9552;&#9552;&#9552;&#9552;&#9552;&#9552;&#9552;&#9552;&#9552;&#9552;&#9552;&#9552;&#9552;&#9552;&#9552;&#9552;&#9552;&#9552;</text><text fill="#000000" font-family="Verdana" font-size="13" lengthAdjust="spacing" textLength="4.5703" x="422" y="1528.7031">&#160;</text><text fill="#000000" font-family="Verdana" font-size="13" lengthAdjust="spacing" textLength="48.5088" x="422" y="1544.5024">```ada</text><text fill="#000000" font-family="Verdana" font-size="13" lengthAdjust="spacing" textLength="47.7026" x="422" y="1560.3017">generic</text><text fill="#000000" font-family="Verdana" font-size="13" lengthAdjust="spacing" textLength="257.2896" x="435.7109" y="1576.101">with function Execute_Greet_Use_Case</text><text fill="#000000" font-family="Verdana" font-size="13" lengthAdjust="spacing" textLength="315.0215" x="444.8516" y="1591.9003">(Cmd : Application.Greet_Command.Command)</text><text fill="#000000" font-family="Verdana" font-size="13" lengthAdjust="spacing" textLength="338.1587" x="449.4219" y="1607.6996">return Application.Console_Port.Unit_Result.Result;</text><text fill="#000000" font-family="Verdana" font-size="13" lengthAdjust="spacing" textLength="341.8594" x="422" y="1623.499">package Presentation.Greet_Command.Command is</text><text fill="#000000" font-family="Verdana" font-size="13" lengthAdjust="spacing" textLength="4.5703" x="422" y="1639.2983">&#160;</text><text fill="#000000" font-family="Verdana" font-size="13" lengthAdjust="spacing" textLength="186.0815" x="435.7109" y="1655.0976">function Run return Integer;</text><text fill="#000000" font-family="Verdana" font-size="13" lengthAdjust="spacing" textLength="4.5703" x="422" y="1670.8969">&#160;</text><text fill="#000000" font-family="Verdana" font-size="13" lengthAdjust="spacing" textLength="302.8975" x="422" y="1686.6962">end Presentation.Greet_Command.Command;</text><text fill="#000000" font-family="Verdana" font-size="13" lengthAdjust="spacing" textLength="24.7939" x="422" y="1702.4955">```</text><text fill="#000000" font-family="Verdana" font-size="13" lengthAdjust="spacing" textLength="4.5703" x="422" y="1718.2949">&#160;</text><text fill="#000000" font-family="Verdana" font-size="13" font-weight="bold" lengthAdjust="spacing" textLength="32.3477" x="422" y="1734.0942">Key:</text><text fill="#000000" font-family="Verdana" font-size="13" lengthAdjust="spacing" textLength="173.894" x="458.918" y="1734.0942">`with function` parameter</text><text fill="#000000" font-family="Verdana" font-size="13" lengthAdjust="spacing" textLength="198.8467" x="422" y="1749.8935">binds use case at instantiation</text></g><!--link CW to Port--><g class="link" data-entity-1="CW" data-entity-2="Port" data-source-line="59" data-uid="lnk11" id="link_CW_Port"><path codeLine="59" d="M377.86,659.3546 C377.86,682.5646 377.86,703.9546 377.86,728.7646" fill="none" id="CW-to-Port" style="stroke:#000000;stroke-width:1;stroke-dasharray:7,7;"/><polygon fill="#000000" points="377.86,734.7646,381.86,725.7646,377.86,729.7646,373.86,725.7646,377.86,734.7646" style="stroke:#000000;stroke-width:1;"/><text fill="#000000" font-family="Verdana" font-size="13" lengthAdjust="spacing" textLength="76.1338" x="300.86" y="694.1344">implements</text></g><!--link Port to UC--><g class="link" data-entity-1="Port" data-entity-2="UC" data-source-line="60" data-uid="lnk12" id="link_Port_UC"><path codeLine="60" d="M413,878.1846 C413,897.4246 413,912.2246 413,931.4646" fill="none" id="Port-to-UC" style="stroke:#000000;stroke-width:1;stroke-dasharray:7,7;"/><polygon fill="#000000" points="413,937.4646,417,928.4646,413,932.4646,409,928.4646,413,937.4646" style="stroke:#000000;stroke-width:1;"/><text fill="#000000" font-family="Verdana" font-size="13" lengthAdjust="spacing" textLength="112.5884" x="300" y="904.8944">provides function</text></g><!--link UC to Cmd--><g class="link" data-entity-1="UC" data-entity-2="Cmd" data-source-line="61" data-uid="lnk13" id="link_UC_Cmd"><path codeLine="61" d="M553.51,1080.9246 C553.51,1120.2346 553.51,1162.7746 553.51,1202.0646" fill="none" id="UC-to-Cmd" style="stroke:#000000;stroke-width:1;stroke-dasharray:7,7;"/><polygon fill="#000000" points="553.51,1208.0646,557.51,1199.0646,553.51,1203.0646,549.51,1199.0646,553.51,1208.0646" style="stroke:#000000;stroke-width:1;"/><text fill="#000000" font-family="Verdana" font-size="13" lengthAdjust="spacing" textLength="112.5884" x="554.51" y="1141.5644">provides function</text></g><!--link Boot to CW--><g class="link" data-entity-1="Boot" data-entity-2="CW" data-source-line="62" data-uid="lnk14" id="link_Boot_CW"><path codeLine="62" d="M482.88,368.2846 C482.88,462.0946 482.88,604.6246 482.88,604.6246 C482.88,604.6246 479.66,604.6246 465.79,604.6246" fill="none" id="Boot-to-CW" style="stroke:#000000;stroke-width:1;"/><polygon fill="#000000" points="459.79,604.6246,468.79,608.6246,464.79,604.6246,468.79,600.6246,459.79,604.6246" style="stroke:#000000;stroke-width:1;"/><text fill="#000000" font-family="Verdana" font-size="13" lengthAdjust="spacing" textLength="107.9863" x="374.88" y="495.0744">instantiates with</text></g><!--link Boot to Port--><g class="link" data-entity-1="Boot" data-entity-2="Port" data-source-line="63" data-uid="lnk15" id="link_Boot_Port"><path codeLine="63" d="M506.3,368.1246 C506.3,468.4646 506.3,632.7946 506.3,728.9146" fill="none" id="Boot-to-Port" style="stroke:#000000;stroke-width:1;"/><polygon fill="#000000" points="506.3,734.9146,510.3,725.9146,506.3,729.9146,502.3,725.9146,506.3,734.9146" style="stroke:#000000;stroke-width:1;"/><text fill="#000000" font-family="Verdana" font-size="13" lengthAdjust="spacing" textLength="75.8608" x="507.3" y="548.5944">instantiates</text></g><!--link Boot to UC--><g class="link" data-entity-1="Boot" data-entity-2="UC" data-source-line="64" data-uid="lnk16" id="link_Boot_UC"><path codeLine="64" d="M557.23,368.2446 C557.23,509.9546 557.23,796.2446 557.23,931.5246" fill="none" id="Boot-to-UC" style="stroke:#000000;stroke-width:1;"/><polygon fill="#000000" points="557.23,937.5246,561.23,928.5246,557.23,932.5246,553.23,928.5246,557.23,937.5246" style="stroke:#000000;stroke-width:1;"/><text fill="#000000" font-family="Verdana" font-size="13" lengthAdjust="spacing" textLength="75.8608" x="481.23" y="649.9544">instantiates</text></g><!--link Boot to Cmd--><g class="link" data-entity-1="Boot" data-entity-2="Cmd" data-source-line="65" data-uid="lnk17" id="link_Boot_Cmd"><path codeLine="65" d="M611.09,368.2946 C611.09,557.3646 611.09,1022.0946 611.09,1202.1446" fill="none" id="Boot-to-Cmd" style="stroke:#000000;stroke-width:1;"/><polygon fill="#000000" points="611.09,1208.1446,615.09,1199.1446,611.09,1203.1446,607.09,1199.1446,611.09,1208.1446" style="stroke:#000000;stroke-width:1;"/><text fill="#000000" font-family="Verdana" font-size="13" lengthAdjust="spacing" textLength="75.8608" x="535.09" y="785.2844">instantiates</text></g><g class="legend" data-source-line="135"><rect fill="none" height="554.4688" rx="7.5" ry="7.5" style="stroke:#000000;stroke-width:1;" width="556" x="580" y="1768.623"/><text fill="#000000" font-family="Verdana" font-size="14" font-weight="bold" lengthAdjust="spacing" textLength="187.7012" x="585" y="1787.6982">Static Dispatch Benefits</text><text fill="#000000" font-family="Verdana" font-size="14" lengthAdjust="spacing" textLength="546" x="585" y="1804.7128">&#9552;&#9552;&#9552;&#9552;&#9552;&#9552;&#9552;&#9552;&#9552;&#9552;&#9552;&#9552;&#9552;&#9552;&#9552;&#9552;&#9552;&#9552;&#9552;&#9552;&#9552;&#9552;&#9552;&#9552;&#9552;&#9552;&#9552;&#9552;&#9552;&#9552;&#9552;&#9552;&#9552;&#9552;&#9552;&#9552;&#9552;&#9552;&#9552;</text><text fill="#000000" font-family="Verdana" font-size="14" lengthAdjust="spacing" textLength="4.9219" x="585" y="1821.7275">&#160;</text><text fill="#000000" font-family="Verdana" font-size="14" font-weight="bold" lengthAdjust="spacing" textLength="106.3057" x="585" y="1838.7421">Performance:</text><text fill="#000000" font-family="Verdana" font-size="14" lengthAdjust="spacing" textLength="175.2393" x="585" y="1855.7568">&#8226; Zero runtime overhead</text><text fill="#000000" font-family="Verdana" font-size="14" lengthAdjust="spacing" textLength="243.79" x="585" y="1872.7714">&#8226; All calls resolved at compile time</text><text fill="#000000" font-family="Verdana" font-size="14" lengthAdjust="spacing" textLength="237.9248" x="585" y="1889.7861">&#8226; Subprogram calls can be inlined</text><text fill="#000000" font-family="Verdana" font-size="14" lengthAdjust="spacing" textLength="205.6729" x="585" y="1906.8007">&#8226; No tagged type dispatching</text><text fill="#000000" font-family="Verdana" font-size="14" lengthAdjust="spacing" textLength="4.9219" x="585" y="1923.8154">&#160;</text><text fill="#000000" font-family="Verdana" font-size="14" font-weight="bold" lengthAdjust="spacing" textLength="98.1572" x="585" y="1940.83">Type Safety:</text><text fill="#000000" font-family="Verdana" font-size="14" lengthAdjust="spacing" textLength="200.3135" x="585" y="1957.8447">&#8226; Full compile-time checking</text><text fill="#000000" font-family="Verdana" font-size="14" lengthAdjust="spacing" textLength="241.1992" x="585" y="1974.8593">&#8226; Instantiation errors caught early</text><text fill="#000000" font-family="Verdana" font-size="14" lengthAdjust="spacing" textLength="216.248" x="585" y="1991.874">&#8226; No runtime type mismatches</text><text fill="#000000" font-family="Verdana" font-size="14" lengthAdjust="spacing" textLength="4.9219" x="585" y="2008.8886">&#160;</text><text fill="#000000" font-family="Verdana" font-size="14" font-weight="bold" lengthAdjust="spacing" textLength="102.9766" x="585" y="2025.9033">Architecture:</text><text fill="#000000" font-family="Verdana" font-size="14" lengthAdjust="spacing" textLength="209.9043" x="585" y="2042.9179">&#8226; Clean dependency inversion</text><text fill="#000000" font-family="Verdana" font-size="14" lengthAdjust="spacing" textLength="238.082" x="585" y="2059.9326">&#8226; Infrastructure implements ports</text><text fill="#000000" font-family="Verdana" font-size="14" lengthAdjust="spacing" textLength="214.4912" x="585" y="2076.9472">&#8226; Application defines contracts</text><text fill="#000000" font-family="Verdana" font-size="14" lengthAdjust="spacing" textLength="202.3574" x="585" y="2093.9619">&#8226; Bootstrap wires everything</text><text fill="#000000" font-family="Verdana" font-size="14" lengthAdjust="spacing" textLength="4.9219" x="585" y="2110.9765">&#160;</text><text fill="#000000" font-family="Verdana" font-size="14" font-weight="bold" lengthAdjust="spacing" textLength="158.0811" x="585" y="2127.9912">Ada Generic Pattern</text><text fill="#000000" font-family="Verdana" font-size="14" lengthAdjust="spacing" textLength="546" x="585" y="2145.0058">&#9552;&#9552;&#9552;&#9552;&#9552;&#9552;&#9552;&#9552;&#9552;&#9552;&#9552;&#9552;&#9552;&#9552;&#9552;&#9552;&#9552;&#9552;&#9552;&#9552;&#9552;&#9552;&#9552;&#9552;&#9552;&#9552;&#9552;&#9552;&#9552;&#9552;&#9552;&#9552;&#9552;&#9552;&#9552;&#9552;&#9552;&#9552;&#9552;</text><text fill="#000000" font-family="Verdana" font-size="14" lengthAdjust="spacing" textLength="295.5518" x="585" y="2162.0204">&#8226; `generic` introduces formal parameters</text><text fill="#000000" font-family="Verdana" font-size="14" lengthAdjust="spacing" textLength="290.8896" x="585" y="2179.0351">&#8226; `with function` is a formal subprogram</text><text fill="#000000" font-family="Verdana" font-size="14" lengthAdjust="spacing" textLength="278.1338" x="585" y="2196.0497">&#8226; Instantiation binds concrete functions</text><text fill="#000000" font-family="Verdana" font-size="14" lengthAdjust="spacing" textLength="268.584" x="585" y="2213.0644">&#8226; Compiler generates specialized code</text><text fill="#000000" font-family="Verdana" font-size="14" lengthAdjust="spacing" textLength="4.9219" x="585" y="2230.079">&#160;</text><text fill="#000000" font-family="Verdana" font-size="14" font-weight="bold" lengthAdjust="spacing" textLength="233.6113" x="585" y="2247.0937">Same Pattern as Go Generics:</text><text fill="#000000" font-family="Verdana" font-size="14" lengthAdjust="spacing" textLength="263.1152" x="585" y="2264.1083">&#8226; Go: `GreetUseCase[W WriterPort]`</text><text fill="#000000" font-family="Verdana" font-size="14" lengthAdjust="spacing" textLength="258.3164" x="585" y="2281.123">&#8226; Ada: `generic with function Write`</text><text fill="#000000" font-family="Verdana" font-size="14" lengthAdjust="spacing" textLength="209.6924" x="585" y="2298.1376">&#8226; Both achieve static dispatch</text><text fill="#000000" font-family="Verdana" font-size="14" lengthAdjust="spacing" textLength="249.2109" x="585" y="2315.1523">&#8226; Both have zero runtime overhead</text></g><!--SRC=[pLZTJXmt5BwVfpXDBW8RCLAQf6et2H8CkmILjYWK8VL7hF5uTrrcx97j0JPLf3v2R_e2VRG-IO__vcTt03KNIH7IBkCpzlTzv_FnCL-O9IiPL0NX8j5NN5H4aH8ABfXPLGoaCakP98QRWi6f8OPJEE2w8eOkuPeJE6I2AKxrB-A0LKpaJD0L78dV63LS2k02zdAI91MXLsJ1uD6Hc2kYZQgfgHM3Ox9YwX4yddmrVJwTmky902s8rl0eaqBBWbsSAsvi2D6GdSFhrs6ctLqN3F3K1MnznxIs2umHfU9YiOtVtZ5T5yP5xUou3voKAcOOyB8gaBYmZAHmOt8EiZPLRQ12rlZeG_AX0tolgWfENNYB-klfoyatGwXFS0g7sNv1r0il4woZ3y_TTu0RRfOmhuNNpXDBqtIOosZqWuVhbi25ZIBKZ4Pky83DCOKQRfR4O1AwchlnijR8KybhdZD7jQLmfjb5HZHpyC-oZmJVIzy0YQUJMqPh7ChA_2v-Y0Gi4ZYM2qu3is0uaDTCmOqpHxFgHj9E5DCnoKtMfjF9YycpRjOE5MFc8fDbIKJkhLRc7qayyXgW_AuMM_RPaJ1imLIVR7Py16zn-OAf8QOroa1HYmsA-r8Qp2sfklpsiuE-AyjAQkxmlSDuHz6-Y1nBtFdM2PJbQ8w6OjV85qT2UmfUgBEiymSgrITopb5qc23ebLdYJWnizeeYwgRHaTeGOJWnpB_jDAHnTqOnTMJx17KiN1RrabSwmKgGfhlU-UDsC-l4FR53QDnnDBXk3OAFxQXDxz2mqsGdbpTYPzUMct4NgNOe-p4HGIUg7-1mt3tiWVJ64o5H0iKNIsDhaWj_d6NJQMPb7utQX1yrho5s9_C_V_tvQNvjlPZDPWHhkqqzF4jXhR8tuZPPTQN0X-FFLh_0f-u3IA4OoLV0RhasUZlnuL-c7QuiUjEBttTEN2DkZmqR0zSWs8stP5lIqsvWUk8F00VJutgp2qDujry5XC_x29lAvT3PwPxe3MnnCzq52IUnEpvrSMaion5N3quNNqFLGxm89sC3zSMwcAxgUQGHDw8DTMm3htLi1t2tmgQzEfg6pmWuJ7WHQ0Sw5daK8WqX3TINAM3D1EnHWBJ2uDZabjjrSZpltxIuKWn-vOsPO2i2TYE5xNGfZP6btKzdVXV5uXePVyRjqpjDxZb5ORF92Te2UhzMecU1z4oWHlxuIVt7gquo7pOQPZdnyw-VRR3bozPWklyp9eotoNeOK4ojoz-tR3KUZM3Mqsi6hdt5Gc0FrqikShrvg83hY3gLyswl-BEjDKkW-F_qol3-Yja8AUkgV7_wOlxkB9Bt- -lXkZ3WBxlPmxAXHshiyV1y7sUFs5VTvue2aU0VxaXsiwzVXFOnAtDkzASrnhf9HgCJfkPIeHYKZJsMF_w6dvYIe6haXHSzsqikyOGDOxOfewGeDCgEcRrckTM1Ohl8yNorRuJ0q_eI3_I5lHlwU4e4N6AD4FQg6AVxNe8XYmNEuYwFUT07AvN7zwDzUahcUBTiyKrh2y8lkUD0qYMZL_Ob7z1hSu0f9PLTlxOD4YEgMBMhHvfk-PBhqYxFj5zzJo4KmrnxqYwV5GofvEtbbGlKIFjpnY_VwslQPjFT4tLKidCzpCFbYuOxMOnfExSRroEpfaSE0FFcFWqdnA1DnMTqbCSy2nLdXheO9VEQsdxPcgneTrCakBxTi4yWCLWt3XfCwnt5EiwSUNyeNm1TCwuhHZaf-7kq6yLMm6juYeYYUFQMSoYRVr6qEJ-KOvYv8e9bqbR9dyzzTwPiPVjr5dEQat4ZmD3bVDOa5eS8kWip2jeNXsZ-RiYIuFZxmVt8xCtFbfdaNm00]--></g></svg>