<svg xmlns="http://www.w3.org/2000/svg" xmlns:xlink="http://www.w3.org/1999/xlink" contentStyleType="text/css" data-diagram-type="DESCRIPTION" height="1228px" preserveAspectRatio="none" style="width:1932px;height:1228px;background:#FFFFFF;" version="1.1" viewBox="0 0 1932 1228" width="1932px" zoomAndPan="magnify"><title>5-Layer Architecture
Hexagonal (Ports &amp; Adapters) + Clean + DDD</title><defs/><g><g class="title" data-source-line="6"><text fill="#000000" font-family="Verdana" font-size="22" font-weight="bold" lengthAdjust="spacing" textLength="255.2666" x="833.8667" y="37.1182">5-Layer Architecture</text><text fill="#000000" font-family="Verdana" font-size="22" font-weight="bold" lengthAdjust="spacing" textLength="564.0938" x="679.4531" y="63.8555">Hexagonal (Ports &amp; Adapters) + Clean + DDD</text></g><!--cluster Bootstrap--><g class="cluster" data-entity="Bootstrap" data-source-line="8" data-uid="ent0002" id="cluster_Bootstrap"><path d="M1191.5,85.4746 L1317.9736,85.4746 A3.75,3.75 0 0 1 1320.4736,87.9746 L1327.4736,108.4893 L1500.5,108.4893 A2.5,2.5 0 0 1 1503,110.9893 L1503,239.9646 A2.5,2.5 0 0 1 1500.5,242.4646 L1191.5,242.4646 A2.5,2.5 0 0 1 1189,239.9646 L1189,87.9746 A2.5,2.5 0 0 1 1191.5,85.4746" fill="#FFEBCD" style="stroke:#000000;stroke-width:1;"/><line style="stroke:#000000;stroke-width:1;" x1="1189" x2="1327.4736" y1="108.4893" y2="108.4893"/><text fill="#000000" font-family="Verdana" font-size="14" font-weight="bold" lengthAdjust="spacing" textLength="125.4736" x="1193" y="101.5498">Bootstrap Layer</text></g><!--cluster Presentation--><g class="cluster" data-entity="Presentation" data-source-line="18" data-uid="ent0006" id="cluster_Presentation"><path d="M391.5,282.4646 L541.4961,282.4646 A3.75,3.75 0 0 1 543.9961,284.9646 L550.9961,305.4793 L1089.5,305.4793 A2.5,2.5 0 0 1 1092,307.9793 L1092,436.9646 A2.5,2.5 0 0 1 1089.5,439.4646 L391.5,439.4646 A2.5,2.5 0 0 1 389,436.9646 L389,284.9646 A2.5,2.5 0 0 1 391.5,282.4646" fill="#FFE4E1" style="stroke:#000000;stroke-width:1;"/><line style="stroke:#000000;stroke-width:1;" x1="389" x2="550.9961" y1="305.4793" y2="305.4793"/><text fill="#000000" font-family="Verdana" font-size="14" font-weight="bold" lengthAdjust="spacing" textLength="148.9961" x="393" y="298.5398">Presentation Layer</text></g><!--cluster Infrastructure--><g class="cluster" data-entity="Infrastructure" data-source-line="30" data-uid="ent0012" id="cluster_Infrastructure"><path d="M1143.5,290.3646 L1305.2266,290.3646 A3.75,3.75 0 0 1 1307.7266,292.8646 L1314.7266,313.3793 L1911.5,313.3793 A2.5,2.5 0 0 1 1914,315.8793 L1914,429.0646 A2.5,2.5 0 0 1 1911.5,431.5646 L1143.5,431.5646 A2.5,2.5 0 0 1 1141,429.0646 L1141,292.8646 A2.5,2.5 0 0 1 1143.5,290.3646" fill="#E6F3FF" style="stroke:#000000;stroke-width:1;"/><line style="stroke:#000000;stroke-width:1;" x1="1141" x2="1314.7266" y1="313.3793" y2="313.3793"/><text fill="#000000" font-family="Verdana" font-size="14" font-weight="bold" lengthAdjust="spacing" textLength="160.7266" x="1145" y="306.4398">Infrastructure Layer</text></g><!--cluster Application--><g class="cluster" data-entity="Application" data-source-line="41" data-uid="ent0018" id="cluster_Application"><path d="M13.5,479.4646 L151.2803,479.4646 A3.75,3.75 0 0 1 153.7803,481.9646 L160.7803,502.4793 L928.5,502.4793 A2.5,2.5 0 0 1 931,504.9793 L931,791.3646 A2.5,2.5 0 0 1 928.5,793.8646 L13.5,793.8646 A2.5,2.5 0 0 1 11,791.3646 L11,481.9646 A2.5,2.5 0 0 1 13.5,479.4646" fill="#E8F5E9" style="stroke:#000000;stroke-width:1;"/><line style="stroke:#000000;stroke-width:1;" x1="11" x2="160.7803" y1="502.4793" y2="502.4793"/><text fill="#000000" font-family="Verdana" font-size="14" font-weight="bold" lengthAdjust="spacing" textLength="136.7803" x="15" y="495.5398">Application Layer</text></g><!--cluster Domain--><g class="cluster" data-entity="Domain" data-source-line="58" data-uid="ent0028" id="cluster_Domain"><path d="M973.5,668.4646 L1083.082,668.4646 A3.75,3.75 0 0 1 1085.582,670.9646 L1092.582,691.4793 L1691.5,691.4793 A2.5,2.5 0 0 1 1694,693.9793 L1694,954.1746 A2.5,2.5 0 0 1 1691.5,956.6746 L973.5,956.6746 A2.5,2.5 0 0 1 971,954.1746 L971,670.9646 A2.5,2.5 0 0 1 973.5,668.4646" fill="#FFF9E6" style="stroke:#000000;stroke-width:1;"/><line style="stroke:#000000;stroke-width:1;" x1="971" x2="1092.582" y1="691.4793" y2="691.4793"/><text fill="#000000" font-family="Verdana" font-size="14" font-weight="bold" lengthAdjust="spacing" textLength="108.582" x="975" y="684.5398">Domain Layer</text></g><g class="entity" data-entity="GMN3" data-source-line="10" data-uid="ent0004" id="entity_GMN3"><path d="M1213.26,129.4746 L1213.26,218.4712 L1414.7493,218.4712 L1414.7493,139.4746 L1404.7493,129.4746 L1213.26,129.4746" fill="#FFFFFF" style="stroke:#000000;stroke-width:1;"/><path d="M1404.7493,129.4746 L1404.7493,139.4746 L1414.7493,139.4746 L1404.7493,129.4746" fill="#FFFFFF" style="stroke:#000000;stroke-width:1;"/><text fill="#000000" font-family="Verdana" font-size="13" font-weight="bold" lengthAdjust="spacing" textLength="129.1938" x="1219.26" y="147.5444">Composition Root</text><text fill="#000000" font-family="Verdana" font-size="13" lengthAdjust="spacing" textLength="159.8848" x="1219.26" y="163.3438">- Wires all dependencies</text><text fill="#000000" font-family="Verdana" font-size="13" lengthAdjust="spacing" textLength="5.9033" x="1219.26" y="179.1431">-</text><text fill="#000000" font-family="Verdana" font-size="13" font-weight="bold" lengthAdjust="spacing" textLength="152.9531" x="1229.7336" y="179.1431">Generic instantiation</text><text fill="#000000" font-family="Verdana" font-size="13" lengthAdjust="spacing" textLength="138.6519" x="1219.26" y="194.9424">- Application lifecycle</text><text fill="#000000" font-family="Verdana" font-size="13" lengthAdjust="spacing" textLength="180.4893" x="1219.26" y="210.7417">- Can depend on ALL layers</text></g><!--entity CLI--><g class="entity" data-entity="CLI" data-source-line="19" data-uid="ent0007" id="entity_CLI"><rect fill="#FFFFFF" height="47.0146" rx="2.5" ry="2.5" style="stroke:#000000;stroke-width:1;" width="63.4609" x="741.27" y="347.4646"/><rect fill="#FFFFFF" height="10" style="stroke:#000000;stroke-width:1;" width="15" x="784.7309" y="352.4646"/><rect fill="#FFFFFF" height="2" style="stroke:#000000;stroke-width:1;" width="4" x="782.7309" y="354.4646"/><rect fill="#FFFFFF" height="2" style="stroke:#000000;stroke-width:1;" width="4" x="782.7309" y="358.4646"/><text fill="#000000" font-family="Verdana" font-size="14" lengthAdjust="spacing" textLength="23.4609" x="756.27" y="381.5398">CLI</text></g><!--entity Commands--><g class="entity" data-entity="Commands" data-source-line="20" data-uid="ent0008" id="entity_Commands"><rect fill="#FFFFFF" height="47.0146" rx="2.5" ry="2.5" style="stroke:#000000;stroke-width:1;" width="118.791" x="884.6" y="347.4646"/><rect fill="#FFFFFF" height="10" style="stroke:#000000;stroke-width:1;" width="15" x="983.391" y="352.4646"/><rect fill="#FFFFFF" height="2" style="stroke:#000000;stroke-width:1;" width="4" x="981.391" y="354.4646"/><rect fill="#FFFFFF" height="2" style="stroke:#000000;stroke-width:1;" width="4" x="981.391" y="358.4646"/><text fill="#000000" font-family="Verdana" font-size="14" lengthAdjust="spacing" textLength="78.791" x="899.6" y="381.5398">Commands</text></g><g class="entity" data-entity="GMN9" data-source-line="22" data-uid="ent0010" id="entity_GMN9"><path d="M412.92,326.4646 L412.92,415.4612 L661.0836,415.4612 L661.0836,336.4646 L651.0836,326.4646 L412.92,326.4646" fill="#FFFFFF" style="stroke:#000000;stroke-width:1;"/><path d="M651.0836,326.4646 L651.0836,336.4646 L661.0836,336.4646 L651.0836,326.4646" fill="#FFFFFF" style="stroke:#000000;stroke-width:1;"/><text fill="#000000" font-family="Verdana" font-size="13" font-weight="bold" lengthAdjust="spacing" textLength="123.0684" x="418.92" y="344.5344">Driving Adapters</text><text fill="#000000" font-family="Verdana" font-size="13" lengthAdjust="spacing" textLength="178.1597" x="418.92" y="360.3338">- User interfaces (CLI, API)</text><text fill="#000000" font-family="Verdana" font-size="13" lengthAdjust="spacing" textLength="189.0396" x="418.92" y="376.1331">- Request/response mapping</text><text fill="#000000" font-family="Verdana" font-size="13" lengthAdjust="spacing" textLength="5.9033" x="418.92" y="391.9324">-</text><text fill="#000000" font-family="Verdana" font-size="13" font-weight="bold" lengthAdjust="spacing" textLength="216.6899" x="429.3936" y="391.9324">Depends ONLY on Application</text><text fill="#000000" font-family="Verdana" font-size="13" lengthAdjust="spacing" textLength="5.9033" x="418.92" y="407.7317">-</text><text fill="#000000" font-family="Verdana" font-size="13" font-weight="bold" lengthAdjust="spacing" textLength="174.2114" x="429.3936" y="407.7317">CANNOT access Domain</text></g><!--entity Adapters--><g class="entity" data-entity="Adapters" data-source-line="31" data-uid="ent0013" id="entity_Adapters"><rect fill="#FFFFFF" height="47.0146" rx="2.5" ry="2.5" style="stroke:#000000;stroke-width:1;" width="102.5488" x="1499.73" y="347.4646"/><rect fill="#FFFFFF" height="10" style="stroke:#000000;stroke-width:1;" width="15" x="1582.2788" y="352.4646"/><rect fill="#FFFFFF" height="2" style="stroke:#000000;stroke-width:1;" width="4" x="1580.2788" y="354.4646"/><rect fill="#FFFFFF" height="2" style="stroke:#000000;stroke-width:1;" width="4" x="1580.2788" y="358.4646"/><text fill="#000000" font-family="Verdana" font-size="14" lengthAdjust="spacing" textLength="62.5488" x="1514.73" y="381.5398">Adapters</text></g><!--entity ConsoleWriter--><g class="entity" data-entity="ConsoleWriter" data-source-line="32" data-uid="ent0014" id="entity_ConsoleWriter"><rect fill="#FFFFFF" height="47.0146" rx="2.5" ry="2.5" style="stroke:#000000;stroke-width:1;" width="143.5166" x="1682.24" y="347.4646"/><rect fill="#FFFFFF" height="10" style="stroke:#000000;stroke-width:1;" width="15" x="1805.7566" y="352.4646"/><rect fill="#FFFFFF" height="2" style="stroke:#000000;stroke-width:1;" width="4" x="1803.7566" y="354.4646"/><rect fill="#FFFFFF" height="2" style="stroke:#000000;stroke-width:1;" width="4" x="1803.7566" y="358.4646"/><text fill="#000000" font-family="Verdana" font-size="14" lengthAdjust="spacing" textLength="103.5166" x="1697.24" y="381.5398">Console Writer</text></g><g class="entity" data-entity="GMN15" data-source-line="34" data-uid="ent0016" id="entity_GMN15"><path d="M1164.51,334.3646 L1164.51,407.5619 L1419.4846,407.5619 L1419.4846,344.3646 L1409.4846,334.3646 L1164.51,334.3646" fill="#FFFFFF" style="stroke:#000000;stroke-width:1;"/><path d="M1409.4846,334.3646 L1409.4846,344.3646 L1419.4846,344.3646 L1409.4846,334.3646" fill="#FFFFFF" style="stroke:#000000;stroke-width:1;"/><text fill="#000000" font-family="Verdana" font-size="13" font-weight="bold" lengthAdjust="spacing" textLength="118.168" x="1170.51" y="352.4344">Driven Adapters</text><text fill="#000000" font-family="Verdana" font-size="13" lengthAdjust="spacing" textLength="175.8555" x="1170.51" y="368.2338">- Implements Output Ports</text><text fill="#000000" font-family="Verdana" font-size="13" lengthAdjust="spacing" textLength="191.2168" x="1170.51" y="384.0331">- External system integration</text><text fill="#000000" font-family="Verdana" font-size="13" lengthAdjust="spacing" textLength="233.9746" x="1170.51" y="399.8324">- Depends on Application + Domain</text></g><!--entity UseCases--><g class="entity" data-entity="UseCases" data-source-line="42" data-uid="ent0019" id="entity_UseCases"><rect fill="#FFFFFF" height="47.0146" rx="2.5" ry="2.5" style="stroke:#000000;stroke-width:1;" width="111.9141" x="273.04" y="544.4546"/><rect fill="#FFFFFF" height="10" style="stroke:#000000;stroke-width:1;" width="15" x="364.9541" y="549.4546"/><rect fill="#FFFFFF" height="2" style="stroke:#000000;stroke-width:1;" width="4" x="362.9541" y="551.4546"/><rect fill="#FFFFFF" height="2" style="stroke:#000000;stroke-width:1;" width="4" x="362.9541" y="555.4546"/><text fill="#000000" font-family="Verdana" font-size="14" lengthAdjust="spacing" textLength="71.9141" x="288.04" y="578.5298">Use Cases</text></g><!--entity Ports--><g class="entity" data-entity="Ports" data-source-line="43" data-uid="ent0020" id="entity_Ports"><rect fill="#FFFFFF" height="47.0146" rx="2.5" ry="2.5" style="stroke:#000000;stroke-width:1;" width="75.7246" x="465.14" y="544.4546"/><rect fill="#FFFFFF" height="10" style="stroke:#000000;stroke-width:1;" width="15" x="520.8646" y="549.4546"/><rect fill="#FFFFFF" height="2" style="stroke:#000000;stroke-width:1;" width="4" x="518.8646" y="551.4546"/><rect fill="#FFFFFF" height="2" style="stroke:#000000;stroke-width:1;" width="4" x="518.8646" y="555.4546"/><text fill="#000000" font-family="Verdana" font-size="14" lengthAdjust="spacing" textLength="35.7246" x="480.14" y="578.5298">Ports</text></g><!--entity AppError--><g class="entity" data-entity="AppError" data-source-line="44" data-uid="ent0021" id="entity_AppError"><rect fill="#FFFF99" height="47.0146" rx="2.5" ry="2.5" style="stroke:#000000;stroke-width:1;" width="157.4824" x="35.26" y="544.4546"/><rect fill="#FFFF99" height="10" style="stroke:#000000;stroke-width:1;" width="15" x="172.7424" y="549.4546"/><rect fill="#FFFF99" height="2" style="stroke:#000000;stroke-width:1;" width="4" x="170.7424" y="551.4546"/><rect fill="#FFFF99" height="2" style="stroke:#000000;stroke-width:1;" width="4" x="170.7424" y="555.4546"/><text fill="#000000" font-family="Verdana" font-size="14" lengthAdjust="spacing" textLength="117.4824" x="50.26" y="578.5298">Application.Error</text></g><g class="entity" data-entity="GMN22" data-source-line="46" data-uid="ent0023" id="entity_GMN22"><path d="M621.01,523.4646 L621.01,612.4612 L842.9895,612.4612 L842.9895,533.4646 L832.9895,523.4646 L621.01,523.4646" fill="#FFFFFF" style="stroke:#000000;stroke-width:1;"/><path d="M832.9895,523.4646 L832.9895,533.4646 L842.9895,533.4646 L832.9895,523.4646" fill="#FFFFFF" style="stroke:#000000;stroke-width:1;"/><text fill="#000000" font-family="Verdana" font-size="13" font-weight="bold" lengthAdjust="spacing" textLength="145.355" x="627.01" y="541.5344">Orchestration Layer</text><text fill="#000000" font-family="Verdana" font-size="13" lengthAdjust="spacing" textLength="175.4937" x="627.01" y="557.3338">- Coordinates domain logic</text><text fill="#000000" font-family="Verdana" font-size="13" lengthAdjust="spacing" textLength="187.5098" x="627.01" y="573.1331">- Defines Input/Output Ports</text><text fill="#000000" font-family="Verdana" font-size="13" lengthAdjust="spacing" textLength="176.7568" x="627.01" y="588.9324">- Re-exports Domain types</text><text fill="#000000" font-family="Verdana" font-size="13" lengthAdjust="spacing" textLength="5.9033" x="627.01" y="604.7317">-</text><text fill="#000000" font-family="Verdana" font-size="13" font-weight="bold" lengthAdjust="spacing" textLength="190.5059" x="637.4836" y="604.7317">Depends ONLY on Domain</text></g><g class="entity" data-entity="GMN25" data-source-line="53" data-uid="ent0026" id="entity_GMN25"><path d="M34.62,728.2646 L34.62,769.8632 A0,0 0 0 0 34.62,769.8632 L219.3832,769.8632 A0,0 0 0 0 219.3832,769.8632 L219.3832,738.2646 L209.3832,728.2646 L118,728.2646 L114,591.6446 L110,728.2646 L34.62,728.2646 A0,0 0 0 0 34.62,728.2646" fill="#FFFFFF" style="stroke:#000000;stroke-width:1;"/><path d="M209.3832,728.2646 L209.3832,738.2646 L219.3832,738.2646 L209.3832,728.2646" fill="#FFFFFF" style="stroke:#000000;stroke-width:1;"/><text fill="#000000" font-family="Verdana" font-size="13" lengthAdjust="spacing" textLength="163.7632" x="40.62" y="746.3344">Re-exports Domain.Error</text><text fill="#000000" font-family="Verdana" font-size="13" lengthAdjust="spacing" textLength="141.1211" x="40.62" y="762.1338">for Presentation layer</text></g><!--entity VOs--><g class="entity" data-entity="VOs" data-source-line="59" data-uid="ent0029" id="entity_VOs"><rect fill="#FFFFFF" height="47.0146" rx="2.5" ry="2.5" style="stroke:#000000;stroke-width:1;" width="136.9473" x="1253.53" y="725.5546"/><rect fill="#FFFFFF" height="10" style="stroke:#000000;stroke-width:1;" width="15" x="1370.4773" y="730.5546"/><rect fill="#FFFFFF" height="2" style="stroke:#000000;stroke-width:1;" width="4" x="1368.4773" y="732.5546"/><rect fill="#FFFFFF" height="2" style="stroke:#000000;stroke-width:1;" width="4" x="1368.4773" y="736.5546"/><text fill="#000000" font-family="Verdana" font-size="14" lengthAdjust="spacing" textLength="96.9473" x="1268.53" y="759.6298">Value Objects</text></g><!--entity DomainError--><g class="entity" data-entity="DomainError" data-source-line="60" data-uid="ent0030" id="entity_DomainError"><rect fill="#FFFFFF" height="47.0146" rx="2.5" ry="2.5" style="stroke:#000000;stroke-width:1;" width="134.377" x="1470.81" y="725.5546"/><rect fill="#FFFFFF" height="10" style="stroke:#000000;stroke-width:1;" width="15" x="1585.187" y="730.5546"/><rect fill="#FFFFFF" height="2" style="stroke:#000000;stroke-width:1;" width="4" x="1583.187" y="732.5546"/><rect fill="#FFFFFF" height="2" style="stroke:#000000;stroke-width:1;" width="4" x="1583.187" y="736.5546"/><text fill="#000000" font-family="Verdana" font-size="14" lengthAdjust="spacing" textLength="94.377" x="1485.81" y="759.6298">Domain.Error</text></g><!--entity Result--><g class="entity" data-entity="Result" data-source-line="61" data-uid="ent0031" id="entity_Result"><rect fill="#FFFFFF" height="47.0146" rx="2.5" ry="2.5" style="stroke:#000000;stroke-width:1;" width="145.9912" x="1249" y="885.6646"/><rect fill="#FFFFFF" height="10" style="stroke:#000000;stroke-width:1;" width="15" x="1374.9912" y="890.6646"/><rect fill="#FFFFFF" height="2" style="stroke:#000000;stroke-width:1;" width="4" x="1372.9912" y="892.6646"/><rect fill="#FFFFFF" height="2" style="stroke:#000000;stroke-width:1;" width="4" x="1372.9912" y="896.6646"/><text fill="#000000" font-family="Verdana" font-size="14" lengthAdjust="spacing" textLength="105.9912" x="1264" y="919.7398">Generic_Result</text></g><g class="entity" data-entity="GMN32" data-source-line="63" data-uid="ent0033" id="entity_GMN32"><path d="M994.8,712.4646 L994.8,785.6619 L1173.1901,785.6619 L1173.1901,722.4646 L1163.1901,712.4646 L994.8,712.4646" fill="#FFFFFF" style="stroke:#000000;stroke-width:1;"/><path d="M1163.1901,712.4646 L1163.1901,722.4646 L1173.1901,722.4646 L1163.1901,712.4646" fill="#FFFFFF" style="stroke:#000000;stroke-width:1;"/><text fill="#000000" font-family="Verdana" font-size="13" font-weight="bold" lengthAdjust="spacing" textLength="145.3423" x="1000.8" y="730.5344">Business Logic Core</text><text fill="#000000" font-family="Verdana" font-size="13" lengthAdjust="spacing" textLength="154.6099" x="1000.8" y="746.3338">- Pure domain concepts</text><text fill="#000000" font-family="Verdana" font-size="13" lengthAdjust="spacing" textLength="140.1816" x="1000.8" y="762.1331">- ZERO external deps</text><text fill="#000000" font-family="Verdana" font-size="13" lengthAdjust="spacing" textLength="157.3901" x="1000.8" y="777.9324">- Shareable across apps</text></g><!--link Bootstrap to GMN3--><g class="link" data-entity-1="Bootstrap" data-entity-2="GMN3" data-source-line="10" data-uid="lnk5" id="link_Bootstrap_GMN3"><path d="M1494.19,173.6746 C1488.47,173.6746 1453.12,173.6746 1415.23,173.6746" fill="none" id="Bootstrap-GMN3" style="stroke:#000000;stroke-width:1;stroke-dasharray:7,7;"/></g><!--link Presentation to GMN9--><g class="link" data-entity-1="Presentation" data-entity-2="GMN9" data-source-line="22" data-uid="lnk11" id="link_Presentation_GMN9"><path d="M1083.29,370.6746 C1077.87,370.6746 1043.2,370.6746 1043.2,370.6746 C1043.2,370.6746 1043.2,400.6746 1043.2,400.6746 C1043.2,400.6746 811.36,400.6746 661.48,400.6746" fill="none" id="Presentation-GMN9" style="stroke:#000000;stroke-width:1;stroke-dasharray:7,7;"/></g><!--link Infrastructure to GMN15--><g class="link" data-entity-1="Infrastructure" data-entity-2="GMN15" data-source-line="34" data-uid="lnk17" id="link_Infrastructure_GMN15"><path d="M1905.29,370.6746 C1899.9,370.6746 1865.38,370.6746 1865.38,370.6746 C1865.38,370.6746 1865.38,400.6746 1865.38,400.6746 C1865.38,400.6746 1588.95,400.6746 1419.96,400.6746" fill="none" id="Infrastructure-GMN15" style="stroke:#000000;stroke-width:1;stroke-dasharray:7,7;"/></g><!--link Application to GMN22--><g class="link" data-entity-1="Application" data-entity-2="GMN22" data-source-line="46" data-uid="lnk24" id="link_Application_GMN22"><path d="M922.45,567.6746 C917.67,567.6746 882.29,567.6746 843.29,567.6746" fill="none" id="Application-GMN22" style="stroke:#000000;stroke-width:1;stroke-dasharray:7,7;"/></g><!--link Domain to GMN32--><g class="link" data-entity-1="Domain" data-entity-2="GMN32" data-source-line="63" data-uid="lnk34" id="link_Domain_GMN32"><path d="M1685.67,748.3146 C1685.67,743.6346 1685.67,718.6746 1685.67,718.6746 C1685.67,718.6746 1341.03,718.6746 1173.43,718.6746" fill="none" id="Domain-GMN32" style="stroke:#000000;stroke-width:1;stroke-dasharray:7,7;"/></g><!--link Bootstrap to Presentation--><g class="link" data-entity-1="Bootstrap" data-entity-2="Presentation" data-source-line="71" data-uid="lnk35" id="link_Bootstrap_Presentation"><path d="M1494.67,242.8185 C1494.67,247.4932 1494.67,252.2137 1494.67,256.9121 C1494.67,294.4996 1494.67,330.6746 1494.67,330.6746 C1494.67,330.6746 1392.0025,330.6746 1289.335,330.6746 C1238.0013,330.6746 1186.6675,330.6746 1148.1672,330.6746 C1128.917,330.6746 1112.8752,330.6746 1101.646,330.6746 C1098.8387,330.6746 1096.3321,330.6746 1094.1514,330.6746 C1093.6063,330.6746 1099.0815,330.6746 1098.5774,330.6746" fill="none" id="Bootstrap-to-Presentation" style="stroke:#000000;stroke-width:1;"/><polygon fill="#000000" points="1092.5774,330.6746,1101.5774,334.6746,1097.5774,330.6746,1101.5774,326.6746,1092.5774,330.6746" style="stroke:#000000;stroke-width:1;"/><text fill="#000000" font-family="Verdana" font-size="13" lengthAdjust="spacing" textLength="34.271" x="1312.54" y="327.7444">wires</text></g><!--link Bootstrap to Infrastructure--><g class="link" data-entity-1="Bootstrap" data-entity-2="Infrastructure" data-source-line="72" data-uid="lnk36" id="link_Bootstrap_Infrastructure"><path d="M1503.3055,173.6746 C1507.1854,173.6746 1512.3377,173.6746 1518.5756,173.6746 C1531.0513,173.6746 1547.8691,173.6746 1567.5339,173.6746 C1606.8634,173.6746 1657.5806,173.6746 1707.7238,173.6746 C1808.01,173.6746 1906,173.6746 1906,173.6746 C1906,173.6746 1906,219.9646 1906,267.7009 C1906,273.6679 1906,279.6575 1906,285.5822 C1906,287.0633 1906,305.5551 1906,307.0267" fill="none" id="Bootstrap-to-Infrastructure" style="stroke:#000000;stroke-width:1;"/><polygon fill="#000000" points="1906,313.0267,1910,304.0267,1906,308.0267,1902,304.0267,1906,313.0267" style="stroke:#000000;stroke-width:1;"/><text fill="#000000" font-family="Verdana" font-size="13" lengthAdjust="spacing" textLength="34.271" x="1764.2" y="170.7444">wires</text></g><!--link Bootstrap to Application--><g class="link" data-entity-1="Bootstrap" data-entity-2="Application" data-source-line="73" data-uid="lnk37" id="link_Bootstrap_Application"><path d="M1495.33,243.1241 C1495.33,243.9497 1495.33,244.7792 1495.33,245.6124 C1495.33,248.9453 1495.33,252.3373 1495.33,255.7752 C1495.33,269.527 1495.33,284.014 1495.33,298.3921 C1495.33,355.9046 1495.33,411.6746 1495.33,411.6746 C1495.33,411.6746 923,411.6746 923,411.6746 C923,411.6746 923,420.6946 923,434.4007 C923,441.2537 923,449.2783 923,457.9327 C923,462.2599 923,466.7445 923,471.3188 C923,473.606 923,475.9156 923,478.2392 C923,478.5296 923,495.835 923,496.1258" fill="none" id="Bootstrap-to-Application" style="stroke:#000000;stroke-width:1;"/><polygon fill="#000000" points="923,502.1258,927,493.1258,923,497.1258,919,493.1258,923,502.1258" style="stroke:#000000;stroke-width:1;"/><text fill="#000000" font-family="Verdana" font-size="13" lengthAdjust="spacing" textLength="34.271" x="1214.88" y="425.7444">wires</text></g><!--link Bootstrap to Domain--><g class="link" data-entity-1="Bootstrap" data-entity-2="Domain" data-source-line="74" data-uid="lnk38" id="link_Bootstrap_Domain"><path d="M1503.102,151.6746 C1503.4043,151.6746 1503.7141,151.6746 1504.0313,151.6746 C1504.6657,151.6746 1505.3296,151.6746 1506.0216,151.6746 C1507.4057,151.6746 1508.9026,151.6746 1510.5021,151.6746 C1513.7009,151.6746 1517.3098,151.6746 1521.2469,151.6746 C1536.995,151.6746 1557.9925,151.6746 1578.99,151.6746 C1620.985,151.6746 1662.98,151.6746 1662.98,151.6746 C1662.98,151.6746 1662.98,300.9246 1662.98,450.1746 C1662.98,524.7996 1662.98,599.4246 1662.98,655.3934 C1662.98,658.8914 1662.98,662.3166 1662.98,665.6643 C1662.98,666.5013 1662.98,684.348 1662.98,685.1752" fill="none" id="Bootstrap-to-Domain" style="stroke:#000000;stroke-width:1;"/><polygon fill="#000000" points="1662.98,691.1752,1666.98,682.1752,1662.98,686.1752,1658.98,682.1752,1662.98,691.1752" style="stroke:#000000;stroke-width:1;"/><text fill="#000000" font-family="Verdana" font-size="13" lengthAdjust="spacing" textLength="34.271" x="1627.98" y="363.6044">wires</text></g><!--link Presentation to Application--><g class="link" data-entity-1="Presentation" data-entity-2="Application" data-source-line="76" data-uid="lnk39" id="link_Presentation_Application"><path d="M1083.67,439.7344 C1083.67,440.0912 1083.67,440.4486 1083.67,440.8065 C1083.67,441.5223 1083.67,442.2404 1083.67,442.9604 C1083.67,444.4006 1083.67,445.8488 1083.67,447.3039 C1083.67,450.214 1083.67,453.1512 1083.67,456.1046 C1083.67,462.0114 1083.67,467.983 1083.67,473.9321 C1083.67,521.5246 1083.67,567.6746 1083.67,567.6746 C1083.67,567.6746 1046.58,567.6746 1008.0413,567.6746 C988.7719,567.6746 969.1403,567.6746 953.6017,567.6746 C945.8324,567.6746 939.0864,567.6746 933.9204,567.6746 C933.2747,567.6746 932.6537,567.6746 932.0584,567.6746 C931.7608,567.6746 937.4696,567.6746 937.1849,567.6746" fill="none" id="Presentation-to-Application" style="stroke:#000000;stroke-width:1;"/><polygon fill="#000000" points="931.1849,567.6746,940.1849,571.6746,936.1849,567.6746,940.1849,563.6746,931.1849,567.6746" style="stroke:#000000;stroke-width:1;"/><text fill="#000000" font-family="Verdana" font-size="13" lengthAdjust="spacing" textLength="105.9487" x="958.2845" y="530.6444">calls Input Ports</text><text fill="#000000" font-family="Verdana" font-size="13" lengthAdjust="spacing" textLength="143.1777" x="939.67" y="546.4438">uses Application.Error</text></g><!--link Presentation to Domain--><!--link Presentation to Domain--><g class="link" data-entity-1="Presentation" data-entity-2="Domain" data-source-line="92" data-uid="lnk44" id="link_Presentation_Domain"><path d="M1084.33,440.488 C1084.33,440.887 1084.33,441.287 1084.33,441.6877 C1084.33,442.4893 1084.33,443.2941 1084.33,444.1021 C1084.33,445.7181 1084.33,447.3467 1084.33,448.9861 C1084.33,462.102 1084.33,475.919 1084.33,489.6321 C1084.33,544.4846 1084.33,597.6746 1084.33,597.6746 C1084.33,597.6746 1624.45,597.6746 1624.45,597.6746 C1624.45,597.6746 1624.45,608.9871 1624.45,625.9559 C1624.45,634.4402 1624.45,644.3387 1624.45,654.9441 C1624.45,657.5955 1624.45,660.2911 1624.45,663.0198 C1624.45,664.3841 1624.45,665.7567 1624.45,667.1363 C1624.45,667.4812 1624.45,684.8411 1624.45,685.1869" fill="none" id="Presentation-to-Domain-1" style="stroke:#FF0000;stroke-width:1;stroke-dasharray:7,7;"/><polygon fill="#FF0000" points="1624.45,691.1869,1628.45,682.1869,1624.45,686.1869,1620.45,682.1869,1624.45,691.1869" style="stroke:#FF0000;stroke-width:1;"/><text fill="#000000" font-family="Verdana" font-size="13" lengthAdjust="spacing" textLength="100.6748" x="1260.8582" y="578.7444">&#10060; FORBIDDEN</text><text fill="#000000" font-family="Verdana" font-size="13" lengthAdjust="spacing" textLength="130.5713" x="1245.91" y="594.5438">No transitive access</text></g><!--link Infrastructure to Application--><g class="link" data-entity-1="Infrastructure" data-entity-2="Application" data-source-line="79" data-uid="lnk41" id="link_Infrastructure_Application"><path d="M1914.0184,370.6746 C1914.1515,370.6746 1914.2849,370.6746 1914.4187,370.6746 C1914.6861,370.6746 1914.9547,370.6746 1915.2236,370.6746 C1915.7615,370.6746 1916.3005,370.6746 1916.8338,370.6746 C1921.1,370.6746 1925,370.6746 1925,370.6746 C1925,370.6746 1925,568.6746 1925,568.6746 C1925,568.6746 1680.3375,568.6746 1432.8075,568.6746 C1309.0425,568.6746 1184.5606,568.6746 1089.5863,568.6746 C1042.0991,568.6746 1001.9888,568.6746 973.0334,568.6746 C958.5557,568.6746 946.8667,568.6746 938.4387,568.6746 C936.3317,568.6746 934.4285,568.6746 932.7366,568.6746 C932.3136,568.6746 937.9038,568.6746 937.5073,568.6746" fill="none" id="Infrastructure-to-Application" style="stroke:#000000;stroke-width:1;"/><polygon fill="#000000" points="931.5073,568.6746,940.5073,572.6746,936.5073,568.6746,940.5073,564.6746,931.5073,568.6746" style="stroke:#000000;stroke-width:1;"/><text fill="#000000" font-family="Verdana" font-size="13" lengthAdjust="spacing" textLength="163.4775" x="1533.47" y="565.7444">implements Output Ports</text></g><!--link Infrastructure to Domain--><g class="link" data-entity-1="Infrastructure" data-entity-2="Domain" data-source-line="80" data-uid="lnk42" id="link_Infrastructure_Domain"><path d="M1906,432.6136 C1906,433.1627 1906,433.7144 1906,434.2687 C1906,435.3774 1906,436.4967 1906,437.6262 C1906,473.7696 1906,520.3784 1906,566.4596 C1906,658.6221 1906,748.6746 1906,748.6746 C1906,748.6746 1854.385,748.6746 1801.1563,748.6746 C1774.5419,748.6746 1747.5241,748.6746 1726.353,748.6746 C1715.7674,748.6746 1706.6436,748.6746 1699.7626,748.6746 C1698.0424,748.6746 1696.4624,748.6746 1695.0347,748.6746 C1694.8563,748.6746 1700.6802,748.6746 1700.5065,748.6746" fill="none" id="Infrastructure-to-Domain" style="stroke:#000000;stroke-width:1;"/><polygon fill="#000000" points="1694.5065,748.6746,1703.5065,752.6746,1699.5065,748.6746,1703.5065,744.6746,1694.5065,748.6746" style="stroke:#000000;stroke-width:1;"/><text fill="#000000" font-family="Verdana" font-size="13" lengthAdjust="spacing" textLength="124.1094" x="1781" y="666.8844">uses Value Objects</text></g><!--link Application to Domain--><g class="link" data-entity-1="Application" data-entity-2="Domain" data-source-line="82" data-uid="lnk43" id="link_Application_Domain"><path d="M931.5726,583.6746 C937.1633,583.6746 945.3632,583.6746 955.7993,583.6746 C976.6716,583.6746 1006.4892,583.6746 1042.2703,583.6746 C1113.8325,583.6746 1209.2488,583.6746 1304.665,583.6746 C1495.4975,583.6746 1686.33,583.6746 1686.33,583.6746 C1686.33,583.6746 1686.33,621.8546 1686.33,661.5259 C1686.33,662.7656 1686.33,664.0068 1686.33,665.2483 C1686.33,665.869 1686.33,666.4899 1686.33,667.1107 C1686.33,667.4211 1686.33,684.7461 1686.33,685.0565" fill="none" id="Application-to-Domain" style="stroke:#000000;stroke-width:1;"/><polygon fill="#000000" points="1686.33,691.0565,1690.33,682.0565,1686.33,686.0565,1682.33,682.0565,1686.33,691.0565" style="stroke:#000000;stroke-width:1;"/><text fill="#000000" font-family="Verdana" font-size="13" lengthAdjust="spacing" textLength="81.0723" x="1426.667" y="597.7444">orchestrates</text><path d="M1384.47,606.4739 L1384.47,663.4739 L1549.47,663.4739 L1549.47,616.4739 L1539.47,606.4739 L1384.47,606.4739" fill="#FFFFFF" style="stroke:#000000;stroke-width:1;"/><path d="M1539.47,606.4739 L1539.47,616.4739 L1549.47,616.4739 L1539.47,606.4739" fill="#FFFFFF" style="stroke:#000000;stroke-width:1;"/><text fill="#000000" font-family="Verdana" font-size="13" lengthAdjust="spacing" textLength="86.2529" x="1390.47" y="624.5438">&#9989; ALLOWED</text><text fill="#000000" font-family="Verdana" font-size="13" lengthAdjust="spacing" textLength="144.4663" x="1390.47" y="640.3431">Uses Application.Error</text><text fill="#000000" font-family="Verdana" font-size="13" lengthAdjust="spacing" textLength="125.252" x="1390.47" y="656.1424">(not Domain.Error)</text></g><g class="legend" data-source-line="94"><rect fill="none" height="248.2051" rx="7.5" ry="7.5" style="stroke:#000000;stroke-width:1;" width="444" x="1469" y="967.6746"/><text fill="#000000" font-family="Verdana" font-size="14" font-weight="bold" lengthAdjust="spacing" textLength="184.2695" x="1474" y="986.7498">Key Architectural Rules</text><text fill="#000000" font-family="Verdana" font-size="14" lengthAdjust="spacing" textLength="434" x="1474" y="1003.7645">&#9552;&#9552;&#9552;&#9552;&#9552;&#9552;&#9552;&#9552;&#9552;&#9552;&#9552;&#9552;&#9552;&#9552;&#9552;&#9552;&#9552;&#9552;&#9552;&#9552;&#9552;&#9552;&#9552;&#9552;&#9552;&#9552;&#9552;&#9552;&#9552;&#9552;&#9552;</text><text fill="#000000" font-family="Verdana" font-size="14" lengthAdjust="spacing" textLength="19" x="1474" y="1020.7791">&#9989;</text><text fill="#000000" font-family="Verdana" font-size="14" font-weight="bold" lengthAdjust="spacing" textLength="260.2715" x="1497.9219" y="1020.7791">Presentation &#8594; Application ONLY</text><text fill="#000000" font-family="Verdana" font-size="14" lengthAdjust="spacing" textLength="210.6494" x="1488.7656" y="1037.7938">(no transitive Domain access)</text><text fill="#000000" font-family="Verdana" font-size="14" lengthAdjust="spacing" textLength="297.8789" x="1474" y="1054.8084">&#9989; Infrastructure &#8594; Application + Domain</text><text fill="#000000" font-family="Verdana" font-size="14" lengthAdjust="spacing" textLength="178.8926" x="1474" y="1071.823">&#9989; Application &#8594; Domain</text><text fill="#000000" font-family="Verdana" font-size="14" lengthAdjust="spacing" textLength="276.4688" x="1474" y="1088.8377">&#9989; Bootstrap &#8594; ALL (composition root)</text><text fill="#000000" font-family="Verdana" font-size="14" lengthAdjust="spacing" textLength="4.9219" x="1474" y="1105.8523">&#160;</text><text fill="#000000" font-family="Verdana" font-size="14" lengthAdjust="spacing" textLength="19" x="1474" y="1122.867">&#10060;</text><text fill="#000000" font-family="Verdana" font-size="14" font-weight="bold" lengthAdjust="spacing" textLength="23.7549" x="1497.9219" y="1122.867">NO</text><text fill="#000000" font-family="Verdana" font-size="14" lengthAdjust="spacing" textLength="165.7441" x="1526.5986" y="1122.867">Presentation &#8594; Domain</text><text fill="#000000" font-family="Verdana" font-size="14" lengthAdjust="spacing" textLength="19" x="1474" y="1139.8816">&#10060;</text><text fill="#000000" font-family="Verdana" font-size="14" font-weight="bold" lengthAdjust="spacing" textLength="23.7549" x="1497.9219" y="1139.8816">NO</text><text fill="#000000" font-family="Verdana" font-size="14" lengthAdjust="spacing" textLength="208.243" x="1526.5986" y="1139.8816">Presentation &#8596; Infrastructure</text><text fill="#000000" font-family="Verdana" font-size="14" lengthAdjust="spacing" textLength="19" x="1474" y="1156.8963">&#10060;</text><text fill="#000000" font-family="Verdana" font-size="14" font-weight="bold" lengthAdjust="spacing" textLength="23.7549" x="1497.9219" y="1156.8963">NO</text><text fill="#000000" font-family="Verdana" font-size="14" lengthAdjust="spacing" textLength="139.207" x="1526.5986" y="1156.8963">Domain &#8594; anything</text><text fill="#000000" font-family="Verdana" font-size="14" lengthAdjust="spacing" textLength="4.9219" x="1474" y="1173.9109">&#160;</text><text fill="#000000" font-family="Verdana" font-size="14" font-weight="bold" lengthAdjust="spacing" textLength="282.4268" x="1474" y="1190.9256">Domain is the ONLY shareable layer</text><text fill="#000000" font-family="Verdana" font-size="14" lengthAdjust="spacing" textLength="194.4346" x="1474" y="1207.9402">across multiple applications</text></g><!--SRC=[jLRDRYD54BxFKnI9nCO3pcO5kzfmG78yuyN2iYF3RWG4eSvCsMuoqprqz-p6MkqHJXmGWXkyN9w4wfxs_Da-8aLofgkwghwl_leZiy4SeSWO5u6-vw9WYkMGSO5cMo18PJQo9H0oHOq5lBne7IecxktXiukB833SP0ZFXpEsHGKZbMoumSIK2c_5L_Z0rbAm3CwkoRA6Zs6KiiAWqWFu1COPCa6_KHG5GS6IUxP6EBcIqcYZM07Ev0am3StPwMGINuqZU1y01MSG55zl3CXLeqCIW30SoxoGcXik1In95ePEC8GRhb03op98iK2HeaWuQYyCmrSeKF44kD262SEPjL1V7XL5nXDtHgojCDac6NhPcD1K9e6aezaCCel0chPdDjpWGmlfDSM1mbJ66h2TOulty_YPmvjOH894S3AUJPqk_VO4Ci-PI7KbzHzxNBLTUBeYnTzoiQuJL2D-hIclND3PYYL4t1dv_1H6rzE1LrZYBoLgyvHiKXGQ8MT5GQPgHYF7YOR5VFQTOwRXiFP2-HhDvujlWINaH4CaSofH9px8tLIi5ADqbwxKMkpr1AVnYybdaqcVlnrATsNtqMTIQ4cbVQEee9NdqnrL9tkaTZstQ4Mnp-eqBpBgH45DiIXDKHfm7UAbyGCfsxxHMsqmT_IlLPEk8UmuxT9fcyaHTuosjcx3MVlqD7uvUHvVzWcZAg3wrbWnHb_kewlZ45GbxB6q6MzydCTAoTgp-x1rFfbSNkwHshhc6LtGY47Rw0s8cjMnb2hbWXcgqzGH0PbSywGcRKM3pjO84Vxq0EzB7E93uKPLnIFOgQYFLlAXAlK8xgGnClSG74PdPS_3UIDR4G-TvdVZurWgVO1D5ls1PV8oVj5Fu1kMbGYBkvzfE5T9UhFefQWTKClYBi2Mff-HForHbvbnkjM_U_choz6cxghKbdyDCviKofR2EdNNjbjzpX8f4Ypgh7mVBnU0kvQW2RiJVBDX2jaTDIbBb2IxD7Zwq_Q9RvLgoji9JdEvaDHHC9tVZ9OHd2LefzjG8zAAMm-2PjiCK_bE3B_iPkKBU6Sto06rtkmvhjXkkEDQFg4xXQ0JnM5J2QqrNzzLOT-AaleKzhglP-o73K-9eXyxdeEW1-YmJtvab1svNADoWNNACWZQblSkoBhpBHjFO4npc9GpwhLIf4pPBUwgp-rcSK-LyFZFhpRXYviueg_NXwa0EADhdNuS17KDaQE9L7UEd-R5iEqIUEuA_hmEzbHXIX4__lixJ1RBgsaKnVDRCPT0qGlxA7cBVjC5GOPhwynP26oRV8tRzaEA02xB3AlTyVZt7__VdoSi33lO7d_xivDnE_nysrhYsf0y-WhPm9lhrK7VN6jbkMorH5Qr8snwn5cXJZvBMiyyHU91O7M9zp2SBy8Gzg0q1eyg_RM_orlA7gIrnSJMREnJn-ND2xW6UcLNEqBN4ogh5vMVLJcDIrxOsTKWrhRigde8_WC0]--></g></svg>