<svg xmlns="http://www.w3.org/2000/svg" xmlns:xlink="http://www.w3.org/1999/xlink" contentStyleType="text/css" data-diagram-type="DESCRIPTION" height="1271px" preserveAspectRatio="none" style="width:2240px;height:1271px;background:#FFFFFF;" version="1.1" viewBox="0 0 2240 1271" width="2240px" zoomAndPan="magnify"><title>Package Structure
Actual Packages in Each Layer</title><defs/><g><g class="title" data-source-line="4"><text fill="#000000" font-family="Verdana" font-size="22" font-weight="bold" lengthAdjust="spacing" textLength="227.1758" x="1001.9121" y="37.1182">Package Structure</text><text fill="#000000" font-family="Verdana" font-size="22" font-weight="bold" lengthAdjust="spacing" textLength="374.3867" x="928.3066" y="63.8555">Actual Packages in Each Layer</text></g><!--cluster Bootstrap Layer--><g class="cluster" data-entity="Bootstrap Layer" data-source-line="6" data-uid="ent0002" id="cluster_Bootstrap Layer"><rect fill="#FFEBCD" height="267.39" rx="2.5" ry="2.5" style="stroke:#000000;stroke-width:1;" width="550" x="12" y="86.4746"/><path d="M147.4736,86.4746 L147.4736,96.4893 L137.4736,106.4893 L12,106.4893" fill="none" style="stroke:#000000;stroke-width:1;"/><text fill="#000000" font-family="Verdana" font-size="14" font-weight="bold" lengthAdjust="spacing" textLength="125.4736" x="15" y="101.5498">Bootstrap Layer</text></g><!--cluster Presentation Layer--><g class="cluster" data-entity="Presentation Layer" data-source-line="25" data-uid="ent0007" id="cluster_Presentation Layer"><rect fill="#FFE4E1" height="219.99" rx="2.5" ry="2.5" style="stroke:#000000;stroke-width:1;" width="775" x="586" y="110.1746"/><path d="M744.9961,110.1746 L744.9961,120.1893 L734.9961,130.1893 L586,130.1893" fill="none" style="stroke:#000000;stroke-width:1;"/><text fill="#000000" font-family="Verdana" font-size="14" font-weight="bold" lengthAdjust="spacing" textLength="148.9961" x="589" y="125.2498">Presentation Layer</text></g><!--cluster Infrastructure Layer--><g class="cluster" data-entity="Infrastructure Layer" data-source-line="41" data-uid="ent0012" id="cluster_Infrastructure Layer"><rect fill="#E6F3FF" height="172.59" rx="2.5" ry="2.5" style="stroke:#000000;stroke-width:1;" width="605" x="1629" y="133.8746"/><path d="M1799.7266,133.8746 L1799.7266,143.8893 L1789.7266,153.8893 L1629,153.8893" fill="none" style="stroke:#000000;stroke-width:1;"/><text fill="#000000" font-family="Verdana" font-size="14" font-weight="bold" lengthAdjust="spacing" textLength="160.7266" x="1632" y="148.9498">Infrastructure Layer</text></g><!--cluster Application Layer--><g class="cluster" data-entity="Application Layer" data-source-line="54" data-uid="ent0017" id="cluster_Application Layer"><rect fill="#E8F5E9" height="251.59" rx="2.5" ry="2.5" style="stroke:#000000;stroke-width:1;" width="1252" x="582" y="402.8646"/><path d="M728.7803,402.8646 L728.7803,412.8793 L718.7803,422.8793 L582,422.8793" fill="none" style="stroke:#000000;stroke-width:1;"/><text fill="#000000" font-family="Verdana" font-size="14" font-weight="bold" lengthAdjust="spacing" textLength="136.7803" x="585" y="417.9398">Application Layer</text></g><!--cluster Domain Layer--><g class="cluster" data-entity="Domain Layer" data-source-line="76" data-uid="ent0025" id="cluster_Domain Layer"><rect fill="#FFF9E6" height="109.4" rx="2.5" ry="2.5" style="stroke:#000000;stroke-width:1;" width="772" x="823" y="703.4546"/><path d="M941.582,703.4546 L941.582,713.4693 L931.582,723.4693 L823,723.4693" fill="none" style="stroke:#000000;stroke-width:1;"/><text fill="#000000" font-family="Verdana" font-size="14" font-weight="bold" lengthAdjust="spacing" textLength="108.582" x="826" y="718.5298">Domain Layer</text></g><!--entity BootstrapCLI--><g class="entity" data-entity="BootstrapCLI" data-source-line="7" data-uid="ent0003" id="entity_BootstrapCLI"><rect fill="#FFFFFF" height="37.0146" rx="2.5" ry="2.5" style="stroke:#000000;stroke-width:1;" width="116.5781" x="27.71" y="211.6646"/><text fill="#000000" font-family="Verdana" font-size="14" lengthAdjust="spacing" textLength="96.5781" x="37.71" y="235.7398">Bootstrap.CLI</text></g><g class="entity" data-entity="GMN4" data-source-line="9" data-uid="ent0005" id="entity_GMN4"><path d="M179.76,122.4746 L179.76,226.1646 L144.7,230.1646 L179.76,234.1646 L179.76,337.8657 A0,0 0 0 0 179.76,337.8657 L546.2439,337.8657 A0,0 0 0 0 546.2439,337.8657 L546.2439,132.4746 L536.2439,122.4746 L179.76,122.4746 A0,0 0 0 0 179.76,122.4746" fill="#FFFFFF" style="stroke:#000000;stroke-width:1;"/><path d="M536.2439,122.4746 L536.2439,132.4746 L546.2439,132.4746 L536.2439,122.4746" fill="#FFFFFF" style="stroke:#000000;stroke-width:1;"/><text fill="#000000" font-family="Verdana" font-size="13" font-weight="bold" lengthAdjust="spacing" textLength="129.1938" x="185.76" y="140.5444">Composition Root</text><text fill="#000000" font-family="Verdana" font-size="13" lengthAdjust="spacing" textLength="159.8848" x="185.76" y="156.3438">- Wires all dependencies</text><text fill="#000000" font-family="Verdana" font-size="13" lengthAdjust="spacing" textLength="145.7549" x="185.76" y="172.1431">- Generic instantiation</text><text fill="#000000" font-family="Verdana" font-size="13" lengthAdjust="spacing" textLength="158.4629" x="185.76" y="187.9424">- Application entry point</text><text fill="#000000" font-family="Verdana" font-size="13" lengthAdjust="spacing" textLength="4.5703" x="185.76" y="203.7417">&#160;</text><text fill="#000000" font-family="Verdana" font-size="13" lengthAdjust="spacing" textLength="48.5088" x="185.76" y="219.541">```ada</text><text fill="#000000" font-family="Verdana" font-size="13" lengthAdjust="spacing" textLength="167.7813" x="185.76" y="235.3403">package Greet_UC is new</text><text fill="#000000" font-family="Verdana" font-size="13" lengthAdjust="spacing" textLength="170.4346" x="194.9006" y="251.1396">Application.Usecase.Greet</text><text fill="#000000" font-family="Verdana" font-size="13" lengthAdjust="spacing" textLength="227.8936" x="204.0413" y="266.939">(Writer =&gt; Console_Writer.Write);</text><text fill="#000000" font-family="Verdana" font-size="13" lengthAdjust="spacing" textLength="179.0103" x="185.76" y="282.7383">package Greet_Cmd is new</text><text fill="#000000" font-family="Verdana" font-size="13" lengthAdjust="spacing" textLength="276.25" x="194.9006" y="298.5376">Presentation.Adapter.CLI.Command.Greet</text><text fill="#000000" font-family="Verdana" font-size="13" lengthAdjust="spacing" textLength="327.2026" x="204.0413" y="314.3369">(Execute_Greet_UseCase =&gt; Greet_UC.Execute);</text><text fill="#000000" font-family="Verdana" font-size="13" lengthAdjust="spacing" textLength="24.7939" x="185.76" y="330.1362">```</text></g><!--entity PresentationGreet--><g class="entity" data-entity="PresentationGreet" data-source-line="26" data-uid="ent0008" id="entity_PresentationGreet"><rect fill="#FFFFFF" height="37.0146" rx="2.5" ry="2.5" style="stroke:#000000;stroke-width:1;" width="317.5" x="602.25" y="211.6646"/><text fill="#000000" font-family="Verdana" font-size="14" lengthAdjust="spacing" textLength="297.5" x="612.25" y="235.7398">Presentation.Adapter.CLI.Command.Greet</text></g><g class="entity" data-entity="GMN9" data-source-line="28" data-uid="ent0010" id="entity_GMN9"><path d="M954.69,146.1746 L954.69,226.1646 L920.17,230.1646 L954.69,234.1646 L954.69,314.1678 A0,0 0 0 0 954.69,314.1678 L1345.3077,314.1678 A0,0 0 0 0 1345.3077,314.1678 L1345.3077,156.1746 L1335.3077,146.1746 L954.69,146.1746 A0,0 0 0 0 954.69,146.1746" fill="#FFFFFF" style="stroke:#000000;stroke-width:1;"/><path d="M1335.3077,146.1746 L1335.3077,156.1746 L1345.3077,156.1746 L1335.3077,146.1746" fill="#FFFFFF" style="stroke:#000000;stroke-width:1;"/><text fill="#000000" font-family="Verdana" font-size="13" font-weight="bold" lengthAdjust="spacing" textLength="91.0698" x="960.69" y="164.2444">Depends on:</text><text fill="#000000" font-family="Verdana" font-size="13" lengthAdjust="spacing" textLength="153.2007" x="960.69" y="180.0438">- Application.Command</text><text fill="#000000" font-family="Verdana" font-size="13" lengthAdjust="spacing" textLength="227.1763" x="960.69" y="195.8431">- Application.Port.Outbound.Writer</text><text fill="#000000" font-family="Verdana" font-size="13" lengthAdjust="spacing" textLength="5.9033" x="960.69" y="211.6424">-</text><text fill="#000000" font-family="Verdana" font-size="13" font-weight="bold" lengthAdjust="spacing" textLength="123.9316" x="971.1636" y="211.6424">Application.Error</text><text fill="#000000" font-family="Verdana" font-size="13" lengthAdjust="spacing" textLength="17" x="1099.6656" y="211.6424">&#9989;</text><text fill="#000000" font-family="Verdana" font-size="13" lengthAdjust="spacing" textLength="4.5703" x="960.69" y="227.4417">&#160;</text><text fill="#000000" font-family="Verdana" font-size="13" font-weight="bold" lengthAdjust="spacing" textLength="109.1733" x="960.69" y="243.241">Cannot access:</text><text fill="#000000" font-family="Verdana" font-size="13" lengthAdjust="spacing" textLength="150.085" x="960.69" y="259.0403">&#10060; Domain.* packages</text><text fill="#000000" font-family="Verdana" font-size="13" lengthAdjust="spacing" textLength="4.5703" x="960.69" y="274.8396">&#160;</text><text fill="#000000" font-family="Verdana" font-size="13" font-weight="bold" lengthAdjust="spacing" textLength="279.8999" x="960.69" y="290.639">Generic over Execute_Greet_UseCase:</text><text fill="#000000" font-family="Verdana" font-size="13" lengthAdjust="spacing" textLength="369.6177" x="960.69" y="306.4383">with function Execute_Greet_UseCase (...) return Result</text></g><!--entity InfraConsole--><g class="entity" data-entity="InfraConsole" data-source-line="42" data-uid="ent0013" id="entity_InfraConsole"><rect fill="#FFFFFF" height="37.0146" rx="2.5" ry="2.5" style="stroke:#000000;stroke-width:1;" width="290.6211" x="1644.69" y="211.6646"/><text fill="#000000" font-family="Verdana" font-size="14" lengthAdjust="spacing" textLength="270.6211" x="1654.69" y="235.7398">Infrastructure.Adapter.Console_Writer</text></g><g class="entity" data-entity="GMN14" data-source-line="44" data-uid="ent0015" id="entity_GMN14"><path d="M1969.91,169.8746 L1969.91,226.1646 L1935.77,230.1646 L1969.91,234.1646 L1969.91,290.4698 A0,0 0 0 0 1969.91,290.4698 L2218.0863,290.4698 A0,0 0 0 0 2218.0863,290.4698 L2218.0863,179.8746 L2208.0863,169.8746 L1969.91,169.8746 A0,0 0 0 0 1969.91,169.8746" fill="#FFFFFF" style="stroke:#000000;stroke-width:1;"/><path d="M2208.0863,169.8746 L2208.0863,179.8746 L2218.0863,179.8746 L2208.0863,169.8746" fill="#FFFFFF" style="stroke:#000000;stroke-width:1;"/><text fill="#000000" font-family="Verdana" font-size="13" font-weight="bold" lengthAdjust="spacing" textLength="91.0698" x="1975.91" y="187.9444">Depends on:</text><text fill="#000000" font-family="Verdana" font-size="13" lengthAdjust="spacing" textLength="227.1763" x="1975.91" y="203.7437">- Application.Port.Outbound.Writer</text><text fill="#000000" font-family="Verdana" font-size="13" lengthAdjust="spacing" textLength="172.9111" x="1975.91" y="219.5431">- Domain.Error (direct) &#9989;</text><text fill="#000000" font-family="Verdana" font-size="13" lengthAdjust="spacing" textLength="91.7871" x="1975.91" y="235.3424">- Domain.Unit</text><text fill="#000000" font-family="Verdana" font-size="13" lengthAdjust="spacing" textLength="4.5703" x="1975.91" y="251.1417">&#160;</text><text fill="#000000" font-family="Verdana" font-size="13" font-weight="bold" lengthAdjust="spacing" textLength="179.8481" x="1975.91" y="266.941">Implements Writer Port:</text><text fill="#000000" font-family="Verdana" font-size="13" lengthAdjust="spacing" textLength="207.0859" x="1975.91" y="282.7403">Console_Writer.Write(Message)</text></g><!--entity AppError--><g class="entity" data-entity="AppError" data-source-line="55" data-uid="ent0018" id="entity_AppError"><rect fill="#FFFF99" height="37.0146" rx="2.5" ry="2.5" style="stroke:#000000;stroke-width:1;" width="137.4824" x="1002.26" y="520.1546"/><text fill="#000000" font-family="Verdana" font-size="14" lengthAdjust="spacing" textLength="117.4824" x="1012.26" y="544.2298">Application.Error</text></g><!--entity AppCommand--><g class="entity" data-entity="AppCommand" data-source-line="56" data-uid="ent0019" id="entity_AppCommand"><rect fill="#FFFFFF" height="37.0146" rx="2.5" ry="2.5" style="stroke:#000000;stroke-width:1;" width="173.7061" x="793.15" y="520.1546"/><text fill="#000000" font-family="Verdana" font-size="14" lengthAdjust="spacing" textLength="153.7061" x="803.15" y="544.2298">Application.Command</text></g><!--entity AppUsecase--><g class="entity" data-entity="AppUsecase" data-source-line="57" data-uid="ent0020" id="entity_AppUsecase"><rect fill="#FFFFFF" height="37.0146" rx="2.5" ry="2.5" style="stroke:#000000;stroke-width:1;" width="159.4258" x="598.29" y="520.1546"/><text fill="#000000" font-family="Verdana" font-size="14" lengthAdjust="spacing" textLength="139.4258" x="608.29" y="544.2298">Application.Usecase</text></g><!--entity AppPort--><g class="entity" data-entity="AppPort" data-source-line="58" data-uid="ent0021" id="entity_AppPort"><rect fill="#FFFFFF" height="37.0146" rx="2.5" ry="2.5" style="stroke:#000000;stroke-width:1;" width="253.3721" x="1564.31" y="520.1546"/><text fill="#000000" font-family="Verdana" font-size="14" lengthAdjust="spacing" textLength="233.3721" x="1574.31" y="544.2298">Application.Port.Outbound.Writer</text></g><g class="entity" data-entity="GMN22" data-source-line="61" data-uid="ent0023" id="entity_GMN22"><path d="M1175.04,438.8646 L1175.04,534.6646 L1140.15,538.6646 L1175.04,542.6646 L1175.04,638.4564 A0,0 0 0 0 1175.04,638.4564 L1528.9619,638.4564 A0,0 0 0 0 1528.9619,638.4564 L1528.9619,448.8646 L1518.9619,438.8646 L1175.04,438.8646 A0,0 0 0 0 1175.04,438.8646" fill="#FFFFFF" style="stroke:#000000;stroke-width:1;"/><path d="M1518.9619,438.8646 L1518.9619,448.8646 L1528.9619,448.8646 L1518.9619,438.8646" fill="#FFFFFF" style="stroke:#000000;stroke-width:1;"/><text fill="#000000" font-family="Verdana" font-size="13" font-weight="bold" lengthAdjust="spacing" textLength="182.6729" x="1181.04" y="456.9344">Re-exports Domain.Error</text><text fill="#000000" font-family="Verdana" font-size="13" lengthAdjust="spacing" textLength="171.3359" x="1181.04" y="472.7338">For Presentation layer use</text><text fill="#000000" font-family="Verdana" font-size="13" lengthAdjust="spacing" textLength="4.5703" x="1181.04" y="488.5331">&#160;</text><text fill="#000000" font-family="Verdana" font-size="13" lengthAdjust="spacing" textLength="48.5088" x="1181.04" y="504.3324">```ada</text><text fill="#000000" font-family="Verdana" font-size="13" lengthAdjust="spacing" textLength="125.6646" x="1181.04" y="520.1317">with Domain.Error;</text><text fill="#000000" font-family="Verdana" font-size="13" lengthAdjust="spacing" textLength="182.5967" x="1181.04" y="535.931">package Application.Error is</text><text fill="#000000" font-family="Verdana" font-size="13" lengthAdjust="spacing" textLength="319.2109" x="1194.7509" y="551.7303">subtype Error_Type is Domain.Error.Error_Type;</text><text fill="#000000" font-family="Verdana" font-size="13" lengthAdjust="spacing" textLength="313.917" x="1194.7509" y="567.5296">subtype Error_Kind is Domain.Error.Error_Kind;</text><text fill="#000000" font-family="Verdana" font-size="13" lengthAdjust="spacing" textLength="251.0371" x="1194.7509" y="583.329">Validation_Error : constant Error_Kind</text><text fill="#000000" font-family="Verdana" font-size="13" lengthAdjust="spacing" textLength="224.9419" x="1203.8916" y="599.1283">:= Domain.Error.Validation_Error;</text><text fill="#000000" font-family="Verdana" font-size="13" lengthAdjust="spacing" textLength="143.6348" x="1181.04" y="614.9276">end Application.Error;</text><text fill="#000000" font-family="Verdana" font-size="13" lengthAdjust="spacing" textLength="24.7939" x="1181.04" y="630.7269">```</text></g><!--entity DomainError--><g class="entity" data-entity="DomainError" data-source-line="77" data-uid="ent0026" id="entity_DomainError"><rect fill="#FFFFFF" height="37.0146" rx="2.5" ry="2.5" style="stroke:#000000;stroke-width:1;" width="114.377" x="999.81" y="749.6446"/><text fill="#000000" font-family="Verdana" font-size="14" lengthAdjust="spacing" textLength="94.377" x="1009.81" y="773.7198">Domain.Error</text></g><!--entity DomainResult--><g class="entity" data-entity="DomainResult" data-source-line="78" data-uid="ent0027" id="entity_DomainResult"><rect fill="#FFFFFF" height="37.0146" rx="2.5" ry="2.5" style="stroke:#000000;stroke-width:1;" width="233.7734" x="1345.11" y="749.6446"/><text fill="#000000" font-family="Verdana" font-size="14" lengthAdjust="spacing" textLength="213.7734" x="1355.11" y="773.7198">Domain.Result.Generic_Result</text></g><!--entity DomainPerson--><g class="entity" data-entity="DomainPerson" data-source-line="79" data-uid="ent0028" id="entity_DomainPerson"><rect fill="#FFFFFF" height="37.0146" rx="2.5" ry="2.5" style="stroke:#000000;stroke-width:1;" width="126.5107" x="838.74" y="749.6446"/><text fill="#000000" font-family="Verdana" font-size="14" lengthAdjust="spacing" textLength="106.5107" x="848.74" y="773.7198">Domain.Person</text></g><g class="entity" data-entity="GMN29" data-source-line="82" data-uid="ent0030" id="entity_GMN29"><path d="M1149.6,739.4546 L1149.6,764.1546 L1114.44,768.1546 L1149.6,772.1546 L1149.6,796.8526 A0,0 0 0 0 1149.6,796.8526 L1310.3944,796.8526 A0,0 0 0 0 1310.3944,796.8526 L1310.3944,749.4546 L1300.3944,739.4546 L1149.6,739.4546 A0,0 0 0 0 1149.6,739.4546" fill="#FFFFFF" style="stroke:#000000;stroke-width:1;"/><path d="M1300.3944,739.4546 L1300.3944,749.4546 L1310.3944,749.4546 L1300.3944,739.4546" fill="#FFFFFF" style="stroke:#000000;stroke-width:1;"/><text fill="#000000" font-family="Verdana" font-size="13" font-weight="bold" lengthAdjust="spacing" textLength="137.1602" x="1155.6" y="757.5244">Zero external deps</text><text fill="#000000" font-family="Verdana" font-size="13" lengthAdjust="spacing" textLength="116.6318" x="1155.6" y="773.3238">Pure domain logic</text><text fill="#000000" font-family="Verdana" font-size="13" lengthAdjust="spacing" textLength="139.7944" x="1155.6" y="789.1231">Canonical error types</text></g><!--link PresentationGreet to AppCommand--><g class="link" data-entity-1="PresentationGreet" data-entity-2="AppCommand" data-source-line="89" data-uid="lnk32" id="link_PresentationGreet_AppCommand"><path d="M767.91,248.9746 C788.94,303.1446 849.838,459.9816 870.898,514.2116" fill="none" id="PresentationGreet-to-AppCommand" style="stroke:#000000;stroke-width:1;"/><polygon fill="#000000" points="873.07,519.8046,873.5406,509.967,871.26,515.1437,866.0832,512.8631,873.07,519.8046" style="stroke:#000000;stroke-width:1;"/><text fill="#000000" font-family="Verdana" font-size="13" lengthAdjust="spacing" textLength="62.3467" x="821.5" y="383.9344">uses DTO</text></g><!--link PresentationGreet to AppUsecase--><g class="link" data-entity-1="PresentationGreet" data-entity-2="AppUsecase" data-source-line="90" data-uid="lnk33" id="link_PresentationGreet_AppUsecase"><path d="M754.05,248.8946 C743.98,275.0446 725.21,325.6546 713,369.8646 C698.11,423.7946 687.2206,483.0903 681.9506,513.9303" fill="none" id="PresentationGreet-to-AppUsecase" style="stroke:#000000;stroke-width:1;"/><polygon fill="#000000" points="680.94,519.8446,686.3988,511.647,681.7822,514.9161,678.5131,510.2994,680.94,519.8446" style="stroke:#000000;stroke-width:1;"/><text fill="#000000" font-family="Verdana" font-size="13" lengthAdjust="spacing" textLength="85.6108" x="714" y="383.9344">uses Execute</text></g><!--link PresentationGreet to AppError--><g class="link" data-entity-1="PresentationGreet" data-entity-2="AppError" data-source-line="91" data-uid="lnk34" id="link_PresentationGreet_AppError"><path d="M784.76,249.1246 C818.44,274.5146 882.08,322.2046 937,361.8646 C957.69,376.8046 966.55,376.2446 984,394.8646 C1020.72,434.0546 1047.2735,485.7325 1060.5835,514.4025" fill="none" id="PresentationGreet-to-AppError" style="stroke:#000000;stroke-width:1;"/><polygon fill="#000000" points="1063.11,519.8446,1062.9483,509.9971,1061.0046,515.3095,1055.6922,513.3657,1063.11,519.8446" style="stroke:#000000;stroke-width:1;"/><text fill="#000000" font-family="Verdana" font-size="13" lengthAdjust="spacing" textLength="51.0869" x="976.29" y="383.9344">uses &#9989;</text></g><!--link InfraConsole to AppPort--><g class="link" data-entity-1="InfraConsole" data-entity-2="AppPort" data-source-line="93" data-uid="lnk35" id="link_InfraConsole_AppPort"><path d="M1784.25,248.9746 C1766.75,303.1446 1716.1345,459.8652 1698.6145,514.0952" fill="none" id="InfraConsole-to-AppPort" style="stroke:#000000;stroke-width:1;"/><polygon fill="#000000" points="1696.77,519.8046,1703.3431,512.4701,1698.3071,515.0467,1695.7305,510.0108,1696.77,519.8046" style="stroke:#000000;stroke-width:1;"/><text fill="#000000" font-family="Verdana" font-size="13" lengthAdjust="spacing" textLength="107.104" x="1744.47" y="383.9344">implements Port</text></g><!--link InfraConsole to DomainError--><g class="link" data-entity-1="InfraConsole" data-entity-2="DomainError" data-source-line="94" data-uid="lnk36" id="link_InfraConsole_DomainError"><path d="M1802.44,248.9446 C1819.38,274.3546 1848.88,323.1646 1860,369.8646 C1883.96,470.5246 2188.79,304.0446 1834,662.4546 C1796.43,700.4046 1648.3,684.2146 1595,687.4546 C1569.32,689.0146 1155.79,685.6746 1132,695.4546 C1105.18,706.4846 1086.0533,727.2221 1072.8633,744.6321" fill="none" id="InfraConsole-to-DomainError" style="stroke:#000000;stroke-width:1;"/><polygon fill="#000000" points="1069.24,749.4146,1077.8632,744.6564,1072.2594,745.4292,1071.4866,739.8254,1069.24,749.4146" style="stroke:#000000;stroke-width:1;"/><text fill="#000000" font-family="Verdana" font-size="13" lengthAdjust="spacing" textLength="51.0869" x="2005.59" y="544.2344">uses &#9989;</text></g><!--link AppCommand to DomainPerson--><g class="link" data-entity-1="AppCommand" data-entity-2="DomainPerson" data-source-line="96" data-uid="lnk37" id="link_AppCommand_DomainPerson"><path d="M881.73,557.5146 C885.84,600.0346 895.603,700.9724 899.703,743.4124" fill="none" id="AppCommand-to-DomainPerson" style="stroke:#000000;stroke-width:1;"/><polygon fill="#000000" points="900.28,749.3846,903.396,740.0417,899.7992,744.4078,895.4331,740.811,900.28,749.3846" style="stroke:#000000;stroke-width:1;"/><text fill="#000000" font-family="Verdana" font-size="13" lengthAdjust="spacing" textLength="29.5166" x="895.26" y="684.5244">uses</text></g><!--link AppUsecase to DomainPerson--><g class="link" data-entity-1="AppUsecase" data-entity-2="DomainPerson" data-source-line="97" data-uid="lnk38" id="link_AppUsecase_DomainPerson"><path d="M690.28,557.2546 C707.91,581.9646 742.01,627.7846 776,662.4546 C808.65,695.7646 846.3876,725.7544 872.7376,745.6044" fill="none" id="AppUsecase-to-DomainPerson" style="stroke:#000000;stroke-width:1;"/><polygon fill="#000000" points="877.53,749.2146,872.7483,740.6044,873.5364,746.2061,867.9347,746.9942,877.53,749.2146" style="stroke:#000000;stroke-width:1;"/><text fill="#000000" font-family="Verdana" font-size="13" lengthAdjust="spacing" textLength="58.1826" x="802.91" y="684.5244">validates</text></g><!--link AppPort to DomainResult--><g class="link" data-entity-1="AppPort" data-entity-2="DomainResult" data-source-line="98" data-uid="lnk39" id="link_AppPort_DomainResult"><path d="M1673.03,557.5146 C1630.22,600.0346 1526.8666,702.7159 1484.1466,745.1559" fill="none" id="AppPort-to-DomainResult" style="stroke:#000000;stroke-width:1;"/><polygon fill="#000000" points="1479.89,749.3846,1489.094,745.8793,1483.4371,745.8607,1483.4557,740.2039,1479.89,749.3846" style="stroke:#000000;stroke-width:1;"/><text fill="#000000" font-family="Verdana" font-size="13" lengthAdjust="spacing" textLength="29.5166" x="1556.99" y="684.5244">uses</text></g><!--link AppError to DomainError--><g class="link" data-entity-1="AppError" data-entity-2="DomainError" data-source-line="99" data-uid="lnk40" id="link_AppError_DomainError"><path d="M1069.9,557.5146 C1067.28,600.0346 1061.0797,700.956 1058.4597,743.396" fill="none" id="AppError-to-DomainError" style="stroke:#000000;stroke-width:1;"/><polygon fill="#000000" points="1058.09,749.3846,1062.637,740.6482,1058.3981,744.3941,1054.6522,740.1552,1058.09,749.3846" style="stroke:#000000;stroke-width:1;"/><text fill="#000000" font-family="Verdana" font-size="13" lengthAdjust="spacing" textLength="68.0659" x="1063.75" y="684.5244">re-exports</text></g><!--link PresentationGreet to DomainError--><g class="link" data-entity-1="PresentationGreet" data-entity-2="DomainError" data-source-line="102" data-uid="lnk41" id="link_PresentationGreet_DomainError"><path d="M738.72,249.0046 C703.23,276.6546 630.82,329.9846 562,361.8646 C514.91,383.6746 481.08,353.3046 450,394.8646 C378.77,490.1046 368.54,575.8046 450,662.4546 C470.32,684.0746 955.86,683.4746 983,695.4546 C1009.18,707.0146 1027.9077,727.359 1040.9977,744.569" fill="none" id="PresentationGreet-to-DomainError" style="stroke:#FF0000;stroke-width:1;stroke-dasharray:7,7;"/><polygon fill="#FF0000" points="1044.63,749.3446,1042.3652,739.7597,1041.6031,745.365,1035.9978,744.6028,1044.63,749.3446" style="stroke:#FF0000;stroke-width:1;"/><text fill="#000000" font-family="Verdana" font-size="13" lengthAdjust="spacing" textLength="100.6748" x="465.9482" y="536.2344">&#10060; FORBIDDEN</text><text fill="#000000" font-family="Verdana" font-size="13" lengthAdjust="spacing" textLength="130.5713" x="451" y="552.0338">No transitive access</text></g><g class="legend" data-source-line="104"><rect fill="none" height="435.3662" rx="7.5" ry="7.5" style="stroke:#000000;stroke-width:1;" width="514" x="858.5" y="822.8546"/><text fill="#000000" font-family="Verdana" font-size="14" font-weight="bold" lengthAdjust="spacing" textLength="224.6494" x="863.5" y="841.9298">Package Naming Convention</text><text fill="#000000" font-family="Verdana" font-size="14" lengthAdjust="spacing" textLength="504" x="863.5" y="858.9445">&#9552;&#9552;&#9552;&#9552;&#9552;&#9552;&#9552;&#9552;&#9552;&#9552;&#9552;&#9552;&#9552;&#9552;&#9552;&#9552;&#9552;&#9552;&#9552;&#9552;&#9552;&#9552;&#9552;&#9552;&#9552;&#9552;&#9552;&#9552;&#9552;&#9552;&#9552;&#9552;&#9552;&#9552;&#9552;&#9552;</text><text fill="#000000" font-family="Verdana" font-size="14" lengthAdjust="spacing" textLength="253.0049" x="863.5" y="875.9591">All packages use hierarchical paths:</text><text fill="#000000" font-family="Verdana" font-size="14" lengthAdjust="spacing" textLength="234.9648" x="863.5" y="892.9738">&#8226; Parent.Child.Grandchild pattern</text><text fill="#000000" font-family="Verdana" font-size="14" lengthAdjust="spacing" textLength="187.4072" x="863.5" y="909.9884">&#8226; Underscore_Pascal_Case</text><text fill="#000000" font-family="Verdana" font-size="14" lengthAdjust="spacing" textLength="163.4063" x="863.5" y="927.003">&#8226; GPR project per layer</text><text fill="#000000" font-family="Verdana" font-size="14" lengthAdjust="spacing" textLength="4.9219" x="863.5" y="944.0177">&#160;</text><text fill="#000000" font-family="Verdana" font-size="14" font-weight="bold" lengthAdjust="spacing" textLength="72.5977" x="863.5" y="961.0323">Example:</text><text fill="#000000" font-family="Verdana" font-size="14" lengthAdjust="spacing" textLength="188.248" x="863.5" y="978.047">&#8226; Package: Domain.Person</text><text fill="#000000" font-family="Verdana" font-size="14" lengthAdjust="spacing" textLength="215.626" x="863.5" y="995.0616">&#8226; File: domain-person.ads/adb</text><text fill="#000000" font-family="Verdana" font-size="14" lengthAdjust="spacing" textLength="105.2188" x="863.5" y="1012.0763">&#8226; Type: Person</text><text fill="#000000" font-family="Verdana" font-size="14" lengthAdjust="spacing" textLength="4.9219" x="863.5" y="1029.0909">&#160;</text><text fill="#000000" font-family="Verdana" font-size="14" font-weight="bold" lengthAdjust="spacing" textLength="144.4844" x="863.5" y="1046.1056">Dependency Rules</text><text fill="#000000" font-family="Verdana" font-size="14" lengthAdjust="spacing" textLength="504" x="863.5" y="1063.1202">&#9552;&#9552;&#9552;&#9552;&#9552;&#9552;&#9552;&#9552;&#9552;&#9552;&#9552;&#9552;&#9552;&#9552;&#9552;&#9552;&#9552;&#9552;&#9552;&#9552;&#9552;&#9552;&#9552;&#9552;&#9552;&#9552;&#9552;&#9552;&#9552;&#9552;&#9552;&#9552;&#9552;&#9552;&#9552;&#9552;</text><text fill="#000000" font-family="Verdana" font-size="14" lengthAdjust="spacing" textLength="297.1611" x="863.5" y="1080.1349">&#9989; Presentation &#8594; Application.* packages</text><text fill="#000000" font-family="Verdana" font-size="14" lengthAdjust="spacing" textLength="396.2617" x="863.5" y="1097.1495">&#9989; Infrastructure &#8594; Application.* + Domain.* packages</text><text fill="#000000" font-family="Verdana" font-size="14" lengthAdjust="spacing" textLength="263.2822" x="863.5" y="1114.1642">&#9989; Application &#8594; Domain.* packages</text><text fill="#000000" font-family="Verdana" font-size="14" lengthAdjust="spacing" textLength="363.8047" x="863.5" y="1131.1788">&#10060; Presentation &#8594; Domain.* packages (forbidden!)</text><text fill="#000000" font-family="Verdana" font-size="14" lengthAdjust="spacing" textLength="4.9219" x="863.5" y="1148.1935">&#160;</text><text fill="#000000" font-family="Verdana" font-size="14" font-weight="bold" lengthAdjust="spacing" textLength="230.9316" x="863.5" y="1165.2081">Static Dispatch with Generics</text><text fill="#000000" font-family="Verdana" font-size="14" lengthAdjust="spacing" textLength="504" x="863.5" y="1182.2228">&#9552;&#9552;&#9552;&#9552;&#9552;&#9552;&#9552;&#9552;&#9552;&#9552;&#9552;&#9552;&#9552;&#9552;&#9552;&#9552;&#9552;&#9552;&#9552;&#9552;&#9552;&#9552;&#9552;&#9552;&#9552;&#9552;&#9552;&#9552;&#9552;&#9552;&#9552;&#9552;&#9552;&#9552;&#9552;&#9552;</text><text fill="#000000" font-family="Verdana" font-size="14" lengthAdjust="spacing" textLength="433.3848" x="863.5" y="1199.2374">&#8226; Use_Case with function Console_Write - generic over writer</text><text fill="#000000" font-family="Verdana" font-size="14" lengthAdjust="spacing" textLength="409.8965" x="863.5" y="1216.2521">&#8226; Command with function Execute - generic over use case</text><text fill="#000000" font-family="Verdana" font-size="14" lengthAdjust="spacing" textLength="303.6318" x="863.5" y="1233.2667">&#8226; Concrete functions bound at instantiation</text><text fill="#000000" font-family="Verdana" font-size="14" lengthAdjust="spacing" textLength="295.2373" x="863.5" y="1250.2814">&#8226; Zero runtime overhead (no dispatching)</text></g><!--SRC=[nLTBRnit4BxlhvWuXqegj4NHDgWL980jQGEZgItOSGCK0MHwbvROhCW5oVK3HO5UsbCFHO7Usaj_cdz9Xo-9-x2RKmCOaCJvXXpEzyrm_4IlwOP2LHB64_MUyOf8ie5SR2h1ATTd-gwa86ck2L-LD4aqqxYm8Fbxig9mfcMTwrhIT_m0FqaPB0eOXpd9r_2Qt56P95UuBOMzGo6qqf9KRdqFdcRP_70wWnyJs9qQuTBfwwCz80gsAxY0M2uqniLMQmtYgcq468scPZF5D1CSJj4y6bd36DuoYU6HieI2LfGNbEUCAczyHJcLBCVe5TvOCsBylUsWgagMsnN08EKTL89ndLZpnSK5AOZzMldal9AKwkNv59W2Jc-i3U9TqdD5Sw9eQf7U3Z1uAvcc4bwyXAdWIfHqwLPI-p5ytdFAT5CqZrdW9J58Tyv1GIhZZzb9CIyRmelscVDRcjUQBdtGYaunC1D2k4Ng4Vvul2z-Olei4ybFMuRZWsEIlvn_tYRvmsAqxCVG47bJ0dq8euEP9Lc1u9Ej168E_5azbeMGEZsfzQMeCHP7WOUDHZ5mBgMGen7S__LB4jH7E8O79C-fKk7W-xz_WvdOOAcbey2V2Xv1UU8QgUzb8snpm_GQhcgUsnJt4pT8qtI8TOkrYVAdgYvrFrr77B-eKCPRmkRFiY-oh4rO4xoZhA5IovT5-lKELItZXx3q21S-evO461JCDAkXvQ9XF-TCXrmVRQeIsnxN2dojcVt3oNr5D_WMUKIwXlrPZ5l3DeLVPr_DzzifxEZ6fWjNNVnOALcsl_-mZvThyDgfzm6yRp41xty-ZEzBT70sjgJ3PeZTv_QKZkbjXKZLOCRdDiCxDZf4QR85DORKRgDMvl4MpRxNIIJslz3EL7sfxoeATdtvndnbpN3IdUbvlzStZ1SFU1dJrkixKhB2Xh5qOKmmjUxrY7RQDbgOl6XksVPt6nkDTMxu7vtNRHlrt6n__gojl_XiowjR20nsaQvvfBuzBTtFo7FRNBgk2ogLu17MBNGbr8p1gEXxAWNGMnGV9_QXLbv02zEb2dVJKgnOxagMSC4nLoLGou7XKRMoz0dCelSU1Zc6IkLOKOfZpmeRXHa9x8kEhx-L_p3fF2emBiGD7x-CQWy9H_dY5T-SF8xtjHVmld4_xXCaPJti-n8tpnXfYXE1RDVQRBdsmgDyD_QEBjM4Ek8yDedkyW3isedQOMraJQ0JJRIVYwK_FhdjA8P4x22Nh40MT-FR7GpK6ZsDqAwPA6qg-yXBhUBIvW5F9JKSciSvEpazF9hDviVl-B40d2Uv6I2lgN_7awIaAoEfIw6rs2H6g64IFYOReoBCz3MUYITQlTx_-Vl_zeV77HW5Xm4SKmjhHYMH-TgMHaNqMarCL3__WtEwn3ZJwPgLPiv2odFprO1CqNdKEUPNgbn8kbmGXPiif-xrCCPNYrEefFW1trkei8cNRj8tMPdV4gD3zwAwusnK4sYq1c_C649zKOyhQqb9eJuZnQL7c3uzWLtx20E39V-qBgdw6Ed6cca-PlU__j7esj6Kvz2jQQkB_xHdG7IkyOXX_7fngE5EG1qW3Av23JqPkcoU6NmECwQGV_odpRwzlkL_dDGQyIbgvTOQU1lZ6RRjLJmutuJ9q6mGUbdlmDpsDEMIxyIDf-GuFjEjdmBx9W3HdNyE3Tu-MBB6LNoApOPhIWeOS065JogsXs62cdKz9FaN]--></g></svg>