<svg xmlns="http://www.w3.org/2000/svg" xmlns:xlink="http://www.w3.org/1999/xlink" contentStyleType="text/css" data-diagram-type="CLASS" height="1522px" preserveAspectRatio="none" style="width:1751px;height:1522px;background:#FFFFFF;" version="1.1" viewBox="0 0 1751 1522" width="1751px" zoomAndPan="magnify"><title>Application Error Re-export Pattern (APPLICATION)
Providing Error Types to Presentation Layer (Go)</title><defs/><g><g class="title" data-source-line="3"><text fill="#000000" font-family="Verdana" font-size="22" font-weight="bold" lengthAdjust="spacing" textLength="643.6934" x="549.1533" y="37.1182">Application Error Re-export Pattern (APPLICATION)</text><text fill="#000000" font-family="Verdana" font-size="22" font-weight="bold" lengthAdjust="spacing" textLength="606.9551" x="567.5225" y="63.8555">Providing Error Types to Presentation Layer (Go)</text></g><!--cluster Domain--><g class="cluster" data-entity="Domain" data-source-line="5" data-uid="ent0002" id="cluster_Domain"><path d="M13.5,301.5246 L123.082,301.5246 A3.75,3.75 0 0 1 125.582,304.0246 L132.582,324.5393 L575.5,324.5393 A2.5,2.5 0 0 1 578,327.0393 L578,551.1346 A2.5,2.5 0 0 1 575.5,553.6346 L13.5,553.6346 A2.5,2.5 0 0 1 11,551.1346 L11,304.0246 A2.5,2.5 0 0 1 13.5,301.5246" fill="#FFF9E6" style="stroke:#000000;stroke-width:1;"/><line style="stroke:#000000;stroke-width:1;" x1="11" x2="132.582" y1="324.5393" y2="324.5393"/><text fill="#000000" font-family="Verdana" font-size="14" font-weight="bold" lengthAdjust="spacing" textLength="108.582" x="15" y="317.5998">Domain Layer</text></g><!--cluster Application--><g class="cluster" data-entity="Application" data-source-line="27" data-uid="ent0005" id="cluster_Application"><path d="M23.5,761.7846 L161.2803,761.7846 A3.75,3.75 0 0 1 163.7803,764.2846 L170.7803,784.7993 L897.5,784.7993 A2.5,2.5 0 0 1 900,787.2993 L900,960.3646 A2.5,2.5 0 0 1 897.5,962.8646 L23.5,962.8646 A2.5,2.5 0 0 1 21,960.3646 L21,764.2846 A2.5,2.5 0 0 1 23.5,761.7846" fill="#E8F5E9" style="stroke:#000000;stroke-width:1;"/><line style="stroke:#000000;stroke-width:1;" x1="21" x2="170.7803" y1="784.7993" y2="784.7993"/><text fill="#000000" font-family="Verdana" font-size="14" font-weight="bold" lengthAdjust="spacing" textLength="136.7803" x="25" y="777.8598">Application Layer</text></g><!--cluster Presentation--><g class="cluster" data-entity="Presentation" data-source-line="52" data-uid="ent0009" id="cluster_Presentation"><path d="M604.5,310.0246 L754.4961,310.0246 A3.75,3.75 0 0 1 756.9961,312.5246 L763.9961,333.0393 L961.5,333.0393 A2.5,2.5 0 0 1 964,335.5393 L964,542.6346 A2.5,2.5 0 0 1 961.5,545.1346 L604.5,545.1346 A2.5,2.5 0 0 1 602,542.6346 L602,312.5246 A2.5,2.5 0 0 1 604.5,310.0246" fill="#FFE4E1" style="stroke:#000000;stroke-width:1;"/><line style="stroke:#000000;stroke-width:1;" x1="602" x2="763.9961" y1="333.0393" y2="333.0393"/><text fill="#000000" font-family="Verdana" font-size="14" font-weight="bold" lengthAdjust="spacing" textLength="148.9961" x="606" y="326.0998">Presentation Layer</text></g><!--cluster Bootstrap--><g class="cluster" data-entity="Bootstrap" data-source-line="65" data-uid="ent0011" id="cluster_Bootstrap"><path d="M683.5,85.4746 L809.9736,85.4746 A3.75,3.75 0 0 1 812.4736,87.9746 L819.4736,108.4893 L882.5,108.4893 A2.5,2.5 0 0 1 885,110.9893 L885,250.0246 A2.5,2.5 0 0 1 882.5,252.5246 L683.5,252.5246 A2.5,2.5 0 0 1 681,250.0246 L681,87.9746 A2.5,2.5 0 0 1 683.5,85.4746" fill="#FFEBCD" style="stroke:#000000;stroke-width:1;"/><line style="stroke:#000000;stroke-width:1;" x1="681" x2="819.4736" y1="108.4893" y2="108.4893"/><text fill="#000000" font-family="Verdana" font-size="14" font-weight="bold" lengthAdjust="spacing" textLength="125.4736" x="685" y="101.5498">Bootstrap Layer</text></g><!--class DomainError--><g class="entity" data-entity="DomainError" data-source-line="6" data-uid="ent0003" id="entity_DomainError"><rect fill="#FFFFFF" height="180.1172" rx="2.5" ry="2.5" style="stroke:#000000;stroke-width:1;" width="210.6211" x="26.69" y="357.5246"/><ellipse cx="81.7183" cy="371.5246" fill="#FFFFFF" rx="9" ry="9" style="stroke:#000000;stroke-width:1;"/><path d="M84.1915,377.6677 Q83.6104,377.9665 82.9713,378.1159 Q82.3321,378.2653 81.6265,378.2653 Q79.1197,378.2653 77.7999,376.6135 Q76.48,374.9616 76.48,371.8405 Q76.48,368.7111 77.7999,367.0593 Q79.1197,365.4074 81.6265,365.4074 Q82.3321,365.4074 82.9796,365.5568 Q83.627,365.7062 84.1915,366.0051 L84.1915,368.7277 Q83.5606,368.1467 82.9671,367.8769 Q82.3736,367.6071 81.7427,367.6071 Q80.398,367.6071 79.7132,368.6738 Q79.0284,369.7404 79.0284,371.8405 Q79.0284,373.9323 79.7132,374.999 Q80.398,376.0656 81.7427,376.0656 Q82.3736,376.0656 82.9671,375.7958 Q83.5606,375.5261 84.1915,374.945 Z " fill="#000000"/><text fill="#000000" font-family="Verdana" font-size="14" lengthAdjust="spacing" textLength="93.0645" x="99.2183" y="377.0925">domain/error</text><line style="stroke:#000000;stroke-width:1;" x1="27.69" x2="236.3111" y1="385.5246" y2="385.5246"/><ellipse cx="37.69" cy="399.5319" fill="none" rx="3" ry="3" style="stroke:#000000;stroke-width:1;"/><text fill="#000000" font-family="Verdana" font-size="14" lengthAdjust="spacing" textLength="125.9043" x="44.69" y="403.5998">ErrorType : struct</text><ellipse cx="37.69" cy="416.5466" fill="none" rx="3" ry="3" style="stroke:#000000;stroke-width:1;"/><text fill="#000000" font-family="Verdana" font-size="14" lengthAdjust="spacing" textLength="113.4629" x="44.69" y="420.6145">ErrorKind : type</text><ellipse cx="37.69" cy="433.5612" fill="none" rx="3" ry="3" style="stroke:#000000;stroke-width:1;"/><text fill="#000000" font-family="Verdana" font-size="14" lengthAdjust="spacing" textLength="158.4434" x="44.69" y="437.6291">ValidationError : const</text><ellipse cx="37.69" cy="450.5759" fill="none" rx="3" ry="3" style="stroke:#000000;stroke-width:1;"/><text fill="#000000" font-family="Verdana" font-size="14" lengthAdjust="spacing" textLength="186.6211" x="44.69" y="454.6437">InfrastructureError : const</text><ellipse cx="37.69" cy="467.5905" fill="none" rx="3" ry="3" style="stroke:#000000;stroke-width:1;"/><text fill="#000000" font-family="Verdana" font-size="14" lengthAdjust="spacing" textLength="132.501" x="44.69" y="471.6584">Result[T] : generic</text><ellipse cx="37.69" cy="484.6052" fill="#FFFFFF" rx="3" ry="3" style="stroke:#000000;stroke-width:1;"/><text fill="#000000" font-family="Verdana" font-size="14" lengthAdjust="spacing" textLength="142.7754" x="44.69" y="488.673">Ok[T](v) : Result[T]</text><ellipse cx="37.69" cy="501.6198" fill="#FFFFFF" rx="3" ry="3" style="stroke:#000000;stroke-width:1;"/><text fill="#000000" font-family="Verdana" font-size="14" lengthAdjust="spacing" textLength="144.3271" x="44.69" y="505.6877">Err[T](e) : Result[T]</text><line style="stroke:#000000;stroke-width:1;" x1="27.69" x2="236.3111" y1="512.6271" y2="512.6271"/><text fill="#000000" font-family="Verdana" font-size="14" lengthAdjust="spacing" textLength="184.9258" x="32.69" y="530.7023">Canonical error definitions</text></g><!--class DomainPerson--><g class="entity" data-entity="DomainPerson" data-source-line="18" data-uid="ent0004" id="entity_DomainPerson"><rect fill="#FFFFFF" height="112.0586" rx="2.5" ry="2.5" style="stroke:#000000;stroke-width:1;" width="289.6104" x="272.19" y="391.5446"/><ellipse cx="343.6314" cy="405.5446" fill="#FFFFFF" rx="9" ry="9" style="stroke:#000000;stroke-width:1;"/><path d="M346.1046,411.6877 Q345.5235,411.9865 344.8843,412.1359 Q344.2452,412.2853 343.5396,412.2853 Q341.0328,412.2853 339.7129,410.6335 Q338.3931,408.9816 338.3931,405.8605 Q338.3931,402.7311 339.7129,401.0793 Q341.0328,399.4274 343.5396,399.4274 Q344.2452,399.4274 344.8926,399.5768 Q345.5401,399.7262 346.1046,400.0251 L346.1046,402.7477 Q345.4737,402.1667 344.8802,401.8969 Q344.2867,401.6271 343.6558,401.6271 Q342.3111,401.6271 341.6263,402.6938 Q340.9415,403.7604 340.9415,405.8605 Q340.9415,407.9523 341.6263,409.019 Q342.3111,410.0856 343.6558,410.0856 Q344.2867,410.0856 344.8802,409.8158 Q345.4737,409.5461 346.1046,408.965 Z " fill="#000000"/><text fill="#000000" font-family="Verdana" font-size="14" lengthAdjust="spacing" textLength="139.2275" x="361.1314" y="411.1125">domain/valueobject</text><line style="stroke:#000000;stroke-width:1;" x1="273.19" x2="560.8004" y1="419.5446" y2="419.5446"/><ellipse cx="283.19" cy="433.5519" fill="#FFFFFF" rx="3" ry="3" style="stroke:#000000;stroke-width:1;"/><text fill="#000000" font-family="Verdana" font-size="14" lengthAdjust="spacing" textLength="196.4648" x="290.19" y="437.6198">Person : struct (immutable)</text><ellipse cx="283.19" cy="450.5666" fill="#FFFFFF" rx="3" ry="3" style="stroke:#000000;stroke-width:1;"/><text fill="#000000" font-family="Verdana" font-size="14" lengthAdjust="spacing" textLength="265.6104" x="290.19" y="454.6345">CreatePerson(name) : Result[Person]</text><ellipse cx="283.19" cy="467.5812" fill="#FFFFFF" rx="3" ry="3" style="stroke:#000000;stroke-width:1;"/><text fill="#000000" font-family="Verdana" font-size="14" lengthAdjust="spacing" textLength="109.9629" x="290.19" y="471.6491">Name() : string</text><line style="stroke:#000000;stroke-width:1;" x1="273.19" x2="560.8004" y1="478.5886" y2="478.5886"/><text fill="#000000" font-family="Verdana" font-size="14" lengthAdjust="spacing" textLength="144.7783" x="278.19" y="496.6637">Domain value object</text></g><!--class AppError--><g class="entity" data-entity="AppError" data-source-line="28" data-uid="ent0006" id="entity_AppError"><rect fill="#FFFF99" height="129.0732" rx="2.5" ry="2.5" style="stroke:#000000;stroke-width:1;" width="231.2969" x="37.35" y="817.7846"/><ellipse cx="90.7123" cy="831.7846" fill="#FFFFFF" rx="9" ry="9" style="stroke:#000000;stroke-width:1;"/><path d="M93.1854,837.9277 Q92.6044,838.2265 91.9652,838.3759 Q91.3261,838.5253 90.6205,838.5253 Q88.1137,838.5253 86.7938,836.8735 Q85.474,835.2216 85.474,832.1005 Q85.474,828.9711 86.7938,827.3193 Q88.1137,825.6674 90.6205,825.6674 Q91.3261,825.6674 91.9735,825.8168 Q92.621,825.9663 93.1854,826.2651 L93.1854,828.9877 Q92.5546,828.4067 91.9611,828.1369 Q91.3676,827.8671 90.7367,827.8671 Q89.392,827.8671 88.7072,828.9338 Q88.0224,830.0004 88.0224,832.1005 Q88.0224,834.1923 88.7072,835.259 Q89.392,836.3256 90.7367,836.3256 Q91.3676,836.3256 91.9611,836.0558 Q92.5546,835.7861 93.1854,835.205 Z " fill="#000000"/><text fill="#000000" font-family="Verdana" font-size="14" lengthAdjust="spacing" textLength="117.0723" x="108.2123" y="837.3525">application/error</text><line style="stroke:#000000;stroke-width:1;" x1="38.35" x2="267.6469" y1="845.7846" y2="845.7846"/><ellipse cx="48.35" cy="859.7919" fill="none" rx="3" ry="3" style="stroke:#000000;stroke-width:1;"/><text fill="#000000" font-family="Verdana" font-size="14" lengthAdjust="spacing" textLength="153.0293" x="55.35" y="863.8598">ErrorType : type alias</text><ellipse cx="48.35" cy="876.8066" fill="none" rx="3" ry="3" style="stroke:#000000;stroke-width:1;"/><text fill="#000000" font-family="Verdana" font-size="14" lengthAdjust="spacing" textLength="150.1787" x="55.35" y="880.8745">ErrorKind : type alias</text><ellipse cx="48.35" cy="893.8212" fill="none" rx="3" ry="3" style="stroke:#000000;stroke-width:1;"/><text fill="#000000" font-family="Verdana" font-size="14" lengthAdjust="spacing" textLength="158.4434" x="55.35" y="897.8891">ValidationError : const</text><ellipse cx="48.35" cy="910.8359" fill="none" rx="3" ry="3" style="stroke:#000000;stroke-width:1;"/><text fill="#000000" font-family="Verdana" font-size="14" lengthAdjust="spacing" textLength="186.6211" x="55.35" y="914.9038">InfrastructureError : const</text><line style="stroke:#000000;stroke-width:1;" x1="38.35" x2="267.6469" y1="921.8432" y2="921.8432"/><text fill="#000000" font-family="Verdana" font-size="14" font-weight="bold" lengthAdjust="spacing" textLength="219.2969" x="43.35" y="939.9184">Re-exports for Presentation</text></g><!--class AppCommand--><g class="entity" data-entity="AppCommand" data-source-line="37" data-uid="ent0007" id="entity_AppCommand"><rect fill="#FFFFFF" height="112.0586" rx="2.5" ry="2.5" style="stroke:#000000;stroke-width:1;" width="343.457" x="303.27" y="826.2946"/><ellipse cx="395.5849" cy="840.2946" fill="#FFFFFF" rx="9" ry="9" style="stroke:#000000;stroke-width:1;"/><path d="M398.0581,846.4377 Q397.477,846.7365 396.8379,846.8859 Q396.1987,847.0353 395.4931,847.0353 Q392.9863,847.0353 391.6665,845.3835 Q390.3467,843.7316 390.3467,840.6105 Q390.3467,837.4811 391.6665,835.8293 Q392.9863,834.1774 395.4931,834.1774 Q396.1987,834.1774 396.8462,834.3268 Q397.4936,834.4762 398.0581,834.7751 L398.0581,837.4977 Q397.4272,836.9167 396.8337,836.6469 Q396.2402,836.3771 395.6094,836.3771 Q394.2646,836.3771 393.5798,837.4438 Q392.895,838.5104 392.895,840.6105 Q392.895,842.7023 393.5798,843.769 Q394.2646,844.8356 395.6094,844.8356 Q396.2402,844.8356 396.8337,844.5658 Q397.4272,844.2961 398.0581,843.715 Z " fill="#000000"/><text fill="#000000" font-family="Verdana" font-size="14" lengthAdjust="spacing" textLength="151.3271" x="413.0849" y="845.8625">application/command</text><line style="stroke:#000000;stroke-width:1;" x1="304.27" x2="645.727" y1="854.2946" y2="854.2946"/><ellipse cx="314.27" cy="868.3019" fill="none" rx="3" ry="3" style="stroke:#000000;stroke-width:1;"/><text fill="#000000" font-family="Verdana" font-size="14" lengthAdjust="spacing" textLength="167.1797" x="321.27" y="872.3698">GreetCommand : struct</text><ellipse cx="314.27" cy="885.3166" fill="#FFFFFF" rx="3" ry="3" style="stroke:#000000;stroke-width:1;"/><text fill="#000000" font-family="Verdana" font-size="14" lengthAdjust="spacing" textLength="319.457" x="321.27" y="889.3845">NewGreetCommand(name) : GreetCommand</text><ellipse cx="314.27" cy="902.3312" fill="#FFFFFF" rx="3" ry="3" style="stroke:#000000;stroke-width:1;"/><text fill="#000000" font-family="Verdana" font-size="14" lengthAdjust="spacing" textLength="109.9629" x="321.27" y="906.3991">Name() : string</text><line style="stroke:#000000;stroke-width:1;" x1="304.27" x2="645.727" y1="913.3386" y2="913.3386"/><text fill="#000000" font-family="Verdana" font-size="14" lengthAdjust="spacing" textLength="73.2061" x="309.27" y="931.4137">Input DTO</text></g><!--class AppPortIn--><g class="entity" data-entity="AppPortIn" data-source-line="45" data-uid="ent0008" id="entity_AppPortIn"><rect fill="#FFFFFF" height="78.0293" rx="2.5" ry="2.5" style="stroke:#000000;stroke-width:1;" width="201.7422" x="682.13" y="843.3146"/><ellipse cx="695.13" cy="857.3146" fill="#FFFFFF" rx="9" ry="9" style="stroke:#000000;stroke-width:1;"/><path d="M697.6031,863.4577 Q697.0221,863.7565 696.3829,863.9059 Q695.7438,864.0553 695.0382,864.0553 Q692.5314,864.0553 691.2115,862.4035 Q689.8917,860.7516 689.8917,857.6305 Q689.8917,854.5011 691.2115,852.8493 Q692.5314,851.1974 695.0382,851.1974 Q695.7438,851.1974 696.3912,851.3468 Q697.0387,851.4962 697.6031,851.7951 L697.6031,854.5177 Q696.9723,853.9367 696.3788,853.6669 Q695.7853,853.3971 695.1544,853.3971 Q693.8097,853.3971 693.1249,854.4638 Q692.4401,855.5304 692.4401,857.6305 Q692.4401,859.7223 693.1249,860.789 Q693.8097,861.8556 695.1544,861.8556 Q695.7853,861.8556 696.3788,861.5858 Q696.9723,861.3161 697.6031,860.735 Z " fill="#000000"/><text fill="#000000" font-family="Verdana" font-size="14" lengthAdjust="spacing" textLength="173.7422" x="707.13" y="862.8825">application/port/inbound</text><line style="stroke:#000000;stroke-width:1;" x1="683.13" x2="882.8722" y1="871.3146" y2="871.3146"/><ellipse cx="693.13" cy="885.3219" fill="none" rx="3" ry="3" style="stroke:#000000;stroke-width:1;"/><text fill="#000000" font-family="Verdana" font-size="14" lengthAdjust="spacing" textLength="145.1543" x="700.13" y="889.3898">GreetPort : interface</text><line style="stroke:#000000;stroke-width:1;" x1="683.13" x2="882.8722" y1="896.3293" y2="896.3293"/><text fill="#000000" font-family="Verdana" font-size="14" lengthAdjust="spacing" textLength="133.7656" x="688.13" y="914.4045">Input port contract</text></g><!--class CLI--><g class="entity" data-entity="CLI" data-source-line="53" data-uid="ent0010" id="entity_CLI"><rect fill="#FFFFFF" height="163.1025" rx="2.5" ry="2.5" style="stroke:#000000;stroke-width:1;" width="329.2861" x="618.36" y="366.0246"/><ellipse cx="694.2755" cy="380.0246" fill="#FFFFFF" rx="9" ry="9" style="stroke:#000000;stroke-width:1;"/><path d="M696.7487,386.1677 Q696.1676,386.4665 695.5285,386.6159 Q694.8893,386.7653 694.1837,386.7653 Q691.6769,386.7653 690.3571,385.1135 Q689.0372,383.4616 689.0372,380.3405 Q689.0372,377.2111 690.3571,375.5593 Q691.6769,373.9074 694.1837,373.9074 Q694.8893,373.9074 695.5368,374.0568 Q696.1842,374.2062 696.7487,374.5051 L696.7487,377.2277 Q696.1178,376.6467 695.5243,376.3769 Q694.9308,376.1071 694.2999,376.1071 Q692.9552,376.1071 692.2704,377.1738 Q691.5856,378.2404 691.5856,380.3405 Q691.5856,382.4323 692.2704,383.499 Q692.9552,384.5656 694.2999,384.5656 Q694.9308,384.5656 695.5243,384.2958 Q696.1178,384.0261 696.7487,383.445 Z " fill="#000000"/><text fill="#000000" font-family="Verdana" font-size="14" lengthAdjust="spacing" textLength="169.9551" x="711.7755" y="385.5925">presentation/adapter/cli</text><line style="stroke:#000000;stroke-width:1;" x1="619.36" x2="946.6461" y1="394.0246" y2="394.0246"/><ellipse cx="629.36" cy="408.0319" fill="none" rx="3" ry="3" style="stroke:#000000;stroke-width:1;"/><text fill="#000000" font-family="Verdana" font-size="14" lengthAdjust="spacing" textLength="167.1797" x="636.36" y="412.0998">GreetCommand : struct</text><rect fill="none" height="6" style="stroke:#000000;stroke-width:1;" width="6" x="626.36" y="422.0466"/><text fill="#000000" font-family="Verdana" font-size="14" lengthAdjust="spacing" textLength="141.9688" x="636.36" y="429.1145">useCase : GreetPort</text><ellipse cx="629.36" cy="442.0612" fill="#FFFFFF" rx="3" ry="3" style="stroke:#000000;stroke-width:1;"/><text fill="#000000" font-family="Verdana" font-size="14" lengthAdjust="spacing" textLength="305.2861" x="636.36" y="446.1291">NewGreetCommand(uc) : *GreetCommand</text><ellipse cx="629.36" cy="459.0759" fill="#FFFFFF" rx="3" ry="3" style="stroke:#000000;stroke-width:1;"/><text fill="#000000" font-family="Verdana" font-size="14" lengthAdjust="spacing" textLength="74.5869" x="636.36" y="463.1437">Run() : int</text><line style="stroke:#000000;stroke-width:1;" x1="619.36" x2="946.6461" y1="470.0832" y2="470.0832"/><text fill="#000000" font-family="Verdana" font-size="14" lengthAdjust="spacing" textLength="82.4756" x="624.36" y="488.1584">CLI adapter</text><text fill="#000000" font-family="Verdana" font-size="14" lengthAdjust="spacing" textLength="179.0908" x="624.36" y="505.173">Uses application/error &#9989;</text><text fill="#000000" font-family="Verdana" font-size="14" lengthAdjust="spacing" textLength="181.7979" x="624.36" y="522.1877">&#10060; Cannot import domain</text></g><!--class BootstrapCLI--><g class="entity" data-entity="BootstrapCLI" data-source-line="66" data-uid="ent0012" id="entity_BootstrapCLI"><rect fill="#FFFFFF" height="95.0439" rx="2.5" ry="2.5" style="stroke:#000000;stroke-width:1;" width="172.9043" x="696.55" y="141.4746"/><ellipse cx="735.01" cy="155.4746" fill="#FFFFFF" rx="9" ry="9" style="stroke:#000000;stroke-width:1;"/><path d="M737.4831,161.6177 Q736.9021,161.9165 736.2629,162.0659 Q735.6237,162.2153 734.9182,162.2153 Q732.4113,162.2153 731.0915,160.5635 Q729.7717,158.9116 729.7717,155.7905 Q729.7717,152.6611 731.0915,151.0093 Q732.4113,149.3574 734.9182,149.3574 Q735.6237,149.3574 736.2712,149.5068 Q736.9187,149.6563 737.4831,149.9551 L737.4831,152.6777 Q736.8522,152.0967 736.2587,151.8269 Q735.6652,151.5571 735.0344,151.5571 Q733.6896,151.5571 733.0048,152.6238 Q732.32,153.6904 732.32,155.7905 Q732.32,157.8823 733.0048,158.949 Q733.6896,160.0156 735.0344,160.0156 Q735.6652,160.0156 736.2587,159.7458 Q736.8522,159.4761 737.4831,158.895 Z " fill="#000000"/><text fill="#000000" font-family="Verdana" font-size="14" lengthAdjust="spacing" textLength="88.4844" x="752.51" y="161.0425">bootstrap/cli</text><line style="stroke:#000000;stroke-width:1;" x1="697.55" x2="868.4543" y1="169.4746" y2="169.4746"/><ellipse cx="707.55" cy="183.4819" fill="#FFFFFF" rx="3" ry="3" style="stroke:#000000;stroke-width:1;"/><text fill="#000000" font-family="Verdana" font-size="14" lengthAdjust="spacing" textLength="74.5869" x="714.55" y="187.5498">Run() : int</text><line style="stroke:#000000;stroke-width:1;" x1="697.55" x2="868.4543" y1="194.4893" y2="194.4893"/><text fill="#000000" font-family="Verdana" font-size="14" font-weight="bold" lengthAdjust="spacing" textLength="139.1318" x="702.55" y="212.5645">Composition Root</text><text fill="#000000" font-family="Verdana" font-size="14" lengthAdjust="spacing" textLength="160.9043" x="702.55" y="229.5791">Wires all dependencies</text></g><g class="entity" data-entity="GMN19" data-source-line="87" data-uid="ent0020" id="entity_GMN19"><path d="M1372,735.1346 L1372,1029.5223 L1744,1029.5223 L1744,745.1346 L1734,735.1346 L1372,735.1346" fill="#FFFFFF" style="stroke:#000000;stroke-width:1;"/><path d="M1734,735.1346 L1734,745.1346 L1744,745.1346 L1734,735.1346" fill="#FFFFFF" style="stroke:#000000;stroke-width:1;"/><text fill="#000000" font-family="Verdana" font-size="13" font-weight="bold" lengthAdjust="spacing" textLength="179.3149" x="1378" y="753.2044">Application Error Facade</text><text fill="#000000" font-family="Verdana" font-size="13" lengthAdjust="spacing" textLength="351" x="1378" y="769.0038">&#9552;&#9552;&#9552;&#9552;&#9552;&#9552;&#9552;&#9552;&#9552;&#9552;&#9552;&#9552;&#9552;&#9552;&#9552;&#9552;&#9552;&#9552;&#9552;&#9552;&#9552;&#9552;&#9552;&#9552;&#9552;&#9552;&#9552;</text><text fill="#000000" font-family="Verdana" font-size="13" lengthAdjust="spacing" textLength="4.5703" x="1378" y="784.8031">&#160;</text><text fill="#000000" font-family="Verdana" font-size="13" lengthAdjust="spacing" textLength="40.7837" x="1378" y="800.6024">```go</text><text fill="#000000" font-family="Verdana" font-size="13" lengthAdjust="spacing" textLength="90.873" x="1378" y="816.4017">package error</text><text fill="#000000" font-family="Verdana" font-size="13" lengthAdjust="spacing" textLength="4.5703" x="1378" y="832.201">&#160;</text><text fill="#000000" font-family="Verdana" font-size="13" lengthAdjust="spacing" textLength="297.21" x="1378" y="848.0003">import domerr "github.com/.../domain/error"</text><text fill="#000000" font-family="Verdana" font-size="13" lengthAdjust="spacing" textLength="4.5703" x="1378" y="863.7996">&#160;</text><text fill="#000000" font-family="Verdana" font-size="13" lengthAdjust="spacing" textLength="204.915" x="1378" y="879.599">// Type aliases - zero overhead</text><text fill="#000000" font-family="Verdana" font-size="13" lengthAdjust="spacing" textLength="233.8159" x="1378" y="895.3983">type ErrorType = domerr.ErrorType</text><text fill="#000000" font-family="Verdana" font-size="13" lengthAdjust="spacing" textLength="228.522" x="1378" y="911.1976">type ErrorKind = domerr.ErrorKind</text><text fill="#000000" font-family="Verdana" font-size="13" lengthAdjust="spacing" textLength="4.5703" x="1378" y="926.9969">&#160;</text><text fill="#000000" font-family="Verdana" font-size="13" lengthAdjust="spacing" textLength="148.4463" x="1378" y="942.7962">// Re-export constants</text><text fill="#000000" font-family="Verdana" font-size="13" lengthAdjust="spacing" textLength="45.2588" x="1378" y="958.5955">const (</text><text fill="#000000" font-family="Verdana" font-size="13" lengthAdjust="spacing" textLength="284.8574" x="1396.2813" y="974.3949">ValidationError     = domerr.ValidationError</text><text fill="#000000" font-family="Verdana" font-size="13" lengthAdjust="spacing" textLength="318.9063" x="1396.2813" y="990.1942">InfrastructureError = domerr.InfrastructureError</text><text fill="#000000" font-family="Verdana" font-size="13" lengthAdjust="spacing" textLength="5.9033" x="1378" y="1005.9935">)</text><text fill="#000000" font-family="Verdana" font-size="13" lengthAdjust="spacing" textLength="24.7939" x="1378" y="1021.7928">```</text></g><g class="entity" data-entity="GMN22" data-source-line="108" data-uid="ent0023" id="entity_GMN22"><path d="M919.27,616.6346 L919.27,1148.0121 L1336.7319,1148.0121 L1336.7319,626.6346 L1326.7319,616.6346 L919.27,616.6346" fill="#FFFFFF" style="stroke:#000000;stroke-width:1;"/><path d="M1326.7319,616.6346 L1326.7319,626.6346 L1336.7319,626.6346 L1326.7319,616.6346" fill="#FFFFFF" style="stroke:#000000;stroke-width:1;"/><text fill="#000000" font-family="Verdana" font-size="13" font-weight="bold" lengthAdjust="spacing" textLength="142.5049" x="925.27" y="634.7044">Presentation Usage</text><text fill="#000000" font-family="Verdana" font-size="13" lengthAdjust="spacing" textLength="312" x="925.27" y="650.5038">&#9552;&#9552;&#9552;&#9552;&#9552;&#9552;&#9552;&#9552;&#9552;&#9552;&#9552;&#9552;&#9552;&#9552;&#9552;&#9552;&#9552;&#9552;&#9552;&#9552;&#9552;&#9552;&#9552;&#9552;</text><text fill="#000000" font-family="Verdana" font-size="13" lengthAdjust="spacing" textLength="4.5703" x="925.27" y="666.3031">&#160;</text><text fill="#000000" font-family="Verdana" font-size="13" lengthAdjust="spacing" textLength="40.7837" x="925.27" y="682.1024">```go</text><text fill="#000000" font-family="Verdana" font-size="13" lengthAdjust="spacing" textLength="72.5029" x="925.27" y="697.9017">package cli</text><text fill="#000000" font-family="Verdana" font-size="13" lengthAdjust="spacing" textLength="4.5703" x="925.27" y="713.701">&#160;</text><text fill="#000000" font-family="Verdana" font-size="13" lengthAdjust="spacing" textLength="53.3457" x="925.27" y="729.5003">import (</text><text fill="#000000" font-family="Verdana" font-size="13" lengthAdjust="spacing" textLength="267.4331" x="943.5513" y="745.2996">apperr "github.com/.../application/error"</text><text fill="#000000" font-family="Verdana" font-size="13" lengthAdjust="spacing" textLength="251.8242" x="943.5513" y="761.099">"github.com/.../application/command"</text><text fill="#000000" font-family="Verdana" font-size="13" lengthAdjust="spacing" textLength="5.9033" x="925.27" y="776.8983">)</text><text fill="#000000" font-family="Verdana" font-size="13" lengthAdjust="spacing" textLength="4.5703" x="925.27" y="792.6976">&#160;</text><text fill="#000000" font-family="Verdana" font-size="13" lengthAdjust="spacing" textLength="190.8169" x="925.27" y="808.4969">type GreetCommand struct {</text><text fill="#000000" font-family="Verdana" font-size="13" lengthAdjust="spacing" textLength="178.4199" x="943.5513" y="824.2962">useCase inbound.GreetPort</text><text fill="#000000" font-family="Verdana" font-size="13" lengthAdjust="spacing" textLength="8.252" x="925.27" y="840.0955">}</text><text fill="#000000" font-family="Verdana" font-size="13" lengthAdjust="spacing" textLength="4.5703" x="925.27" y="855.8949">&#160;</text><text fill="#000000" font-family="Verdana" font-size="13" lengthAdjust="spacing" textLength="242.5884" x="925.27" y="871.6942">func (c *GreetCommand) Run() int {</text><text fill="#000000" font-family="Verdana" font-size="13" lengthAdjust="spacing" textLength="333.3281" x="943.5513" y="887.4935">cmd := command.NewGreetCommand(os.Args[1])</text><text fill="#000000" font-family="Verdana" font-size="13" lengthAdjust="spacing" textLength="375.5718" x="943.5513" y="903.2928">result := c.useCase.Execute(context.Background(), cmd)</text><text fill="#000000" font-family="Verdana" font-size="13" lengthAdjust="spacing" textLength="4.5703" x="925.27" y="919.0921">&#160;</text><text fill="#000000" font-family="Verdana" font-size="13" lengthAdjust="spacing" textLength="110.6079" x="943.5513" y="934.8914">if result.IsErr() {</text><text fill="#000000" font-family="Verdana" font-size="13" lengthAdjust="spacing" textLength="130.7935" x="961.8325" y="950.6908">err := result.Error()</text><text fill="#000000" font-family="Verdana" font-size="13" lengthAdjust="spacing" textLength="110.9634" x="961.8325" y="966.4901">switch err.Kind {</text><text fill="#000000" font-family="Verdana" font-size="13" lengthAdjust="spacing" textLength="184.4438" x="961.8325" y="982.2894">case apperr.ValidationError:</text><text fill="#000000" font-family="Verdana" font-size="13" lengthAdjust="spacing" textLength="341.6182" x="980.1138" y="998.0887">fmt.Fprintf(os.Stderr, "Invalid: %s\n", err.Message)</text><text fill="#000000" font-family="Verdana" font-size="13" lengthAdjust="spacing" textLength="53.2505" x="980.1138" y="1013.888">return 1</text><text fill="#000000" font-family="Verdana" font-size="13" lengthAdjust="spacing" textLength="210.6089" x="961.8325" y="1029.6873">case apperr.InfrastructureError:</text><text fill="#000000" font-family="Verdana" font-size="13" lengthAdjust="spacing" textLength="262.8945" x="980.1138" y="1045.4867">fmt.Fprintf(os.Stderr, "System error\n")</text><text fill="#000000" font-family="Verdana" font-size="13" lengthAdjust="spacing" textLength="53.2505" x="980.1138" y="1061.286">return 2</text><text fill="#000000" font-family="Verdana" font-size="13" lengthAdjust="spacing" textLength="8.252" x="961.8325" y="1077.0853">}</text><text fill="#000000" font-family="Verdana" font-size="13" lengthAdjust="spacing" textLength="8.252" x="943.5513" y="1092.8846">}</text><text fill="#000000" font-family="Verdana" font-size="13" lengthAdjust="spacing" textLength="53.2505" x="943.5513" y="1108.6839">return 0</text><text fill="#000000" font-family="Verdana" font-size="13" lengthAdjust="spacing" textLength="8.252" x="925.27" y="1124.4832">}</text><text fill="#000000" font-family="Verdana" font-size="13" lengthAdjust="spacing" textLength="24.7939" x="925.27" y="1140.2826">```</text></g><!--reverse link DomainError to AppError--><g class="link" data-entity-1="DomainError" data-entity-2="AppError" data-source-line="75" data-uid="lnk13" id="link_DomainError_AppError"><path codeLine="75" d="M136.6307,543.9776 C140.6707,627.2576 146.31,743.3846 149.89,817.3146" fill="none" id="DomainError-backto-AppError" style="stroke:#000000;stroke-width:1;stroke-dasharray:7,7;"/><polygon fill="#000000" points="136.34,537.9846,132.7808,547.1679,136.5823,542.9787,140.7714,546.7802,136.34,537.9846" style="stroke:#000000;stroke-width:1;"/><text fill="#000000" font-family="Verdana" font-size="13" lengthAdjust="spacing" textLength="77.27" x="139.21" y="583.7044">type aliases</text></g><!--link CLI to AppCommand--><g class="link" data-entity-1="CLI" data-entity-2="AppCommand" data-source-line="78" data-uid="lnk14" id="link_CLI_AppCommand"><path codeLine="78" d="M725.43,529.4646 C663.88,615.9446 571.4191,745.8463 517.9191,821.0163" fill="none" id="CLI-to-AppCommand" style="stroke:#000000;stroke-width:1;"/><polygon fill="#000000" points="514.44,825.9046,522.9176,820.8915,517.3393,821.831,516.3998,816.2527,514.44,825.9046" style="stroke:#000000;stroke-width:1;"/><text fill="#000000" font-family="Verdana" font-size="13" lengthAdjust="spacing" textLength="62.3467" x="692.99" y="583.7044">uses DTO</text></g><!--link CLI to AppPortIn--><g class="link" data-entity-1="CLI" data-entity-2="AppPortIn" data-source-line="79" data-uid="lnk15" id="link_CLI_AppPortIn"><path codeLine="79" d="M783,529.4646 C783,622.9146 783,766.7846 783,836.8646" fill="none" id="CLI-to-AppPortIn" style="stroke:#000000;stroke-width:1;"/><polygon fill="#000000" points="783,842.8646,787,833.8646,783,837.8646,779,833.8646,783,842.8646" style="stroke:#000000;stroke-width:1;"/><text fill="#000000" font-family="Verdana" font-size="13" lengthAdjust="spacing" textLength="137.1475" x="784" y="583.7044">depends on interface</text></g><!--link CLI to AppError--><g class="link" data-entity-1="CLI" data-entity-2="AppError" data-source-line="80" data-uid="lnk16" id="link_CLI_AppError"><path codeLine="80" d="M650.5,529.5546 C626.94,541.6446 602.19,552.9446 578,561.6346 C453.73,606.3146 391.48,537.1746 286,616.6346 C220.69,665.8446 186.8493,750.2657 169.3293,811.5457" fill="none" id="CLI-to-AppError" style="stroke:#000000;stroke-width:1;"/><polygon fill="#000000" points="167.68,817.3146,173.9999,809.7609,169.0544,812.5072,166.3081,807.5618,167.68,817.3146" style="stroke:#000000;stroke-width:1;"/><text fill="#000000" font-family="Verdana" font-size="13" lengthAdjust="spacing" textLength="94.708" x="550.31" y="583.7044">uses errors &#9989;</text></g><!--link CLI to DomainError--><g class="link" data-entity-1="CLI" data-entity-2="DomainError" data-source-line="81" data-uid="lnk17" id="link_CLI_DomainError"><path codeLine="81" d="M691.82,365.6246 C658.41,340.6846 618.74,316.4946 578,303.6146 C509.56,281.9846 320.19,273.5646 255,303.6146 C229.32,315.4446 210.9069,331.0038 192.6069,352.5238" fill="none" id="CLI-to-DomainError" style="stroke:#000000;stroke-width:1;stroke-dasharray:7,7;"/><polygon fill="#000000" points="188.72,357.0946,197.5975,352.8297,191.9591,353.2856,191.5031,347.6472,188.72,357.0946" style="stroke:#000000;stroke-width:1;"/><text fill="#000000" font-family="Verdana" font-size="13" lengthAdjust="spacing" textLength="100.6748" x="378" y="282.5944">&#10060; FORBIDDEN</text></g><!--link BootstrapCLI to CLI--><g class="link" data-entity-1="BootstrapCLI" data-entity-2="CLI" data-source-line="84" data-uid="lnk18" id="link_BootstrapCLI_CLI"><path codeLine="84" d="M783,236.7646 C783,272.6846 783,317.1546 783,359.6046" fill="none" id="BootstrapCLI-to-CLI" style="stroke:#000000;stroke-width:1;"/><polygon fill="#000000" points="783,365.6046,787,356.6046,783,360.6046,779,356.6046,783,365.6046" style="stroke:#000000;stroke-width:1;"/><text fill="#000000" font-family="Verdana" font-size="13" lengthAdjust="spacing" textLength="47.5122" x="784" y="282.5944">creates</text></g><!--link AppError to GMN19--><g class="link" data-entity-1="AppError" data-entity-2="GMN19" data-source-line="87" data-uid="lnk21" id="link_AppError_GMN19"><path d="M164.55,817.3246 C181.22,745.8746 219.74,635.1146 303.5,589.1346 C353.81,561.5246 1285.12,563.5646 1336.5,589.1346 C1399.03,620.2646 1448.6,678.4046 1484.84,734.7546" fill="none" id="AppError-GMN19" style="stroke:#000000;stroke-width:1;stroke-dasharray:7,7;"/></g><!--link CLI to GMN22--><g class="link" data-entity-1="CLI" data-entity-2="GMN22" data-source-line="108" data-uid="lnk24" id="link_CLI_GMN22"><path d="M889.52,529.3946 C903.81,542.1746 917.74,555.7646 930,569.6346 C943.06,584.4046 955.83,600.1246 968.21,616.3546" fill="none" id="CLI-GMN22" style="stroke:#000000;stroke-width:1;stroke-dasharray:7,7;"/></g><g class="legend" data-source-line="143"><rect fill="none" height="350.293" rx="7.5" ry="7.5" style="stroke:#000000;stroke-width:1;" width="444" x="1288" y="1159.0121"/><text fill="#000000" font-family="Verdana" font-size="14" font-weight="bold" lengthAdjust="spacing" textLength="234.8896" x="1293" y="1178.0872">Application Re-export Pattern</text><text fill="#000000" font-family="Verdana" font-size="14" lengthAdjust="spacing" textLength="434" x="1293" y="1195.1019">&#9552;&#9552;&#9552;&#9552;&#9552;&#9552;&#9552;&#9552;&#9552;&#9552;&#9552;&#9552;&#9552;&#9552;&#9552;&#9552;&#9552;&#9552;&#9552;&#9552;&#9552;&#9552;&#9552;&#9552;&#9552;&#9552;&#9552;&#9552;&#9552;&#9552;&#9552;</text><text fill="#000000" font-family="Verdana" font-size="14" lengthAdjust="spacing" textLength="228.3984" x="1293" y="1212.1165">&#9989; Type aliases (zero overhead)</text><text fill="#000000" font-family="Verdana" font-size="14" lengthAdjust="spacing" textLength="240.2246" x="1293" y="1229.1312">&#9989; Presentation can handle errors</text><text fill="#000000" font-family="Verdana" font-size="14" lengthAdjust="spacing" textLength="216.3672" x="1293" y="1246.1458">&#9989; Domain isolation preserved</text><text fill="#000000" font-family="Verdana" font-size="14" lengthAdjust="spacing" textLength="178.0996" x="1293" y="1263.1605">&#9989; arch_guard can verify</text><text fill="#000000" font-family="Verdana" font-size="14" lengthAdjust="spacing" textLength="4.9219" x="1293" y="1280.1751">&#160;</text><text fill="#000000" font-family="Verdana" font-size="14" font-weight="bold" lengthAdjust="spacing" textLength="137.1357" x="1293" y="1297.1898">Architecture Rule</text><text fill="#000000" font-family="Verdana" font-size="14" lengthAdjust="spacing" textLength="434" x="1293" y="1314.2044">&#9552;&#9552;&#9552;&#9552;&#9552;&#9552;&#9552;&#9552;&#9552;&#9552;&#9552;&#9552;&#9552;&#9552;&#9552;&#9552;&#9552;&#9552;&#9552;&#9552;&#9552;&#9552;&#9552;&#9552;&#9552;&#9552;&#9552;&#9552;&#9552;&#9552;&#9552;</text><text fill="#000000" font-family="Verdana" font-size="14" lengthAdjust="spacing" textLength="267.541" x="1293" y="1331.2191">&#8226; Presentation &#10060; Domain (forbidden)</text><text fill="#000000" font-family="Verdana" font-size="14" lengthAdjust="spacing" textLength="206.4072" x="1293" y="1348.2337">&#8226; Presentation &#9989; Application</text><text fill="#000000" font-family="Verdana" font-size="14" lengthAdjust="spacing" textLength="172.5283" x="1293" y="1365.2484">&#8226; Application &#9989; Domain</text><text fill="#000000" font-family="Verdana" font-size="14" lengthAdjust="spacing" textLength="193.0977" x="1293" y="1382.263">&#8226; Infrastructure &#9989; Domain</text><text fill="#000000" font-family="Verdana" font-size="14" lengthAdjust="spacing" textLength="4.9219" x="1293" y="1399.2777">&#160;</text><text fill="#000000" font-family="Verdana" font-size="14" font-weight="bold" lengthAdjust="spacing" textLength="186.2451" x="1293" y="1416.2923">Why Not Direct Access?</text><text fill="#000000" font-family="Verdana" font-size="14" lengthAdjust="spacing" textLength="434" x="1293" y="1433.307">&#9552;&#9552;&#9552;&#9552;&#9552;&#9552;&#9552;&#9552;&#9552;&#9552;&#9552;&#9552;&#9552;&#9552;&#9552;&#9552;&#9552;&#9552;&#9552;&#9552;&#9552;&#9552;&#9552;&#9552;&#9552;&#9552;&#9552;&#9552;&#9552;&#9552;&#9552;</text><text fill="#000000" font-family="Verdana" font-size="14" lengthAdjust="spacing" textLength="174.5488" x="1293" y="1450.3216">&#8226; Prevents tight coupling</text><text fill="#000000" font-family="Verdana" font-size="14" lengthAdjust="spacing" textLength="250.7354" x="1293" y="1467.3363">&#8226; Domain can evolve independently</text><text fill="#000000" font-family="Verdana" font-size="14" lengthAdjust="spacing" textLength="229.1338" x="1293" y="1484.3509">&#8226; Clear responsibility boundaries</text><text fill="#000000" font-family="Verdana" font-size="14" lengthAdjust="spacing" textLength="152.79" x="1293" y="1501.3656">&#8226; Testable in isolation</text></g><!--SRC=[lLTHZnir47xVNp5SXTWDpOOYG5n4Y-voIHLHxgBhbJwq5NLs9udfnbxPtbn3LOaNtdZWXJTuuQVrbp3sUXDlaYkLA5r5IjOp7izyt_Ypyv5Pu1AXB1WNKMIuAH1EohBW6JDS2XWg9HLSOXTVbb8Pc31ZK0c8JoQJ1-F1oTNuuZnvAYPAhdZEnTnFk5gNgC58c2ZKA4mTx05ReuBulaoYg6JP2pP7E3gJIrgxjXq1q-07Rer6e-FXL_0g0iWAfZKSvSxIGxj4u5elQVq0FgqJiEj37xHHLMP2mtTSv6GmPFV3Fx22vow_EauVCYbqCsaiPehLOIg5XpmkKLU5UNBrZCRdA53np5ikNj1el4h8i77Qvc9jk6_hTjtNW0afY8G2NBMGuumBRhFKP7yTxO6oOaM5SleJPYQ0Pe9A4_0DDlwr0GPYlbnMXaqBJBp7G24pMFl5WYt33ElHfeHpCiP97Ok83vFt3BgKeCx99Vqwe3riiYttuUYjuTUZBuV7OGEmhJde0ffK4sDRPdHyVB0LBED0L3DzGpkqZF-jAJmCdSvctsYOaK-u6JgT7Hx3sZAvN3AHDzKDwjTDNVSLeca6Txhy7Az3yuR3SF3V6HoBiZ9mTdNnbYHjNJqkfhBQPZgXiR5e9sh7Q14kI3XcBCFzTPoo47n6iGETiYyXRhNMC34__69u9-oLCh3tMCvAMhwN5TnD7ZmOlmEQtKhZW6biuBELt01pbLaWEmTGlgo40vdgRsrmoi1dvTuVQHBClVw6Dt_-winl_lhDQeAG1lZIuLNl-psqJgKqL08h0wYsOnQdqy5PYDEqCMx0sRY7ADrGHgT3rPPIEsc2Ivhf6XlWCLUseA8WwIfHv2WoZhf9zvFWI55Ok8hrWfSw2YNzcpJTRkvmbr8W2j7gWDOgDl5kBgz5zrwuV_fGMPHjM-zu-Bxj-p0QAEAsONUSctnSC4UJTZnPjrJn-SAazrf7Kz_HDxguF1sVdGtFRUvRIgwvstmjq9l5x6yI5gV9L3AnZ-0M03dRP19P5lRFx17BM8wEZJT__Fv-FrOHdZz_FfVqtNIU0y8Qjlr9Gt0qvsPHJLEIj5wQfhtM6MxTUprtMsY8XIxyZ4g2NA5Q8BExoF6-rVAxFdIw6MhvE4bl-zWXlzIsxPnSCs5iJxhV4Bl6XJtnjyycu8xHJpbq8coc733IjAJ6CA9s0qkiftSgZP5Boo-HxwXjjVaZJLY_Lr8FSKbA433Pu4BgT8ZH_KFP-x_DiJdX710DVoqbzbUKLpvO8yN-m4b3GNOdrAmI6SHPMuCJhrkqbpUHiYKfmLtm6QIxIYvrUgBc-icTPucVeDprnyr9VHhfy2LcbS7OdbhuqgIdXDnSsSpYvBPTmbLb7pxp0TAn9kufcIOH-rX0AR3tSBqH9u5TNtEJBQnRwXexd9jPF6fITjko7xZPPxOqwQWaeJ4pM-13azEast0q5YixiGyVwwVYwBPRvtlKjicIdH0AgNi5tBaXWGDD_gv9F5nhWyjQG2YB6nR-F1X-7RM_lSjdKJtKtbO5pksBqyqzhTpxP_F_26Phmu4zBTgY5xSqB_4khPsVCG4BQj32IwtsJlwopRMiZr5m5n-rmjmxC9KjVfnNJEKk1gt1P-keHe9CtA2ZZ7PAWH-c-b_-RfTcJqTVHaptv2dFwI1F3dfIFG5ztYKaT0k9DxORCxGx21ulrd1Ejwepkg-Gt9na6RN_jnyIXnLLH_-LtR6UoOfASNTnQ_MWMDfm9OkLbR_cecEAjVSQ5CYKbP2IZZ4-vGKtQt0goLHzvx9ULwZTFpq8cyLkatf_HFy0]--></g></svg>