<svg xmlns="http://www.w3.org/2000/svg" xmlns:xlink="http://www.w3.org/1999/xlink" contentStyleType="text/css" data-diagram-type="CLASS" height="1420px" preserveAspectRatio="none" style="width:1595px;height:1420px;background:#FFFFFF;" version="1.1" viewBox="0 0 1595 1420" width="1595px" zoomAndPan="magnify"><title>Application.Error Re-export Pattern (Go)
Presentation Layer Access to Error Types</title><defs/><g><g class="title" data-source-line="3"><text fill="#000000" font-family="Verdana" font-size="22" font-weight="bold" lengthAdjust="spacing" textLength="504.3779" x="540.946" y="37.1182">Application.Error Re-export Pattern (Go)</text><text fill="#000000" font-family="Verdana" font-size="22" font-weight="bold" lengthAdjust="spacing" textLength="508.3203" x="538.9748" y="63.8555">Presentation Layer Access to Error Types</text></g><!--cluster Domain--><g class="cluster" data-entity="Domain" data-source-line="5" data-uid="ent0002" id="cluster_Domain"><path d="M216.77,780.5146 L326.352,780.5146 A3.75,3.75 0 0 1 328.852,783.0146 L335.852,803.5293 L453.77,803.5293 A2.5,2.5 0 0 1 456.27,806.0293 L456.27,993.1146 A2.5,2.5 0 0 1 453.77,995.6146 L216.77,995.6146 A2.5,2.5 0 0 1 214.27,993.1146 L214.27,783.0146 A2.5,2.5 0 0 1 216.77,780.5146" fill="#FFF9E6" style="stroke:#000000;stroke-width:1;"/><line style="stroke:#000000;stroke-width:1;" x1="214.27" x2="335.852" y1="803.5293" y2="803.5293"/><text fill="#000000" font-family="Verdana" font-size="14" font-weight="bold" lengthAdjust="spacing" textLength="108.582" x="218.27" y="796.5898">Domain Layer</text></g><!--cluster Application--><g class="cluster" data-entity="Application" data-source-line="18" data-uid="ent0004" id="cluster_Application"><path d="M205.77,405.9746 L343.5503,405.9746 A3.75,3.75 0 0 1 346.0503,408.4746 L353.0503,428.9893 L464.77,428.9893 A2.5,2.5 0 0 1 467.27,431.4893 L467.27,601.5646 A2.5,2.5 0 0 1 464.77,604.0646 L205.77,604.0646 A2.5,2.5 0 0 1 203.27,601.5646 L203.27,408.4746 A2.5,2.5 0 0 1 205.77,405.9746" fill="#E8F5E9" style="stroke:#000000;stroke-width:1;"/><line style="stroke:#000000;stroke-width:1;" x1="203.27" x2="353.0503" y1="428.9893" y2="428.9893"/><text fill="#000000" font-family="Verdana" font-size="14" font-weight="bold" lengthAdjust="spacing" textLength="136.7803" x="207.27" y="422.0498">Application Layer</text></g><!--cluster Presentation--><g class="cluster" data-entity="Presentation" data-source-line="30" data-uid="ent0006" id="cluster_Presentation"><path d="M222.77,85.4746 L372.7661,85.4746 A3.75,3.75 0 0 1 375.2661,87.9746 L382.2661,108.4893 L447.77,108.4893 A2.5,2.5 0 0 1 450.27,110.9893 L450.27,247.0246 A2.5,2.5 0 0 1 447.77,249.5246 L222.77,249.5246 A2.5,2.5 0 0 1 220.27,247.0246 L220.27,87.9746 A2.5,2.5 0 0 1 222.77,85.4746" fill="#FFE4E1" style="stroke:#000000;stroke-width:1;"/><line style="stroke:#000000;stroke-width:1;" x1="220.27" x2="382.2661" y1="108.4893" y2="108.4893"/><text fill="#000000" font-family="Verdana" font-size="14" font-weight="bold" lengthAdjust="spacing" textLength="148.9961" x="224.27" y="101.5498">Presentation Layer</text></g><!--cluster Infrastructure--><g class="cluster" data-entity="Infrastructure" data-source-line="40" data-uid="ent0008" id="cluster_Infrastructure"><path d="M923.77,422.9946 L1085.4966,422.9946 A3.75,3.75 0 0 1 1087.9966,425.4946 L1094.9966,446.0093 L1194.77,446.0093 A2.5,2.5 0 0 1 1197.27,448.5093 L1197.27,584.5546 A2.5,2.5 0 0 1 1194.77,587.0546 L923.77,587.0546 A2.5,2.5 0 0 1 921.27,584.5546 L921.27,425.4946 A2.5,2.5 0 0 1 923.77,422.9946" fill="#E6F3FF" style="stroke:#000000;stroke-width:1;"/><line style="stroke:#000000;stroke-width:1;" x1="921.27" x2="1094.9966" y1="446.0093" y2="446.0093"/><text fill="#000000" font-family="Verdana" font-size="14" font-weight="bold" lengthAdjust="spacing" textLength="160.7266" x="925.27" y="439.0698">Infrastructure Layer</text></g><!--class DomainError--><g class="entity" data-entity="DomainError" data-source-line="6" data-uid="ent0003" id="entity_DomainError"><rect fill="#FFFFFF" height="163.1025" rx="2.5" ry="2.5" style="stroke:#000000;stroke-width:1;" width="210.6211" x="229.95" y="816.5146"/><ellipse cx="284.9783" cy="830.5146" fill="#FFFFFF" rx="9" ry="9" style="stroke:#000000;stroke-width:1;"/><path d="M287.4515,836.6577 Q286.8704,836.9565 286.2313,837.1059 Q285.5921,837.2553 284.8865,837.2553 Q282.3797,837.2553 281.0599,835.6035 Q279.74,833.9516 279.74,830.8305 Q279.74,827.7011 281.0599,826.0493 Q282.3797,824.3974 284.8865,824.3974 Q285.5921,824.3974 286.2396,824.5468 Q286.887,824.6963 287.4515,824.9951 L287.4515,827.7177 Q286.8206,827.1367 286.2271,826.8669 Q285.6336,826.5971 285.0027,826.5971 Q283.658,826.5971 282.9732,827.6638 Q282.2884,828.7304 282.2884,830.8305 Q282.2884,832.9223 282.9732,833.989 Q283.658,835.0556 285.0027,835.0556 Q285.6336,835.0556 286.2271,834.7858 Q286.8206,834.5161 287.4515,833.935 Z " fill="#000000"/><text fill="#000000" font-family="Verdana" font-size="14" lengthAdjust="spacing" textLength="93.0645" x="302.4783" y="836.0825">domain/error</text><line style="stroke:#000000;stroke-width:1;" x1="230.95" x2="439.5711" y1="844.5146" y2="844.5146"/><ellipse cx="240.95" cy="858.5219" fill="none" rx="3" ry="3" style="stroke:#000000;stroke-width:1;"/><text fill="#000000" font-family="Verdana" font-size="14" lengthAdjust="spacing" textLength="125.9043" x="247.95" y="862.5898">ErrorType : struct</text><ellipse cx="240.95" cy="875.5366" fill="none" rx="3" ry="3" style="stroke:#000000;stroke-width:1;"/><text fill="#000000" font-family="Verdana" font-size="14" lengthAdjust="spacing" textLength="113.4629" x="247.95" y="879.6045">ErrorKind : type</text><ellipse cx="240.95" cy="892.5512" fill="none" rx="3" ry="3" style="stroke:#000000;stroke-width:1;"/><text fill="#000000" font-family="Verdana" font-size="14" lengthAdjust="spacing" textLength="158.4434" x="247.95" y="896.6191">ValidationError : const</text><ellipse cx="240.95" cy="909.5659" fill="none" rx="3" ry="3" style="stroke:#000000;stroke-width:1;"/><text fill="#000000" font-family="Verdana" font-size="14" lengthAdjust="spacing" textLength="186.6211" x="247.95" y="913.6338">InfrastructureError : const</text><ellipse cx="240.95" cy="926.5805" fill="none" rx="3" ry="3" style="stroke:#000000;stroke-width:1;"/><text fill="#000000" font-family="Verdana" font-size="14" lengthAdjust="spacing" textLength="132.501" x="247.95" y="930.6484">Result[T] : generic</text><line style="stroke:#000000;stroke-width:1;" x1="230.95" x2="439.5711" y1="937.5879" y2="937.5879"/><text fill="#000000" font-family="Verdana" font-size="14" font-weight="bold" lengthAdjust="spacing" textLength="164.582" x="235.95" y="955.663">Canonical definitions</text><text fill="#000000" font-family="Verdana" font-size="14" lengthAdjust="spacing" textLength="132.8906" x="235.95" y="972.6777">Zero external deps</text></g><!--class AppError--><g class="entity" data-entity="AppError" data-source-line="19" data-uid="ent0005" id="entity_AppError"><rect fill="#FFFF99" height="146.0879" rx="2.5" ry="2.5" style="stroke:#000000;stroke-width:1;" width="231.2969" x="219.62" y="441.9746"/><ellipse cx="272.9823" cy="455.9746" fill="#FFFFFF" rx="9" ry="9" style="stroke:#000000;stroke-width:1;"/><path d="M275.4554,462.1177 Q274.8744,462.4165 274.2352,462.5659 Q273.5961,462.7153 272.8905,462.7153 Q270.3837,462.7153 269.0638,461.0635 Q267.744,459.4116 267.744,456.2905 Q267.744,453.1611 269.0638,451.5093 Q270.3837,449.8574 272.8905,449.8574 Q273.5961,449.8574 274.2435,450.0068 Q274.891,450.1563 275.4554,450.4551 L275.4554,453.1777 Q274.8246,452.5967 274.2311,452.3269 Q273.6376,452.0571 273.0067,452.0571 Q271.662,452.0571 270.9772,453.1238 Q270.2924,454.1904 270.2924,456.2905 Q270.2924,458.3823 270.9772,459.449 Q271.662,460.5156 273.0067,460.5156 Q273.6376,460.5156 274.2311,460.2458 Q274.8246,459.9761 275.4554,459.395 Z " fill="#000000"/><text fill="#000000" font-family="Verdana" font-size="14" lengthAdjust="spacing" textLength="117.0723" x="290.4823" y="461.5425">application/error</text><line style="stroke:#000000;stroke-width:1;" x1="220.62" x2="449.9169" y1="469.9746" y2="469.9746"/><ellipse cx="230.62" cy="483.9819" fill="none" rx="3" ry="3" style="stroke:#000000;stroke-width:1;"/><text fill="#000000" font-family="Verdana" font-size="14" lengthAdjust="spacing" textLength="153.0293" x="237.62" y="488.0498">ErrorType : type alias</text><ellipse cx="230.62" cy="500.9966" fill="none" rx="3" ry="3" style="stroke:#000000;stroke-width:1;"/><text fill="#000000" font-family="Verdana" font-size="14" lengthAdjust="spacing" textLength="150.1787" x="237.62" y="505.0645">ErrorKind : type alias</text><ellipse cx="230.62" cy="518.0112" fill="none" rx="3" ry="3" style="stroke:#000000;stroke-width:1;"/><text fill="#000000" font-family="Verdana" font-size="14" lengthAdjust="spacing" textLength="158.4434" x="237.62" y="522.0791">ValidationError : const</text><ellipse cx="230.62" cy="535.0259" fill="none" rx="3" ry="3" style="stroke:#000000;stroke-width:1;"/><text fill="#000000" font-family="Verdana" font-size="14" lengthAdjust="spacing" textLength="186.6211" x="237.62" y="539.0938">InfrastructureError : const</text><line style="stroke:#000000;stroke-width:1;" x1="220.62" x2="449.9169" y1="546.0332" y2="546.0332"/><text fill="#000000" font-family="Verdana" font-size="14" font-weight="bold" lengthAdjust="spacing" textLength="219.2969" x="225.62" y="564.1084">Re-exports for Presentation</text><text fill="#000000" font-family="Verdana" font-size="14" lengthAdjust="spacing" textLength="105.4785" x="225.62" y="581.123">Facade pattern</text></g><!--class CLI--><g class="entity" data-entity="CLI" data-source-line="31" data-uid="ent0007" id="entity_CLI"><rect fill="#FFFFFF" height="112.0586" rx="2.5" ry="2.5" style="stroke:#000000;stroke-width:1;" width="197.9551" x="236.29" y="121.4746"/><ellipse cx="249.29" cy="135.4746" fill="#FFFFFF" rx="9" ry="9" style="stroke:#000000;stroke-width:1;"/><path d="M251.7631,141.6177 Q251.1821,141.9165 250.5429,142.0659 Q249.9038,142.2153 249.1982,142.2153 Q246.6914,142.2153 245.3715,140.5635 Q244.0517,138.9116 244.0517,135.7905 Q244.0517,132.6611 245.3715,131.0093 Q246.6914,129.3574 249.1982,129.3574 Q249.9038,129.3574 250.5512,129.5068 Q251.1987,129.6563 251.7631,129.9551 L251.7631,132.6777 Q251.1323,132.0967 250.5388,131.8269 Q249.9453,131.5571 249.3144,131.5571 Q247.9697,131.5571 247.2849,132.6238 Q246.6001,133.6904 246.6001,135.7905 Q246.6001,137.8823 247.2849,138.949 Q247.9697,140.0156 249.3144,140.0156 Q249.9453,140.0156 250.5388,139.7458 Q251.1323,139.4761 251.7631,138.895 Z " fill="#000000"/><text fill="#000000" font-family="Verdana" font-size="14" lengthAdjust="spacing" textLength="169.9551" x="261.29" y="141.0425">presentation/adapter/cli</text><line style="stroke:#000000;stroke-width:1;" x1="237.29" x2="433.2451" y1="149.4746" y2="149.4746"/><ellipse cx="247.29" cy="163.4819" fill="none" rx="3" ry="3" style="stroke:#000000;stroke-width:1;"/><text fill="#000000" font-family="Verdana" font-size="14" lengthAdjust="spacing" textLength="167.1797" x="254.29" y="167.5498">GreetCommand : struct</text><ellipse cx="247.29" cy="180.4966" fill="#FFFFFF" rx="3" ry="3" style="stroke:#000000;stroke-width:1;"/><text fill="#000000" font-family="Verdana" font-size="14" lengthAdjust="spacing" textLength="74.5869" x="254.29" y="184.5645">Run() : int</text><line style="stroke:#000000;stroke-width:1;" x1="237.29" x2="433.2451" y1="191.5039" y2="191.5039"/><text fill="#000000" font-family="Verdana" font-size="14" lengthAdjust="spacing" textLength="155.5791" x="242.29" y="209.5791">Uses Application.Error</text><text fill="#000000" font-family="Verdana" font-size="14" lengthAdjust="spacing" textLength="183.8623" x="242.29" y="226.5938">&#10060; Cannot import Domain</text></g><!--class Console--><g class="entity" data-entity="Console" data-source-line="41" data-uid="ent0009" id="entity_Console"><rect fill="#FFFFFF" height="112.0586" rx="2.5" ry="2.5" style="stroke:#000000;stroke-width:1;" width="243.0654" x="937.73" y="458.9946"/><ellipse cx="950.73" cy="472.9946" fill="#FFFFFF" rx="9" ry="9" style="stroke:#000000;stroke-width:1;"/><path d="M953.2031,479.1377 Q952.6221,479.4365 951.9829,479.5859 Q951.3438,479.7353 950.6382,479.7353 Q948.1314,479.7353 946.8115,478.0835 Q945.4917,476.4316 945.4917,473.3105 Q945.4917,470.1811 946.8115,468.5293 Q948.1314,466.8774 950.6382,466.8774 Q951.3438,466.8774 951.9912,467.0268 Q952.6387,467.1763 953.2031,467.4751 L953.2031,470.1977 Q952.5723,469.6167 951.9788,469.3469 Q951.3853,469.0771 950.7544,469.0771 Q949.4097,469.0771 948.7249,470.1438 Q948.0401,471.2104 948.0401,473.3105 Q948.0401,475.4023 948.7249,476.469 Q949.4097,477.5356 950.7544,477.5356 Q951.3853,477.5356 951.9788,477.2658 Q952.5723,476.9961 953.2031,476.415 Z " fill="#000000"/><text fill="#000000" font-family="Verdana" font-size="14" lengthAdjust="spacing" textLength="215.0654" x="962.73" y="478.5625">infrastructure/adapter/console</text><line style="stroke:#000000;stroke-width:1;" x1="938.73" x2="1179.7954" y1="486.9946" y2="486.9946"/><ellipse cx="948.73" cy="501.0019" fill="none" rx="3" ry="3" style="stroke:#000000;stroke-width:1;"/><text fill="#000000" font-family="Verdana" font-size="14" lengthAdjust="spacing" textLength="100.1465" x="955.73" y="505.0698">Writer : struct</text><ellipse cx="948.73" cy="518.0166" fill="#FFFFFF" rx="3" ry="3" style="stroke:#000000;stroke-width:1;"/><text fill="#000000" font-family="Verdana" font-size="14" lengthAdjust="spacing" textLength="170.7617" x="955.73" y="522.0845">Write(ctx, msg) : Result</text><line style="stroke:#000000;stroke-width:1;" x1="938.73" x2="1179.7954" y1="529.0239" y2="529.0239"/><text fill="#000000" font-family="Verdana" font-size="14" lengthAdjust="spacing" textLength="160.9893" x="943.73" y="547.0991">&#9989; Can import Domain</text><text fill="#000000" font-family="Verdana" font-size="14" lengthAdjust="spacing" textLength="188.5762" x="943.73" y="564.1138">Directly uses domain/error</text></g><g class="entity" data-entity="GMN14" data-source-line="57" data-uid="ent0015" id="entity_GMN14"><path d="M1216.27,367.8246 L1216.27,662.2123 L1588.27,662.2123 L1588.27,377.8246 L1578.27,367.8246 L1216.27,367.8246" fill="#FFFFFF" style="stroke:#000000;stroke-width:1;"/><path d="M1578.27,367.8246 L1578.27,377.8246 L1588.27,377.8246 L1578.27,367.8246" fill="#FFFFFF" style="stroke:#000000;stroke-width:1;"/><text fill="#000000" font-family="Verdana" font-size="13" font-weight="bold" lengthAdjust="spacing" textLength="179.3149" x="1222.27" y="385.8944">Application Error Facade</text><text fill="#000000" font-family="Verdana" font-size="13" lengthAdjust="spacing" textLength="351" x="1222.27" y="401.6938">&#9552;&#9552;&#9552;&#9552;&#9552;&#9552;&#9552;&#9552;&#9552;&#9552;&#9552;&#9552;&#9552;&#9552;&#9552;&#9552;&#9552;&#9552;&#9552;&#9552;&#9552;&#9552;&#9552;&#9552;&#9552;&#9552;&#9552;</text><text fill="#000000" font-family="Verdana" font-size="13" lengthAdjust="spacing" textLength="4.5703" x="1222.27" y="417.4931">&#160;</text><text fill="#000000" font-family="Verdana" font-size="13" lengthAdjust="spacing" textLength="40.7837" x="1222.27" y="433.2924">```go</text><text fill="#000000" font-family="Verdana" font-size="13" lengthAdjust="spacing" textLength="90.873" x="1222.27" y="449.0917">package error</text><text fill="#000000" font-family="Verdana" font-size="13" lengthAdjust="spacing" textLength="4.5703" x="1222.27" y="464.891">&#160;</text><text fill="#000000" font-family="Verdana" font-size="13" lengthAdjust="spacing" textLength="297.21" x="1222.27" y="480.6903">import domerr "github.com/.../domain/error"</text><text fill="#000000" font-family="Verdana" font-size="13" lengthAdjust="spacing" textLength="4.5703" x="1222.27" y="496.4896">&#160;</text><text fill="#000000" font-family="Verdana" font-size="13" lengthAdjust="spacing" textLength="229.9248" x="1222.27" y="512.289">// Re-export types for Presentation</text><text fill="#000000" font-family="Verdana" font-size="13" lengthAdjust="spacing" textLength="233.8159" x="1222.27" y="528.0883">type ErrorType = domerr.ErrorType</text><text fill="#000000" font-family="Verdana" font-size="13" lengthAdjust="spacing" textLength="228.522" x="1222.27" y="543.8876">type ErrorKind = domerr.ErrorKind</text><text fill="#000000" font-family="Verdana" font-size="13" lengthAdjust="spacing" textLength="4.5703" x="1222.27" y="559.6869">&#160;</text><text fill="#000000" font-family="Verdana" font-size="13" lengthAdjust="spacing" textLength="148.4463" x="1222.27" y="575.4862">// Re-export constants</text><text fill="#000000" font-family="Verdana" font-size="13" lengthAdjust="spacing" textLength="45.2588" x="1222.27" y="591.2855">const (</text><text fill="#000000" font-family="Verdana" font-size="13" lengthAdjust="spacing" textLength="284.8574" x="1240.5513" y="607.0849">ValidationError     = domerr.ValidationError</text><text fill="#000000" font-family="Verdana" font-size="13" lengthAdjust="spacing" textLength="318.9063" x="1240.5513" y="622.8842">InfrastructureError = domerr.InfrastructureError</text><text fill="#000000" font-family="Verdana" font-size="13" lengthAdjust="spacing" textLength="5.9033" x="1222.27" y="638.6835">)</text><text fill="#000000" font-family="Verdana" font-size="13" lengthAdjust="spacing" textLength="24.7939" x="1222.27" y="654.4828">```</text></g><g class="entity" data-entity="GMN17" data-source-line="78" data-uid="ent0018" id="entity_GMN17"><path d="M485.53,312.5246 L485.53,314.5946 L394.55,233.9046 L485.53,322.5946 L485.53,717.5075 A0,0 0 0 0 485.53,717.5075 L902.9919,717.5075 A0,0 0 0 0 902.9919,717.5075 L902.9919,322.5246 L892.9919,312.5246 L485.53,312.5246 A0,0 0 0 0 485.53,312.5246" fill="#FFFFFF" style="stroke:#000000;stroke-width:1;"/><path d="M892.9919,312.5246 L892.9919,322.5246 L902.9919,322.5246 L892.9919,312.5246" fill="#FFFFFF" style="stroke:#000000;stroke-width:1;"/><text fill="#000000" font-family="Verdana" font-size="13" font-weight="bold" lengthAdjust="spacing" textLength="142.5049" x="491.53" y="330.5944">Presentation Usage</text><text fill="#000000" font-family="Verdana" font-size="13" lengthAdjust="spacing" textLength="351" x="491.53" y="346.3937">&#9552;&#9552;&#9552;&#9552;&#9552;&#9552;&#9552;&#9552;&#9552;&#9552;&#9552;&#9552;&#9552;&#9552;&#9552;&#9552;&#9552;&#9552;&#9552;&#9552;&#9552;&#9552;&#9552;&#9552;&#9552;&#9552;&#9552;</text><text fill="#000000" font-family="Verdana" font-size="13" lengthAdjust="spacing" textLength="4.5703" x="491.53" y="362.1931">&#160;</text><text fill="#000000" font-family="Verdana" font-size="13" lengthAdjust="spacing" textLength="40.7837" x="491.53" y="377.9924">```go</text><text fill="#000000" font-family="Verdana" font-size="13" lengthAdjust="spacing" textLength="72.5029" x="491.53" y="393.7917">package cli</text><text fill="#000000" font-family="Verdana" font-size="13" lengthAdjust="spacing" textLength="4.5703" x="491.53" y="409.591">&#160;</text><text fill="#000000" font-family="Verdana" font-size="13" lengthAdjust="spacing" textLength="314.8755" x="491.53" y="425.3903">import apperr "github.com/.../application/error"</text><text fill="#000000" font-family="Verdana" font-size="13" lengthAdjust="spacing" textLength="4.5703" x="491.53" y="441.1896">&#160;</text><text fill="#000000" font-family="Verdana" font-size="13" lengthAdjust="spacing" textLength="242.5884" x="491.53" y="456.989">func (c *GreetCommand) Run() int {</text><text fill="#000000" font-family="Verdana" font-size="13" lengthAdjust="spacing" textLength="252.7764" x="509.8113" y="472.7883">result := c.useCase.Execute(ctx, cmd)</text><text fill="#000000" font-family="Verdana" font-size="13" lengthAdjust="spacing" textLength="4.5703" x="491.53" y="488.5876">&#160;</text><text fill="#000000" font-family="Verdana" font-size="13" lengthAdjust="spacing" textLength="110.6079" x="509.8113" y="504.3869">if result.IsErr() {</text><text fill="#000000" font-family="Verdana" font-size="13" lengthAdjust="spacing" textLength="130.7935" x="528.0925" y="520.1862">err := result.Error()</text><text fill="#000000" font-family="Verdana" font-size="13" lengthAdjust="spacing" textLength="110.9634" x="528.0925" y="535.9855">switch err.Kind {</text><text fill="#000000" font-family="Verdana" font-size="13" lengthAdjust="spacing" textLength="184.4438" x="528.0925" y="551.7849">case apperr.ValidationError:</text><text fill="#000000" font-family="Verdana" font-size="13" lengthAdjust="spacing" textLength="341.6182" x="546.3738" y="567.5842">fmt.Fprintf(os.Stderr, "Invalid: %s\n", err.Message)</text><text fill="#000000" font-family="Verdana" font-size="13" lengthAdjust="spacing" textLength="53.2505" x="546.3738" y="583.3835">return 1</text><text fill="#000000" font-family="Verdana" font-size="13" lengthAdjust="spacing" textLength="210.6089" x="528.0925" y="599.1828">case apperr.InfrastructureError:</text><text fill="#000000" font-family="Verdana" font-size="13" lengthAdjust="spacing" textLength="262.8945" x="546.3738" y="614.9821">fmt.Fprintf(os.Stderr, "System error\n")</text><text fill="#000000" font-family="Verdana" font-size="13" lengthAdjust="spacing" textLength="53.2505" x="546.3738" y="630.7814">return 2</text><text fill="#000000" font-family="Verdana" font-size="13" lengthAdjust="spacing" textLength="8.252" x="528.0925" y="646.5808">}</text><text fill="#000000" font-family="Verdana" font-size="13" lengthAdjust="spacing" textLength="8.252" x="509.8113" y="662.3801">}</text><text fill="#000000" font-family="Verdana" font-size="13" lengthAdjust="spacing" textLength="53.2505" x="509.8113" y="678.1794">return 0</text><text fill="#000000" font-family="Verdana" font-size="13" lengthAdjust="spacing" textLength="8.252" x="491.53" y="693.9787">}</text><text fill="#000000" font-family="Verdana" font-size="13" lengthAdjust="spacing" textLength="24.7939" x="491.53" y="709.778">```</text></g><!--link AppError to DomainError--><g class="link" data-entity-1="AppError" data-entity-2="DomainError" data-source-line="51" data-uid="lnk10" id="link_AppError_DomainError"><path codeLine="51" d="M335.27,588.1446 C335.27,653.1946 335.27,742.7546 335.27,810.3346" fill="none" id="AppError-to-DomainError" style="stroke:#000000;stroke-width:1;"/><polygon fill="#000000" points="335.27,816.3346,339.27,807.3346,335.27,811.3346,331.27,807.3346,335.27,816.3346" style="stroke:#000000;stroke-width:1;"/><text fill="#000000" font-family="Verdana" font-size="13" lengthAdjust="spacing" textLength="77.27" x="336.27" y="761.5844">type aliases</text></g><!--link CLI to AppError--><g class="link" data-entity-1="CLI" data-entity-2="AppError" data-source-line="52" data-uid="lnk11" id="link_CLI_AppError"><path codeLine="52" d="M335.27,233.9046 C335.27,290.6746 335.27,373.2146 335.27,435.5246" fill="none" id="CLI-to-AppError" style="stroke:#000000;stroke-width:1;"/><polygon fill="#000000" points="335.27,441.5246,339.27,432.5246,335.27,436.5246,331.27,432.5246,335.27,441.5246" style="stroke:#000000;stroke-width:1;"/><text fill="#000000" font-family="Verdana" font-size="13" lengthAdjust="spacing" textLength="71.2153" x="336.27" y="279.5944">imports &#9989;</text></g><!--link CLI to DomainError--><g class="link" data-entity-1="CLI" data-entity-2="DomainError" data-source-line="53" data-uid="lnk12" id="link_CLI_DomainError"><path codeLine="53" d="M236,208.5946 C186.19,229.2846 130.38,262.3046 101.27,312.5246 C11,468.2546 21.66,556.0846 101.27,717.5146 C128.33,772.3946 176.0147,812.0125 224.6047,842.0125" fill="none" id="CLI-to-DomainError" style="stroke:#000000;stroke-width:1;stroke-dasharray:7,7;"/><polygon fill="#000000" points="229.71,845.1646,224.1534,837.0329,225.4556,842.5379,219.9506,843.84,229.71,845.1646" style="stroke:#000000;stroke-width:1;"/><text fill="#000000" font-family="Verdana" font-size="13" lengthAdjust="spacing" textLength="100.6748" x="102.27" y="520.5944">&#10060; FORBIDDEN</text></g><!--link Console to DomainError--><g class="link" data-entity-1="Console" data-entity-2="DomainError" data-source-line="54" data-uid="lnk13" id="link_Console_DomainError"><path codeLine="54" d="M1034.19,571.2146 C1010.83,616.7146 971.86,679.7046 920.27,717.5146 C775.12,823.8646 571.9004,867.2407 446.9604,884.9907" fill="none" id="Console-to-DomainError" style="stroke:#000000;stroke-width:1;"/><polygon fill="#000000" points="441.02,885.8346,450.4932,888.5289,445.9703,885.1313,449.3679,880.6085,441.02,885.8346" style="stroke:#000000;stroke-width:1;"/><text fill="#000000" font-family="Verdana" font-size="13" lengthAdjust="spacing" textLength="71.2153" x="866.07" y="761.5844">imports &#9989;</text></g><!--link AppError to GMN14--><g class="link" data-entity-1="AppError" data-entity-2="GMN14" data-source-line="57" data-uid="lnk16" id="link_AppError_GMN14"><path d="M361.16,441.6446 C384.56,387.5946 424.8,317.9946 485.77,285.0246 C553.6,248.3546 1108.77,254.9346 1179.77,285.0246 C1222.6,303.1946 1261.23,334.0846 1293.81,367.4346" fill="none" id="AppError-GMN14" style="stroke:#000000;stroke-width:1;stroke-dasharray:7,7;"/></g><g class="legend" data-source-line="105"><rect fill="none" height="401.3369" rx="7.5" ry="7.5" style="stroke:#000000;stroke-width:1;" width="444" x="1132.27" y="1006.6146"/><text fill="#000000" font-family="Verdana" font-size="14" font-weight="bold" lengthAdjust="spacing" textLength="126.6699" x="1137.27" y="1025.6898">Why Re-export?</text><text fill="#000000" font-family="Verdana" font-size="14" lengthAdjust="spacing" textLength="434" x="1137.27" y="1042.7045">&#9552;&#9552;&#9552;&#9552;&#9552;&#9552;&#9552;&#9552;&#9552;&#9552;&#9552;&#9552;&#9552;&#9552;&#9552;&#9552;&#9552;&#9552;&#9552;&#9552;&#9552;&#9552;&#9552;&#9552;&#9552;&#9552;&#9552;&#9552;&#9552;&#9552;&#9552;</text><text fill="#000000" font-family="Verdana" font-size="14" lengthAdjust="spacing" textLength="4.9219" x="1137.27" y="1059.7191">&#160;</text><text fill="#000000" font-family="Verdana" font-size="14" font-weight="bold" lengthAdjust="spacing" textLength="142.7686" x="1137.27" y="1076.7337">Architecture Rule:</text><text fill="#000000" font-family="Verdana" font-size="14" lengthAdjust="spacing" textLength="170.7441" x="1137.27" y="1093.7484">Presentation &#10060; Domain</text><text fill="#000000" font-family="Verdana" font-size="14" lengthAdjust="spacing" textLength="158.8398" x="1137.27" y="1110.763">(No transitive access!)</text><text fill="#000000" font-family="Verdana" font-size="14" lengthAdjust="spacing" textLength="4.9219" x="1137.27" y="1127.7777">&#160;</text><text fill="#000000" font-family="Verdana" font-size="14" font-weight="bold" lengthAdjust="spacing" textLength="70.6973" x="1137.27" y="1144.7923">Solution:</text><text fill="#000000" font-family="Verdana" font-size="14" lengthAdjust="spacing" textLength="238.1025" x="1137.27" y="1161.807">Application re-exports error types</text><text fill="#000000" font-family="Verdana" font-size="14" lengthAdjust="spacing" textLength="221.9902" x="1137.27" y="1178.8216">as type aliases (zero overhead)</text><text fill="#000000" font-family="Verdana" font-size="14" lengthAdjust="spacing" textLength="4.9219" x="1137.27" y="1195.8363">&#160;</text><text fill="#000000" font-family="Verdana" font-size="14" font-weight="bold" lengthAdjust="spacing" textLength="70.2461" x="1137.27" y="1212.8509">Benefits:</text><text fill="#000000" font-family="Verdana" font-size="14" lengthAdjust="spacing" textLength="240.2246" x="1137.27" y="1229.8656">&#9989; Presentation can handle errors</text><text fill="#000000" font-family="Verdana" font-size="14" lengthAdjust="spacing" textLength="216.3672" x="1137.27" y="1246.8802">&#9989; Domain isolation preserved</text><text fill="#000000" font-family="Verdana" font-size="14" lengthAdjust="spacing" textLength="178.0996" x="1137.27" y="1263.8949">&#9989; arch_guard can verify</text><text fill="#000000" font-family="Verdana" font-size="14" lengthAdjust="spacing" textLength="185.3594" x="1137.27" y="1280.9095">&#9989; Clean layer boundaries</text><text fill="#000000" font-family="Verdana" font-size="14" lengthAdjust="spacing" textLength="4.9219" x="1137.27" y="1297.9242">&#160;</text><text fill="#000000" font-family="Verdana" font-size="14" font-weight="bold" lengthAdjust="spacing" textLength="169.7568" x="1137.27" y="1314.9388">Go Type Alias Pattern</text><text fill="#000000" font-family="Verdana" font-size="14" lengthAdjust="spacing" textLength="434" x="1137.27" y="1331.9535">&#9552;&#9552;&#9552;&#9552;&#9552;&#9552;&#9552;&#9552;&#9552;&#9552;&#9552;&#9552;&#9552;&#9552;&#9552;&#9552;&#9552;&#9552;&#9552;&#9552;&#9552;&#9552;&#9552;&#9552;&#9552;&#9552;&#9552;&#9552;&#9552;&#9552;&#9552;</text><text fill="#000000" font-family="Verdana" font-size="14" lengthAdjust="spacing" textLength="198.3379" x="1137.27" y="1348.9681">&#8226; `type X = other.X` (alias)</text><text fill="#000000" font-family="Verdana" font-size="14" lengthAdjust="spacing" textLength="175.2393" x="1137.27" y="1365.9828">&#8226; Zero runtime overhead</text><text fill="#000000" font-family="Verdana" font-size="14" lengthAdjust="spacing" textLength="146.125" x="1137.27" y="1382.9974">&#8226; Same type identity</text><text fill="#000000" font-family="Verdana" font-size="14" lengthAdjust="spacing" textLength="149.4131" x="1137.27" y="1400.0121">&#8226; Allows re-exporting</text></g><!--SRC=[lLTBRoD54BxFhwXrXB1DF6Pvh8Yb1MLjJnInB2jdbrt18jpfQTkjdUaUTVSaCIWI5suSk7232pyjluJgXySzjYCX0Mj5SbAlxlhgg-hA0xDY9OEg85maYU6cO71QLGMdn70fqgbIKi6C3TXD9PM1vyGOfWHqpsJlZNYkc6R2E5DuIjPCmIcbJ6im4hphYtN5T99KXBubImQTYIpnA6_S0Q8X28woB3kPFeAV4W1Q40pHoPrco6oSoDJ7jNO07_XJx24m0crKJKsi-9AB71K6zK7y3IbuxYxiuuo0Ig4tJkTYeOWFKojso6B6T5sOxrvyZ_8b4qnnwZI3WVlgzyT4I87m5P2p1HVS7gNxVQVzbYa9xCOYwFILHl5jSXlX4u4VWHHBZwQVPPzEJsAao5OTmOLEFWEBRNPoSX0p2mqW9aJVWrjB-U_GQp1g-AHXWJOnZG9I6Q4aHrvwkksXj4yybt5BZ5bFFva-Z76g8lsGvAJ2u4DQSESyVdhU87Ic63DZMPR4uT0YrgmMtHuAkMXbzL8plTywJdNtvw-0j13I02zT6tacxwNL1Z1AR4TnD7sKVPnbSMgyPR5D3i6N1VC9-j-R95yfZYQxwJbfbvgROoZrqYRgAH_dUlV7BpQXlMm09bmnQeerr1QEk8CtoRuF4rOnaJD1EKw6XgI3N5wBmUUj9eyPYBQsGXkpncyKRg7jhPn9glXoPTBTKBOAsTUp9-UJoVHPiW7ZyB5no0Jhni351Bbe3auiaUE-zBwUk8x5Tx__zj_-91XqFfyl9NvlEEEnHK6e1KAE8kWikLdLbocLvJ1Dqs5hbbhpuJ2QwXRb_LP4AmV_Tbmy3k7JHjIoSLEZRMD5UyUvYK24iLF5_GvTHnxOco_sqmJSKGQNGqEdSJcWHBUUnp515e8jRYZnfJH6bhR6o29NtjOyUQaHxtTNM1nBKLbnmXygw_xWjpwBMb3eKkZ7OwmN1XUEhJ0109JhR1Wz1ffYmuwnozBf3QFrPWBGCkybmPWlWdrwhX593BK9Op_sTXWdM3Yakxr8hw-veIjhbZgQnBuKpmqPxXPv59dPpw8qQLOfJ6BHbJgzC3aw7Tl9UMKTH_2UVYCwn-wSht0HGIHxEo4KGou8U7ZF1GvGvfzUucAj3IjzI-8jxZdueqXycxI_Wyc7YHUrILgmfVt3JI97prUhzRQhllX_gBbBKvnvYgxmYV0lqQmksCYTtEeLEskRLw7xJ89HH6ZSXQuGPxSXFkZvQ1UogAsB3nBFKxLT4XoYVagX4JvbyRC0tH_jMYMlc5enaeUuJt0tMt2ZVLpxOBKkIF7rMc5N5662wc0Kjb6ERuCtT2k3kc9vC22O_G_BcgZSnS13-M8TTEE2eQXmU_2bh4LEb7tYt7tEf5k5uTHUUhD6luEIOVoV_uAv0-mr3aQ92xzANy-Xw-3h1GEtcQfQ68x_3MoW3BeBWZ8NWEEhZVyZh8FYj2ZajTuMYekbfQldQV8t]--></g></svg>