<svg xmlns="http://www.w3.org/2000/svg" xmlns:xlink="http://www.w3.org/1999/xlink" contentStyleType="text/css" data-diagram-type="CLASS" height="1483px" preserveAspectRatio="none" style="width:2020px;height:1483px;background:#FFFFFF;" version="1.1" viewBox="0 0 2020 1483" width="2020px" zoomAndPan="magnify"><title>Interface-Based Dependency Injection in Go
Comparison: Traditional OOP vs Go Interfaces</title><defs/><g><g class="title" data-source-line="3"><text fill="#000000" font-family="Verdana" font-size="22" font-weight="bold" lengthAdjust="spacing" textLength="549.9463" x="730.5269" y="37.1182">Interface-Based Dependency Injection in Go</text><text fill="#000000" font-family="Verdana" font-size="22" font-weight="bold" lengthAdjust="spacing" textLength="568.8418" x="721.0791" y="63.8555">Comparison: Traditional OOP vs Go Interfaces</text></g><!--cluster DynamicPkg--><g class="cluster" data-entity="DynamicPkg" data-source-line="5" data-uid="ent0002" id="cluster_DynamicPkg"><path d="M13.5,85.4746 L213.4941,85.4746 A3.75,3.75 0 0 1 215.9941,87.9746 L222.9941,125.5039 L416.5,125.5039 A2.5,2.5 0 0 1 419,128.0039 L419,595.5046 A2.5,2.5 0 0 1 416.5,598.0046 L13.5,598.0046 A2.5,2.5 0 0 1 11,595.5046 L11,87.9746 A2.5,2.5 0 0 1 13.5,85.4746" fill="#FFE4E1" style="stroke:#000000;stroke-width:1;"/><line style="stroke:#000000;stroke-width:1;" x1="11" x2="222.9941" y1="125.5039" y2="125.5039"/><text fill="#000000" font-family="Verdana" font-size="14" font-weight="bold" lengthAdjust="spacing" textLength="124.1611" x="52.4165" y="101.5498">Traditional OOP</text><text fill="#000000" font-family="Verdana" font-size="14" font-weight="bold" lengthAdjust="spacing" textLength="198.9941" x="15" y="118.5645">(Runtime Polymorphism)</text></g><!--cluster StaticPkg--><g class="cluster" data-entity="StaticPkg" data-source-line="23" data-uid="ent0008" id="cluster_StaticPkg"><path d="M945.5,85.4746 L1157.9697,85.4746 A3.75,3.75 0 0 1 1160.4697,87.9746 L1167.4697,125.5039 L1510.5,125.5039 A2.5,2.5 0 0 1 1513,128.0039 L1513,595.5046 A2.5,2.5 0 0 1 1510.5,598.0046 L945.5,598.0046 A2.5,2.5 0 0 1 943,595.5046 L943,87.9746 A2.5,2.5 0 0 1 945.5,85.4746" fill="#E8F5E9" style="stroke:#000000;stroke-width:1;"/><line style="stroke:#000000;stroke-width:1;" x1="943" x2="1167.4697" y1="125.5039" y2="125.5039"/><text fill="#000000" font-family="Verdana" font-size="14" font-weight="bold" lengthAdjust="spacing" textLength="162.1826" x="971.6436" y="101.5498">Go Interface Pattern</text><text fill="#000000" font-family="Verdana" font-size="14" font-weight="bold" lengthAdjust="spacing" textLength="211.4697" x="947" y="118.5645">(Compile-Time + Runtime)</text></g><!--class DynWriter--><g class="entity" data-entity="DynWriter" data-source-line="6" data-uid="ent0003" id="entity_DynWriter"><rect fill="#FFFFFF" height="61.0146" rx="2.5" ry="2.5" style="stroke:#000000;stroke-width:1;" width="143.5469" x="129.23" y="512.9846"/><ellipse cx="175.4981" cy="526.9846" fill="#FFFFFF" rx="9" ry="9" style="stroke:#000000;stroke-width:1;"/><path d="M171.9258,523.2497 L171.9258,521.0915 L179.3052,521.0915 L179.3052,523.2497 L176.8399,523.2497 L176.8399,531.3264 L179.3052,531.3264 L179.3052,533.4846 L171.9258,533.4846 L171.9258,531.3264 L174.3911,531.3264 L174.3911,523.2497 Z " fill="#000000"/><text fill="#000000" font-family="Verdana" font-size="14" font-style="italic" lengthAdjust="spacing" textLength="43.5107" x="192.9981" y="532.5525">Writer</text><line style="stroke:#000000;stroke-width:1;" x1="130.23" x2="271.7769" y1="540.9846" y2="540.9846"/><line style="stroke:#000000;stroke-width:1;" x1="130.23" x2="271.7769" y1="548.9846" y2="548.9846"/><ellipse cx="140.23" cy="562.9919" fill="#FFFFFF" rx="3" ry="3" style="stroke:#000000;stroke-width:1;"/><text fill="#000000" font-family="Verdana" font-size="14" lengthAdjust="spacing" textLength="119.5469" x="147.23" y="567.0598">Write(msg) error</text></g><!--class DynConsole--><g class="entity" data-entity="DynConsole" data-source-line="10" data-uid="ent0004" id="entity_DynConsole"><rect fill="#FFFFFF" height="61.0146" rx="2.5" ry="2.5" style="stroke:#000000;stroke-width:1;" width="143.5469" x="35.23" y="154.9846"/><ellipse cx="55.8585" cy="168.9846" fill="#FFFFFF" rx="9" ry="9" style="stroke:#000000;stroke-width:1;"/><path d="M58.3316,175.1277 Q57.7506,175.4265 57.1114,175.5759 Q56.4722,175.7253 55.7667,175.7253 Q53.2598,175.7253 51.94,174.0735 Q50.6202,172.4216 50.6202,169.3005 Q50.6202,166.1711 51.94,164.5193 Q53.2598,162.8674 55.7667,162.8674 Q56.4722,162.8674 57.1197,163.0168 Q57.7672,163.1663 58.3316,163.4651 L58.3316,166.1877 Q57.7008,165.6067 57.1072,165.3369 Q56.5137,165.0671 55.8829,165.0671 Q54.5382,165.0671 53.8533,166.1338 Q53.1685,167.2004 53.1685,169.3005 Q53.1685,171.3923 53.8533,172.459 Q54.5382,173.5256 55.8829,173.5256 Q56.5137,173.5256 57.1072,173.2558 Q57.7008,172.9861 58.3316,172.405 Z " fill="#000000"/><text fill="#000000" font-family="Verdana" font-size="14" lengthAdjust="spacing" textLength="98.5947" x="69.5537" y="174.5525">ConsoleWriter</text><line style="stroke:#000000;stroke-width:1;" x1="36.23" x2="177.7769" y1="182.9846" y2="182.9846"/><line style="stroke:#000000;stroke-width:1;" x1="36.23" x2="177.7769" y1="190.9846" y2="190.9846"/><ellipse cx="46.23" cy="204.9919" fill="#FFFFFF" rx="3" ry="3" style="stroke:#000000;stroke-width:1;"/><text fill="#000000" font-family="Verdana" font-size="14" lengthAdjust="spacing" textLength="119.5469" x="53.23" y="209.0598">Write(msg) error</text></g><!--class DynUC--><g class="entity" data-entity="DynUC" data-source-line="14" data-uid="ent0005" id="entity_DynUC"><rect fill="#FFFFFF" height="78.0293" rx="2.5" ry="2.5" style="stroke:#000000;stroke-width:1;" width="161.5186" x="214.24" y="146.4746"/><ellipse cx="261.4002" cy="160.4746" fill="#FFFFFF" rx="9" ry="9" style="stroke:#000000;stroke-width:1;"/><path d="M263.8733,166.6177 Q263.2922,166.9165 262.6531,167.0659 Q262.0139,167.2153 261.3084,167.2153 Q258.8015,167.2153 257.4817,165.5635 Q256.1619,163.9116 256.1619,160.7905 Q256.1619,157.6611 257.4817,156.0093 Q258.8015,154.3574 261.3084,154.3574 Q262.0139,154.3574 262.6614,154.5068 Q263.3088,154.6563 263.8733,154.9551 L263.8733,157.6777 Q263.2424,157.0967 262.6489,156.8269 Q262.0554,156.5571 261.4246,156.5571 Q260.0798,156.5571 259.395,157.6238 Q258.7102,158.6904 258.7102,160.7905 Q258.7102,162.8823 259.395,163.949 Q260.0798,165.0156 261.4246,165.0156 Q262.0554,165.0156 262.6489,164.7458 Q263.2424,164.4761 263.8733,163.895 Z " fill="#000000"/><text fill="#000000" font-family="Verdana" font-size="14" lengthAdjust="spacing" textLength="59.6982" x="278.9002" y="166.0425">UseCase</text><line style="stroke:#000000;stroke-width:1;" x1="215.24" x2="374.7586" y1="174.4746" y2="174.4746"/><rect fill="none" height="6" style="stroke:#000000;stroke-width:1;" width="6" x="222.24" y="185.4819"/><text fill="#000000" font-family="Verdana" font-size="14" lengthAdjust="spacing" textLength="89.5166" x="232.24" y="192.5498">writer Writer</text><line style="stroke:#000000;stroke-width:1;" x1="215.24" x2="374.7586" y1="199.4893" y2="199.4893"/><ellipse cx="225.24" cy="213.4966" fill="#FFFFFF" rx="3" ry="3" style="stroke:#000000;stroke-width:1;"/><text fill="#000000" font-family="Verdana" font-size="14" lengthAdjust="spacing" textLength="137.5186" x="232.24" y="217.5645">Execute(cmd) error</text></g><!--class Port--><g class="entity" data-entity="Port" data-source-line="24" data-uid="ent0009" id="entity_Port"><rect fill="#FFFFFF" height="61.0146" rx="2.5" ry="2.5" style="stroke:#000000;stroke-width:1;" width="224.6621" x="1101.67" y="512.9846"/><ellipse cx="1174.2804" cy="526.9846" fill="#FFFFFF" rx="9" ry="9" style="stroke:#000000;stroke-width:1;"/><path d="M1170.7081,523.2497 L1170.7081,521.0915 L1178.0875,521.0915 L1178.0875,523.2497 L1175.6221,523.2497 L1175.6221,531.3264 L1178.0875,531.3264 L1178.0875,533.4846 L1170.7081,533.4846 L1170.7081,531.3264 L1173.1734,531.3264 L1173.1734,523.2497 Z " fill="#000000"/><text fill="#000000" font-family="Verdana" font-size="14" font-style="italic" lengthAdjust="spacing" textLength="71.9414" x="1191.7804" y="532.5525">WriterPort</text><line style="stroke:#000000;stroke-width:1;" x1="1102.67" x2="1325.3321" y1="540.9846" y2="540.9846"/><line style="stroke:#000000;stroke-width:1;" x1="1102.67" x2="1325.3321" y1="548.9846" y2="548.9846"/><ellipse cx="1112.67" cy="562.9919" fill="#FFFFFF" rx="3" ry="3" style="stroke:#000000;stroke-width:1;"/><text fill="#000000" font-family="Verdana" font-size="14" lengthAdjust="spacing" textLength="200.6621" x="1119.67" y="567.0598">Write(ctx, msg) Result[Unit]</text></g><!--class Console--><g class="entity" data-entity="Console" data-source-line="28" data-uid="ent0010" id="entity_Console"><rect fill="#FFFFFF" height="61.0146" rx="2.5" ry="2.5" style="stroke:#000000;stroke-width:1;" width="224.6621" x="966.67" y="154.9846"/><ellipse cx="1024.648" cy="168.9846" fill="#FFFFFF" rx="9" ry="9" style="stroke:#000000;stroke-width:1;"/><path d="M1027.1212,175.1277 Q1026.5401,175.4265 1025.901,175.5759 Q1025.2618,175.7253 1024.5562,175.7253 Q1022.0494,175.7253 1020.7296,174.0735 Q1019.4097,172.4216 1019.4097,169.3005 Q1019.4097,166.1711 1020.7296,164.5193 Q1022.0494,162.8674 1024.5562,162.8674 Q1025.2618,162.8674 1025.9093,163.0168 Q1026.5567,163.1663 1027.1212,163.4651 L1027.1212,166.1877 Q1026.4903,165.6067 1025.8968,165.3369 Q1025.3033,165.0671 1024.6724,165.0671 Q1023.3277,165.0671 1022.6429,166.1338 Q1021.9581,167.2004 1021.9581,169.3005 Q1021.9581,171.3923 1022.6429,172.459 Q1023.3277,173.5256 1024.6724,173.5256 Q1025.3033,173.5256 1025.8968,173.2558 Q1026.4903,172.9861 1027.1212,172.405 Z " fill="#000000"/><text fill="#000000" font-family="Verdana" font-size="14" lengthAdjust="spacing" textLength="101.2061" x="1042.148" y="174.5525">console.Writer</text><line style="stroke:#000000;stroke-width:1;" x1="967.67" x2="1190.3321" y1="182.9846" y2="182.9846"/><line style="stroke:#000000;stroke-width:1;" x1="967.67" x2="1190.3321" y1="190.9846" y2="190.9846"/><ellipse cx="977.67" cy="204.9919" fill="#FFFFFF" rx="3" ry="3" style="stroke:#000000;stroke-width:1;"/><text fill="#000000" font-family="Verdana" font-size="14" lengthAdjust="spacing" textLength="200.6621" x="984.67" y="209.0598">Write(ctx, msg) Result[Unit]</text></g><!--class UC--><g class="entity" data-entity="UC" data-source-line="32" data-uid="ent0011" id="entity_UC"><rect fill="#FFFFFF" height="78.0293" rx="2.5" ry="2.5" style="stroke:#000000;stroke-width:1;" width="242.6338" x="1226.68" y="146.4746"/><ellipse cx="1294.8846" cy="160.4746" fill="#FFFFFF" rx="9" ry="9" style="stroke:#000000;stroke-width:1;"/><path d="M1297.3577,166.6177 Q1296.7767,166.9165 1296.1375,167.0659 Q1295.4984,167.2153 1294.7928,167.2153 Q1292.286,167.2153 1290.9661,165.5635 Q1289.6463,163.9116 1289.6463,160.7905 Q1289.6463,157.6611 1290.9661,156.0093 Q1292.286,154.3574 1294.7928,154.3574 Q1295.4984,154.3574 1296.1458,154.5068 Q1296.7933,154.6563 1297.3577,154.9551 L1297.3577,157.6777 Q1296.7269,157.0967 1296.1334,156.8269 Q1295.5399,156.5571 1294.909,156.5571 Q1293.5643,156.5571 1292.8795,157.6238 Q1292.1946,158.6904 1292.1946,160.7905 Q1292.1946,162.8823 1292.8795,163.949 Q1293.5643,165.0156 1294.909,165.0156 Q1295.5399,165.0156 1296.1334,164.7458 Q1296.7269,164.4761 1297.3577,163.895 Z " fill="#000000"/><text fill="#000000" font-family="Verdana" font-size="14" lengthAdjust="spacing" textLength="98.7246" x="1312.3846" y="166.0425">GreetUseCase</text><line style="stroke:#000000;stroke-width:1;" x1="1227.68" x2="1468.3138" y1="174.4746" y2="174.4746"/><rect fill="none" height="6" style="stroke:#000000;stroke-width:1;" width="6" x="1234.68" y="185.4819"/><text fill="#000000" font-family="Verdana" font-size="14" lengthAdjust="spacing" textLength="117.9473" x="1244.68" y="192.5498">writer WriterPort</text><line style="stroke:#000000;stroke-width:1;" x1="1227.68" x2="1468.3138" y1="199.4893" y2="199.4893"/><ellipse cx="1237.68" cy="213.4966" fill="#FFFFFF" rx="3" ry="3" style="stroke:#000000;stroke-width:1;"/><text fill="#000000" font-family="Verdana" font-size="14" lengthAdjust="spacing" textLength="218.6338" x="1244.68" y="217.5645">Execute(ctx, cmd) Result[Unit]</text></g><g class="entity" data-entity="GMN14" data-source-line="42" data-uid="ent0015" id="entity_GMN14"><path d="M443,341.0046 L443,745.9875 L919,745.9875 L919,351.0046 L909,341.0046 L443,341.0046" fill="#FFFFFF" style="stroke:#000000;stroke-width:1;"/><path d="M909,341.0046 L909,351.0046 L919,351.0046 L909,341.0046" fill="#FFFFFF" style="stroke:#000000;stroke-width:1;"/><text fill="#000000" font-family="Verdana" font-size="13" font-weight="bold" lengthAdjust="spacing" textLength="115.2925" x="449" y="359.0744">Traditional OOP</text><text fill="#000000" font-family="Verdana" font-size="13" lengthAdjust="spacing" textLength="455" x="449" y="374.8738">&#9552;&#9552;&#9552;&#9552;&#9552;&#9552;&#9552;&#9552;&#9552;&#9552;&#9552;&#9552;&#9552;&#9552;&#9552;&#9552;&#9552;&#9552;&#9552;&#9552;&#9552;&#9552;&#9552;&#9552;&#9552;&#9552;&#9552;&#9552;&#9552;&#9552;&#9552;&#9552;&#9552;&#9552;&#9552;</text><text fill="#000000" font-family="Verdana" font-size="13" lengthAdjust="spacing" textLength="4.5703" x="449" y="390.6731">&#160;</text><text fill="#000000" font-family="Verdana" font-size="13" lengthAdjust="spacing" textLength="52.5776" x="449" y="406.4724">```java</text><text fill="#000000" font-family="Verdana" font-size="13" lengthAdjust="spacing" textLength="231.207" x="449" y="422.2717">// Explicit interface implementation</text><text fill="#000000" font-family="Verdana" font-size="13" lengthAdjust="spacing" textLength="309.2007" x="449" y="438.071">public class ConsoleWriter implements Writer {</text><text fill="#000000" font-family="Verdana" font-size="13" lengthAdjust="spacing" textLength="69.1768" x="467.2813" y="453.8703">@Override</text><text fill="#000000" font-family="Verdana" font-size="13" lengthAdjust="spacing" textLength="203.5122" x="467.2813" y="469.6696">public void write(String msg) {</text><text fill="#000000" font-family="Verdana" font-size="13" lengthAdjust="spacing" textLength="167.1465" x="485.5625" y="485.469">System.out.println(msg);</text><text fill="#000000" font-family="Verdana" font-size="13" lengthAdjust="spacing" textLength="8.252" x="467.2813" y="501.2683">}</text><text fill="#000000" font-family="Verdana" font-size="13" lengthAdjust="spacing" textLength="8.252" x="449" y="517.0676">}</text><text fill="#000000" font-family="Verdana" font-size="13" lengthAdjust="spacing" textLength="4.5703" x="449" y="532.8669">&#160;</text><text fill="#000000" font-family="Verdana" font-size="13" lengthAdjust="spacing" textLength="147.4243" x="449" y="548.6662">public class UseCase {</text><text fill="#000000" font-family="Verdana" font-size="13" lengthAdjust="spacing" textLength="139.1787" x="467.2813" y="564.4655">private Writer writer;</text><text fill="#000000" font-family="Verdana" font-size="13" lengthAdjust="spacing" textLength="4.5703" x="449" y="580.2649">&#160;</text><text fill="#000000" font-family="Verdana" font-size="13" lengthAdjust="spacing" textLength="206.0894" x="467.2813" y="596.0642">public UseCase(Writer writer) {</text><text fill="#000000" font-family="Verdana" font-size="13" lengthAdjust="spacing" textLength="130.438" x="485.5625" y="611.8635">this.writer = writer;</text><text fill="#000000" font-family="Verdana" font-size="13" lengthAdjust="spacing" textLength="8.252" x="467.2813" y="627.6628">}</text><text fill="#000000" font-family="Verdana" font-size="13" lengthAdjust="spacing" textLength="8.252" x="449" y="643.4621">}</text><text fill="#000000" font-family="Verdana" font-size="13" lengthAdjust="spacing" textLength="24.7939" x="449" y="659.2614">```</text><text fill="#000000" font-family="Verdana" font-size="13" lengthAdjust="spacing" textLength="4.5703" x="449" y="675.0608">&#160;</text><text fill="#000000" font-family="Verdana" font-size="13" font-weight="bold" lengthAdjust="spacing" textLength="114.2769" x="449" y="690.8601">Characteristics:</text><text fill="#000000" font-family="Verdana" font-size="13" lengthAdjust="spacing" textLength="227.6333" x="449" y="706.6594">&#8226; Explicit "implements" declaration</text><text fill="#000000" font-family="Verdana" font-size="13" lengthAdjust="spacing" textLength="230.877" x="449" y="722.4587">&#8226; Interface defined by implementer</text><text fill="#000000" font-family="Verdana" font-size="13" lengthAdjust="spacing" textLength="241.5601" x="449" y="738.258">&#8226; Tight coupling to interface package</text></g><g class="entity" data-entity="GMN17" data-source-line="70" data-uid="ent0018" id="entity_GMN17"><path d="M1537,301.5046 L1537,785.4841 L2013,785.4841 L2013,311.5046 L2003,301.5046 L1537,301.5046" fill="#FFFFFF" style="stroke:#000000;stroke-width:1;"/><path d="M2003,301.5046 L2003,311.5046 L2013,311.5046 L2003,301.5046" fill="#FFFFFF" style="stroke:#000000;stroke-width:1;"/><text fill="#000000" font-family="Verdana" font-size="13" font-weight="bold" lengthAdjust="spacing" textLength="150.5981" x="1543" y="319.5744">Go Interface Pattern</text><text fill="#000000" font-family="Verdana" font-size="13" lengthAdjust="spacing" textLength="455" x="1543" y="335.3738">&#9552;&#9552;&#9552;&#9552;&#9552;&#9552;&#9552;&#9552;&#9552;&#9552;&#9552;&#9552;&#9552;&#9552;&#9552;&#9552;&#9552;&#9552;&#9552;&#9552;&#9552;&#9552;&#9552;&#9552;&#9552;&#9552;&#9552;&#9552;&#9552;&#9552;&#9552;&#9552;&#9552;&#9552;&#9552;</text><text fill="#000000" font-family="Verdana" font-size="13" lengthAdjust="spacing" textLength="4.5703" x="1543" y="351.1731">&#160;</text><text fill="#000000" font-family="Verdana" font-size="13" lengthAdjust="spacing" textLength="40.7837" x="1543" y="366.9724">```go</text><text fill="#000000" font-family="Verdana" font-size="13" lengthAdjust="spacing" textLength="228.5918" x="1543" y="382.7717">// Interface defined by CONSUMER</text><text fill="#000000" font-family="Verdana" font-size="13" lengthAdjust="spacing" textLength="120.377" x="1543" y="398.571">package outbound</text><text fill="#000000" font-family="Verdana" font-size="13" lengthAdjust="spacing" textLength="4.5703" x="1543" y="414.3703">&#160;</text><text fill="#000000" font-family="Verdana" font-size="13" lengthAdjust="spacing" textLength="174.5098" x="1543" y="430.1696">type WriterPort interface {</text><text fill="#000000" font-family="Verdana" font-size="13" lengthAdjust="spacing" textLength="253.7031" x="1561.2813" y="445.969">Write(ctx context.Context, msg string)</text><text fill="#000000" font-family="Verdana" font-size="13" lengthAdjust="spacing" textLength="175.5889" x="1579.5625" y="461.7683">domerr.Result[model.Unit]</text><text fill="#000000" font-family="Verdana" font-size="13" lengthAdjust="spacing" textLength="8.252" x="1543" y="477.5676">}</text><text fill="#000000" font-family="Verdana" font-size="13" lengthAdjust="spacing" textLength="24.7939" x="1543" y="493.3669">```</text><text fill="#000000" font-family="Verdana" font-size="13" lengthAdjust="spacing" textLength="4.5703" x="1543" y="509.1662">&#160;</text><text fill="#000000" font-family="Verdana" font-size="13" lengthAdjust="spacing" textLength="40.7837" x="1543" y="524.9655">```go</text><text fill="#000000" font-family="Verdana" font-size="13" lengthAdjust="spacing" textLength="298.6001" x="1543" y="540.7649">// Implementation - NO explicit "implements"</text><text fill="#000000" font-family="Verdana" font-size="13" lengthAdjust="spacing" textLength="107.4595" x="1543" y="556.5642">package console</text><text fill="#000000" font-family="Verdana" font-size="13" lengthAdjust="spacing" textLength="4.5703" x="1543" y="572.3635">&#160;</text><text fill="#000000" font-family="Verdana" font-size="13" lengthAdjust="spacing" textLength="132.2534" x="1543" y="588.1628">type Writer struct{}</text><text fill="#000000" font-family="Verdana" font-size="13" lengthAdjust="spacing" textLength="4.5703" x="1543" y="603.9621">&#160;</text><text fill="#000000" font-family="Verdana" font-size="13" lengthAdjust="spacing" textLength="286.4063" x="1543" y="619.7614">func (w *Writer) Write(ctx context.Context,</text><text fill="#000000" font-family="Verdana" font-size="13" lengthAdjust="spacing" textLength="268.3091" x="1561.2813" y="635.5608">msg string) domerr.Result[model.Unit] {</text><text fill="#000000" font-family="Verdana" font-size="13" lengthAdjust="spacing" textLength="170.5742" x="1561.2813" y="651.3601">_, err := fmt.Println(msg)</text><text fill="#000000" font-family="Verdana" font-size="13" lengthAdjust="spacing" textLength="30.564" x="1561.2813" y="667.1594">// ...</text><text fill="#000000" font-family="Verdana" font-size="13" lengthAdjust="spacing" textLength="8.252" x="1543" y="682.9587">}</text><text fill="#000000" font-family="Verdana" font-size="13" lengthAdjust="spacing" textLength="24.7939" x="1543" y="698.758">```</text><text fill="#000000" font-family="Verdana" font-size="13" lengthAdjust="spacing" textLength="4.5703" x="1543" y="714.5573">&#160;</text><text fill="#000000" font-family="Verdana" font-size="13" font-weight="bold" lengthAdjust="spacing" textLength="114.2769" x="1543" y="730.3567">Characteristics:</text><text fill="#000000" font-family="Verdana" font-size="13" lengthAdjust="spacing" textLength="200.7192" x="1543" y="746.156">&#8226; Implicit interface satisfaction</text><text fill="#000000" font-family="Verdana" font-size="13" lengthAdjust="spacing" textLength="283.3784" x="1543" y="761.9553">&#8226; Interface defined where used (consumer)</text><text fill="#000000" font-family="Verdana" font-size="13" lengthAdjust="spacing" textLength="338.5522" x="1543" y="777.7546">&#8226; Decoupled - implementer doesn't import interface</text></g><!--link DynConsole to DynWriter--><g class="link" data-entity-1="DynConsole" data-entity-2="DynWriter" data-source-line="19" data-uid="lnk6" id="link_DynConsole_DynWriter"><path codeLine="19" d="M114.85,216.2346 C132.55,283.2446 170.7755,428.0209 188.5055,495.1809" fill="none" id="DynConsole-to-DynWriter" style="stroke:#000000;stroke-width:1;stroke-dasharray:7,7;"/><polygon fill="none" points="193.1,512.5846,194.3067,493.6494,182.7042,496.7124,193.1,512.5846" style="stroke:#000000;stroke-width:1;"/></g><!--link DynUC to DynWriter--><g class="link" data-entity-1="DynUC" data-entity-2="DynWriter" data-source-line="20" data-uid="lnk7" id="link_DynUC_DynWriter"><path codeLine="20" d="M281.7872,236.5272 C262.8972,308.0872 227.3018,442.8834 210.3418,507.1134" fill="none" id="DynUC-DynWriter" style="stroke:#000000;stroke-width:1;"/><polygon fill="none" points="284.85,224.9246,279.4511,229.705,281.7872,236.5272,287.1861,231.7468,284.85,224.9246" style="stroke:#000000;stroke-width:1;"/><polygon fill="#000000" points="208.81,512.9146,214.9752,505.2341,210.0865,508.0803,207.2403,503.1917,208.81,512.9146" style="stroke:#000000;stroke-width:1;"/></g><!--link Console to Port--><g class="link" data-entity-1="Console" data-entity-2="Port" data-source-line="37" data-uid="lnk12" id="link_Console_Port"><path codeLine="37" d="M1090.28,216.2346 C1115.69,283.2446 1170.8072,428.5943 1196.2772,495.7543" fill="none" id="Console-to-Port" style="stroke:#000000;stroke-width:1;stroke-dasharray:7,7;"/><polygon fill="none" points="1202.66,512.5846,1201.8873,493.6267,1190.6671,497.8819,1202.66,512.5846" style="stroke:#000000;stroke-width:1;"/><text fill="#000000" font-family="Verdana" font-size="13" lengthAdjust="spacing" textLength="46.9092" x="1109.16" y="268.5744">implicit</text></g><!--link UC to Port--><g class="link" data-entity-1="UC" data-entity-2="Port" data-source-line="38" data-uid="lnk13" id="link_UC_Port"><path codeLine="38" d="M1329.3034,236.1557 C1302.3734,307.7157 1251.4239,443.0693 1227.2439,507.2993" fill="none" id="UC-Port" style="stroke:#000000;stroke-width:1;"/><polygon fill="none" points="1333.53,224.9246,1327.673,229.1313,1329.3034,236.1557,1335.1604,231.949,1333.53,224.9246" style="stroke:#000000;stroke-width:1;"/><polygon fill="#000000" points="1225.13,512.9146,1232.0444,505.901,1226.8916,508.2352,1224.5574,503.0824,1225.13,512.9146" style="stroke:#000000;stroke-width:1;"/></g><!--link DynamicPkg to GMN14--><g class="link" data-entity-1="DynamicPkg" data-entity-2="GMN14" data-source-line="42" data-uid="lnk16" id="link_DynamicPkg_GMN14"><path d="M419.1362,197.2181 C419.224,197.3339 419.3124,197.4506 419.4015,197.5681 C420.1144,198.508 420.8689,199.5029 421.6634,200.5505 C428.02,208.9321 436.9438,220.6984 447.68,234.8546 C469.1525,263.1671 497.875,301.0396 527.81,340.5146" fill="none" id="DynamicPkg-GMN14" style="stroke:#000000;stroke-width:1;stroke-dasharray:7,7;"/></g><!--link StaticPkg to GMN17--><g class="link" data-entity-1="StaticPkg" data-entity-2="GMN17" data-source-line="70" data-uid="lnk19" id="link_StaticPkg_GMN17"><path d="M1513.0758,197.1397 C1513.2211,197.3312 1513.3681,197.5251 1513.5169,197.7214 C1513.8146,198.1139 1514.1194,198.5158 1514.4313,198.927 C1515.055,199.7495 1515.7069,200.609 1516.3861,201.5046 C1517.7446,203.2958 1519.2123,205.2311 1520.7826,207.3015 C1523.9232,211.4425 1527.4741,216.1243 1531.3813,221.2759 C1547.01,241.8821 1568.34,270.0046 1591.92,301.0946" fill="none" id="StaticPkg-GMN17" style="stroke:#000000;stroke-width:1;stroke-dasharray:7,7;"/></g><g class="legend" data-source-line="102"><rect fill="none" height="673.5713" rx="7.5" ry="7.5" style="stroke:#000000;stroke-width:1;" width="556" x="1445" y="796.4841"/><text fill="#000000" font-family="Verdana" font-size="14" font-weight="bold" lengthAdjust="spacing" textLength="173.2568" x="1450" y="815.5593">Go's Unique Approach</text><text fill="#000000" font-family="Verdana" font-size="14" lengthAdjust="spacing" textLength="546" x="1450" y="832.5739">&#9552;&#9552;&#9552;&#9552;&#9552;&#9552;&#9552;&#9552;&#9552;&#9552;&#9552;&#9552;&#9552;&#9552;&#9552;&#9552;&#9552;&#9552;&#9552;&#9552;&#9552;&#9552;&#9552;&#9552;&#9552;&#9552;&#9552;&#9552;&#9552;&#9552;&#9552;&#9552;&#9552;&#9552;&#9552;&#9552;&#9552;&#9552;&#9552;</text><text fill="#000000" font-family="Verdana" font-size="14" lengthAdjust="spacing" textLength="4.9219" x="1450" y="849.5886">&#160;</text><text fill="#000000" font-family="Verdana" font-size="14" font-weight="bold" lengthAdjust="spacing" textLength="176.4834" x="1450" y="866.6032">Interface Satisfaction:</text><text fill="#000000" font-family="Verdana" font-size="14" lengthAdjust="spacing" textLength="164.7939" x="1450" y="883.6179">&#8226; Implicit (duck typing)</text><text fill="#000000" font-family="Verdana" font-size="14" lengthAdjust="spacing" textLength="195.7744" x="1450" y="900.6325">&#8226; No "implements" keyword</text><text fill="#000000" font-family="Verdana" font-size="14" lengthAdjust="spacing" textLength="164.0557" x="1450" y="917.6472">&#8226; Compile-time verified</text><text fill="#000000" font-family="Verdana" font-size="14" lengthAdjust="spacing" textLength="261.2422" x="1450" y="934.6618">&#8226; Runtime dispatch for interface calls</text><text fill="#000000" font-family="Verdana" font-size="14" lengthAdjust="spacing" textLength="4.9219" x="1450" y="951.6765">&#160;</text><text fill="#000000" font-family="Verdana" font-size="14" font-weight="bold" lengthAdjust="spacing" textLength="70.2461" x="1450" y="968.6911">Benefits:</text><text fill="#000000" font-family="Verdana" font-size="14" lengthAdjust="spacing" textLength="314.8838" x="1450" y="985.7058">&#8226; Implementer decoupled from interface pkg</text><text fill="#000000" font-family="Verdana" font-size="14" lengthAdjust="spacing" textLength="261.8574" x="1450" y="1002.7204">&#8226; Easy to add interfaces retroactively</text><text fill="#000000" font-family="Verdana" font-size="14" lengthAdjust="spacing" textLength="189.4922" x="1450" y="1019.7351">&#8226; Small, focused interfaces</text><text fill="#000000" font-family="Verdana" font-size="14" lengthAdjust="spacing" textLength="222.1611" x="1450" y="1036.7497">&#8226; Natural dependency inversion</text><text fill="#000000" font-family="Verdana" font-size="14" lengthAdjust="spacing" textLength="4.9219" x="1450" y="1053.7644">&#160;</text><text fill="#000000" font-family="Verdana" font-size="14" font-weight="bold" lengthAdjust="spacing" textLength="133.9229" x="1450" y="1070.779">Bootstrap Wiring</text><text fill="#000000" font-family="Verdana" font-size="14" lengthAdjust="spacing" textLength="546" x="1450" y="1087.7937">&#9552;&#9552;&#9552;&#9552;&#9552;&#9552;&#9552;&#9552;&#9552;&#9552;&#9552;&#9552;&#9552;&#9552;&#9552;&#9552;&#9552;&#9552;&#9552;&#9552;&#9552;&#9552;&#9552;&#9552;&#9552;&#9552;&#9552;&#9552;&#9552;&#9552;&#9552;&#9552;&#9552;&#9552;&#9552;&#9552;&#9552;&#9552;&#9552;</text><text fill="#000000" font-family="Verdana" font-size="14" lengthAdjust="spacing" textLength="43.9209" x="1450" y="1104.8083">```go</text><text fill="#000000" font-family="Verdana" font-size="14" lengthAdjust="spacing" textLength="138.0039" x="1450" y="1121.823">// Composition root</text><text fill="#000000" font-family="Verdana" font-size="14" lengthAdjust="spacing" textLength="96.1064" x="1450" y="1138.8376">func main() {</text><text fill="#000000" font-family="Verdana" font-size="14" lengthAdjust="spacing" textLength="212.9531" x="1469.6875" y="1155.8523">writer := console.NewWriter()</text><text fill="#000000" font-family="Verdana" font-size="14" lengthAdjust="spacing" textLength="329.7041" x="1469.6875" y="1172.8669">useCase := usecase.NewGreetUseCase(writer)</text><text fill="#000000" font-family="Verdana" font-size="14" lengthAdjust="spacing" textLength="263.6758" x="1469.6875" y="1189.8816">// writer satisfies WriterPort interface</text><text fill="#000000" font-family="Verdana" font-size="14" lengthAdjust="spacing" textLength="8.8867" x="1450" y="1206.8962">}</text><text fill="#000000" font-family="Verdana" font-size="14" lengthAdjust="spacing" textLength="26.7012" x="1450" y="1223.9109">```</text><text fill="#000000" font-family="Verdana" font-size="14" lengthAdjust="spacing" textLength="4.9219" x="1450" y="1240.9255">&#160;</text><text fill="#000000" font-family="Verdana" font-size="14" font-weight="bold" lengthAdjust="spacing" textLength="58.0713" x="1450" y="1257.9402">Testing</text><text fill="#000000" font-family="Verdana" font-size="14" lengthAdjust="spacing" textLength="546" x="1450" y="1274.9548">&#9552;&#9552;&#9552;&#9552;&#9552;&#9552;&#9552;&#9552;&#9552;&#9552;&#9552;&#9552;&#9552;&#9552;&#9552;&#9552;&#9552;&#9552;&#9552;&#9552;&#9552;&#9552;&#9552;&#9552;&#9552;&#9552;&#9552;&#9552;&#9552;&#9552;&#9552;&#9552;&#9552;&#9552;&#9552;&#9552;&#9552;&#9552;&#9552;</text><text fill="#000000" font-family="Verdana" font-size="14" lengthAdjust="spacing" textLength="43.9209" x="1450" y="1291.9695">```go</text><text fill="#000000" font-family="Verdana" font-size="14" lengthAdjust="spacing" textLength="110.0176" x="1450" y="1308.9841">// Mock in tests</text><text fill="#000000" font-family="Verdana" font-size="14" lengthAdjust="spacing" textLength="176.1553" x="1450" y="1325.9988">type mockWriter struct {</text><text fill="#000000" font-family="Verdana" font-size="14" lengthAdjust="spacing" textLength="127.1553" x="1469.6875" y="1343.0134">messages []string</text><text fill="#000000" font-family="Verdana" font-size="14" lengthAdjust="spacing" textLength="8.8867" x="1450" y="1360.028">}</text><text fill="#000000" font-family="Verdana" font-size="14" lengthAdjust="spacing" textLength="348.291" x="1450" y="1377.0427">func (m *mockWriter) Write(ctx context.Context,</text><text fill="#000000" font-family="Verdana" font-size="14" lengthAdjust="spacing" textLength="288.9482" x="1469.6875" y="1394.0573">msg string) domerr.Result[model.Unit] {</text><text fill="#000000" font-family="Verdana" font-size="14" lengthAdjust="spacing" textLength="301.4785" x="1469.6875" y="1411.072">m.messages = append(m.messages, msg)</text><text fill="#000000" font-family="Verdana" font-size="14" lengthAdjust="spacing" textLength="252.2803" x="1469.6875" y="1428.0866">return domerr.Ok(model.UnitValue)</text><text fill="#000000" font-family="Verdana" font-size="14" lengthAdjust="spacing" textLength="8.8867" x="1450" y="1445.1013">}</text><text fill="#000000" font-family="Verdana" font-size="14" lengthAdjust="spacing" textLength="26.7012" x="1450" y="1462.1159">```</text></g><!--SRC=[pLVDRXit4BxhAQRg8Il5sg102xGENBIHvI27M89bruSagEdTaSHubzoGNDb2Qg2Fq4jVe8_M9-dmPxLSHIvyA98AXiGbXxCpttppaVxAhB14g0h6HQzdk2aGNWc3Qi4o7BrW6dCunWf5ZYBRqD9xp0oN0hY0b_Aj6CkoOefhAGxXNB6SsqLMm7GwWxKcazQRxlKgbjsm9K9_n_IjICvgOJX5CfF5ffIgMd5T3lh0D1nl12jvDhjPmjSd9vDl9z_0nnvG0C4lz2yLft5Zx9-S3S1JzvIKUZa0L4egchtlqLTMCAsXFvP2omAx7iBa8rrSQ1mJJitcYt7ODxhrWNZVtjNa3hEQd6LblkCiUcsQ_lPZcuXV8wzoD8gdxoCuOvXXnWmD1M5gYyCB79rRO9z2WDYZEZVC150dtvzyD_bXFwWpgOopjuCk89cvEm27oXdgkZ1lBWGtxtR0oNnEQGJmNdGVvUobGZGnt0zWRMFTmTkwTw3lSzy1tYLw2Boi2fvnwwV1thcb3K8QX6jfZ2n1BY9-akrmk4FjuP1c__xpZy_pPxEvkhfwpzQCHi-UmUJEfn5LrcP6FIyi0QGWiwg-9fi0SgSXMbiDdRO2-6cw9lxo7CDpSBAMF0TNZ6Hk51TBNzHcb_tCDzfWcShQf1LPc4AutdeUJEwRgdJ22bNVEgATQqPb257vyZ_lTOC9cvAEKJSOGpgJ1l8SRTt4aJX0UwwqunLJB2CBhgbtzA6lxUz_jIZtMy3wa2F5hXgKhLtRf3akk21jlTwq6BjUjsRdVBaoaCcQl1A2HaRL2ptV8qK6IyHFwBXjR1VoFcNu8fHSIa_8lH2CfwVpYzUJCrlre6b4ZsjPYznkDviAezQEq6XAkHKHGeqMxqmwzhzEL40xAWwYkkUo9FgcGGrAcMEHjfgmhNaSUATjO0IdKy1zTO-I2EgtauCDfyxCHyVoHIqoI6vXU1dO-N0g8VmeeOVJs2Bpwu4zP-3m21QbIMTHmmK3IYrDqqTJ_LNvYQ1eGaJJw5-9Vhj2XL3R-qHYOQafy46mFaR7TLeQnTr0sQ4MJuoTwvGz8d-1I_kWRCS4mZyXjH3yGutmSrKfoRBLvoNyBlc7mnQDUGJL7aoJlCvkB5K2M-tYgUogoWrkRgNAmsfpnBkx4oaoNt1irfehLSvrnKosWeLKKTaoLXJQ1_W21PN9x9HvMuPjUHQAD2RI8YSoJW2PtbYTOddUhcjGQ6m135zZiGccyvBUUq2nP8uChNMJBpErehCpRs-TN51cshBBHokbeGPW5LnosmPViBmTXR2raDgT_Q0engQxIxfR9-sn4quRwiZcSdIAjxxxawOfwt3SaH4DCnfQe_Z-auJJhEtYuDTt8qUzLp5t-_mSgR__Fn2-biH_-jV2K5YwKSsI9ZlAkOMoHAr9PpMyUUSLCQJdHRM4ORlrFnVMCjs-_GXOPScQj7F-CXjCgGrg9HgVqvkazVSBAseSH5KXDrxJUly0]--></g></svg>