<svg xmlns="http://www.w3.org/2000/svg" xmlns:xlink="http://www.w3.org/1999/xlink" contentStyleType="text/css" data-diagram-type="DESCRIPTION" height="1239px" preserveAspectRatio="none" style="width:2014px;height:1239px;background:#FFFFFF;" version="1.1" viewBox="0 0 2014 1239" width="2014px" zoomAndPan="magnify"><title>Package Structure
Actual Packages in Each Layer (Go)</title><defs/><g><g class="title" data-source-line="4"><text fill="#000000" font-family="Verdana" font-size="22" font-weight="bold" lengthAdjust="spacing" textLength="227.1758" x="889.0571" y="37.1182">Package Structure</text><text fill="#000000" font-family="Verdana" font-size="22" font-weight="bold" lengthAdjust="spacing" textLength="438.7646" x="783.2627" y="63.8555">Actual Packages in Each Layer (Go)</text></g><!--cluster Bootstrap Layer--><g class="cluster" data-entity="Bootstrap Layer" data-source-line="6" data-uid="ent0002" id="cluster_Bootstrap Layer"><rect fill="#FFEBCD" height="219.99" rx="2.5" ry="2.5" style="stroke:#000000;stroke-width:1;" width="503" x="12" y="86.4746"/><path d="M147.4736,86.4746 L147.4736,96.4893 L137.4736,106.4893 L12,106.4893" fill="none" style="stroke:#000000;stroke-width:1;"/><text fill="#000000" font-family="Verdana" font-size="14" font-weight="bold" lengthAdjust="spacing" textLength="125.4736" x="15" y="101.5498">Bootstrap Layer</text></g><!--cluster Presentation Layer--><g class="cluster" data-entity="Presentation Layer" data-source-line="22" data-uid="ent0007" id="cluster_Presentation Layer"><rect fill="#FFE4E1" height="219.99" rx="2.5" ry="2.5" style="stroke:#000000;stroke-width:1;" width="493" x="539" y="86.4746"/><path d="M697.9961,86.4746 L697.9961,96.4893 L687.9961,106.4893 L539,106.4893" fill="none" style="stroke:#000000;stroke-width:1;"/><text fill="#000000" font-family="Verdana" font-size="14" font-weight="bold" lengthAdjust="spacing" textLength="148.9961" x="542" y="101.5498">Presentation Layer</text></g><!--cluster Infrastructure Layer--><g class="cluster" data-entity="Infrastructure Layer" data-source-line="38" data-uid="ent0012" id="cluster_Infrastructure Layer"><rect fill="#E6F3FF" height="172.59" rx="2.5" ry="2.5" style="stroke:#000000;stroke-width:1;" width="517" x="1464" y="110.1746"/><path d="M1634.7266,110.1746 L1634.7266,120.1893 L1624.7266,130.1893 L1464,130.1893" fill="none" style="stroke:#000000;stroke-width:1;"/><text fill="#000000" font-family="Verdana" font-size="14" font-weight="bold" lengthAdjust="spacing" textLength="160.7266" x="1467" y="125.2498">Infrastructure Layer</text></g><!--cluster Application Layer--><g class="cluster" data-entity="Application Layer" data-source-line="51" data-uid="ent0017" id="cluster_Application Layer"><rect fill="#E8F5E9" height="251.59" rx="2.5" ry="2.5" style="stroke:#000000;stroke-width:1;" width="1170" x="460" y="355.4646"/><path d="M606.7803,355.4646 L606.7803,365.4793 L596.7803,375.4793 L460,375.4793" fill="none" style="stroke:#000000;stroke-width:1;"/><text fill="#000000" font-family="Verdana" font-size="14" font-weight="bold" lengthAdjust="spacing" textLength="136.7803" x="463" y="370.5398">Application Layer</text></g><!--cluster Domain Layer--><g class="cluster" data-entity="Domain Layer" data-source-line="73" data-uid="ent0025" id="cluster_Domain Layer"><rect fill="#FFF9E6" height="125.2" rx="2.5" ry="2.5" style="stroke:#000000;stroke-width:1;" width="535" x="673" y="656.0546"/><path d="M791.582,656.0546 L791.582,666.0693 L781.582,676.0693 L673,676.0693" fill="none" style="stroke:#000000;stroke-width:1;"/><text fill="#000000" font-family="Verdana" font-size="14" font-weight="bold" lengthAdjust="spacing" textLength="108.582" x="676" y="671.1298">Domain Layer</text></g><!--entity BootstrapCLI--><g class="entity" data-entity="BootstrapCLI" data-source-line="7" data-uid="ent0003" id="entity_BootstrapCLI"><rect fill="#FFFFFF" height="37.0146" rx="2.5" ry="2.5" style="stroke:#000000;stroke-width:1;" width="108.4844" x="27.76" y="187.9646"/><text fill="#000000" font-family="Verdana" font-size="14" lengthAdjust="spacing" textLength="88.4844" x="37.76" y="212.0398">bootstrap/cli</text></g><g class="entity" data-entity="GMN4" data-source-line="9" data-uid="ent0005" id="entity_GMN4"><path d="M171.42,122.4746 L171.42,202.4646 L136.36,206.4646 L171.42,210.4646 L171.42,290.4678 A0,0 0 0 0 171.42,290.4678 L498.5738,290.4678 A0,0 0 0 0 498.5738,290.4678 L498.5738,132.4746 L488.5738,122.4746 L171.42,122.4746 A0,0 0 0 0 171.42,122.4746" fill="#FFFFFF" style="stroke:#000000;stroke-width:1;"/><path d="M488.5738,122.4746 L488.5738,132.4746 L498.5738,132.4746 L488.5738,122.4746" fill="#FFFFFF" style="stroke:#000000;stroke-width:1;"/><text fill="#000000" font-family="Verdana" font-size="13" font-weight="bold" lengthAdjust="spacing" textLength="129.1938" x="177.42" y="140.5444">Composition Root</text><text fill="#000000" font-family="Verdana" font-size="13" lengthAdjust="spacing" textLength="159.8848" x="177.42" y="156.3438">- Wires all dependencies</text><text fill="#000000" font-family="Verdana" font-size="13" lengthAdjust="spacing" textLength="146.834" x="177.42" y="172.1431">- Constructor injection</text><text fill="#000000" font-family="Verdana" font-size="13" lengthAdjust="spacing" textLength="158.4629" x="177.42" y="187.9424">- Application entry point</text><text fill="#000000" font-family="Verdana" font-size="13" lengthAdjust="spacing" textLength="4.5703" x="177.42" y="203.7417">&#160;</text><text fill="#000000" font-family="Verdana" font-size="13" lengthAdjust="spacing" textLength="40.7837" x="177.42" y="219.541">```go</text><text fill="#000000" font-family="Verdana" font-size="13" lengthAdjust="spacing" textLength="197.7422" x="177.42" y="235.3403">writer := console.NewWriter()</text><text fill="#000000" font-family="Verdana" font-size="13" lengthAdjust="spacing" textLength="306.1538" x="177.42" y="251.1396">useCase := usecase.NewGreetUseCase(writer)</text><text fill="#000000" font-family="Verdana" font-size="13" lengthAdjust="spacing" textLength="268.5249" x="177.42" y="266.939">cmd := cli.NewGreetCommand(useCase)</text><text fill="#000000" font-family="Verdana" font-size="13" lengthAdjust="spacing" textLength="24.7939" x="177.42" y="282.7383">```</text></g><!--entity PresentationGreet--><g class="entity" data-entity="PresentationGreet" data-source-line="23" data-uid="ent0008" id="entity_PresentationGreet"><rect fill="#FFFFFF" height="37.0146" rx="2.5" ry="2.5" style="stroke:#000000;stroke-width:1;" width="189.9551" x="555.02" y="187.9646"/><text fill="#000000" font-family="Verdana" font-size="14" lengthAdjust="spacing" textLength="169.9551" x="565.02" y="212.0398">presentation/adapter/cli</text></g><g class="entity" data-entity="GMN9" data-source-line="25" data-uid="ent0010" id="entity_GMN9"><path d="M780.18,122.4746 L780.18,202.4646 L745.42,206.4646 L780.18,210.4646 L780.18,290.4678 A0,0 0 0 0 780.18,290.4678 L1015.826,290.4678 A0,0 0 0 0 1015.826,290.4678 L1015.826,132.4746 L1005.826,122.4746 L780.18,122.4746 A0,0 0 0 0 780.18,122.4746" fill="#FFFFFF" style="stroke:#000000;stroke-width:1;"/><path d="M1005.826,122.4746 L1005.826,132.4746 L1015.826,132.4746 L1005.826,122.4746" fill="#FFFFFF" style="stroke:#000000;stroke-width:1;"/><text fill="#000000" font-family="Verdana" font-size="13" font-weight="bold" lengthAdjust="spacing" textLength="91.0698" x="786.18" y="140.5444">Depends on:</text><text fill="#000000" font-family="Verdana" font-size="13" lengthAdjust="spacing" textLength="150.9917" x="786.18" y="156.3438">- application/command</text><text fill="#000000" font-family="Verdana" font-size="13" lengthAdjust="spacing" textLength="171.8057" x="786.18" y="172.1431">- application/port/inbound</text><text fill="#000000" font-family="Verdana" font-size="13" lengthAdjust="spacing" textLength="5.9033" x="786.18" y="187.9424">-</text><text fill="#000000" font-family="Verdana" font-size="13" font-weight="bold" lengthAdjust="spacing" textLength="126.5405" x="796.6536" y="187.9424">application/error</text><text fill="#000000" font-family="Verdana" font-size="13" lengthAdjust="spacing" textLength="17" x="927.7645" y="187.9424">&#9989;</text><text fill="#000000" font-family="Verdana" font-size="13" lengthAdjust="spacing" textLength="4.5703" x="786.18" y="203.7417">&#160;</text><text fill="#000000" font-family="Verdana" font-size="13" font-weight="bold" lengthAdjust="spacing" textLength="109.1733" x="786.18" y="219.541">Cannot access:</text><text fill="#000000" font-family="Verdana" font-size="13" lengthAdjust="spacing" textLength="149.3423" x="786.18" y="235.3403">&#10060; domain/* packages</text><text fill="#000000" font-family="Verdana" font-size="13" lengthAdjust="spacing" textLength="4.5703" x="786.18" y="251.1396">&#160;</text><text fill="#000000" font-family="Verdana" font-size="13" font-weight="bold" lengthAdjust="spacing" textLength="214.646" x="786.18" y="266.939">Receives GreetPort interface:</text><text fill="#000000" font-family="Verdana" font-size="13" lengthAdjust="spacing" textLength="178.4199" x="786.18" y="282.7383">useCase inbound.GreetPort</text></g><!--entity InfraConsole--><g class="entity" data-entity="InfraConsole" data-source-line="39" data-uid="ent0013" id="entity_InfraConsole"><rect fill="#FFFFFF" height="37.0146" rx="2.5" ry="2.5" style="stroke:#000000;stroke-width:1;" width="235.0654" x="1480.47" y="187.9646"/><text fill="#000000" font-family="Verdana" font-size="14" lengthAdjust="spacing" textLength="215.0654" x="1490.47" y="212.0398">infrastructure/adapter/console</text></g><g class="entity" data-entity="GMN14" data-source-line="41" data-uid="ent0015" id="entity_GMN14"><path d="M1750.9,146.1746 L1750.9,202.4646 L1715.81,206.4646 L1750.9,210.4646 L1750.9,266.7698 A0,0 0 0 0 1750.9,266.7698 L1965.1036,266.7698 A0,0 0 0 0 1965.1036,266.7698 L1965.1036,156.1746 L1955.1036,146.1746 L1750.9,146.1746 A0,0 0 0 0 1750.9,146.1746" fill="#FFFFFF" style="stroke:#000000;stroke-width:1;"/><path d="M1955.1036,146.1746 L1955.1036,156.1746 L1965.1036,156.1746 L1955.1036,146.1746" fill="#FFFFFF" style="stroke:#000000;stroke-width:1;"/><text fill="#000000" font-family="Verdana" font-size="13" font-weight="bold" lengthAdjust="spacing" textLength="91.0698" x="1756.9" y="164.2444">Depends on:</text><text fill="#000000" font-family="Verdana" font-size="13" lengthAdjust="spacing" textLength="181.251" x="1756.9" y="180.0437">- application/port/outbound</text><text fill="#000000" font-family="Verdana" font-size="13" lengthAdjust="spacing" textLength="171.6924" x="1756.9" y="195.8431">- domain/error (direct) &#9989;</text><text fill="#000000" font-family="Verdana" font-size="13" lengthAdjust="spacing" textLength="126.8516" x="1756.9" y="211.6424">- application/model</text><text fill="#000000" font-family="Verdana" font-size="13" lengthAdjust="spacing" textLength="4.5703" x="1756.9" y="227.4417">&#160;</text><text fill="#000000" font-family="Verdana" font-size="13" font-weight="bold" lengthAdjust="spacing" textLength="175.4048" x="1756.9" y="243.241">Implements WriterPort:</text><text fill="#000000" font-family="Verdana" font-size="13" lengthAdjust="spacing" textLength="193.2036" x="1756.9" y="259.0403">Writer.Write(ctx, msg) Result</text></g><!--entity AppError--><g class="entity" data-entity="AppError" data-source-line="52" data-uid="ent0018" id="entity_AppError"><rect fill="#FFFF99" height="37.0146" rx="2.5" ry="2.5" style="stroke:#000000;stroke-width:1;" width="137.0723" x="876.46" y="472.7546"/><text fill="#000000" font-family="Verdana" font-size="14" lengthAdjust="spacing" textLength="117.0723" x="886.46" y="496.8298">application/error</text></g><!--entity AppCommand--><g class="entity" data-entity="AppCommand" data-source-line="53" data-uid="ent0019" id="entity_AppCommand"><rect fill="#FFFFFF" height="37.0146" rx="2.5" ry="2.5" style="stroke:#000000;stroke-width:1;" width="171.3271" x="476.34" y="472.7546"/><text fill="#000000" font-family="Verdana" font-size="14" lengthAdjust="spacing" textLength="151.3271" x="486.34" y="496.8298">application/command</text></g><!--entity AppUsecase--><g class="entity" data-entity="AppUsecase" data-source-line="54" data-uid="ent0020" id="entity_AppUsecase"><rect fill="#FFFFFF" height="37.0146" rx="2.5" ry="2.5" style="stroke:#000000;stroke-width:1;" width="158.1406" x="682.93" y="472.7546"/><text fill="#000000" font-family="Verdana" font-size="14" lengthAdjust="spacing" textLength="138.1406" x="692.93" y="496.8298">application/usecase</text></g><!--entity AppPortOut--><g class="entity" data-entity="AppPortOut" data-source-line="55" data-uid="ent0021" id="entity_AppPortOut"><rect fill="#FFFFFF" height="37.0146" rx="2.5" ry="2.5" style="stroke:#000000;stroke-width:1;" width="203.9141" x="1410.04" y="472.7546"/><text fill="#000000" font-family="Verdana" font-size="14" lengthAdjust="spacing" textLength="183.9141" x="1420.04" y="496.8298">application/port/outbound</text></g><g class="entity" data-entity="GMN22" data-source-line="58" data-uid="ent0023" id="entity_GMN22"><path d="M1048.53,391.4646 L1048.53,487.2646 L1013.84,491.2646 L1048.53,495.2646 L1048.53,591.0564 A0,0 0 0 0 1048.53,591.0564 L1375.4616,591.0564 A0,0 0 0 0 1375.4616,591.0564 L1375.4616,401.4646 L1365.4616,391.4646 L1048.53,391.4646 A0,0 0 0 0 1048.53,391.4646" fill="#FFFFFF" style="stroke:#000000;stroke-width:1;"/><path d="M1365.4616,391.4646 L1365.4616,401.4646 L1375.4616,401.4646 L1365.4616,391.4646" fill="#FFFFFF" style="stroke:#000000;stroke-width:1;"/><text fill="#000000" font-family="Verdana" font-size="13" font-weight="bold" lengthAdjust="spacing" textLength="184.9897" x="1054.53" y="409.5344">Re-exports domain/error</text><text fill="#000000" font-family="Verdana" font-size="13" lengthAdjust="spacing" textLength="171.3359" x="1054.53" y="425.3337">For Presentation layer use</text><text fill="#000000" font-family="Verdana" font-size="13" lengthAdjust="spacing" textLength="4.5703" x="1054.53" y="441.1331">&#160;</text><text fill="#000000" font-family="Verdana" font-size="13" lengthAdjust="spacing" textLength="40.7837" x="1054.53" y="456.9324">```go</text><text fill="#000000" font-family="Verdana" font-size="13" lengthAdjust="spacing" textLength="90.873" x="1054.53" y="472.7317">package error</text><text fill="#000000" font-family="Verdana" font-size="13" lengthAdjust="spacing" textLength="4.5703" x="1054.53" y="488.531">&#160;</text><text fill="#000000" font-family="Verdana" font-size="13" lengthAdjust="spacing" textLength="197.8374" x="1054.53" y="504.3303">import domerr "domain/error"</text><text fill="#000000" font-family="Verdana" font-size="13" lengthAdjust="spacing" textLength="4.5703" x="1054.53" y="520.1296">&#160;</text><text fill="#000000" font-family="Verdana" font-size="13" lengthAdjust="spacing" textLength="233.8159" x="1054.53" y="535.929">type ErrorType = domerr.ErrorType</text><text fill="#000000" font-family="Verdana" font-size="13" lengthAdjust="spacing" textLength="228.522" x="1054.53" y="551.7283">type ErrorKind = domerr.ErrorKind</text><text fill="#000000" font-family="Verdana" font-size="13" lengthAdjust="spacing" textLength="305.9316" x="1054.53" y="567.5276">const ValidationError = domerr.ValidationError</text><text fill="#000000" font-family="Verdana" font-size="13" lengthAdjust="spacing" textLength="24.7939" x="1054.53" y="583.3269">```</text></g><!--entity DomainError--><g class="entity" data-entity="DomainError" data-source-line="74" data-uid="ent0026" id="entity_DomainError"><rect fill="#FFFFFF" height="37.0146" rx="2.5" ry="2.5" style="stroke:#000000;stroke-width:1;" width="113.0645" x="883.47" y="710.1446"/><text fill="#000000" font-family="Verdana" font-size="14" lengthAdjust="spacing" textLength="93.0645" x="893.47" y="734.2198">domain/error</text></g><!--entity DomainPerson--><g class="entity" data-entity="DomainPerson" data-source-line="75" data-uid="ent0027" id="entity_DomainPerson"><rect fill="#FFFFFF" height="37.0146" rx="2.5" ry="2.5" style="stroke:#000000;stroke-width:1;" width="159.2275" x="689.39" y="710.1446"/><text fill="#000000" font-family="Verdana" font-size="14" lengthAdjust="spacing" textLength="139.2275" x="699.39" y="734.2198">domain/valueobject</text></g><g class="entity" data-entity="GMN28" data-source-line="78" data-uid="ent0029" id="entity_GMN28"><path d="M1031.6,692.0546 L1031.6,724.6546 L996.77,728.6546 L1031.6,732.6546 L1031.6,765.2519 A0,0 0 0 0 1031.6,765.2519 L1192.3944,765.2519 A0,0 0 0 0 1192.3944,765.2519 L1192.3944,702.0546 L1182.3944,692.0546 L1031.6,692.0546 A0,0 0 0 0 1031.6,692.0546" fill="#FFFFFF" style="stroke:#000000;stroke-width:1;"/><path d="M1182.3944,692.0546 L1182.3944,702.0546 L1192.3944,702.0546 L1182.3944,692.0546" fill="#FFFFFF" style="stroke:#000000;stroke-width:1;"/><text fill="#000000" font-family="Verdana" font-size="13" font-weight="bold" lengthAdjust="spacing" textLength="137.1602" x="1037.6" y="710.1244">Zero external deps</text><text fill="#000000" font-family="Verdana" font-size="13" lengthAdjust="spacing" textLength="116.6318" x="1037.6" y="725.9237">Pure domain logic</text><text fill="#000000" font-family="Verdana" font-size="13" lengthAdjust="spacing" textLength="139.7944" x="1037.6" y="741.7231">Canonical error types</text><text fill="#000000" font-family="Verdana" font-size="13" lengthAdjust="spacing" textLength="109.5288" x="1037.6" y="757.5224">Result[T] monad</text></g><!--link PresentationGreet to AppCommand--><g class="link" data-entity-1="PresentationGreet" data-entity-2="AppCommand" data-source-line="86" data-uid="lnk31" id="link_PresentationGreet_AppCommand"><path d="M642.76,225.2146 C633.75,247.6446 618.18,287.5546 607,322.4646 C589.71,376.4646 574.9336,435.8087 567.5736,466.6287" fill="none" id="PresentationGreet-to-AppCommand" style="stroke:#000000;stroke-width:1;"/><polygon fill="#000000" points="566.18,472.4646,572.1611,464.6399,567.3414,467.6014,564.3799,462.7817,566.18,472.4646" style="stroke:#000000;stroke-width:1;"/><text fill="#000000" font-family="Verdana" font-size="13" lengthAdjust="spacing" textLength="62.3467" x="608" y="336.5344">uses DTO</text></g><!--link PresentationGreet to AppUsecase--><g class="link" data-entity-1="PresentationGreet" data-entity-2="AppUsecase" data-source-line="87" data-uid="lnk32" id="link_PresentationGreet_AppUsecase"><path d="M657.01,225.1546 C677.12,275.9446 732.6804,416.2263 752.7904,466.9963" fill="none" id="PresentationGreet-to-AppUsecase" style="stroke:#000000;stroke-width:1;"/><polygon fill="#000000" points="755,472.5746,755.4045,462.7341,753.1587,467.926,747.9667,465.6802,755,472.5746" style="stroke:#000000;stroke-width:1;"/><text fill="#000000" font-family="Verdana" font-size="13" lengthAdjust="spacing" textLength="114.8291" x="700.29" y="336.5344">uses via interface</text></g><!--link PresentationGreet to AppError--><g class="link" data-entity-1="PresentationGreet" data-entity-2="AppError" data-source-line="88" data-uid="lnk33" id="link_PresentationGreet_AppError"><path d="M662.99,225.4446 C681.92,250.1146 719.6,293.7546 763,314.4646 C787.28,326.0546 797.92,312.7446 823,322.4646 C841.16,329.5046 845.68,333.2546 859,347.4646 C895.61,386.5346 921.7372,438.2424 934.7872,466.9524" fill="none" id="PresentationGreet-to-AppError" style="stroke:#000000;stroke-width:1;"/><polygon fill="#000000" points="937.27,472.4146,937.1872,462.5661,935.201,467.8628,929.9043,465.8765,937.27,472.4146" style="stroke:#000000;stroke-width:1;"/><text fill="#000000" font-family="Verdana" font-size="13" lengthAdjust="spacing" textLength="51.0869" x="852.25" y="336.5344">uses &#9989;</text></g><!--link InfraConsole to AppPortOut--><g class="link" data-entity-1="InfraConsole" data-entity-2="AppPortOut" data-source-line="90" data-uid="lnk34" id="link_InfraConsole_AppPortOut"><path d="M1589.12,225.3946 C1578.38,247.6846 1560.32,287.1246 1549,322.4646 C1531.9,375.8746 1520.9414,435.4154 1515.8014,466.4154" fill="none" id="InfraConsole-to-AppPortOut" style="stroke:#000000;stroke-width:1;"/><polygon fill="#000000" points="1514.82,472.3346,1520.2383,464.1101,1515.6379,467.402,1512.346,462.8015,1514.82,472.3346" style="stroke:#000000;stroke-width:1;"/><text fill="#000000" font-family="Verdana" font-size="13" lengthAdjust="spacing" textLength="107.104" x="1550" y="336.5344">implements Port</text></g><!--link InfraConsole to DomainError--><g class="link" data-entity-1="InfraConsole" data-entity-2="DomainError" data-source-line="91" data-uid="lnk35" id="link_InfraConsole_DomainError"><path d="M1611.79,225.3346 C1627.52,246.9446 1652.3,285.0946 1662,322.4646 C1687.79,421.8246 2007.29,229.2146 1630,615.0546 C1573.53,672.8046 1530.52,633.7546 1450,640.0546 C1425.85,641.9446 1036.12,638.1746 1014,648.0546 C985.4,660.8346 966.0207,685.4551 953.6407,704.7451" fill="none" id="InfraConsole-to-DomainError" style="stroke:#000000;stroke-width:1;"/><polygon fill="#000000" points="950.4,709.7946,958.6274,704.3808,953.1006,705.5867,951.8947,700.0598,950.4,709.7946" style="stroke:#000000;stroke-width:1;"/><text fill="#000000" font-family="Verdana" font-size="13" lengthAdjust="spacing" textLength="51.0869" x="1813.81" y="496.8344">uses &#9989;</text></g><!--link AppCommand to DomainPerson--><g class="link" data-entity-1="AppCommand" data-entity-2="DomainPerson" data-source-line="93" data-uid="lnk36" id="link_AppCommand_DomainPerson"><path d="M576.41,509.9746 C596.09,534.0446 632.64,578.2946 665,615.0546 C695.07,649.2146 727.247,683.6156 748.037,705.5956" fill="none" id="AppCommand-to-DomainPerson" style="stroke:#000000;stroke-width:1;"/><polygon fill="#000000" points="752.16,709.9546,748.8815,700.6674,748.7242,706.3221,743.0695,706.1648,752.16,709.9546" style="stroke:#000000;stroke-width:1;"/><text fill="#000000" font-family="Verdana" font-size="13" lengthAdjust="spacing" textLength="29.5166" x="685.53" y="637.1244">uses</text></g><!--link AppUsecase to DomainPerson--><g class="link" data-entity-1="AppUsecase" data-entity-2="DomainPerson" data-source-line="94" data-uid="lnk37" id="link_AppUsecase_DomainPerson"><path d="M762.53,509.9546 C763.82,553.5746 766.9808,659.9173 768.2908,703.7573" fill="none" id="AppUsecase-to-DomainPerson" style="stroke:#000000;stroke-width:1;"/><polygon fill="#000000" points="768.47,709.7546,772.1994,700.6392,768.3207,704.7568,764.203,700.8781,768.47,709.7546" style="stroke:#000000;stroke-width:1;"/><text fill="#000000" font-family="Verdana" font-size="13" lengthAdjust="spacing" textLength="58.1826" x="767.33" y="637.1244">validates</text></g><!--link AppPortOut to DomainError--><g class="link" data-entity-1="AppPortOut" data-entity-2="DomainError" data-source-line="95" data-uid="lnk38" id="link_AppPortOut_DomainError"><path d="M1501.06,509.9146 C1482.66,537.8446 1442.6,591.4646 1393,615.0546 C1240.31,687.6846 1165.93,573.8546 1014,648.0546 C986.03,661.7246 966.683,685.8322 954.113,704.8122" fill="none" id="AppPortOut-to-DomainError" style="stroke:#000000;stroke-width:1;"/><polygon fill="#000000" points="950.8,709.8146,959.1044,704.5196,953.5608,705.6459,952.4345,700.1023,950.8,709.8146" style="stroke:#000000;stroke-width:1;"/><text fill="#000000" font-family="Verdana" font-size="13" lengthAdjust="spacing" textLength="74.5596" x="1367.33" y="637.1244">uses Result</text></g><!--link AppError to DomainError--><g class="link" data-entity-1="AppError" data-entity-2="DomainError" data-source-line="96" data-uid="lnk39" id="link_AppError_DomainError"><path d="M944.62,509.9546 C943.7,553.5746 941.4373,659.916 940.5073,703.756" fill="none" id="AppError-to-DomainError" style="stroke:#000000;stroke-width:1;"/><polygon fill="#000000" points="940.38,709.7546,944.57,700.8415,940.486,704.7557,936.5718,700.6718,940.38,709.7546" style="stroke:#000000;stroke-width:1;"/><text fill="#000000" font-family="Verdana" font-size="13" lengthAdjust="spacing" textLength="68.0659" x="943.2" y="637.1244">re-exports</text></g><!--link PresentationGreet to DomainError--><g class="link" data-entity-1="PresentationGreet" data-entity-2="DomainError" data-source-line="99" data-uid="lnk40" id="link_PresentationGreet_DomainError"><path d="M633.56,225.1346 C609.85,249.4346 563.55,292.6446 515,314.4646 C438.02,349.0646 382.24,282.8146 328,347.4646 C251.56,438.5746 246.52,528.4246 328,615.0546 C338.26,625.9646 852.46,641.6546 866,648.0546 C894.15,661.3646 913.4595,685.5674 925.9795,704.6574" fill="none" id="PresentationGreet-to-DomainError" style="stroke:#FF0000;stroke-width:1;stroke-dasharray:7,7;"/><polygon fill="#FF0000" points="929.27,709.6746,927.6791,699.9551,926.5279,705.4936,920.9894,704.3424,929.27,709.6746" style="stroke:#FF0000;stroke-width:1;"/><text fill="#000000" font-family="Verdana" font-size="13" lengthAdjust="spacing" textLength="100.6748" x="343.9482" y="488.8344">&#10060; FORBIDDEN</text><text fill="#000000" font-family="Verdana" font-size="13" lengthAdjust="spacing" textLength="130.5713" x="329" y="504.6337">No transitive access</text></g><g class="legend" data-source-line="101"><rect fill="none" height="435.3662" rx="7.5" ry="7.5" style="stroke:#000000;stroke-width:1;" width="514" x="745.645" y="791.2546"/><text fill="#000000" font-family="Verdana" font-size="14" font-weight="bold" lengthAdjust="spacing" textLength="224.6494" x="750.645" y="810.3298">Package Naming Convention</text><text fill="#000000" font-family="Verdana" font-size="14" lengthAdjust="spacing" textLength="504" x="750.645" y="827.3445">&#9552;&#9552;&#9552;&#9552;&#9552;&#9552;&#9552;&#9552;&#9552;&#9552;&#9552;&#9552;&#9552;&#9552;&#9552;&#9552;&#9552;&#9552;&#9552;&#9552;&#9552;&#9552;&#9552;&#9552;&#9552;&#9552;&#9552;&#9552;&#9552;&#9552;&#9552;&#9552;&#9552;&#9552;&#9552;&#9552;</text><text fill="#000000" font-family="Verdana" font-size="14" lengthAdjust="spacing" textLength="302.3057" x="750.645" y="844.3591">Go uses lowercase, slash-separated paths:</text><text fill="#000000" font-family="Verdana" font-size="14" lengthAdjust="spacing" textLength="233.1602" x="750.645" y="861.3738">&#8226; parent/child/grandchild pattern</text><text fill="#000000" font-family="Verdana" font-size="14" lengthAdjust="spacing" textLength="270.2998" x="750.645" y="878.3884">&#8226; snake_case for multi-word packages</text><text fill="#000000" font-family="Verdana" font-size="14" lengthAdjust="spacing" textLength="150.4658" x="750.645" y="895.403">&#8226; go.mod per module</text><text fill="#000000" font-family="Verdana" font-size="14" lengthAdjust="spacing" textLength="4.9219" x="750.645" y="912.4177">&#160;</text><text fill="#000000" font-family="Verdana" font-size="14" font-weight="bold" lengthAdjust="spacing" textLength="72.5977" x="750.645" y="929.4323">Example:</text><text fill="#000000" font-family="Verdana" font-size="14" lengthAdjust="spacing" textLength="220.9648" x="750.645" y="946.447">&#8226; Package: domain/valueobject</text><text fill="#000000" font-family="Verdana" font-size="14" lengthAdjust="spacing" textLength="263.4912" x="750.645" y="963.4616">&#8226; File: domain/valueobject/person.go</text><text fill="#000000" font-family="Verdana" font-size="14" lengthAdjust="spacing" textLength="105.2188" x="750.645" y="980.4763">&#8226; Type: Person</text><text fill="#000000" font-family="Verdana" font-size="14" lengthAdjust="spacing" textLength="4.9219" x="750.645" y="997.4909">&#160;</text><text fill="#000000" font-family="Verdana" font-size="14" font-weight="bold" lengthAdjust="spacing" textLength="144.4844" x="750.645" y="1014.5056">Dependency Rules</text><text fill="#000000" font-family="Verdana" font-size="14" lengthAdjust="spacing" textLength="504" x="750.645" y="1031.5202">&#9552;&#9552;&#9552;&#9552;&#9552;&#9552;&#9552;&#9552;&#9552;&#9552;&#9552;&#9552;&#9552;&#9552;&#9552;&#9552;&#9552;&#9552;&#9552;&#9552;&#9552;&#9552;&#9552;&#9552;&#9552;&#9552;&#9552;&#9552;&#9552;&#9552;&#9552;&#9552;&#9552;&#9552;&#9552;&#9552;</text><text fill="#000000" font-family="Verdana" font-size="14" lengthAdjust="spacing" textLength="297.2637" x="750.645" y="1048.5349">&#9989; Presentation &#8594; application/* packages</text><text fill="#000000" font-family="Verdana" font-size="14" lengthAdjust="spacing" textLength="395.5645" x="750.645" y="1065.5495">&#9989; Infrastructure &#8594; application/* + domain/* packages</text><text fill="#000000" font-family="Verdana" font-size="14" lengthAdjust="spacing" textLength="262.4824" x="750.645" y="1082.5642">&#9989; Application &#8594; domain/* packages</text><text fill="#000000" font-family="Verdana" font-size="14" lengthAdjust="spacing" textLength="363.0049" x="750.645" y="1099.5788">&#10060; Presentation &#8594; domain/* packages (forbidden!)</text><text fill="#000000" font-family="Verdana" font-size="14" lengthAdjust="spacing" textLength="4.9219" x="750.645" y="1116.5935">&#160;</text><text fill="#000000" font-family="Verdana" font-size="14" font-weight="bold" lengthAdjust="spacing" textLength="203.499" x="750.645" y="1133.6081">Interface-Based Injection</text><text fill="#000000" font-family="Verdana" font-size="14" lengthAdjust="spacing" textLength="504" x="750.645" y="1150.6228">&#9552;&#9552;&#9552;&#9552;&#9552;&#9552;&#9552;&#9552;&#9552;&#9552;&#9552;&#9552;&#9552;&#9552;&#9552;&#9552;&#9552;&#9552;&#9552;&#9552;&#9552;&#9552;&#9552;&#9552;&#9552;&#9552;&#9552;&#9552;&#9552;&#9552;&#9552;&#9552;&#9552;&#9552;&#9552;&#9552;</text><text fill="#000000" font-family="Verdana" font-size="14" lengthAdjust="spacing" textLength="301.7178" x="750.645" y="1167.6374">&#8226; UseCase depends on WriterPort interface</text><text fill="#000000" font-family="Verdana" font-size="14" lengthAdjust="spacing" textLength="309.0527" x="750.645" y="1184.6521">&#8226; Command depends on GreetPort interface</text><text fill="#000000" font-family="Verdana" font-size="14" lengthAdjust="spacing" textLength="265.4463" x="750.645" y="1201.6667">&#8226; Concrete types created in bootstrap</text><text fill="#000000" font-family="Verdana" font-size="14" lengthAdjust="spacing" textLength="172.6348" x="750.645" y="1218.6814">&#8226; Easy mocking for tests</text></g><!--SRC=[nLTDRnit4BtlhvWeXqhRI4BH9gW5f40iQGsZWMquJWEqAMfwbvPOSya5ISaMYW2zjASUYWAzjPV-DF-I3hzMkolPwAa13Eng-MOuysRcaNvYbhIaK772HA9lcAY88YNaigoaeCAyCHjEGT7S4B7WD4aCC_ZXZEGtP47XZL6htAmKVIzUuPFmkAA12PYJV0cloOOgw1_9GP9SesyAlKCfZJQAL7wn1q-pR7uudS5F2MotXjvLn8rppdf0DDIMqzV7Y1NIO71iiJGWhxkB06awjSuqCqmAECVbD7KBGtZ75CP8E8U2LbGKLEICwh0ubKAxnAJ2D7x4vD4-hBsgAivouZnYa6e3bMJ296xvyl9o8TtRhM86qvwyn7o4bfoEJkZjE_UnFt28bQPJegc5u6kEhnPof2WrR_rItplnyBmid3VEQXWcLn9Hz8EdGGm1dvYH8oVvK9D-XWbZm3xo1kzVp3_hybure6DIa0gZg4lGzEF2sAd3FeGjnimnhK6AILq7igLpdFjyzgnKKfan4rToLI-dQHD0bP8gJU7-hr-IM7eYC2mWUKwrZXlU__qR5BB4PX-dK8LMZHRdDATiZMtXWZx3FR7wcFeroMbq4AiMWXdLqFsa7mjyqN58QjhdBxBFiwnBEsk1jyJx1dBaEtzJ_s67zyxYVw7S4IjNfibiuCTH2ls2sU4VE6PtxKjPK1xvEouhZc8YZ0RVwPQNkA__CdAFVcxkda6f5mCufth57o2lEMerSrzcp-S7NUPsMi6HXVPpbmIsUPOT73ni4pelMathHdm07mOsuj_wdm_ZMpH7AylEwSefHxkECUwwBOVqpdhGhT84NZFChpNQtEajHjYLfD3kuApz8YkjN-iMFqAlwRxd4MPJKN3HNDYtbm4xgZzrK5yph6CRPJzv2REo2jyGpWeNgYzE3UuiFAvcCnTgGyUoW_cBRbkqyh6iUwleVXUv9dn5vPLL_0R-Z2gD-hzJfxOtMwflgP90xx3H1N4dYmvLEhFJxpS1BXSiTrzHegJ07k6-9ev6VmRviVZkudiefI15XuDFODOujA2VKojJGqqf7k0BEw9uhhbZAUhK8DaHPHWMybOClseqF4nits3Q5wUFuqF3H_oQaQrIFcxfQnxid5etLQk93EE1MBRL5QUqUoqQnMYvRsJNXlgg1cpIIEe1sDgtfyV6u1xPFIXRdVD-gAg7svOLX_cA5LZNxQra0tszH4lRZcickQDrNpb7hYz7xGsUAcghQe-zxFJyy7Wscv-y5oSIy9eaxBreJSC9cIISBcoJNKbZP9dOTewtl1DIshv2ojUu9-xeklh-pz__jp_SxaXwNhcyfSeMwXbeJlGIszxUMGqcMX6pr1CRsi__u0-5mOxp9UF5U87f5kxLWkny1fGMv8R-uEf-ZNoLM38sl9MgsDuEF70XHtZOGONQYiyLT_AQflCxOhlJdt8M5pYRmAwa14J6-DxbSULQRUJasWAjl4vWgpxnE7TTSOuXw8zH1vogze5p_-iVhJj1sg8EqPrBq2x-qprtCc_Ql09OkxquREwTW7Q0qB-Em_LauDayZf8rFCJw5nXdkEf_55gnuE7U7uRVtjeQ5wc6mdfqbBK6Ui_5jGQBN54ylTmP0_Zk9WQFe_gVh82S4xt15i_TKM9d0YKFrGcty0AH_0i0]--></g></svg>