<svg xmlns="http://www.w3.org/2000/svg" xmlns:xlink="http://www.w3.org/1999/xlink" contentStyleType="text/css" data-diagram-type="CLASS" height="2541px" preserveAspectRatio="none" style="width:989px;height:2541px;background:#FFFFFF;" version="1.1" viewBox="0 0 989 2541" width="989px" zoomAndPan="magnify"><title>Generic-Based Static Dispatch
Compile-Time Binding in Go (Application)</title><defs/><g><g class="title" data-source-line="4"><text fill="#000000" font-family="Verdana" font-size="22" font-weight="bold" lengthAdjust="spacing" textLength="372.6143" x="303.6929" y="37.1182">Generic-Based Static Dispatch</text><text fill="#000000" font-family="Verdana" font-size="22" font-weight="bold" lengthAdjust="spacing" textLength="513.1758" x="233.4121" y="63.8555">Compile-Time Binding in Go (Application)</text></g><!--cluster Infrastructure Layer--><g class="cluster" data-entity="Infrastructure Layer" data-source-line="6" data-uid="ent0002" id="cluster_Infrastructure Layer"><path d="M13.5,728.3546 L175.2266,728.3546 A3.75,3.75 0 0 1 177.7266,730.8546 L184.7266,751.3693 L276.5,751.3693 A2.5,2.5 0 0 1 279,753.8693 L279,886.4946 A2.5,2.5 0 0 1 276.5,888.9946 L13.5,888.9946 A2.5,2.5 0 0 1 11,886.4946 L11,730.8546 A2.5,2.5 0 0 1 13.5,728.3546" fill="#E6F3FF" style="stroke:#000000;stroke-width:1;"/><line style="stroke:#000000;stroke-width:1;" x1="11" x2="184.7266" y1="751.3693" y2="751.3693"/><text fill="#000000" font-family="Verdana" font-size="14" font-weight="bold" lengthAdjust="spacing" textLength="160.7266" x="15" y="744.4298">Infrastructure Layer</text></g><!--cluster Application Layer--><g class="cluster" data-entity="Application Layer" data-source-line="15" data-uid="ent0004" id="cluster_Application Layer"><path d="M184.5,921.5046 L322.2803,921.5046 A3.75,3.75 0 0 1 324.7803,924.0046 L331.7803,944.5193 L487.5,944.5193 A2.5,2.5 0 0 1 490,947.0193 L490,1502.1946 A2.5,2.5 0 0 1 487.5,1504.6946 L184.5,1504.6946 A2.5,2.5 0 0 1 182,1502.1946 L182,924.0046 A2.5,2.5 0 0 1 184.5,921.5046" fill="#E8F5E9" style="stroke:#000000;stroke-width:1;"/><line style="stroke:#000000;stroke-width:1;" x1="182" x2="331.7803" y1="944.5193" y2="944.5193"/><text fill="#000000" font-family="Verdana" font-size="14" font-weight="bold" lengthAdjust="spacing" textLength="136.7803" x="186" y="937.5798">Application Layer</text></g><!--cluster Presentation Layer--><g class="cluster" data-entity="Presentation Layer" data-source-line="34" data-uid="ent0007" id="cluster_Presentation Layer"><path d="M355.5,719.8446 L505.4961,719.8446 A3.75,3.75 0 0 1 507.9961,722.3446 L514.9961,742.8593 L586.5,742.8593 A2.5,2.5 0 0 1 589,745.3593 L589,895.0046 A2.5,2.5 0 0 1 586.5,897.5046 L355.5,897.5046 A2.5,2.5 0 0 1 353,895.0046 L353,722.3446 A2.5,2.5 0 0 1 355.5,719.8446" fill="#FFE4E1" style="stroke:#000000;stroke-width:1;"/><line style="stroke:#000000;stroke-width:1;" x1="353" x2="514.9961" y1="742.8593" y2="742.8593"/><text fill="#000000" font-family="Verdana" font-size="14" font-weight="bold" lengthAdjust="spacing" textLength="148.9961" x="357" y="735.9198">Presentation Layer</text></g><!--cluster Bootstrap Layer--><g class="cluster" data-entity="Bootstrap Layer" data-source-line="44" data-uid="ent0009" id="cluster_Bootstrap Layer"><path d="M212.5,291.8346 L338.9736,291.8346 A3.75,3.75 0 0 1 341.4736,294.3346 L348.4736,314.8493 L419.5,314.8493 A2.5,2.5 0 0 1 422,317.3493 L422,466.9946 A2.5,2.5 0 0 1 419.5,469.4946 L212.5,469.4946 A2.5,2.5 0 0 1 210,466.9946 L210,294.3346 A2.5,2.5 0 0 1 212.5,291.8346" fill="#FFEBCD" style="stroke:#000000;stroke-width:1;"/><line style="stroke:#000000;stroke-width:1;" x1="210" x2="348.4736" y1="314.8493" y2="314.8493"/><text fill="#000000" font-family="Verdana" font-size="14" font-weight="bold" lengthAdjust="spacing" textLength="125.4736" x="214" y="307.9098">Bootstrap Layer</text></g><!--class CW--><g class="entity" data-entity="CW" data-source-line="7" data-uid="ent0003" id="entity_CW"><rect fill="#FFFFFF" height="108.6426" rx="2.5" ry="2.5" style="stroke:#000000;stroke-width:1;" width="235.9414" x="27.03" y="764.3546"/><ellipse cx="90.6477" cy="785.1539" fill="#FFFFFF" rx="9" ry="9" style="stroke:#000000;stroke-width:1;"/><path d="M93.1208,791.297 Q92.5398,791.5958 91.9006,791.7452 Q91.2614,791.8946 90.5559,791.8946 Q88.049,791.8946 86.7292,790.2428 Q85.4094,788.5909 85.4094,785.4698 Q85.4094,782.3404 86.7292,780.6886 Q88.049,779.0367 90.5559,779.0367 Q91.2614,779.0367 91.9089,779.1862 Q92.5564,779.3356 93.1208,779.6344 L93.1208,782.3571 Q92.49,781.776 91.8965,781.5062 Q91.3029,781.2364 90.6721,781.2364 Q89.3274,781.2364 88.6425,782.3031 Q87.9577,783.3697 87.9577,785.4698 Q87.9577,787.5616 88.6425,788.6283 Q89.3274,789.6949 90.6721,789.6949 Q91.3029,789.6949 91.8965,789.4252 Q92.49,789.1554 93.1208,788.5743 Z " fill="#000000"/><text fill="#000000" font-family="Verdana" font-size="12" font-style="italic" lengthAdjust="spacing" textLength="50.1445" x="133.6784" y="781.4191">&#171;struct&#187;</text><text fill="#000000" font-family="Verdana" font-size="14" lengthAdjust="spacing" textLength="101.2061" x="108.1477" y="798.0138">console.Writer</text><line style="stroke:#000000;stroke-width:1;" x1="28.03" x2="261.9714" y1="805.9532" y2="805.9532"/><ellipse cx="38.03" cy="819.9606" fill="#FFFFFF" rx="3" ry="3" style="stroke:#000000;stroke-width:1;"/><text fill="#000000" font-family="Verdana" font-size="14" lengthAdjust="spacing" textLength="211.9414" x="45.03" y="824.0284">Write(ctx, msg) : Result[Unit]</text><line style="stroke:#000000;stroke-width:1;" x1="28.03" x2="261.9714" y1="830.9679" y2="830.9679"/><text fill="#000000" font-family="Verdana" font-size="14" lengthAdjust="spacing" textLength="177.3379" x="33.03" y="849.0431">Concrete implementation</text><text fill="#000000" font-family="Verdana" font-size="14" lengthAdjust="spacing" textLength="97.9453" x="33.03" y="866.0577">of output port</text></g><!--class Port--><g class="entity" data-entity="Port" data-source-line="16" data-uid="ent0005" id="entity_Port"><rect fill="#FFFFFF" height="125.6572" rx="2.5" ry="2.5" style="stroke:#000000;stroke-width:1;" width="235.9414" x="208.03" y="1363.0346"/><ellipse cx="250.4768" cy="1383.8339" fill="#FFFFFF" rx="9" ry="9" style="stroke:#000000;stroke-width:1;"/><path d="M252.9499,1389.977 Q252.3689,1390.2758 251.7297,1390.4252 Q251.0905,1390.5746 250.385,1390.5746 Q247.8781,1390.5746 246.5583,1388.9228 Q245.2385,1387.2709 245.2385,1384.1498 Q245.2385,1381.0204 246.5583,1379.3686 Q247.8781,1377.7167 250.385,1377.7167 Q251.0905,1377.7167 251.738,1377.8662 Q252.3855,1378.0156 252.9499,1378.3144 L252.9499,1381.0371 Q252.3191,1380.456 251.7256,1380.1862 Q251.1321,1379.9164 250.5012,1379.9164 Q249.1565,1379.9164 248.4717,1380.9831 Q247.7868,1382.0497 247.7868,1384.1498 Q247.7868,1386.2416 248.4717,1387.3083 Q249.1565,1388.3749 250.5012,1388.3749 Q251.1321,1388.3749 251.7256,1388.1052 Q252.3191,1387.8354 252.9499,1387.2543 Z " fill="#000000"/><text fill="#000000" font-family="Verdana" font-size="12" font-style="italic" lengthAdjust="spacing" textLength="132.4512" x="273.5251" y="1380.0991">&#171;interface constraint&#187;</text><text fill="#000000" font-family="Verdana" font-size="14" lengthAdjust="spacing" textLength="143.5479" x="267.9768" y="1396.6938">outbound.WriterPort</text><line style="stroke:#000000;stroke-width:1;" x1="209.03" x2="442.9714" y1="1404.6332" y2="1404.6332"/><ellipse cx="219.03" cy="1418.6406" fill="#FFFFFF" rx="3" ry="3" style="stroke:#000000;stroke-width:1;"/><text fill="#000000" font-family="Verdana" font-size="14" lengthAdjust="spacing" textLength="211.9414" x="226.03" y="1422.7084">Write(ctx, msg) : Result[Unit]</text><line style="stroke:#000000;stroke-width:1;" x1="209.03" x2="442.9714" y1="1429.6479" y2="1429.6479"/><text fill="#000000" font-family="Verdana" font-size="14" font-weight="bold" lengthAdjust="spacing" textLength="124.373" x="214.03" y="1447.7231">Type Constraint</text><text fill="#000000" font-family="Verdana" font-size="14" lengthAdjust="spacing" textLength="181.9316" x="214.03" y="1464.7377">Defines required behavior</text><text fill="#000000" font-family="Verdana" font-size="14" lengthAdjust="spacing" textLength="153.9111" x="214.03" y="1481.7524">for generic parameter</text></g><!--class UC--><g class="entity" data-entity="UC" data-source-line="24" data-uid="ent0006" id="entity_UC"><rect fill="#FFFFFF" height="142.6719" rx="2.5" ry="2.5" style="stroke:#000000;stroke-width:1;" width="275.4229" x="198.29" y="957.5046"/><ellipse cx="239.1494" cy="978.3039" fill="#FFFFFF" rx="9" ry="9" style="stroke:#000000;stroke-width:1;"/><path d="M241.6225,984.447 Q241.0415,984.7458 240.4023,984.8952 Q239.7631,985.0446 239.0576,985.0446 Q236.5507,985.0446 235.2309,983.3928 Q233.9111,981.7409 233.9111,978.6198 Q233.9111,975.4904 235.2309,973.8386 Q236.5507,972.1867 239.0576,972.1867 Q239.7631,972.1867 240.4106,972.3362 Q241.0581,972.4856 241.6225,972.7844 L241.6225,975.5071 Q240.9917,974.926 240.3982,974.6562 Q239.8046,974.3864 239.1738,974.3864 Q237.8291,974.3864 237.1442,975.4531 Q236.4594,976.5197 236.4594,978.6198 Q236.4594,980.7116 237.1442,981.7783 Q237.8291,982.8449 239.1738,982.8449 Q239.8046,982.8449 240.3982,982.5752 Q240.9917,982.3054 241.6225,981.7243 Z " fill="#000000"/><text fill="#000000" font-family="Verdana" font-size="12" font-style="italic" lengthAdjust="spacing" textLength="98.3789" x="300.562" y="974.5691">&#171;generic struct&#187;</text><text fill="#000000" font-family="Verdana" font-size="14" lengthAdjust="spacing" textLength="186.2041" x="256.6494" y="991.1638">usecase.GreetUseCase[W]</text><line style="stroke:#000000;stroke-width:1;" x1="199.29" x2="472.7129" y1="999.1032" y2="999.1032"/><rect fill="none" height="6" style="stroke:#000000;stroke-width:1;" width="6" x="206.29" y="1010.1106"/><text fill="#000000" font-family="Verdana" font-size="14" lengthAdjust="spacing" textLength="71.1484" x="216.29" y="1017.1784">writer : W</text><ellipse cx="209.29" cy="1030.1252" fill="#FFFFFF" rx="3" ry="3" style="stroke:#000000;stroke-width:1;"/><text fill="#000000" font-family="Verdana" font-size="14" lengthAdjust="spacing" textLength="229.9131" x="216.29" y="1034.1931">Execute(ctx, cmd) : Result[Unit]</text><line style="stroke:#000000;stroke-width:1;" x1="199.29" x2="472.7129" y1="1041.1325" y2="1041.1325"/><text fill="#000000" font-family="Verdana" font-size="14" font-weight="bold" lengthAdjust="spacing" textLength="135.5293" x="204.29" y="1059.2077">Generic Use Case</text><text fill="#000000" font-family="Verdana" font-size="14" lengthAdjust="spacing" textLength="199.1445" x="204.29" y="1076.2224">W constrained by WriterPort</text><text fill="#000000" font-family="Verdana" font-size="14" lengthAdjust="spacing" textLength="263.4229" x="204.29" y="1093.237">Concrete type known at compile time</text></g><!--class CLI--><g class="entity" data-entity="CLI" data-source-line="35" data-uid="ent0008" id="entity_CLI"><rect fill="#FFFFFF" height="125.6572" rx="2.5" ry="2.5" style="stroke:#000000;stroke-width:1;" width="203.6934" x="369.15" y="755.8446"/><ellipse cx="391.8382" cy="776.6439" fill="#FFFFFF" rx="9" ry="9" style="stroke:#000000;stroke-width:1;"/><path d="M394.3113,782.787 Q393.7303,783.0858 393.0911,783.2352 Q392.452,783.3846 391.7464,783.3846 Q389.2396,783.3846 387.9197,781.7328 Q386.5999,780.0809 386.5999,776.9598 Q386.5999,773.8304 387.9197,772.1786 Q389.2396,770.5267 391.7464,770.5267 Q392.452,770.5267 393.0994,770.6762 Q393.7469,770.8256 394.3113,771.1244 L394.3113,773.8471 Q393.6805,773.266 393.087,772.9962 Q392.4935,772.7264 391.8626,772.7264 Q390.5179,772.7264 389.8331,773.7931 Q389.1482,774.8597 389.1482,776.9598 Q389.1482,779.0516 389.8331,780.1183 Q390.5179,781.1849 391.8626,781.1849 Q392.4935,781.1849 393.087,780.9152 Q393.6805,780.6454 394.3113,780.0643 Z " fill="#000000"/><text fill="#000000" font-family="Verdana" font-size="12" font-style="italic" lengthAdjust="spacing" textLength="98.3789" x="433.8837" y="772.9091">&#171;generic struct&#187;</text><text fill="#000000" font-family="Verdana" font-size="14" lengthAdjust="spacing" textLength="154.1641" x="405.9911" y="789.5038">cli.GreetCommand[G]</text><line style="stroke:#000000;stroke-width:1;" x1="370.15" x2="571.8434" y1="797.4432" y2="797.4432"/><rect fill="none" height="6" style="stroke:#000000;stroke-width:1;" width="6" x="377.15" y="808.4506"/><text fill="#000000" font-family="Verdana" font-size="14" lengthAdjust="spacing" textLength="85.3672" x="387.15" y="815.5184">useCase : G</text><ellipse cx="380.15" cy="828.4652" fill="#FFFFFF" rx="3" ry="3" style="stroke:#000000;stroke-width:1;"/><text fill="#000000" font-family="Verdana" font-size="14" lengthAdjust="spacing" textLength="74.5869" x="387.15" y="832.5331">Run() : int</text><line style="stroke:#000000;stroke-width:1;" x1="370.15" x2="571.8434" y1="839.4725" y2="839.4725"/><text fill="#000000" font-family="Verdana" font-size="14" font-weight="bold" lengthAdjust="spacing" textLength="158.6006" x="375.15" y="857.5477">Generic CLI Adapter</text><text fill="#000000" font-family="Verdana" font-size="14" lengthAdjust="spacing" textLength="191.6934" x="375.15" y="874.5624">G constrained by GreetPort</text></g><!--class Bootstrap--><g class="entity" data-entity="Bootstrap" data-source-line="45" data-uid="ent0010" id="entity_Bootstrap"><rect fill="#FFFFFF" height="125.6572" rx="2.5" ry="2.5" style="stroke:#000000;stroke-width:1;" width="180.3486" x="225.83" y="327.8346"/><ellipse cx="256.7531" cy="348.6339" fill="#FFFFFF" rx="9" ry="9" style="stroke:#000000;stroke-width:1;"/><path d="M259.2262,354.777 Q258.6452,355.0758 258.006,355.2252 Q257.3669,355.3746 256.6613,355.3746 Q254.1545,355.3746 252.8346,353.7228 Q251.5148,352.0709 251.5148,348.9498 Q251.5148,345.8204 252.8346,344.1686 Q254.1545,342.5167 256.6613,342.5167 Q257.3669,342.5167 258.0143,342.6662 Q258.6618,342.8156 259.2262,343.1144 L259.2262,345.8371 Q258.5954,345.256 258.0019,344.9862 Q257.4084,344.7164 256.7775,344.7164 Q255.4328,344.7164 254.748,345.7831 Q254.0632,346.8497 254.0632,348.9498 Q254.0632,351.0416 254.748,352.1083 Q255.4328,353.1749 256.7775,353.1749 Q257.4084,353.1749 258.0019,352.9052 Q258.5954,352.6354 259.2262,352.0543 Z " fill="#000000"/><text fill="#000000" font-family="Verdana" font-size="12" font-style="italic" lengthAdjust="spacing" textLength="116.5195" x="270.736" y="344.8991">&#171;composition root&#187;</text><text fill="#000000" font-family="Verdana" font-size="14" lengthAdjust="spacing" textLength="95.7031" x="281.1442" y="361.4938">bootstrap.CLI</text><line style="stroke:#000000;stroke-width:1;" x1="226.83" x2="405.1786" y1="369.4332" y2="369.4332"/><ellipse cx="236.83" cy="383.4406" fill="#FFFFFF" rx="3" ry="3" style="stroke:#000000;stroke-width:1;"/><text fill="#000000" font-family="Verdana" font-size="14" lengthAdjust="spacing" textLength="74.5869" x="243.83" y="387.5084">Run() : int</text><line style="stroke:#000000;stroke-width:1;" x1="226.83" x2="405.1786" y1="394.4479" y2="394.4479"/><text fill="#000000" font-family="Verdana" font-size="14" font-weight="bold" lengthAdjust="spacing" textLength="139.1318" x="231.83" y="412.5231">Composition Root</text><text fill="#000000" font-family="Verdana" font-size="14" lengthAdjust="spacing" textLength="168.3486" x="231.83" y="429.5377">Instantiates all generics</text><text fill="#000000" font-family="Verdana" font-size="14" lengthAdjust="spacing" textLength="137.792" x="231.83" y="446.5524">with concrete types</text></g><g class="entity" data-entity="GMN17" data-source-line="63" data-uid="ent0018" id="entity_GMN17"><path d="M441,85.4746 L441,386.3446 L406.66,390.3446 L441,394.3446 L441,695.8486 A0,0 0 0 0 441,695.8486 L917,695.8486 A0,0 0 0 0 917,695.8486 L917,95.4746 L907,85.4746 L441,85.4746 A0,0 0 0 0 441,85.4746" fill="#CCFFCC" style="stroke:#000000;stroke-width:1;"/><path d="M907,85.4746 L907,95.4746 L917,95.4746 L907,85.4746" fill="#CCFFCC" style="stroke:#000000;stroke-width:1;"/><text fill="#000000" font-family="Verdana" font-size="13" font-weight="bold" lengthAdjust="spacing" textLength="149.043" x="447" y="103.5444">bootstrap/cli Wiring</text><text fill="#000000" font-family="Verdana" font-size="13" lengthAdjust="spacing" textLength="455" x="447" y="119.3438">&#9552;&#9552;&#9552;&#9552;&#9552;&#9552;&#9552;&#9552;&#9552;&#9552;&#9552;&#9552;&#9552;&#9552;&#9552;&#9552;&#9552;&#9552;&#9552;&#9552;&#9552;&#9552;&#9552;&#9552;&#9552;&#9552;&#9552;&#9552;&#9552;&#9552;&#9552;&#9552;&#9552;&#9552;&#9552;</text><text fill="#000000" font-family="Verdana" font-size="13" lengthAdjust="spacing" textLength="4.5703" x="447" y="135.1431">&#160;</text><text fill="#000000" font-family="Verdana" font-size="13" lengthAdjust="spacing" textLength="40.7837" x="447" y="150.9424">```go</text><text fill="#000000" font-family="Verdana" font-size="13" lengthAdjust="spacing" textLength="181.9556" x="447" y="166.7417">// Located in: bootstrap/cli/</text><text fill="#000000" font-family="Verdana" font-size="13" lengthAdjust="spacing" textLength="99.4487" x="447" y="182.541">// bootstrap.go</text><text fill="#000000" font-family="Verdana" font-size="13" lengthAdjust="spacing" textLength="4.5703" x="447" y="198.3403">&#160;</text><text fill="#000000" font-family="Verdana" font-size="13" lengthAdjust="spacing" textLength="72.5029" x="447" y="214.1396">package cli</text><text fill="#000000" font-family="Verdana" font-size="13" lengthAdjust="spacing" textLength="4.5703" x="447" y="229.939">&#160;</text><text fill="#000000" font-family="Verdana" font-size="13" lengthAdjust="spacing" textLength="53.3457" x="447" y="245.7383">import (</text><text fill="#000000" font-family="Verdana" font-size="13" lengthAdjust="spacing" textLength="311.0098" x="465.2813" y="261.5376">"github.com/.../infrastructure/adapter/console"</text><text fill="#000000" font-family="Verdana" font-size="13" lengthAdjust="spacing" textLength="239.5796" x="465.2813" y="277.3369">"github.com/.../application/usecase"</text><text fill="#000000" font-family="Verdana" font-size="13" lengthAdjust="spacing" textLength="269.1216" x="465.2813" y="293.1362">"github.com/.../presentation/adapter/cli"</text><text fill="#000000" font-family="Verdana" font-size="13" lengthAdjust="spacing" textLength="5.9033" x="447" y="308.9355">)</text><text fill="#000000" font-family="Verdana" font-size="13" lengthAdjust="spacing" textLength="4.5703" x="447" y="324.7349">&#160;</text><text fill="#000000" font-family="Verdana" font-size="13" lengthAdjust="spacing" textLength="274.9551" x="447" y="340.5342">// Concrete types for generic instantiation</text><text fill="#000000" font-family="Verdana" font-size="13" lengthAdjust="spacing" textLength="39.1333" x="447" y="356.3335">type (</text><text fill="#000000" font-family="Verdana" font-size="13" lengthAdjust="spacing" textLength="199.1133" x="465.2813" y="372.1328">writerImpl   = *console.Writer</text><text fill="#000000" font-family="Verdana" font-size="13" lengthAdjust="spacing" textLength="344.5444" x="465.2813" y="387.9321">useCaseImpl  = *usecase.GreetUseCase[writerImpl]</text><text fill="#000000" font-family="Verdana" font-size="13" lengthAdjust="spacing" textLength="5.9033" x="447" y="403.7314">)</text><text fill="#000000" font-family="Verdana" font-size="13" lengthAdjust="spacing" textLength="4.5703" x="447" y="419.5308">&#160;</text><text fill="#000000" font-family="Verdana" font-size="13" lengthAdjust="spacing" textLength="103.9746" x="447" y="435.3301">func Run() int {</text><text fill="#000000" font-family="Verdana" font-size="13" lengthAdjust="spacing" textLength="152.7944" x="465.2813" y="451.1294">// Create infrastructure</text><text fill="#000000" font-family="Verdana" font-size="13" lengthAdjust="spacing" textLength="197.7422" x="465.2813" y="466.9287">writer := console.NewWriter()</text><text fill="#000000" font-family="Verdana" font-size="13" lengthAdjust="spacing" textLength="4.5703" x="447" y="482.728">&#160;</text><text fill="#000000" font-family="Verdana" font-size="13" lengthAdjust="spacing" textLength="200.624" x="465.2813" y="498.5273">// Instantiate generic use case</text><text fill="#000000" font-family="Verdana" font-size="13" lengthAdjust="spacing" textLength="384.6172" x="465.2813" y="514.3267">greetUC := usecase.NewGreetUseCase[writerImpl](writer)</text><text fill="#000000" font-family="Verdana" font-size="13" lengthAdjust="spacing" textLength="4.5703" x="447" y="530.126">&#160;</text><text fill="#000000" font-family="Verdana" font-size="13" lengthAdjust="spacing" textLength="234.6538" x="465.2813" y="545.9253">// Instantiate generic CLI command</text><text fill="#000000" font-family="Verdana" font-size="13" lengthAdjust="spacing" textLength="399.5278" x="465.2813" y="561.7246">greetCmd := cli.NewGreetCommand[useCaseImpl](greetUC)</text><text fill="#000000" font-family="Verdana" font-size="13" lengthAdjust="spacing" textLength="4.5703" x="447" y="577.5239">&#160;</text><text fill="#000000" font-family="Verdana" font-size="13" lengthAdjust="spacing" textLength="67.9009" x="465.2813" y="593.3232">// Execute</text><text fill="#000000" font-family="Verdana" font-size="13" lengthAdjust="spacing" textLength="151.0933" x="465.2813" y="609.1226">return greetCmd.Run()</text><text fill="#000000" font-family="Verdana" font-size="13" lengthAdjust="spacing" textLength="8.252" x="447" y="624.9219">}</text><text fill="#000000" font-family="Verdana" font-size="13" lengthAdjust="spacing" textLength="24.7939" x="447" y="640.7212">```</text><text fill="#000000" font-family="Verdana" font-size="13" lengthAdjust="spacing" textLength="4.5703" x="447" y="656.5205">&#160;</text><text fill="#000000" font-family="Verdana" font-size="13" font-weight="bold" lengthAdjust="spacing" textLength="32.3477" x="447" y="672.3198">Key:</text><text fill="#000000" font-family="Verdana" font-size="13" lengthAdjust="spacing" textLength="172.8911" x="483.918" y="672.3198">Type aliases make generic</text><text fill="#000000" font-family="Verdana" font-size="13" lengthAdjust="spacing" textLength="187.9604" x="447" y="688.1191">instantiation chains readable</text></g><g class="entity" data-entity="GMN20" data-source-line="104" data-uid="ent0021" id="entity_GMN20"><path d="M506,1160.1746 L506,1691.5521 L982,1691.5521 L982,1170.1746 L972,1160.1746 L506,1160.1746" fill="#FFFFFF" style="stroke:#000000;stroke-width:1;"/><path d="M972,1160.1746 L972,1170.1746 L982,1170.1746 L972,1160.1746" fill="#FFFFFF" style="stroke:#000000;stroke-width:1;"/><text fill="#000000" font-family="Verdana" font-size="13" font-weight="bold" lengthAdjust="spacing" textLength="201.9063" x="512" y="1178.2444">Generic Use Case Definition</text><text fill="#000000" font-family="Verdana" font-size="13" lengthAdjust="spacing" textLength="455" x="512" y="1194.0437">&#9552;&#9552;&#9552;&#9552;&#9552;&#9552;&#9552;&#9552;&#9552;&#9552;&#9552;&#9552;&#9552;&#9552;&#9552;&#9552;&#9552;&#9552;&#9552;&#9552;&#9552;&#9552;&#9552;&#9552;&#9552;&#9552;&#9552;&#9552;&#9552;&#9552;&#9552;&#9552;&#9552;&#9552;&#9552;</text><text fill="#000000" font-family="Verdana" font-size="13" lengthAdjust="spacing" textLength="4.5703" x="512" y="1209.8431">&#160;</text><text fill="#000000" font-family="Verdana" font-size="13" lengthAdjust="spacing" textLength="40.7837" x="512" y="1225.6424">```go</text><text fill="#000000" font-family="Verdana" font-size="13" lengthAdjust="spacing" textLength="110.4365" x="512" y="1241.4417">package usecase</text><text fill="#000000" font-family="Verdana" font-size="13" lengthAdjust="spacing" textLength="4.5703" x="512" y="1257.241">&#160;</text><text fill="#000000" font-family="Verdana" font-size="13" lengthAdjust="spacing" textLength="277.8813" x="512" y="1273.0403">// W is constrained by WriterPort interface</text><text fill="#000000" font-family="Verdana" font-size="13" lengthAdjust="spacing" textLength="342.3862" x="512" y="1288.8396">type GreetUseCase[W outbound.WriterPort] struct {</text><text fill="#000000" font-family="Verdana" font-size="13" lengthAdjust="spacing" textLength="55.5928" x="530.2813" y="1304.639">writer W</text><text fill="#000000" font-family="Verdana" font-size="13" lengthAdjust="spacing" textLength="8.252" x="512" y="1320.4383">}</text><text fill="#000000" font-family="Verdana" font-size="13" lengthAdjust="spacing" textLength="4.5703" x="512" y="1336.2376">&#160;</text><text fill="#000000" font-family="Verdana" font-size="13" lengthAdjust="spacing" textLength="320.5757" x="512" y="1352.0369">func NewGreetUseCase[W outbound.WriterPort](</text><text fill="#000000" font-family="Verdana" font-size="13" lengthAdjust="spacing" textLength="32.792" x="530.2813" y="1367.8362">w W,</text><text fill="#000000" font-family="Verdana" font-size="13" lengthAdjust="spacing" textLength="147.894" x="512" y="1383.6355">) *GreetUseCase[W] {</text><text fill="#000000" font-family="Verdana" font-size="13" lengthAdjust="spacing" textLength="246.5493" x="530.2813" y="1399.4349">return &amp;GreetUseCase[W]{writer: w}</text><text fill="#000000" font-family="Verdana" font-size="13" lengthAdjust="spacing" textLength="8.252" x="512" y="1415.2342">}</text><text fill="#000000" font-family="Verdana" font-size="13" lengthAdjust="spacing" textLength="4.5703" x="512" y="1431.0335">&#160;</text><text fill="#000000" font-family="Verdana" font-size="13" lengthAdjust="spacing" textLength="250.3389" x="512" y="1446.8328">func (uc *GreetUseCase[W]) Execute(</text><text fill="#000000" font-family="Verdana" font-size="13" lengthAdjust="spacing" textLength="133.0659" x="530.2813" y="1462.6321">ctx context.Context,</text><text fill="#000000" font-family="Verdana" font-size="13" lengthAdjust="spacing" textLength="208.2603" x="530.2813" y="1478.4314">cmd command.GreetCommand,</text><text fill="#000000" font-family="Verdana" font-size="13" lengthAdjust="spacing" textLength="198.8848" x="512" y="1494.2308">) domerr.Result[model.Unit] {</text><text fill="#000000" font-family="Verdana" font-size="13" lengthAdjust="spacing" textLength="191.585" x="530.2813" y="1510.0301">// Validate and create Person</text><text fill="#000000" font-family="Verdana" font-size="13" lengthAdjust="spacing" textLength="371.1538" x="530.2813" y="1525.8294">personResult := valueobject.CreatePerson(cmd.Name())</text><text fill="#000000" font-family="Verdana" font-size="13" lengthAdjust="spacing" textLength="158.3804" x="530.2813" y="1541.6287">if personResult.IsErr() {</text><text fill="#000000" font-family="Verdana" font-size="13" lengthAdjust="spacing" textLength="345.2681" x="548.5625" y="1557.428">return domerr.Err[model.Unit](personResult.Error())</text><text fill="#000000" font-family="Verdana" font-size="13" lengthAdjust="spacing" textLength="8.252" x="530.2813" y="1573.2273">}</text><text fill="#000000" font-family="Verdana" font-size="13" lengthAdjust="spacing" textLength="4.5703" x="512" y="1589.0267">&#160;</text><text fill="#000000" font-family="Verdana" font-size="13" lengthAdjust="spacing" textLength="187.478" x="530.2813" y="1604.826">// Format and write greeting</text><text fill="#000000" font-family="Verdana" font-size="13" lengthAdjust="spacing" textLength="266.0049" x="530.2813" y="1620.6253">// uc.writer.Write is statically dispatched</text><text fill="#000000" font-family="Verdana" font-size="13" lengthAdjust="spacing" textLength="417.022" x="530.2813" y="1636.4246">msg := fmt.Sprintf("Hello, %s!", personResult.Value().Name())</text><text fill="#000000" font-family="Verdana" font-size="13" lengthAdjust="spacing" textLength="210.6597" x="530.2813" y="1652.2239">return uc.writer.Write(ctx, msg)</text><text fill="#000000" font-family="Verdana" font-size="13" lengthAdjust="spacing" textLength="8.252" x="512" y="1668.0232">}</text><text fill="#000000" font-family="Verdana" font-size="13" lengthAdjust="spacing" textLength="24.7939" x="512" y="1683.8226">```</text></g><g class="entity" data-entity="GMN23" data-source-line="140" data-uid="ent0024" id="entity_GMN23"><path d="M88,1751.5546 L88,2014.3437 A0,0 0 0 0 88,2014.3437 L564,2014.3437 A0,0 0 0 0 564,2014.3437 L564,1761.5546 L554,1751.5546 L330,1751.5546 L326,1488.9446 L322,1751.5546 L88,1751.5546 A0,0 0 0 0 88,1751.5546" fill="#FFFFFF" style="stroke:#000000;stroke-width:1;"/><path d="M554,1751.5546 L554,1761.5546 L564,1761.5546 L554,1751.5546" fill="#FFFFFF" style="stroke:#000000;stroke-width:1;"/><text fill="#000000" font-family="Verdana" font-size="13" font-weight="bold" lengthAdjust="spacing" textLength="208.603" x="94" y="1769.6244">Interface as Type Constraint</text><text fill="#000000" font-family="Verdana" font-size="13" lengthAdjust="spacing" textLength="455" x="94" y="1785.4238">&#9552;&#9552;&#9552;&#9552;&#9552;&#9552;&#9552;&#9552;&#9552;&#9552;&#9552;&#9552;&#9552;&#9552;&#9552;&#9552;&#9552;&#9552;&#9552;&#9552;&#9552;&#9552;&#9552;&#9552;&#9552;&#9552;&#9552;&#9552;&#9552;&#9552;&#9552;&#9552;&#9552;&#9552;&#9552;</text><text fill="#000000" font-family="Verdana" font-size="13" lengthAdjust="spacing" textLength="4.5703" x="94" y="1801.2231">&#160;</text><text fill="#000000" font-family="Verdana" font-size="13" lengthAdjust="spacing" textLength="40.7837" x="94" y="1817.0224">```go</text><text fill="#000000" font-family="Verdana" font-size="13" lengthAdjust="spacing" textLength="120.377" x="94" y="1832.8217">package outbound</text><text fill="#000000" font-family="Verdana" font-size="13" lengthAdjust="spacing" textLength="4.5703" x="94" y="1848.621">&#160;</text><text fill="#000000" font-family="Verdana" font-size="13" lengthAdjust="spacing" textLength="252.0146" x="94" y="1864.4203">// WriterPort serves as type constraint</text><text fill="#000000" font-family="Verdana" font-size="13" lengthAdjust="spacing" textLength="166.0674" x="94" y="1880.2196">// for generic parameters</text><text fill="#000000" font-family="Verdana" font-size="13" lengthAdjust="spacing" textLength="174.5098" x="94" y="1896.019">type WriterPort interface {</text><text fill="#000000" font-family="Verdana" font-size="13" lengthAdjust="spacing" textLength="253.7031" x="112.2813" y="1911.8183">Write(ctx context.Context, msg string)</text><text fill="#000000" font-family="Verdana" font-size="13" lengthAdjust="spacing" textLength="175.5889" x="130.5625" y="1927.6176">domerr.Result[model.Unit]</text><text fill="#000000" font-family="Verdana" font-size="13" lengthAdjust="spacing" textLength="8.252" x="94" y="1943.4169">}</text><text fill="#000000" font-family="Verdana" font-size="13" lengthAdjust="spacing" textLength="24.7939" x="94" y="1959.2162">```</text><text fill="#000000" font-family="Verdana" font-size="13" lengthAdjust="spacing" textLength="4.5703" x="94" y="1975.0155">&#160;</text><text fill="#000000" font-family="Verdana" font-size="13" font-weight="bold" lengthAdjust="spacing" textLength="32.3477" x="94" y="1990.8149">Key:</text><text fill="#000000" font-family="Verdana" font-size="13" lengthAdjust="spacing" textLength="187.9287" x="130.918" y="1990.8149">Interface used as constraint,</text><text fill="#000000" font-family="Verdana" font-size="13" lengthAdjust="spacing" textLength="162.2397" x="94" y="2006.6142">not for dynamic dispatch</text></g><!--link CW to Port--><g class="link" data-entity-1="CW" data-entity-2="Port" data-source-line="55" data-uid="lnk11" id="link_CW_Port"><path codeLine="55" d="M143.14,873.4046 C143.14,1022.7746 143.14,1426.3446 143.14,1426.3446 C143.14,1426.3446 154.46,1426.3446 189.61,1426.3446" fill="none" id="CW-to-Port" style="stroke:#000000;stroke-width:1;stroke-dasharray:7,7;"/><polygon fill="none" points="207.61,1426.3446,189.61,1420.3446,189.61,1432.3446,207.61,1426.3446" style="stroke:#000000;stroke-width:1;"/><text fill="#000000" font-family="Verdana" font-size="13" lengthAdjust="spacing" textLength="122.3257" x="20.14" y="1179.1844">satisfies constraint</text></g><!--link UC to Port--><g class="link" data-entity-1="UC" data-entity-2="Port" data-source-line="56" data-uid="lnk12" id="link_UC_Port"><path codeLine="56" d="M326,1112.2846 C326,1187.0746 326,1285.3746 326,1356.8546" fill="none" id="UC-Port" style="stroke:#000000;stroke-width:1;"/><polygon fill="none" points="326,1100.2846,322,1106.2846,326,1112.2846,330,1106.2846,326,1100.2846" style="stroke:#000000;stroke-width:1;"/><polygon fill="#000000" points="326,1362.8546,330,1353.8546,326,1357.8546,322,1353.8546,326,1362.8546" style="stroke:#000000;stroke-width:1;"/><text fill="#000000" font-family="Verdana" font-size="13" lengthAdjust="spacing" textLength="118.7202" x="207" y="1228.6344">type parameter W</text></g><!--link CLI to UC--><g class="link" data-entity-1="CLI" data-entity-2="UC" data-source-line="57" data-uid="lnk13" id="link_CLI_UC"><path codeLine="57" d="M421.43,893.7346 C421.43,917.5546 421.43,926.8246 421.43,951.3546" fill="none" id="CLI-UC" style="stroke:#000000;stroke-width:1;"/><polygon fill="none" points="421.43,881.7346,417.43,887.7346,421.43,893.7346,425.43,887.7346,421.43,881.7346" style="stroke:#000000;stroke-width:1;"/><polygon fill="#000000" points="421.43,957.3546,425.43,948.3546,421.43,952.3546,417.43,948.3546,421.43,957.3546" style="stroke:#000000;stroke-width:1;"/><text fill="#000000" font-family="Verdana" font-size="13" lengthAdjust="spacing" textLength="115.9463" x="305.43" y="916.6144">type parameter G</text></g><!--link Bootstrap to CW--><g class="link" data-entity-1="Bootstrap" data-entity-2="CW" data-source-line="58" data-uid="lnk14" id="link_Bootstrap_CW"><path codeLine="58" d="M244.4,453.8146 C244.4,537.7646 244.4,678.7146 244.4,758.0946" fill="none" id="Bootstrap-to-CW" style="stroke:#000000;stroke-width:1;"/><polygon fill="#000000" points="244.4,764.0946,248.4,755.0946,244.4,759.0946,240.4,755.0946,244.4,764.0946" style="stroke:#000000;stroke-width:1;"/><text fill="#000000" font-family="Verdana" font-size="13" lengthAdjust="spacing" textLength="107.9863" x="136.4" y="606.0244">instantiates with</text></g><!--link Bootstrap to UC--><g class="link" data-entity-1="Bootstrap" data-entity-2="UC" data-source-line="59" data-uid="lnk15" id="link_Bootstrap_UC"><path codeLine="59" d="M316.06,453.8946 C316.06,573.3846 316.06,825.6146 316.06,951.2646" fill="none" id="Bootstrap-to-UC" style="stroke:#000000;stroke-width:1;"/><polygon fill="#000000" points="316.06,957.2646,320.06,948.2646,316.06,952.2646,312.06,948.2646,316.06,957.2646" style="stroke:#000000;stroke-width:1;"/><text fill="#000000" font-family="Verdana" font-size="13" lengthAdjust="spacing" textLength="75.8608" x="240.06" y="702.6444">instantiates</text></g><!--link Bootstrap to CLI--><g class="link" data-entity-1="Bootstrap" data-entity-2="CLI" data-source-line="60" data-uid="lnk16" id="link_Bootstrap_CLI"><path codeLine="60" d="M387.66,453.8146 C387.66,534.8546 387.66,668.6146 387.66,749.6146" fill="none" id="Bootstrap-to-CLI" style="stroke:#000000;stroke-width:1;"/><polygon fill="#000000" points="387.66,755.6146,391.66,746.6146,387.66,750.6146,383.66,746.6146,387.66,755.6146" style="stroke:#000000;stroke-width:1;"/><text fill="#000000" font-family="Verdana" font-size="13" lengthAdjust="spacing" textLength="75.8608" x="311.66" y="601.7844">instantiates</text></g><!--link UC to GMN20--><g class="link" data-entity-1="UC" data-entity-2="GMN20" data-source-line="104" data-uid="lnk22" id="link_UC_GMN20"><path d="M473.94,1028.3446 C510.22,1028.3446 539.42,1028.3446 539.42,1028.3446 C539.42,1028.3446 539.42,1087.3446 539.42,1159.8846" fill="none" id="UC-GMN20" style="stroke:#000000;stroke-width:1;stroke-dasharray:7,7;"/></g><g class="legend" data-source-line="158"><rect fill="none" height="503.4248" rx="7.5" ry="7.5" style="stroke:#000000;stroke-width:1;" width="556" x="414" y="2025.3437"/><text fill="#000000" font-family="Verdana" font-size="14" font-weight="bold" lengthAdjust="spacing" textLength="208.7422" x="419" y="2044.4189">Go Generic Static Dispatch</text><text fill="#000000" font-family="Verdana" font-size="14" lengthAdjust="spacing" textLength="546" x="419" y="2061.4335">&#9552;&#9552;&#9552;&#9552;&#9552;&#9552;&#9552;&#9552;&#9552;&#9552;&#9552;&#9552;&#9552;&#9552;&#9552;&#9552;&#9552;&#9552;&#9552;&#9552;&#9552;&#9552;&#9552;&#9552;&#9552;&#9552;&#9552;&#9552;&#9552;&#9552;&#9552;&#9552;&#9552;&#9552;&#9552;&#9552;&#9552;&#9552;&#9552;</text><text fill="#000000" font-family="Verdana" font-size="14" lengthAdjust="spacing" textLength="4.9219" x="419" y="2078.4482">&#160;</text><text fill="#000000" font-family="Verdana" font-size="14" font-weight="bold" lengthAdjust="spacing" textLength="250.7764" x="419" y="2095.4628">Three Go Dispatch Mechanisms:</text><text fill="#000000" font-family="Verdana" font-size="14" lengthAdjust="spacing" textLength="13.9932" x="419" y="2112.4775">1.</text><text fill="#000000" font-family="Verdana" font-size="14" font-weight="bold" lengthAdjust="spacing" textLength="110.5234" x="437.915" y="2112.4775">Static (direct)</text><text fill="#000000" font-family="Verdana" font-size="14" lengthAdjust="spacing" textLength="108.7598" x="553.3604" y="2112.4775">- No indirection</text><text fill="#000000" font-family="Verdana" font-size="14" lengthAdjust="spacing" textLength="13.9932" x="419" y="2129.4921">2.</text><text fill="#000000" font-family="Verdana" font-size="14" font-weight="bold" lengthAdjust="spacing" textLength="123.416" x="437.915" y="2129.4921">Static (generic)</text><text fill="#000000" font-family="Verdana" font-size="14" lengthAdjust="spacing" textLength="169.791" x="566.2529" y="2129.4921">- Compile-time bound &#10003;</text><text fill="#000000" font-family="Verdana" font-size="14" lengthAdjust="spacing" textLength="13.9932" x="419" y="2146.5068">3.</text><text fill="#000000" font-family="Verdana" font-size="14" font-weight="bold" lengthAdjust="spacing" textLength="158.0879" x="437.915" y="2146.5068">Dynamic (interface)</text><text fill="#000000" font-family="Verdana" font-size="14" lengthAdjust="spacing" textLength="118.084" x="600.9248" y="2146.5068">- Runtime vtable</text><text fill="#000000" font-family="Verdana" font-size="14" lengthAdjust="spacing" textLength="4.9219" x="419" y="2163.5214">&#160;</text><text fill="#000000" font-family="Verdana" font-size="14" font-weight="bold" lengthAdjust="spacing" textLength="263.8672" x="419" y="2180.5361">Why Generics for Static Dispatch:</text><text fill="#000000" font-family="Verdana" font-size="14" lengthAdjust="spacing" textLength="275.9805" x="419" y="2197.5507">&#8226; Concrete type known at compile time</text><text fill="#000000" font-family="Verdana" font-size="14" lengthAdjust="spacing" textLength="246.8047" x="419" y="2214.5654">&#8226; No interface indirection overhead</text><text fill="#000000" font-family="Verdana" font-size="14" lengthAdjust="spacing" textLength="241.2334" x="419" y="2231.58">&#8226; Compiler can inline method calls</text><text fill="#000000" font-family="Verdana" font-size="14" lengthAdjust="spacing" textLength="169.1348" x="419" y="2248.5946">&#8226; Type safety preserved</text><text fill="#000000" font-family="Verdana" font-size="14" lengthAdjust="spacing" textLength="4.9219" x="419" y="2265.6093">&#160;</text><text fill="#000000" font-family="Verdana" font-size="14" font-weight="bold" lengthAdjust="spacing" textLength="154.5332" x="419" y="2282.6239">Comparison to Ada:</text><text fill="#000000" font-family="Verdana" font-size="14" lengthAdjust="spacing" textLength="546" x="419" y="2299.6386">&#9552;&#9552;&#9552;&#9552;&#9552;&#9552;&#9552;&#9552;&#9552;&#9552;&#9552;&#9552;&#9552;&#9552;&#9552;&#9552;&#9552;&#9552;&#9552;&#9552;&#9552;&#9552;&#9552;&#9552;&#9552;&#9552;&#9552;&#9552;&#9552;&#9552;&#9552;&#9552;&#9552;&#9552;&#9552;&#9552;&#9552;&#9552;&#9552;</text><text fill="#000000" font-family="Verdana" font-size="14" lengthAdjust="spacing" textLength="270.0264" x="419" y="2316.6532">Ada: generic with procedure Write(...)</text><text fill="#000000" font-family="Verdana" font-size="14" lengthAdjust="spacing" textLength="273.4648" x="419" y="2333.6679">Go:  type GreetUseCase[W WriterPort]</text><text fill="#000000" font-family="Verdana" font-size="14" lengthAdjust="spacing" textLength="4.9219" x="419" y="2350.6825">&#160;</text><text fill="#000000" font-family="Verdana" font-size="14" lengthAdjust="spacing" textLength="323.4766" x="419" y="2367.6972">Ada: package My_UC is new Use_Case(Write)</text><text fill="#000000" font-family="Verdana" font-size="14" lengthAdjust="spacing" textLength="311.541" x="419" y="2384.7118">Go:  NewGreetUseCase[*console.Writer](w)</text><text fill="#000000" font-family="Verdana" font-size="14" lengthAdjust="spacing" textLength="4.9219" x="419" y="2401.7265">&#160;</text><text fill="#000000" font-family="Verdana" font-size="14" font-weight="bold" lengthAdjust="spacing" textLength="190.4834" x="419" y="2418.7411">Application Architecture</text><text fill="#000000" font-family="Verdana" font-size="14" lengthAdjust="spacing" textLength="546" x="419" y="2435.7558">&#9552;&#9552;&#9552;&#9552;&#9552;&#9552;&#9552;&#9552;&#9552;&#9552;&#9552;&#9552;&#9552;&#9552;&#9552;&#9552;&#9552;&#9552;&#9552;&#9552;&#9552;&#9552;&#9552;&#9552;&#9552;&#9552;&#9552;&#9552;&#9552;&#9552;&#9552;&#9552;&#9552;&#9552;&#9552;&#9552;&#9552;&#9552;&#9552;</text><text fill="#000000" font-family="Verdana" font-size="14" lengthAdjust="spacing" textLength="270.0811" x="419" y="2452.7704">&#8226; bootstrap: Generic instantiation root</text><text fill="#000000" font-family="Verdana" font-size="14" lengthAdjust="spacing" textLength="260.2031" x="419" y="2469.7851">&#8226; presentation: Generic CLI adapters</text><text fill="#000000" font-family="Verdana" font-size="14" lengthAdjust="spacing" textLength="255.8418" x="419" y="2486.7997">&#8226; application: Generic business logic</text><text fill="#000000" font-family="Verdana" font-size="14" lengthAdjust="spacing" textLength="304.1035" x="419" y="2503.8144">&#8226; infrastructure: Concrete implementations</text><text fill="#000000" font-family="Verdana" font-size="14" lengthAdjust="spacing" textLength="212.0576" x="419" y="2520.829">&#8226; domain: Pure business rules</text></g><!--SRC=[nLZRRjj647tdLqmSjALKYqAQjcW59q12MwhH932IE7f8ZMHDhgIjoLrsTsb7I0tq4meKVUjJForVqjaRBxAK5ds80GCokJEpSpbpunszeYM5gY2CH-g2yOf8KaB1EDNhYeAGUYMYI3DTK9XHJYNBHe-9eZcyq4Ip30wPgeZELZ_nL9GLA-Ze9KE9ZndF6Ly2up0J43-gge9bo23u88egabsG9OMzOxwGH6bPPxgM59wGDPLxSFVes-dzwHJUHm1PGPI2lKnm9GgQp2NJXeGeIETmSE1u7pwqj01VslCuq-_seLJB0KpWELLreL-VSgRFBCreP7zImJD9DGLMLWNwW6khdJqJ2n2rhceD5Je0Nrr7rnsjEyQqAdyt_URe-wxAAE5Sr3ptEf-W9Akt-GSrPnnVBaX6mTYc9GRWVzan7BuqWKeR8SEXVNz85nX41PB-KZE9yJgdAtB9XBId2o5XwS89DkJe2MaDRGse5SqmqibCKgfF5KtnuVNyp1fncg89GS1644PNrc3KUUwCENf7ipgOavNvnytnA0Ey4SoLtfvvwoTZp1fQj_RZQN5xmSKL1wAHoO8ID8BoHY1F95KXy4qafzEZhu_kzS1NCES4H7X9UFvwvfoGFZd-Y1Tgvp6qTURSyBpciJ4TOxJTOYFlKKugDCiRFTiqsgfniWsKZuNGXhBg6l8uFUmQSXve4hpAcj1o7HmOLmd5h3Calc_Hk5FpjCFo75cysiUeC-6Q4Oq094KHeARiwHNJAsDN6ouLhFa2SL7OSAWLgrI4EPualpvqEJC1XKTgmL1ecpCHGb6CHWsD3Ny3QOIWyQebGC8RnxEezS0eHymW7LvgJEsOO3JUGcW5TWct2SFRDuWYBj1koPOhRIfDotCtJQVJD8sCPvjGZH5zC6SIYwdrxeS_V_yqVwOIl7txTYdmTpo69m8h7eAGyGdqb1kxynPRo86l0Z2HmZnYbJNnYIq20FQMwDBwF47CZPCa6RDU8nWJbmLZN_RtTd2HjX2FVRNQHLfrKhqLNp13FuYS2RqIederiWsWwn4MHi4OL- -EiO_WmmCOzfkL9_Bbm54XqTRgsaew2tejQfw1Iq14kyz8fwwanFIldkjwAi7a0GHbdj4hfqzinNePdKnjR4NDmAZcgPPMmTJ82ZgZh5rgn-x_Vxl3f4NcgcdtchJChSvOSCCTeUPs_7SMUvswj_WcurzW66l96w69TQ2jCXRKaSsn7-bwCXo2xP-aO2XTGKak6YqDRBjnXso55SUqL0JGUK4ZodCmoUnJ-bneBKgJqwSkYJTRcMlAjbpUNYw7nFJ1zDYV0rExEomqqqh0VdyeW2t3pfdlY0raFIRdOSomoDw4qdPHJQR1VDya1WmtXfBc4X_uppVEtxlB9t1rtRi-hhCRiWO1I-5Md5kCQpHzfvFK_Uw78mIint5lH71QvgAaKYP-rYb5Jel4JZpTD7w5qCjDRY0RP2wdJwXKVXR5WDa79yHanoKfQYhEVwOPgcFf7NcCoYJFiB75Wu5dPOiUTtAiZYGMWERwZiUyhdZULJJkiUEXaAtqwqxwJOKiSTmoDbXNkzJ3fjMIr5dYek0YQm2dx0w14y8QShz7q50GSEurrYvAdRoeiFtfHRpt0oqAiG-VgJjx-ttBNXcdn8CD-xrj6pUtStMd8kpCPJzj3OV7pSIEWzEseVjMqpcaJSZdDdSLbPTc3bCkSpkZawNSkWgeaEVRQa03dyQRDzB3HW-lGG0CEbZRcH0xIdFhyjgidAGx-9aKmr1P_VCr9oNg7q3KYMP1b-R1ZbkkA8kmo6wki9ysY9i1nKLkXJbZrkMW43obs78uKwMQMENk9KZcjOvpNEioFK0tZU2P0BDmcnTkGFcgI-d3wqZ3ccus8h2GWGz__O4izmtBeVTat4JRSM43jGoNsdO-g-zyjGwkTDFIXZ-TpXz- -_i_BcU6qXeIWjun2SGbbIjil8r4oofnKk58PpvO029t9R26OZrHdiocgI8BgjTWHq1CXTnfRoGGoR24W1PcxvhSOlp1Aj3aeLsHAYaocfll8YxFS8mrkJGJa-qzkDCleo0mL8UdwpSumc75vVJAZ2Dl34ziEHgPcwruOux5qMxWFDVz_l58PYiyjRFdhVhFHBlPGIPDYlS7EBFMUjhkGj2IcxdKRmS1GfqbewKxhvNvkgAW44ixA1hA_YG-sVM9AGZ6OaZCDdLYGjm8b7M1EoAMB5Uuedy0]--></g></svg>