<svg xmlns="http://www.w3.org/2000/svg" xmlns:xlink="http://www.w3.org/1999/xlink" contentStyleType="text/css" data-diagram-type="DESCRIPTION" height="1734px" preserveAspectRatio="none" style="width:2471px;height:1734px;background:#FFFFFF;" version="1.1" viewBox="0 0 2471 1734" width="2471px" zoomAndPan="magnify"><title>Layered Application Architecture
Composition Root + Platform Flexibility (Go)</title><defs/><g><g class="title" data-source-line="6"><text fill="#000000" font-family="Verdana" font-size="22" font-weight="bold" lengthAdjust="spacing" textLength="405.4209" x="1028.2896" y="37.1182">Layered Application Architecture</text><text fill="#000000" font-family="Verdana" font-size="22" font-weight="bold" lengthAdjust="spacing" textLength="552.5781" x="954.7109" y="63.8555">Composition Root + Platform Flexibility (Go)</text></g><!--cluster Entry--><g class="cluster" data-entity="Entry" data-source-line="8" data-uid="ent0002" id="cluster_Entry"><path d="M693.5,85.4746 L782.2803,85.4746 A3.75,3.75 0 0 1 784.7803,87.9746 L791.7803,108.4893 L1232.5,108.4893 A2.5,2.5 0 0 1 1235,110.9893 L1235,287.1646 A2.5,2.5 0 0 1 1232.5,289.6646 L693.5,289.6646 A2.5,2.5 0 0 1 691,287.1646 L691,87.9746 A2.5,2.5 0 0 1 693.5,85.4746" fill="#E0FFE0" style="stroke:#000000;stroke-width:1;"/><line style="stroke:#000000;stroke-width:1;" x1="691" x2="791.7803" y1="108.4893" y2="108.4893"/><text fill="#000000" font-family="Verdana" font-size="14" font-weight="bold" lengthAdjust="spacing" textLength="87.7803" x="695" y="101.5498">Entry Point</text></g><!--cluster BootstrapLayer--><g class="cluster" data-entity="BootstrapLayer" data-source-line="23" data-uid="ent0007" id="cluster_BootstrapLayer"><path d="M700.5,313.6646 L826.9736,313.6646 A3.75,3.75 0 0 1 829.4736,316.1646 L836.4736,336.6793 L2086.5,336.6793 A2.5,2.5 0 0 1 2089,339.1793 L2089,504.3646 A2.5,2.5 0 0 1 2086.5,506.8646 L700.5,506.8646 A2.5,2.5 0 0 1 698,504.3646 L698,316.1646 A2.5,2.5 0 0 1 700.5,313.6646" fill="#FFEBCD" style="stroke:#000000;stroke-width:1;"/><line style="stroke:#000000;stroke-width:1;" x1="698" x2="836.4736" y1="336.6793" y2="336.6793"/><text fill="#000000" font-family="Verdana" font-size="14" font-weight="bold" lengthAdjust="spacing" textLength="125.4736" x="702" y="329.7398">Bootstrap Layer</text></g><!--cluster Roots--><g class="cluster" data-entity="Roots" data-source-line="25" data-uid="ent0008" id="cluster_Roots"><path d="M724.5,357.6646 L872.9375,357.6646 A3.75,3.75 0 0 1 875.4375,360.1646 L882.4375,380.6793 L2062.5,380.6793 A2.5,2.5 0 0 1 2065,383.1793 L2065,480.3646 A2.5,2.5 0 0 1 2062.5,482.8646 L724.5,482.8646 A2.5,2.5 0 0 1 722,480.3646 L722,360.1646 A2.5,2.5 0 0 1 724.5,357.6646" fill="#FFFFFF" style="stroke:#000000;stroke-width:1;"/><line style="stroke:#000000;stroke-width:1;" x1="722" x2="882.4375" y1="380.6793" y2="380.6793"/><text fill="#000000" font-family="Verdana" font-size="14" font-weight="bold" lengthAdjust="spacing" textLength="147.4375" x="726" y="373.7398">Composition Roots</text></g><!--cluster PresentationLayer--><g class="cluster" data-entity="PresentationLayer" data-source-line="49" data-uid="ent0021" id="cluster_PresentationLayer"><path d="M13.5,542.4646 L163.4961,542.4646 A3.75,3.75 0 0 1 165.9961,544.9646 L172.9961,565.4793 L467.5,565.4793 A2.5,2.5 0 0 1 470,567.9793 L470,680.9546 A2.5,2.5 0 0 1 467.5,683.4546 L13.5,683.4546 A2.5,2.5 0 0 1 11,680.9546 L11,544.9646 A2.5,2.5 0 0 1 13.5,542.4646" fill="#FFE4E1" style="stroke:#000000;stroke-width:1;"/><line style="stroke:#000000;stroke-width:1;" x1="11" x2="172.9961" y1="565.4793" y2="565.4793"/><text fill="#000000" font-family="Verdana" font-size="14" font-weight="bold" lengthAdjust="spacing" textLength="148.9961" x="15" y="558.5398">Presentation Layer</text></g><!--cluster AppLayer--><g class="cluster" data-entity="AppLayer" data-source-line="60" data-uid="ent0026" id="cluster_AppLayer"><path d="M1033.5,743.0546 L1171.2803,743.0546 A3.75,3.75 0 0 1 1173.7803,745.5546 L1180.7803,766.0693 L1682.5,766.0693 A2.5,2.5 0 0 1 1685,768.5693 L1685,992.7746 A2.5,2.5 0 0 1 1682.5,995.2746 L1033.5,995.2746 A2.5,2.5 0 0 1 1031,992.7746 L1031,745.5546 A2.5,2.5 0 0 1 1033.5,743.0546" fill="#E8F5E9" style="stroke:#000000;stroke-width:1;"/><line style="stroke:#000000;stroke-width:1;" x1="1031" x2="1180.7803" y1="766.0693" y2="766.0693"/><text fill="#000000" font-family="Verdana" font-size="14" font-weight="bold" lengthAdjust="spacing" textLength="136.7803" x="1035" y="759.1298">Application Layer</text></g><!--cluster InfraLayer--><g class="cluster" data-entity="InfraLayer" data-source-line="73" data-uid="ent0033" id="cluster_InfraLayer"><path d="M1938.5,563.4546 L2100.2266,563.4546 A3.75,3.75 0 0 1 2102.7266,565.9546 L2109.7266,586.4693 L2461.5,586.4693 A2.5,2.5 0 0 1 2464,588.9693 L2464,659.9646 A2.5,2.5 0 0 1 2461.5,662.4646 L1938.5,662.4646 A2.5,2.5 0 0 1 1936,659.9646 L1936,565.9546 A2.5,2.5 0 0 1 1938.5,563.4546" fill="#E6F3FF" style="stroke:#000000;stroke-width:1;"/><line style="stroke:#000000;stroke-width:1;" x1="1936" x2="2109.7266" y1="586.4693" y2="586.4693"/><text fill="#000000" font-family="Verdana" font-size="14" font-weight="bold" lengthAdjust="spacing" textLength="160.7266" x="1940" y="579.5298">Infrastructure Layer</text></g><!--cluster DomainLayer--><g class="cluster" data-entity="DomainLayer" data-source-line="79" data-uid="ent0037" id="cluster_DomainLayer"><path d="M1212.5,1023.2746 L1322.082,1023.2746 A3.75,3.75 0 0 1 1324.582,1025.7746 L1331.582,1046.2893 L1576.5,1046.2893 A2.5,2.5 0 0 1 1579,1048.7893 L1579,1119.7846 A2.5,2.5 0 0 1 1576.5,1122.2846 L1212.5,1122.2846 A2.5,2.5 0 0 1 1210,1119.7846 L1210,1025.7746 A2.5,2.5 0 0 1 1212.5,1023.2746" fill="#FFF9E6" style="stroke:#000000;stroke-width:1;"/><line style="stroke:#000000;stroke-width:1;" x1="1210" x2="1331.582" y1="1046.2893" y2="1046.2893"/><text fill="#000000" font-family="Verdana" font-size="14" font-weight="bold" lengthAdjust="spacing" textLength="108.582" x="1214" y="1039.3498">Domain Layer</text></g><!--entity Main--><g class="entity" data-entity="Main" data-source-line="9" data-uid="ent0003" id="entity_Main"><rect fill="#FFFFFF" height="47.0146" rx="2.5" ry="2.5" style="stroke:#000000;stroke-width:1;" width="190.5957" x="706.7" y="174.0646"/><rect fill="#FFFFFF" height="10" style="stroke:#000000;stroke-width:1;" width="15" x="877.2957" y="179.0646"/><rect fill="#FFFFFF" height="2" style="stroke:#000000;stroke-width:1;" width="4" x="875.2957" y="181.0646"/><rect fill="#FFFFFF" height="2" style="stroke:#000000;stroke-width:1;" width="4" x="875.2957" y="185.0646"/><text fill="#000000" font-family="Verdana" font-size="14" lengthAdjust="spacing" textLength="150.5957" x="721.7" y="208.1398">cmd/greeter/main.go</text></g><g class="entity" data-entity="GMN4" data-source-line="11" data-uid="ent0005" id="entity_GMN4"><path d="M957.04,121.4746 L957.04,193.2846 L897.63,197.2846 L957.04,201.2846 L957.04,273.6685 A0,0 0 0 0 957.04,273.6685 L1218.9526,273.6685 A0,0 0 0 0 1218.9526,273.6685 L1218.9526,131.4746 L1208.9526,121.4746 L957.04,121.4746 A0,0 0 0 0 957.04,121.4746" fill="#FFFFFF" style="stroke:#000000;stroke-width:1;"/><path d="M1208.9526,121.4746 L1208.9526,131.4746 L1218.9526,131.4746 L1208.9526,121.4746" fill="#FFFFFF" style="stroke:#000000;stroke-width:1;"/><text fill="#000000" font-family="Verdana" font-size="13" lengthAdjust="spacing" textLength="40.7837" x="963.04" y="139.5444">```go</text><text fill="#000000" font-family="Verdana" font-size="13" lengthAdjust="spacing" textLength="90.8413" x="963.04" y="155.3438">package main</text><text fill="#000000" font-family="Verdana" font-size="13" lengthAdjust="spacing" textLength="4.5703" x="963.04" y="171.1431">&#160;</text><text fill="#000000" font-family="Verdana" font-size="13" lengthAdjust="spacing" textLength="240.9126" x="963.04" y="186.9424">import "github.com/.../bootstrap/cli"</text><text fill="#000000" font-family="Verdana" font-size="13" lengthAdjust="spacing" textLength="4.5703" x="963.04" y="202.7417">&#160;</text><text fill="#000000" font-family="Verdana" font-size="13" lengthAdjust="spacing" textLength="89.2417" x="963.04" y="218.541">func main() {</text><text fill="#000000" font-family="Verdana" font-size="13" lengthAdjust="spacing" textLength="111.7378" x="981.3213" y="234.3403">os.Exit(cli.Run())</text><text fill="#000000" font-family="Verdana" font-size="13" lengthAdjust="spacing" textLength="8.252" x="963.04" y="250.1396">}</text><text fill="#000000" font-family="Verdana" font-size="13" lengthAdjust="spacing" textLength="24.7939" x="963.04" y="265.939">```</text></g><!--entity BootstrapCLI--><g class="entity" data-entity="BootstrapCLI" data-source-line="26" data-uid="ent0009" id="entity_BootstrapCLI"><rect fill="#FFD699" height="47.0146" rx="2.5" ry="2.5" style="stroke:#000000;stroke-width:1;" width="128.4844" x="737.76" y="406.7546"/><rect fill="#FFD699" height="10" style="stroke:#000000;stroke-width:1;" width="15" x="846.2444" y="411.7546"/><rect fill="#FFD699" height="2" style="stroke:#000000;stroke-width:1;" width="4" x="844.2444" y="413.7546"/><rect fill="#FFD699" height="2" style="stroke:#000000;stroke-width:1;" width="4" x="844.2444" y="417.7546"/><text fill="#000000" font-family="Verdana" font-size="14" lengthAdjust="spacing" textLength="88.4844" x="752.76" y="440.8298">bootstrap/cli</text></g><!--entity BootstrapEmb--><g class="entity" data-entity="BootstrapEmb" data-source-line="27" data-uid="ent0010" id="entity_BootstrapEmb"><rect fill="#FFD699" height="47.0146" rx="2.5" ry="2.5" style="stroke:#000000;stroke-width:1;" width="187.0342" x="1180.48" y="406.7546"/><rect fill="#FFD699" height="10" style="stroke:#000000;stroke-width:1;" width="15" x="1347.5142" y="411.7546"/><rect fill="#FFD699" height="2" style="stroke:#000000;stroke-width:1;" width="4" x="1345.5142" y="413.7546"/><rect fill="#FFD699" height="2" style="stroke:#000000;stroke-width:1;" width="4" x="1345.5142" y="417.7546"/><text fill="#000000" font-family="Verdana" font-size="14" lengthAdjust="spacing" textLength="147.0342" x="1195.48" y="440.8298">bootstrap/embedded</text></g><!--entity BootstrapWeb--><g class="entity" data-entity="BootstrapWeb" data-source-line="28" data-uid="ent0011" id="entity_BootstrapWeb"><rect fill="#FFD699" height="47.0146" rx="2.5" ry="2.5" style="stroke:#000000;stroke-width:1;" width="142.0264" x="1680.99" y="406.7546"/><rect fill="#FFD699" height="10" style="stroke:#000000;stroke-width:1;" width="15" x="1803.0164" y="411.7546"/><rect fill="#FFD699" height="2" style="stroke:#000000;stroke-width:1;" width="4" x="1801.0164" y="413.7546"/><rect fill="#FFD699" height="2" style="stroke:#000000;stroke-width:1;" width="4" x="1801.0164" y="417.7546"/><text fill="#000000" font-family="Verdana" font-size="14" lengthAdjust="spacing" textLength="102.0264" x="1695.99" y="440.8298">bootstrap/web</text></g><g class="entity" data-entity="GMN12" data-source-line="31" data-uid="ent0013" id="entity_GMN12"><path d="M925.89,393.6646 L925.89,426.2846 L866.52,430.2846 L925.89,434.2846 L925.89,466.8619 A0,0 0 0 0 925.89,466.8619 L1120.1048,466.8619 A0,0 0 0 0 1120.1048,466.8619 L1120.1048,403.6646 L1110.1048,393.6646 L925.89,393.6646 A0,0 0 0 0 925.89,393.6646" fill="#FFFFFF" style="stroke:#000000;stroke-width:1;"/><path d="M1110.1048,393.6646 L1110.1048,403.6646 L1120.1048,403.6646 L1110.1048,393.6646" fill="#FFFFFF" style="stroke:#000000;stroke-width:1;"/><text fill="#000000" font-family="Verdana" font-size="13" font-weight="bold" lengthAdjust="spacing" textLength="129.1938" x="931.89" y="411.7344">Composition Root</text><text fill="#000000" font-family="Verdana" font-size="13" lengthAdjust="spacing" textLength="173.2148" x="931.89" y="427.5337">- Creates all dependencies</text><text fill="#000000" font-family="Verdana" font-size="13" lengthAdjust="spacing" textLength="140.334" x="931.89" y="443.3331">- Wires infrastructure</text><text fill="#000000" font-family="Verdana" font-size="13" lengthAdjust="spacing" textLength="124.9282" x="931.89" y="459.1324">- Returns exit code</text></g><g class="entity" data-entity="GMN15" data-source-line="38" data-uid="ent0016" id="entity_GMN15"><path d="M1427.13,409.4646 L1427.13,426.2846 L1367.8,430.2846 L1427.13,434.2846 L1427.13,451.0632 A0,0 0 0 0 1427.13,451.0632 L1620.8751,451.0632 A0,0 0 0 0 1620.8751,451.0632 L1620.8751,419.4646 L1610.8751,409.4646 L1427.13,409.4646 A0,0 0 0 0 1427.13,409.4646" fill="#FFFFFF" style="stroke:#000000;stroke-width:1;"/><path d="M1610.8751,409.4646 L1610.8751,419.4646 L1620.8751,419.4646 L1610.8751,409.4646" fill="#FFFFFF" style="stroke:#000000;stroke-width:1;"/><text fill="#000000" font-family="Verdana" font-size="13" font-weight="bold" lengthAdjust="spacing" textLength="133.9292" x="1433.13" y="427.5344">Future: Embedded</text><text fill="#000000" font-family="Verdana" font-size="13" lengthAdjust="spacing" textLength="172.7451" x="1433.13" y="443.3337">STM32, embedded targets</text></g><g class="entity" data-entity="GMN18" data-source-line="43" data-uid="ent0019" id="entity_GMN18"><path d="M1882.83,409.4646 L1882.83,426.2846 L1823.26,430.2846 L1882.83,434.2846 L1882.83,451.0632 A0,0 0 0 0 1882.83,451.0632 L2049.1723,451.0632 A0,0 0 0 0 2049.1723,451.0632 L2049.1723,419.4646 L2039.1723,409.4646 L1882.83,409.4646 A0,0 0 0 0 1882.83,409.4646" fill="#FFFFFF" style="stroke:#000000;stroke-width:1;"/><path d="M2039.1723,409.4646 L2039.1723,419.4646 L2049.1723,419.4646 L2039.1723,409.4646" fill="#FFFFFF" style="stroke:#000000;stroke-width:1;"/><text fill="#000000" font-family="Verdana" font-size="13" font-weight="bold" lengthAdjust="spacing" textLength="145.3423" x="1888.83" y="427.5344">Future: Web/WASM</text><text fill="#000000" font-family="Verdana" font-size="13" lengthAdjust="spacing" textLength="141.667" x="1888.83" y="443.3337">WebAssembly targets</text></g><!--entity CLI--><g class="entity" data-entity="CLI" data-source-line="50" data-uid="ent0022" id="entity_CLI"><rect fill="#FFFFFF" height="47.0146" rx="2.5" ry="2.5" style="stroke:#000000;stroke-width:1;" width="170.5938" x="26.7" y="599.4546"/><rect fill="#FFFFFF" height="10" style="stroke:#000000;stroke-width:1;" width="15" x="177.2938" y="604.4546"/><rect fill="#FFFFFF" height="2" style="stroke:#000000;stroke-width:1;" width="4" x="175.2938" y="606.4546"/><rect fill="#FFFFFF" height="2" style="stroke:#000000;stroke-width:1;" width="4" x="175.2938" y="610.4546"/><text fill="#000000" font-family="Verdana" font-size="14" lengthAdjust="spacing" textLength="130.5938" x="41.7" y="633.5298">cli.GreetCommand</text></g><g class="entity" data-entity="GMN23" data-source-line="52" data-uid="ent0024" id="entity_GMN23"><path d="M257.57,578.4646 L257.57,619.2846 L197.68,623.2846 L257.57,627.2846 L257.57,667.4612 A0,0 0 0 0 257.57,667.4612 L454.4318,667.4612 A0,0 0 0 0 454.4318,667.4612 L454.4318,588.4646 L444.4318,578.4646 L257.57,578.4646 A0,0 0 0 0 257.57,578.4646" fill="#FFFFFF" style="stroke:#000000;stroke-width:1;"/><path d="M444.4318,578.4646 L444.4318,588.4646 L454.4318,588.4646 L444.4318,578.4646" fill="#FFFFFF" style="stroke:#000000;stroke-width:1;"/><text fill="#000000" font-family="Verdana" font-size="13" font-weight="bold" lengthAdjust="spacing" textLength="87.2041" x="263.57" y="596.5344">CLI Adapter</text><text fill="#000000" font-family="Verdana" font-size="13" lengthAdjust="spacing" textLength="127.7212" x="263.57" y="612.3337">- Parses arguments</text><text fill="#000000" font-family="Verdana" font-size="13" lengthAdjust="spacing" textLength="102.248" x="263.57" y="628.1331">- Calls use case</text><text fill="#000000" font-family="Verdana" font-size="13" lengthAdjust="spacing" textLength="175.8618" x="263.57" y="643.9324">- Maps errors to exit codes</text><text fill="#000000" font-family="Verdana" font-size="13" lengthAdjust="spacing" textLength="154.5591" x="263.57" y="659.7317">- Uses application/error</text></g><!--entity UC--><g class="entity" data-entity="UC" data-source-line="61" data-uid="ent0027" id="entity_UC"><rect fill="#CCFFCC" height="47.0146" rx="2.5" ry="2.5" style="stroke:#000000;stroke-width:1;" width="199.6465" x="1225.18" y="792.1446"/><rect fill="#CCFFCC" height="10" style="stroke:#000000;stroke-width:1;" width="15" x="1404.8265" y="797.1446"/><rect fill="#CCFFCC" height="2" style="stroke:#000000;stroke-width:1;" width="4" x="1402.8265" y="799.1446"/><rect fill="#CCFFCC" height="2" style="stroke:#000000;stroke-width:1;" width="4" x="1402.8265" y="803.1446"/><text fill="#000000" font-family="Verdana" font-size="14" lengthAdjust="spacing" textLength="159.6465" x="1240.18" y="826.2198">usecase.GreetUseCase</text></g><!--entity Ports--><g class="entity" data-entity="Ports" data-source-line="62" data-uid="ent0028" id="entity_Ports"><rect fill="#FFFFFF" height="47.0146" rx="2.5" ry="2.5" style="stroke:#000000;stroke-width:1;" width="162.1514" x="1506.92" y="932.2546"/><rect fill="#FFFFFF" height="10" style="stroke:#000000;stroke-width:1;" width="15" x="1649.0714" y="937.2546"/><rect fill="#FFFFFF" height="2" style="stroke:#000000;stroke-width:1;" width="4" x="1647.0714" y="939.2546"/><rect fill="#FFFFFF" height="2" style="stroke:#000000;stroke-width:1;" width="4" x="1647.0714" y="943.2546"/><text fill="#000000" font-family="Verdana" font-size="14" lengthAdjust="spacing" textLength="122.1514" x="1521.92" y="966.3298">Ports (interfaces)</text></g><!--entity Cmds--><g class="entity" data-entity="Cmds" data-source-line="63" data-uid="ent0029" id="entity_Cmds"><rect fill="#FFFFFF" height="47.0146" rx="2.5" ry="2.5" style="stroke:#000000;stroke-width:1;" width="118.791" x="1046.6" y="792.1446"/><rect fill="#FFFFFF" height="10" style="stroke:#000000;stroke-width:1;" width="15" x="1145.391" y="797.1446"/><rect fill="#FFFFFF" height="2" style="stroke:#000000;stroke-width:1;" width="4" x="1143.391" y="799.1446"/><rect fill="#FFFFFF" height="2" style="stroke:#000000;stroke-width:1;" width="4" x="1143.391" y="803.1446"/><text fill="#000000" font-family="Verdana" font-size="14" lengthAdjust="spacing" textLength="78.791" x="1061.6" y="826.2198">Commands</text></g><g class="entity" data-entity="GMN30" data-source-line="66" data-uid="ent0031" id="entity_GMN30"><path d="M1485.05,779.0546 L1485.05,811.2846 L1425.32,815.2846 L1485.05,819.2846 L1485.05,852.2519 A0,0 0 0 0 1485.05,852.2519 L1668.9436,852.2519 A0,0 0 0 0 1668.9436,852.2519 L1668.9436,789.0546 L1658.9436,779.0546 L1485.05,779.0546 A0,0 0 0 0 1485.05,779.0546" fill="#FFFFFF" style="stroke:#000000;stroke-width:1;"/><path d="M1658.9436,779.0546 L1658.9436,789.0546 L1668.9436,789.0546 L1658.9436,779.0546" fill="#FFFFFF" style="stroke:#000000;stroke-width:1;"/><text fill="#000000" font-family="Verdana" font-size="13" font-weight="bold" lengthAdjust="spacing" textLength="107.4722" x="1491.05" y="797.1244">Business Logic</text><text fill="#000000" font-family="Verdana" font-size="13" lengthAdjust="spacing" textLength="124.2935" x="1491.05" y="812.9237">- Platform agnostic</text><text fill="#000000" font-family="Verdana" font-size="13" lengthAdjust="spacing" textLength="162.8936" x="1491.05" y="828.7231">- Interface dependencies</text><text fill="#000000" font-family="Verdana" font-size="13" lengthAdjust="spacing" textLength="5.9033" x="1491.05" y="844.5224">-</text><text fill="#000000" font-family="Verdana" font-size="13" font-weight="bold" lengthAdjust="spacing" textLength="147.3291" x="1501.5236" y="844.5224">Testable in isolation</text></g><!--entity CW--><g class="entity" data-entity="CW" data-source-line="74" data-uid="ent0034" id="entity_CW"><rect fill="#FFFFFF" height="47.0146" rx="2.5" ry="2.5" style="stroke:#000000;stroke-width:1;" width="141.2061" x="1952.4" y="599.4546"/><rect fill="#FFFFFF" height="10" style="stroke:#000000;stroke-width:1;" width="15" x="2073.6061" y="604.4546"/><rect fill="#FFFFFF" height="2" style="stroke:#000000;stroke-width:1;" width="4" x="2071.6061" y="606.4546"/><rect fill="#FFFFFF" height="2" style="stroke:#000000;stroke-width:1;" width="4" x="2071.6061" y="610.4546"/><text fill="#000000" font-family="Verdana" font-size="14" lengthAdjust="spacing" textLength="101.2061" x="1967.4" y="633.5298">console.Writer</text></g><!--entity UW--><g class="entity" data-entity="UW" data-source-line="75" data-uid="ent0035" id="entity_UW"><rect fill="#FFFFFF" height="47.0146" rx="2.5" ry="2.5" style="stroke:#000000;stroke-width:1;" width="117.3418" x="2153.33" y="599.4546"/><rect fill="#FFFFFF" height="10" style="stroke:#000000;stroke-width:1;" width="15" x="2250.6718" y="604.4546"/><rect fill="#FFFFFF" height="2" style="stroke:#000000;stroke-width:1;" width="4" x="2248.6718" y="606.4546"/><rect fill="#FFFFFF" height="2" style="stroke:#000000;stroke-width:1;" width="4" x="2248.6718" y="610.4546"/><text fill="#000000" font-family="Verdana" font-size="14" lengthAdjust="spacing" textLength="77.3418" x="2168.33" y="633.5298">uart.Writer</text></g><!--entity WW--><g class="entity" data-entity="WW" data-source-line="76" data-uid="ent0036" id="entity_WW"><rect fill="#FFFFFF" height="47.0146" rx="2.5" ry="2.5" style="stroke:#000000;stroke-width:1;" width="117.1025" x="2330.45" y="599.4546"/><rect fill="#FFFFFF" height="10" style="stroke:#000000;stroke-width:1;" width="15" x="2427.5525" y="604.4546"/><rect fill="#FFFFFF" height="2" style="stroke:#000000;stroke-width:1;" width="4" x="2425.5525" y="606.4546"/><rect fill="#FFFFFF" height="2" style="stroke:#000000;stroke-width:1;" width="4" x="2425.5525" y="610.4546"/><text fill="#000000" font-family="Verdana" font-size="14" lengthAdjust="spacing" textLength="77.1025" x="2345.45" y="633.5298">web.Writer</text></g><!--entity VOs--><g class="entity" data-entity="VOs" data-source-line="80" data-uid="ent0038" id="entity_VOs"><rect fill="#FFFFFF" height="47.0146" rx="2.5" ry="2.5" style="stroke:#000000;stroke-width:1;" width="136.9473" x="1225.53" y="1059.2746"/><rect fill="#FFFFFF" height="10" style="stroke:#000000;stroke-width:1;" width="15" x="1342.4773" y="1064.2746"/><rect fill="#FFFFFF" height="2" style="stroke:#000000;stroke-width:1;" width="4" x="1340.4773" y="1066.2746"/><rect fill="#FFFFFF" height="2" style="stroke:#000000;stroke-width:1;" width="4" x="1340.4773" y="1070.2746"/><text fill="#000000" font-family="Verdana" font-size="14" lengthAdjust="spacing" textLength="96.9473" x="1240.53" y="1093.3498">Value Objects</text></g><!--entity Errors--><g class="entity" data-entity="Errors" data-source-line="81" data-uid="ent0039" id="entity_Errors"><rect fill="#FFFFFF" height="47.0146" rx="2.5" ry="2.5" style="stroke:#000000;stroke-width:1;" width="140.1602" x="1422.92" y="1059.2746"/><rect fill="#FFFFFF" height="10" style="stroke:#000000;stroke-width:1;" width="15" x="1543.0802" y="1064.2746"/><rect fill="#FFFFFF" height="2" style="stroke:#000000;stroke-width:1;" width="4" x="1541.0802" y="1066.2746"/><rect fill="#FFFFFF" height="2" style="stroke:#000000;stroke-width:1;" width="4" x="1541.0802" y="1070.2746"/><text fill="#000000" font-family="Verdana" font-size="14" lengthAdjust="spacing" textLength="100.1602" x="1437.92" y="1093.3498">Error + Result</text></g><g class="entity" data-entity="GMN57" data-source-line="117" data-uid="ent0058" id="entity_GMN57"><path d="M1416,546.8646 L1416,699.0585 A0,0 0 0 0 1416,699.0585 L1416.41,699.0585 L1420.41,791.7446 L1424.41,699.0585 L1892,699.0585 A0,0 0 0 0 1892,699.0585 L1892,556.8646 L1882,546.8646 L1416,546.8646 A0,0 0 0 0 1416,546.8646" fill="#CCFFCC" style="stroke:#000000;stroke-width:1;"/><path d="M1882,546.8646 L1882,556.8646 L1892,556.8646 L1882,546.8646" fill="#CCFFCC" style="stroke:#000000;stroke-width:1;"/><text fill="#000000" font-family="Verdana" font-size="13" font-weight="bold" lengthAdjust="spacing" textLength="173.894" x="1422" y="564.9344">Testable Business Logic</text><text fill="#000000" font-family="Verdana" font-size="13" lengthAdjust="spacing" textLength="455" x="1422" y="580.7338">&#9552;&#9552;&#9552;&#9552;&#9552;&#9552;&#9552;&#9552;&#9552;&#9552;&#9552;&#9552;&#9552;&#9552;&#9552;&#9552;&#9552;&#9552;&#9552;&#9552;&#9552;&#9552;&#9552;&#9552;&#9552;&#9552;&#9552;&#9552;&#9552;&#9552;&#9552;&#9552;&#9552;&#9552;&#9552;</text><text fill="#000000" font-family="Verdana" font-size="13" lengthAdjust="spacing" textLength="124.7886" x="1422" y="596.5331">Everything here is:</text><text fill="#000000" font-family="Verdana" font-size="13" lengthAdjust="spacing" textLength="192.5054" x="1422" y="612.3324">- Interface-based (mockable)</text><text fill="#000000" font-family="Verdana" font-size="13" lengthAdjust="spacing" textLength="124.2935" x="1422" y="628.1317">- Platform agnostic</text><text fill="#000000" font-family="Verdana" font-size="13" lengthAdjust="spacing" textLength="93.4565" x="1422" y="643.931">- Unit testable</text><text fill="#000000" font-family="Verdana" font-size="13" lengthAdjust="spacing" textLength="152.915" x="1422" y="659.7303">- application/usecase/*</text><text fill="#000000" font-family="Verdana" font-size="13" lengthAdjust="spacing" textLength="165.1597" x="1422" y="675.5296">- application/command/*</text><text fill="#000000" font-family="Verdana" font-size="13" lengthAdjust="spacing" textLength="72.8774" x="1422" y="691.329">- domain/*</text></g><g class="entity" data-entity="GMN60" data-source-line="129" data-uid="ent0061" id="entity_GMN60"><path d="M636,562.6646 L636,683.2598 A0,0 0 0 0 636,683.2598 L1112,683.2598 A0,0 0 0 0 1112,683.2598 L1112,572.6646 L1102,562.6646 L773.88,562.6646 L769.88,453.8946 L765.88,562.6646 L636,562.6646 A0,0 0 0 0 636,562.6646" fill="#FFE4B5" style="stroke:#000000;stroke-width:1;"/><path d="M1102,562.6646 L1102,572.6646 L1112,572.6646 L1102,562.6646" fill="#FFE4B5" style="stroke:#000000;stroke-width:1;"/><text fill="#000000" font-family="Verdana" font-size="13" font-weight="bold" lengthAdjust="spacing" textLength="129.1938" x="642" y="580.7344">Composition Root</text><text fill="#000000" font-family="Verdana" font-size="13" lengthAdjust="spacing" textLength="455" x="642" y="596.5337">&#9552;&#9552;&#9552;&#9552;&#9552;&#9552;&#9552;&#9552;&#9552;&#9552;&#9552;&#9552;&#9552;&#9552;&#9552;&#9552;&#9552;&#9552;&#9552;&#9552;&#9552;&#9552;&#9552;&#9552;&#9552;&#9552;&#9552;&#9552;&#9552;&#9552;&#9552;&#9552;&#9552;&#9552;&#9552;</text><text fill="#000000" font-family="Verdana" font-size="13" lengthAdjust="spacing" textLength="216.0996" x="642" y="612.3331">Wires concrete implementations:</text><text fill="#000000" font-family="Verdana" font-size="13" lengthAdjust="spacing" textLength="157.8789" x="642" y="628.1324">- bootstrap/cli (console)</text><text fill="#000000" font-family="Verdana" font-size="13" lengthAdjust="spacing" textLength="198.834" x="642" y="643.9317">- bootstrap/embedded (UART)</text><text fill="#000000" font-family="Verdana" font-size="13" lengthAdjust="spacing" textLength="152.7944" x="642" y="659.731">- bootstrap/web (DOM)</text><text fill="#000000" font-family="Verdana" font-size="13" lengthAdjust="spacing" textLength="159.104" x="642" y="675.5303">infrastructure/adapter/*</text></g><!--link Main to BootstrapCLI--><g class="link" data-entity-1="Main" data-entity-2="BootstrapCLI" data-source-line="85" data-uid="lnk40" id="link_Main_BootstrapCLI"><path d="M802,221.1646 C802,265.6446 802,355.4646 802,400.2646" fill="none" id="Main-to-BootstrapCLI" style="stroke:#000000;stroke-width:1;"/><polygon fill="#000000" points="802,406.2646,806,397.2646,802,401.2646,798,397.2646,802,406.2646" style="stroke:#000000;stroke-width:1;"/><text fill="#000000" font-family="Verdana" font-size="13" lengthAdjust="spacing" textLength="70.3574" x="731" y="310.7844">calls Run()</text></g><!--link BootstrapCLI to CLI--><g class="link" data-entity-1="BootstrapCLI" data-entity-2="CLI" data-source-line="88" data-uid="lnk41" id="link_BootstrapCLI_CLI"><path d="M737.4,430.2846 C565.87,430.2846 112,430.2846 112,430.2846 C112,430.2846 112,541.8846 112,593.3346" fill="none" id="BootstrapCLI-to-CLI" style="stroke:#000000;stroke-width:1;"/><polygon fill="#000000" points="112,599.3346,116,590.3346,112,594.3346,108,590.3346,112,599.3346" style="stroke:#000000;stroke-width:1;"/><text fill="#000000" font-family="Verdana" font-size="13" lengthAdjust="spacing" textLength="47.5122" x="292.17" y="427.3544">creates</text></g><!--link BootstrapCLI to UC--><g class="link" data-entity-1="BootstrapCLI" data-entity-2="UC" data-source-line="89" data-uid="lnk42" id="link_BootstrapCLI_UC"><path d="M802,453.9146 C802,480.5846 802,520.2846 802,520.2846 C802,520.2846 1310.58,520.2846 1310.58,520.2846 C1310.58,520.2846 1310.58,715.8946 1310.58,785.9846" fill="none" id="BootstrapCLI-to-UC" style="stroke:#000000;stroke-width:1;"/><polygon fill="#000000" points="1310.58,791.9846,1314.58,782.9846,1310.58,786.9846,1306.58,782.9846,1310.58,791.9846" style="stroke:#000000;stroke-width:1;"/><text fill="#000000" font-family="Verdana" font-size="13" lengthAdjust="spacing" textLength="79.6377" x="1078.96" y="517.3544">creates with</text></g><!--link BootstrapCLI to CW--><g class="link" data-entity-1="BootstrapCLI" data-entity-2="CW" data-source-line="90" data-uid="lnk43" id="link_BootstrapCLI_CW"><path d="M834.12,454.0946 C834.12,471.9346 834.12,493.2846 834.12,493.2846 C834.12,493.2846 2000.78,493.2846 2000.78,493.2846 C2000.78,493.2846 2000.78,555.7446 2000.78,593.1746" fill="none" id="BootstrapCLI-to-CW" style="stroke:#000000;stroke-width:1;"/><polygon fill="#000000" points="2000.78,599.1746,2004.78,590.1746,2000.78,594.1746,1996.78,590.1746,2000.78,599.1746" style="stroke:#000000;stroke-width:1;"/><text fill="#000000" font-family="Verdana" font-size="13" lengthAdjust="spacing" textLength="47.5122" x="1402.8" y="490.3544">creates</text></g><!--link BootstrapEmb to UC--><g class="link" data-entity-1="BootstrapEmb" data-entity-2="UC" data-source-line="92" data-uid="lnk44" id="link_BootstrapEmb_UC"><path d="M1339.05,454.0846 C1339.05,523.1746 1339.05,717.1146 1339.05,785.9946" fill="none" id="BootstrapEmb-to-UC" style="stroke:#000000;stroke-width:1;"/><polygon fill="#000000" points="1339.05,791.9946,1343.05,782.9946,1339.05,786.9946,1335.05,782.9946,1339.05,791.9946" style="stroke:#000000;stroke-width:1;"/><text fill="#000000" font-family="Verdana" font-size="13" lengthAdjust="spacing" textLength="79.6377" x="1259.05" y="620.1144">creates with</text></g><!--link BootstrapEmb to UW--><g class="link" data-entity-1="BootstrapEmb" data-entity-2="UW" data-source-line="93" data-uid="lnk45" id="link_BootstrapEmb_UW"><path d="M1282.11,454.2146 C1282.11,457.7746 1282.11,460.2846 1282.11,460.2846 C1282.11,460.2846 2212,460.2846 2212,460.2846 C2212,460.2846 2212,547.7046 2212,592.9546" fill="none" id="BootstrapEmb-to-UW" style="stroke:#000000;stroke-width:1;"/><polygon fill="#000000" points="2212,598.9546,2216,589.9546,2212,593.9546,2208,589.9546,2212,598.9546" style="stroke:#000000;stroke-width:1;"/><text fill="#000000" font-family="Verdana" font-size="13" lengthAdjust="spacing" textLength="47.5122" x="1765.36" y="474.3544">creates</text></g><!--link BootstrapWeb to UC--><g class="link" data-entity-1="BootstrapWeb" data-entity-2="UC" data-source-line="95" data-uid="lnk46" id="link_BootstrapWeb_UC"><path d="M1728.33,454.2646 C1728.33,459.3846 1728.33,463.2846 1728.33,463.2846 C1728.33,463.2846 1391.76,463.2846 1391.76,463.2846 C1391.76,463.2846 1391.76,706.4046 1391.76,785.7146" fill="none" id="BootstrapWeb-to-UC" style="stroke:#000000;stroke-width:1;"/><polygon fill="#000000" points="1391.76,791.7146,1395.76,782.7146,1391.76,786.7146,1387.76,782.7146,1391.76,791.7146" style="stroke:#000000;stroke-width:1;"/><text fill="#000000" font-family="Verdana" font-size="13" lengthAdjust="spacing" textLength="79.6377" x="1320.34" y="477.3544">creates with</text></g><!--link BootstrapWeb to WW--><g class="link" data-entity-1="BootstrapWeb" data-entity-2="WW" data-source-line="96" data-uid="lnk47" id="link_BootstrapWeb_WW"><path d="M1775.67,453.9746 C1775.67,455.9946 1775.67,457.2846 1775.67,457.2846 C1775.67,457.2846 2389,457.2846 2389,457.2846 C2389,457.2846 2389,547.4146 2389,593.2246" fill="none" id="BootstrapWeb-to-WW" style="stroke:#000000;stroke-width:1;"/><polygon fill="#000000" points="2389,599.2246,2393,590.2246,2389,594.2246,2385,590.2246,2389,599.2246" style="stroke:#000000;stroke-width:1;"/><text fill="#000000" font-family="Verdana" font-size="13" lengthAdjust="spacing" textLength="47.5122" x="2103.65" y="454.3544">creates</text></g><!--link CLI to UC--><g class="link" data-entity-1="CLI" data-entity-2="UC" data-source-line="99" data-uid="lnk48" id="link_CLI_UC"><path d="M140.43,646.9146 C140.43,692.0646 140.43,785.2846 140.43,785.2846 C140.43,785.2846 1253.64,785.2846 1253.64,785.2846 C1253.64,785.2846 1253.64,781.9646 1253.64,785.7246" fill="none" id="CLI-to-UC" style="stroke:#000000;stroke-width:1;"/><polygon fill="#000000" points="1253.64,791.7246,1257.64,782.7246,1253.64,786.7246,1249.64,782.7246,1253.64,791.7246" style="stroke:#000000;stroke-width:1;"/><text fill="#000000" font-family="Verdana" font-size="13" lengthAdjust="spacing" textLength="126.6357" x="504.07" y="782.3544">uses (via interface)</text></g><!--link CLI to Cmds--><g class="link" data-entity-1="CLI" data-entity-2="Cmds" data-source-line="100" data-uid="lnk49" id="link_CLI_Cmds"><path d="M83.57,646.9346 C83.57,698.4846 83.57,815.2846 83.57,815.2846 C83.57,815.2846 821.55,815.2846 1040.24,815.2846" fill="none" id="CLI-to-Cmds" style="stroke:#000000;stroke-width:1;"/><polygon fill="#000000" points="1046.24,815.2846,1037.24,811.2846,1041.24,815.2846,1037.24,819.2846,1046.24,815.2846" style="stroke:#000000;stroke-width:1;"/><text fill="#000000" font-family="Verdana" font-size="13" lengthAdjust="spacing" textLength="29.5166" x="450.72" y="812.3544">uses</text></g><!--link UC to Ports--><g class="link" data-entity-1="UC" data-entity-2="Ports" data-source-line="103" data-uid="lnk50" id="link_UC_Ports"><path d="M1402.77,839.6546 C1402.77,879.5846 1402.77,955.2846 1402.77,955.2846 C1402.77,955.2846 1450.79,955.2846 1500.49,955.2846" fill="none" id="UC-to-Ports" style="stroke:#000000;stroke-width:1;"/><polygon fill="#000000" points="1506.49,955.2846,1497.49,951.2846,1501.49,955.2846,1497.49,959.2846,1506.49,955.2846" style="stroke:#000000;stroke-width:1;"/><text fill="#000000" font-family="Verdana" font-size="13" lengthAdjust="spacing" textLength="143.9204" x="1258.77" y="963.4044">depends on interfaces</text></g><!--link UC to VOs--><g class="link" data-entity-1="UC" data-entity-2="VOs" data-source-line="104" data-uid="lnk51" id="link_UC_VOs"><path d="M1294,839.3646 C1294,890.0546 1294,1002.4846 1294,1053.1246" fill="none" id="UC-to-VOs" style="stroke:#000000;stroke-width:1;"/><polygon fill="#000000" points="1294,1059.1246,1298,1050.1246,1294,1054.1246,1290,1050.1246,1294,1059.1246" style="stroke:#000000;stroke-width:1;"/><text fill="#000000" font-family="Verdana" font-size="13" lengthAdjust="spacing" textLength="96.1035" x="1197" y="946.3144">creates Person</text></g><!--link UC to Errors--><!--link CW to Ports--><g class="link" data-entity-1="CW" data-entity-2="Ports" data-source-line="108" data-uid="lnk53" id="link_CW_Ports"><path d="M2023,646.8546 C2023,721.3146 2023,944.2846 2023,944.2846 C2023,944.2846 1801.52,944.2846 1675.56,944.2846" fill="none" id="CW-to-Ports" style="stroke:#000000;stroke-width:1;"/><polygon fill="#000000" points="1669.56,944.2846,1678.56,948.2846,1674.56,944.2846,1678.56,940.2846,1669.56,944.2846" style="stroke:#000000;stroke-width:1;"/><text fill="#000000" font-family="Verdana" font-size="13" lengthAdjust="spacing" textLength="147.4878" x="1847" y="941.3544">implements WriterPort</text></g><!--link UW to Ports--><g class="link" data-entity-1="UW" data-entity-2="Ports" data-source-line="109" data-uid="lnk54" id="link_UW_Ports"><path d="M2212,646.8646 C2212,723.0646 2212,955.2846 2212,955.2846 C2212,955.2846 1844.25,955.2846 1675.26,955.2846" fill="none" id="UW-to-Ports" style="stroke:#000000;stroke-width:1;"/><polygon fill="#000000" points="1669.26,955.2846,1678.26,959.2846,1674.26,955.2846,1678.26,951.2846,1669.26,955.2846" style="stroke:#000000;stroke-width:1;"/><text fill="#000000" font-family="Verdana" font-size="13" lengthAdjust="spacing" textLength="147.4878" x="1946.84" y="969.3544">implements WriterPort</text></g><!--link WW to Ports--><g class="link" data-entity-1="WW" data-entity-2="Ports" data-source-line="110" data-uid="lnk55" id="link_WW_Ports"><path d="M2389,646.9046 C2389,724.9846 2389,967.2846 2389,967.2846 C2389,967.2846 1878.85,967.2846 1675.21,967.2846" fill="none" id="WW-to-Ports" style="stroke:#000000;stroke-width:1;"/><polygon fill="#000000" points="1669.21,967.2846,1678.21,971.2846,1674.21,967.2846,1678.21,963.2846,1669.21,967.2846" style="stroke:#000000;stroke-width:1;"/><text fill="#000000" font-family="Verdana" font-size="13" lengthAdjust="spacing" textLength="147.4878" x="2190.3" y="964.3544">implements WriterPort</text></g><!--link Ports to Errors--><g class="link" data-entity-1="Ports" data-entity-2="Errors" data-source-line="113" data-uid="lnk56" id="link_Ports_Errors"><path d="M1535,979.6546 C1535,1002.3646 1535,1030.3246 1535,1052.9946" fill="none" id="Ports-to-Errors" style="stroke:#000000;stroke-width:1;"/><polygon fill="#000000" points="1535,1058.9946,1539,1049.9946,1535,1053.9946,1531,1049.9946,1535,1058.9946" style="stroke:#000000;stroke-width:1;"/><text fill="#000000" font-family="Verdana" font-size="13" lengthAdjust="spacing" textLength="74.5596" x="1460" y="1016.3944">uses Result</text></g><g class="legend" data-source-line="138"><rect fill="none" height="588.498" rx="7.5" ry="7.5" style="stroke:#000000;stroke-width:1;" width="556" x="1896" y="1133.2846"/><text fill="#000000" font-family="Verdana" font-size="14" font-weight="bold" lengthAdjust="spacing" textLength="183.0391" x="1901" y="1152.3598">Why This Architecture?</text><text fill="#000000" font-family="Verdana" font-size="14" lengthAdjust="spacing" textLength="546" x="1901" y="1169.3745">&#9552;&#9552;&#9552;&#9552;&#9552;&#9552;&#9552;&#9552;&#9552;&#9552;&#9552;&#9552;&#9552;&#9552;&#9552;&#9552;&#9552;&#9552;&#9552;&#9552;&#9552;&#9552;&#9552;&#9552;&#9552;&#9552;&#9552;&#9552;&#9552;&#9552;&#9552;&#9552;&#9552;&#9552;&#9552;&#9552;&#9552;&#9552;&#9552;</text><text fill="#000000" font-family="Verdana" font-size="14" lengthAdjust="spacing" textLength="4.9219" x="1901" y="1186.3891">&#160;</text><text fill="#000000" font-family="Verdana" font-size="14" font-weight="bold" lengthAdjust="spacing" textLength="314.7949" x="1901" y="1203.4038">1. application/usecase (Business Logic)</text><text fill="#000000" font-family="Verdana" font-size="14" lengthAdjust="spacing" textLength="204.0186" x="1901" y="1220.4184">&#8226; Depends only on interfaces</text><text fill="#000000" font-family="Verdana" font-size="14" lengthAdjust="spacing" textLength="201.127" x="1901" y="1237.433">&#8226; Platform agnostic, testable</text><text fill="#000000" font-family="Verdana" font-size="14" lengthAdjust="spacing" textLength="248.0215" x="1901" y="1254.4477">&#8226; Shared by ALL bootstrap variants</text><text fill="#000000" font-family="Verdana" font-size="14" lengthAdjust="spacing" textLength="232.6816" x="1901" y="1271.4623">&#8226; No infrastructure dependencies</text><text fill="#000000" font-family="Verdana" font-size="14" lengthAdjust="spacing" textLength="4.9219" x="1901" y="1288.477">&#160;</text><text fill="#000000" font-family="Verdana" font-size="14" font-weight="bold" lengthAdjust="spacing" textLength="301.1572" x="1901" y="1305.4916">2. bootstrap/xxx (Composition Roots)</text><text fill="#000000" font-family="Verdana" font-size="14" lengthAdjust="spacing" textLength="253.2783" x="1901" y="1322.5063">&#8226; Creates concrete implementations</text><text fill="#000000" font-family="Verdana" font-size="14" lengthAdjust="spacing" textLength="244.3096" x="1901" y="1339.5209">&#8226; Wires infrastructure to use cases</text><text fill="#000000" font-family="Verdana" font-size="14" lengthAdjust="spacing" textLength="252.6289" x="1901" y="1356.5356">&#8226; One bootstrap per target platform</text><text fill="#000000" font-family="Verdana" font-size="14" lengthAdjust="spacing" textLength="190.21" x="1901" y="1373.5502">&#8226; Single place for all wiring</text><text fill="#000000" font-family="Verdana" font-size="14" lengthAdjust="spacing" textLength="4.9219" x="1901" y="1390.5649">&#160;</text><text fill="#000000" font-family="Verdana" font-size="14" font-weight="bold" lengthAdjust="spacing" textLength="210.6357" x="1901" y="1407.5795">3. presentation (Adapters)</text><text fill="#000000" font-family="Verdana" font-size="14" lengthAdjust="spacing" textLength="180.2568" x="1901" y="1424.5942">&#8226; CLI, Web, GUI adapters</text><text fill="#000000" font-family="Verdana" font-size="14" lengthAdjust="spacing" textLength="278.4756" x="1901" y="1441.6088">&#8226; Converts external input to commands</text><text fill="#000000" font-family="Verdana" font-size="14" lengthAdjust="spacing" textLength="234.1035" x="1901" y="1458.6235">&#8226; Maps results to external format</text><text fill="#000000" font-family="Verdana" font-size="14" lengthAdjust="spacing" textLength="4.9219" x="1901" y="1475.6381">&#160;</text><text fill="#000000" font-family="Verdana" font-size="14" font-weight="bold" lengthAdjust="spacing" textLength="149.8301" x="1901" y="1492.6528">Platform Flexibility</text><text fill="#000000" font-family="Verdana" font-size="14" lengthAdjust="spacing" textLength="546" x="1901" y="1509.6674">&#9552;&#9552;&#9552;&#9552;&#9552;&#9552;&#9552;&#9552;&#9552;&#9552;&#9552;&#9552;&#9552;&#9552;&#9552;&#9552;&#9552;&#9552;&#9552;&#9552;&#9552;&#9552;&#9552;&#9552;&#9552;&#9552;&#9552;&#9552;&#9552;&#9552;&#9552;&#9552;&#9552;&#9552;&#9552;&#9552;&#9552;&#9552;&#9552;</text><text fill="#000000" font-family="Verdana" font-size="14" lengthAdjust="spacing" textLength="240.625" x="1901" y="1526.6821">&#8226; CLI: console.Writer (fmt.Println)</text><text fill="#000000" font-family="Verdana" font-size="14" lengthAdjust="spacing" textLength="264.1885" x="1901" y="1543.6967">&#8226; Embedded: uart.Writer (serial port)</text><text fill="#000000" font-family="Verdana" font-size="14" lengthAdjust="spacing" textLength="211.9141" x="1901" y="1560.7114">&#8226; Web: web.Writer (DOM API)</text><text fill="#000000" font-family="Verdana" font-size="14" lengthAdjust="spacing" textLength="270.2588" x="1901" y="1577.726">&#8226; Test: mock.Writer (captured output)</text><text fill="#000000" font-family="Verdana" font-size="14" lengthAdjust="spacing" textLength="4.9219" x="1901" y="1594.7407">&#160;</text><text fill="#000000" font-family="Verdana" font-size="14" font-weight="bold" lengthAdjust="spacing" textLength="90.8359" x="1901" y="1611.7553">Key Insight</text><text fill="#000000" font-family="Verdana" font-size="14" lengthAdjust="spacing" textLength="546" x="1901" y="1628.77">&#9552;&#9552;&#9552;&#9552;&#9552;&#9552;&#9552;&#9552;&#9552;&#9552;&#9552;&#9552;&#9552;&#9552;&#9552;&#9552;&#9552;&#9552;&#9552;&#9552;&#9552;&#9552;&#9552;&#9552;&#9552;&#9552;&#9552;&#9552;&#9552;&#9552;&#9552;&#9552;&#9552;&#9552;&#9552;&#9552;&#9552;&#9552;&#9552;</text><text fill="#000000" font-family="Verdana" font-size="14" lengthAdjust="spacing" textLength="199.2881" x="1901" y="1645.7846">Business logic in usecase is:</text><text fill="#000000" font-family="Verdana" font-size="14" lengthAdjust="spacing" textLength="219.9561" x="1901" y="1662.7993">&#9989; Interface-based (mockable)</text><text fill="#000000" font-family="Verdana" font-size="14" lengthAdjust="spacing" textLength="216.21" x="1901" y="1679.8139">&#9989; Shared across all platforms</text><text fill="#000000" font-family="Verdana" font-size="14" lengthAdjust="spacing" textLength="175.4268" x="1901" y="1696.8286">&#9989; Zero code duplication</text><text fill="#000000" font-family="Verdana" font-size="14" lengthAdjust="spacing" textLength="188.4287" x="1901" y="1713.8432">&#9989; Easy to test in isolation</text></g><!--SRC=[nLTBRnit4BxlhvWwXwnSMtAIneXrQ26lfTIeNGkE5G5z0A5sQOdDBhaWkOc58a0llVVIMq_zQVab7JxsGKbEVKeC0_PoXiEPZpFV3B_IArfGA7F2UAJUCbuIIGh86QTwNL8GKgz4Hy15HXKjuVYeioW9VsiMNnn5aMOwft11rbJI34PbcREKQ2OuZ6IwOfgckfBq5vw8eXIAMScr41g-XcbEzAsG1KnoUiSMB6Tw3V5BqOkYagHloPB2tfXhkOQfO5pl0L7WlX-DZoQJyH7y7W6anZ2dNCDUMcI3fQHKKpaeCC3-KjXDboPOm5Wq1ScMAmtYjbu4UFFcpLBO_-fJpTx8hZ2qBT7oakbLjUZZMOD-lpzOO01AIr8EqfpjETNRYgTsPzopVhaVeVhZEwPZrEjVLoZhMT67-cJyItbcNOi-TE8-hKzmqDemcZMx18yGWjFa30-BMjVtDd5MTglzpxlL0IoC8pWZkJWt9vmTdvpSluiM2vfbD0ktZel5_szzJnVXhZbjTzbjuNLr7VFexkzl1hk_xqM7a4XAD5L0yXmoMYB8bAUCgaPXpYIA6R-L1ErMDaqRuJN5Jwu0yrAZ_vcJD3VrAVym-iQ_IMMi3c7iSMhyUtLp-Upf0TJuWIPoIRLw-2c8rjOfk3QOZrvTDgVWmaWfF2HVxpx1968twwO82TwJgzysyRhBRUvzCtwoLO2OvIzD0UB558Ixl70N5iPHNo9U8URPA2Cbrgpt-n2cH2fpTN9P5MXN-UK4xr91fIYaH56_U4bAl2OfXLIWHNjXzQQPjTJIqi3gtbTsNVvguyTL7_RunUJv-6GpR7J9UEH2nmCJ_B0RPmayIfB994d23LCa5GKnaXgLjoIbgkTmDikXfWVILN5IP2hQmdAMU2XFAuKqhXHSY2LBMpHhcYLBBfHcgLy_hq_Vhez3j7P3bIOBv7R6WIcHMr2iqPt8dGU5r07F2chuZYVF9fEjh14SxTF-N6AxS9kI-GR2HEgkVBOXHpRfYkVpmBSpONYvuvDRQ59vSZ8-tdJgDSah2bUBtx21EVHVNstSpTXa4lQnQwggtBSdcuZcyCU-LM5EDaKRcPu3Xvbupm-_3QbsY3bjijls2BExRG3lcMHy6GNgjGs_rN7TRXNCmKO3RUdLFPRc7KDHmEKFi1IexRPa-Fq1bhfgyy3Iuu27mgJT2hWoPH-_OmIQ8ki5MgQMl9unFVEi4ff5KxM-AzcXboj03zhoxIfYcdI2crAf1BVodrSCkPx_wlLygk3P6wM3CqTEBUz1QGa1hsRJYuwEItiZY6OFLPm_LD60RXKCwsQsQYAtS1Y4KIFkIi5i-nxfAJSKPNBN4fOMfQEh3YTsQ6O7Utty-w_FyujdZTzHkTOhz1PMrDo26aO1InukC3qoY0k1h88EzwBxo1MR3iSkf7raTgNRWNox6EnlILB7zbxYyCQFTYAmG2w4rgBO78fSJpvz7jqx67rEEDrqXSoEXQ0xEMtZzD06qoV4lWtqDcJDZ1JFHjStcr8aVeZFhYxDUZZB3OYRAWBySheq7xPtMg3cgpNSh9WANYlVVLwu0kYiLq_wkn86uh16UixDF_w5iuQKSD8BcSafRANfGJSzZSQh5J4FkCKQHXSNBS3mZaX6t0ncr7uK6p27X6czVzhlND3TtHt4Mu-IrlLwJhylLRpQhcdTzDPw6gprhZZjE5zYVtU3htdnMWJgSB7GS_iEnla7r-qxmNTQ6yIpFfJTTXFx8RNh-iNvWPcn3-3bx1nykjME988ZesZpXC1LJd9qlgoqyTbNUQrf9rXfYTEFi7w3SPTevywkj_8NpD86W264qnl4juNkJn57dVEUrwkVFzWasZaEOaKnjNBRv6fDH7C8xJ1dInj6q_DQRhh540m5DnefmbwPr1MLHe1x3gyVw1gfMvaw_w8mDHMRcueritHTpAx1VFpdpq-t6AFWQvEaKYZtegspMNcDdwWKzja3MTNmXfUDYR9Zg2duO9WtlEW8CVeF]--></g></svg>